M48
; DRILL file {KiCad 7.0.1} date Wed Feb 21 01:37:05 2024
; FORMAT={-:-/ absolute / inch / decimal}
; #@! TF.CreationDate,2024-02-21T01:37:05-05:00
; #@! TF.GenerationSoftware,Kicad,Pcbnew,7.0.1
; #@! TF.FileFunction,Plated,1,4,PTH
FMAT,2
INCH
; #@! TA.AperFunction,Plated,PTH,ViaDrill
T1C0.0118
; #@! TA.AperFunction,Plated,PTH,ViaDrill
T2C0.0197
; #@! TA.AperFunction,Plated,PTH,ComponentDrill
T3C0.0197
; #@! TA.AperFunction,Plated,PTH,ComponentDrill
T4C0.0236
; #@! TA.AperFunction,Plated,PTH,ComponentDrill
T5C0.0315
; #@! TA.AperFunction,Plated,PTH,ComponentDrill
T6C0.0394
; #@! TA.AperFunction,Plated,PTH,ViaDrill
T7C0.0787
; #@! TA.AperFunction,Plated,PTH,ComponentDrill
T8C0.0906
; #@! TA.AperFunction,Plated,PTH,ComponentDrill
T9C0.1063
%
G90
G05
T1
X6.5449Y-3.9642
X6.5688Y-3.9815
X6.6161Y-2.5354
X6.6161Y-2.6054
X6.6161Y-2.6854
X6.6161Y-2.7554
X6.7961Y-2.9054
X6.8061Y-2.9654
X6.9252Y-3.3386
X6.9564Y-3.8682
X6.9717Y-4.0169
X7.0232Y-4.0185
X7.0457Y-3.685
X7.0578Y-3.1784
X7.0669Y-3.1339
X7.072Y-4.0016
X7.1173Y-4.015
X7.126Y-3.2441
X7.1471Y-3.063
X7.1536Y-2.8267
X7.1683Y-3.0197
X7.1685Y-3.8646
X7.1732Y-3.2402
X7.2205Y-2.7992
X7.2283Y-3.3386
X7.2457Y-3.6488
X7.2461Y-2.7512
X7.2602Y-3.8673
X7.2874Y-3.3465
X7.2992Y-2.911
X7.311Y-3.1378
X7.3177Y-3.411
X7.3189Y-2.8976
X7.3346Y-3.1575
X7.3386Y-2.874
X7.3488Y-3.4429
X7.3496Y-2.998
X7.3622Y-3.2815
X7.374Y-3.1969
X7.3819Y-3.4646
X7.3937Y-2.9528
X7.3996Y-3.1083
X7.4043Y-3.1394
X7.4094Y-2.7047
X7.4094Y-3.2362
X7.4098Y-2.7437
X7.4103Y-3.3677
X7.4154Y-3.1722
X7.4173Y-3.0354
X7.4351Y-3.4469
X7.4449Y-2.815
X7.4567Y-3.2835
X7.4588Y-2.99
X7.4807Y-3.4315
X7.4921Y-2.7756
X7.4921Y-2.9567
X7.4945Y-3.2528
X7.5079Y-3.326
X7.5106Y-3.3823
X7.5276Y-2.9646
X7.5276Y-3.437
X7.549Y-2.9895
X7.5531Y-3.5768
X7.5643Y-3.049
X7.576Y-3.013
X7.5797Y-2.8356
X7.5906Y-3.252
X7.6102Y-3.2244
X7.6201Y-3.0561
X7.6212Y-3.1138
X7.6252Y-3.163
X7.6369Y-3.2008
X7.6369Y-3.0803
X7.6417Y-2.8228
X7.6433Y-3.1358
X7.6491Y-2.9607
X7.6654Y-2.8543
X7.6654Y-3.1772
X7.6673Y-3.0988
X7.6729Y-2.9849
X7.6878Y-3.1516
X7.7008Y-3.0183
X7.702Y-2.6902
X7.7177Y-2.8909
X7.7283Y-3.0374
X7.7453Y-2.9193
X7.75Y-3.3559
X7.7625Y-3.2638
X7.7685Y-3.1307
X7.7693Y-3.3343
X7.7732Y-2.9465
X7.7904Y-2.9646
X7.8018Y-3.2332
X7.811Y-3.1565
X7.8351Y-3.1075
X7.8386Y-2.6289
X7.8457Y-2.5614
X7.8996Y-3.0585
X7.9882Y-2.8394
X8.0298Y-3.1056
X8.0356Y-2.9884
X8.0492Y-2.5827
X8.0507Y-3.0848
X8.0524Y-2.785
X8.1908Y-3.2841
X8.2283Y-2.6575
X8.2283Y-2.9449
X8.2398Y-3.2571
X8.3415Y-2.7844
X8.3484Y-3.3425
X8.3622Y-2.9134
X8.3701Y-2.624
X8.3839Y-2.5531
X8.3858Y-2.4823
X8.4173Y-3.4685
X8.4449Y-2.3228
X8.4449Y-2.4331
X8.4961Y-3.126
X8.4961Y-3.2244
X8.5512Y-3.126
X8.5512Y-3.2087
X8.6142Y-2.9488
X8.6614Y-3.3031
X8.6845Y-2.9488
X8.687Y-2.5512
X8.689Y-2.4803
X8.7008Y-2.622
X8.7402Y-3.122
X8.7402Y-3.1969
X8.753Y-3.8132
X8.7559Y-3.5433
X8.7795Y-2.622
X8.7913Y-2.5512
X8.7933Y-2.4803
X8.8346Y-2.9134
X8.8425Y-3.3849
X8.8543Y-2.3189
X8.8543Y-2.4331
X8.9134Y-3.5433
X8.9409Y-3.1024
X8.9961Y-2.9528
X9.0197Y-3.6024
X9.0394Y-3.126
X9.0394Y-3.185
X9.0945Y-2.5512
X9.0965Y-2.4803
X9.1063Y-3.4803
X9.1102Y-2.622
X9.1107Y-3.6654
X9.1378Y-3.122
X9.1378Y-3.1703
X9.1826Y-3.6654
X9.2008Y-3.0472
X9.2087Y-2.9528
X9.2598Y-3.6535
X9.2717Y-2.0906
X9.2717Y-2.1654
X9.2795Y-2.9528
X9.311Y-2.4449
X9.311Y-2.5177
X9.311Y-2.5827
X9.3169Y-2.3366
X9.376Y-2.3366
X9.3819Y-2.4409
X9.3839Y-2.5177
X9.3839Y-2.5827
X9.4213Y-2.0866
X9.4213Y-2.1693
X9.4961Y-2.9675
X9.5917Y-3.1087
T2
X6.4173Y-2.5591
X6.4173Y-2.7559
X6.4173Y-2.9528
X6.4173Y-3.1496
X6.4173Y-3.3465
X6.4173Y-3.5433
X6.4173Y-3.7402
X6.4173Y-3.937
X6.4228Y-2.315
X6.6929Y-4.2126
X6.6933Y-4.1362
X6.8898Y-4.2126
X7.0866Y-4.2126
X7.2835Y-4.2126
X7.4803Y-4.2126
X7.6772Y-4.2126
X7.8319Y-4.1543
X7.8335Y-2.3353
X8.2409Y-4.2161
X8.3032Y-3.1142
X8.3484Y-2.9833
X8.3632Y-2.378
X8.3996Y-4.2161
X8.5197Y-2.7835
X8.5394Y-4.2161
X8.689Y-4.215
X8.8228Y-2.7835
X8.8583Y-4.2126
X8.9449Y-2.9094
X9.0551Y-4.2126
X9.252Y-4.2126
X9.3268Y-3.4173
X9.3661Y-2.7835
X9.4134Y-2.9094
X9.4488Y-4.2126
X9.6181Y-3.3071
X9.6545Y-2.4636
X9.7185Y-3.5587
X9.7244Y-2.3622
X9.7244Y-2.5591
X9.7244Y-2.7559
X9.7244Y-2.9528
T3
X6.4163Y-2.1654
X6.4163Y-4.1339
X6.4397Y-2.109
X6.4397Y-2.2217
X6.4397Y-4.0775
X6.4397Y-4.1902
X6.4961Y-2.0856
X6.4961Y-2.2451
X6.4961Y-4.0541
X6.4961Y-4.2136
X6.5524Y-2.109
X6.5524Y-2.2217
X6.5524Y-4.0775
X6.5524Y-4.1902
X6.5758Y-2.1654
X6.5758Y-4.1339
X9.5659Y-2.1654
X9.5659Y-4.1339
X9.5893Y-2.109
X9.5893Y-2.2217
X9.5893Y-4.0775
X9.5893Y-4.1902
X9.6457Y-2.0856
X9.6457Y-2.2451
X9.6457Y-4.0541
X9.6457Y-4.2136
X9.702Y-2.109
X9.702Y-2.2217
X9.702Y-4.0775
X9.702Y-4.1902
X9.7254Y-2.1654
X9.7254Y-4.1339
T5
X9.0856Y-3.8132
X9.0856Y-4.1132
X9.1856Y-3.8132
X9.1856Y-4.1132
X9.2856Y-3.8132
X9.2856Y-4.1132
X9.3856Y-3.8132
X9.3856Y-4.1132
T6
X6.8419Y-2.1191
X6.8419Y-2.2191
X6.9183Y-3.1073
X6.9183Y-3.2073
X6.9248Y-3.461
X6.9248Y-3.561
X6.9248Y-3.661
X6.9248Y-3.761
X6.9419Y-2.1191
X6.9419Y-2.2191
X6.9498Y-2.4502
X6.9498Y-2.5502
X7.0419Y-2.1191
X7.0419Y-2.2191
X7.0498Y-2.4502
X7.0498Y-2.5502
X7.1419Y-2.1191
X7.1419Y-2.2191
X7.1498Y-2.4502
X7.1498Y-2.5502
X7.2419Y-2.1191
X7.2419Y-2.2191
X7.2498Y-2.4502
X7.2498Y-2.5502
X7.3419Y-2.1191
X7.3419Y-2.2191
X7.3498Y-2.4502
X7.3498Y-2.5502
X7.4419Y-2.1191
X7.4419Y-2.2191
X7.4498Y-2.4502
X7.4498Y-2.5502
X7.5498Y-2.4502
X7.5498Y-2.5502
X7.6215Y-2.1191
X7.6215Y-2.2191
X7.6498Y-2.4502
X7.6498Y-2.5502
X7.7215Y-2.1191
X7.7215Y-2.2191
X7.8215Y-2.1191
X7.8215Y-2.2191
X7.8744Y-3.5665
X7.9144Y-2.3809
X7.9215Y-2.1191
X7.9215Y-2.2191
X7.9744Y-3.5665
X8.0144Y-2.3809
X8.0215Y-2.1191
X8.0215Y-2.2191
X8.0744Y-3.5665
X8.1215Y-2.1191
X8.1215Y-2.2191
X8.1744Y-3.5665
X8.2215Y-2.1191
X8.2215Y-2.2191
X8.3689Y-3.7972
X8.4689Y-3.7972
X8.5689Y-3.7972
X9.6917Y-3.6839
X9.6917Y-3.7839
X9.6917Y-3.8839
T7
X7.5079Y-3.1378
T8
X6.6299Y-3.3673
X6.6299Y-3.8846
T9
X6.4961Y-2.1654
X6.4961Y-4.1339
X9.6457Y-2.1654
X9.6457Y-4.1339
T4
G00X6.8828Y-3.9444
M15
G01X6.8828Y-3.9877
M16
G05
G00X6.8828Y-4.1188
M15
G01X6.8828Y-4.1424
M16
G05
G00X7.2229Y-3.9444
M15
G01X7.2229Y-3.9877
M16
G05
G00X7.2229Y-4.1188
M15
G01X7.2229Y-4.1424
M16
G05
T5
G00X7.537Y-3.6969
M15
G01X7.6394Y-3.6969
M16
G05
G00X7.5449Y-3.9252
M15
G01X7.6315Y-3.9252
M16
G05
G00X7.7772Y-3.8583
M15
G01X7.7772Y-3.7717
M16
G05
T0
M30
