%TF.GenerationSoftware,KiCad,Pcbnew,7.0.1*%
%TF.CreationDate,2024-02-21T01:36:57-05:00*%
%TF.ProjectId,12-30-23-Teacup.kicad_pcb-revC,31322d33-302d-4323-932d-546561637570,B*%
%TF.SameCoordinates,Original*%
%TF.FileFunction,Copper,L1,Top*%
%TF.FilePolarity,Positive*%
%FSLAX46Y46*%
G04 Gerber Fmt 4.6, Leading zero omitted, Abs format (unit mm)*
G04 Created by KiCad (PCBNEW 7.0.1) date 2024-02-21 01:36:57*
%MOMM*%
%LPD*%
G01*
G04 APERTURE LIST*
G04 Aperture macros list*
%AMRoundRect*
0 Rectangle with rounded corners*
0 $1 Rounding radius*
0 $2 $3 $4 $5 $6 $7 $8 $9 X,Y pos of 4 corners*
0 Add a 4 corners polygon primitive as box body*
4,1,4,$2,$3,$4,$5,$6,$7,$8,$9,$2,$3,0*
0 Add four circle primitives for the rounded corners*
1,1,$1+$1,$2,$3*
1,1,$1+$1,$4,$5*
1,1,$1+$1,$6,$7*
1,1,$1+$1,$8,$9*
0 Add four rect primitives between the rounded corners*
20,1,$1+$1,$2,$3,$4,$5,0*
20,1,$1+$1,$4,$5,$6,$7,0*
20,1,$1+$1,$6,$7,$8,$9,0*
20,1,$1+$1,$8,$9,$2,$3,0*%
%AMRotRect*
0 Rectangle, with rotation*
0 The origin of the aperture is its center*
0 $1 length*
0 $2 width*
0 $3 Rotation angle, in degrees counterclockwise*
0 Add horizontal line*
21,1,$1,$2,0,0,$3*%
G04 Aperture macros list end*
%TA.AperFunction,SMDPad,CuDef*%
%ADD10RoundRect,0.237500X0.300000X0.237500X-0.300000X0.237500X-0.300000X-0.237500X0.300000X-0.237500X0*%
%TD*%
%TA.AperFunction,SMDPad,CuDef*%
%ADD11RoundRect,0.237500X-0.300000X-0.237500X0.300000X-0.237500X0.300000X0.237500X-0.300000X0.237500X0*%
%TD*%
%TA.AperFunction,SMDPad,CuDef*%
%ADD12R,1.250000X2.500000*%
%TD*%
%TA.AperFunction,SMDPad,CuDef*%
%ADD13RoundRect,0.135000X-0.185000X0.135000X-0.185000X-0.135000X0.185000X-0.135000X0.185000X0.135000X0*%
%TD*%
%TA.AperFunction,SMDPad,CuDef*%
%ADD14C,1.500000*%
%TD*%
%TA.AperFunction,SMDPad,CuDef*%
%ADD15RoundRect,0.140000X-0.219203X-0.021213X-0.021213X-0.219203X0.219203X0.021213X0.021213X0.219203X0*%
%TD*%
%TA.AperFunction,SMDPad,CuDef*%
%ADD16R,1.500000X2.000000*%
%TD*%
%TA.AperFunction,SMDPad,CuDef*%
%ADD17R,3.800000X2.000000*%
%TD*%
%TA.AperFunction,ComponentPad*%
%ADD18C,0.800000*%
%TD*%
%TA.AperFunction,ComponentPad*%
%ADD19C,5.400000*%
%TD*%
%TA.AperFunction,SMDPad,CuDef*%
%ADD20RoundRect,0.250000X-0.337500X-0.475000X0.337500X-0.475000X0.337500X0.475000X-0.337500X0.475000X0*%
%TD*%
%TA.AperFunction,SMDPad,CuDef*%
%ADD21RoundRect,0.150000X0.150000X-0.650000X0.150000X0.650000X-0.150000X0.650000X-0.150000X-0.650000X0*%
%TD*%
%TA.AperFunction,SMDPad,CuDef*%
%ADD22R,1.000000X1.600000*%
%TD*%
%TA.AperFunction,SMDPad,CuDef*%
%ADD23RoundRect,0.140000X0.219203X0.021213X0.021213X0.219203X-0.219203X-0.021213X-0.021213X-0.219203X0*%
%TD*%
%TA.AperFunction,SMDPad,CuDef*%
%ADD24RoundRect,0.237500X0.237500X-0.250000X0.237500X0.250000X-0.237500X0.250000X-0.237500X-0.250000X0*%
%TD*%
%TA.AperFunction,ComponentPad*%
%ADD25R,1.700000X1.700000*%
%TD*%
%TA.AperFunction,ComponentPad*%
%ADD26O,1.700000X1.700000*%
%TD*%
%TA.AperFunction,SMDPad,CuDef*%
%ADD27RoundRect,0.250000X0.337500X0.475000X-0.337500X0.475000X-0.337500X-0.475000X0.337500X-0.475000X0*%
%TD*%
%TA.AperFunction,SMDPad,CuDef*%
%ADD28RoundRect,0.237500X-0.250000X-0.237500X0.250000X-0.237500X0.250000X0.237500X-0.250000X0.237500X0*%
%TD*%
%TA.AperFunction,SMDPad,CuDef*%
%ADD29RoundRect,0.140000X0.021213X-0.219203X0.219203X-0.021213X-0.021213X0.219203X-0.219203X0.021213X0*%
%TD*%
%TA.AperFunction,SMDPad,CuDef*%
%ADD30R,0.950000X1.400000*%
%TD*%
%TA.AperFunction,SMDPad,CuDef*%
%ADD31R,1.750000X0.700000*%
%TD*%
%TA.AperFunction,SMDPad,CuDef*%
%ADD32R,1.000000X1.450000*%
%TD*%
%TA.AperFunction,SMDPad,CuDef*%
%ADD33R,1.550000X1.000000*%
%TD*%
%TA.AperFunction,SMDPad,CuDef*%
%ADD34R,1.500000X0.800000*%
%TD*%
%TA.AperFunction,SMDPad,CuDef*%
%ADD35R,1.500000X1.300000*%
%TD*%
%TA.AperFunction,SMDPad,CuDef*%
%ADD36R,1.500000X1.500000*%
%TD*%
%TA.AperFunction,SMDPad,CuDef*%
%ADD37R,1.400000X0.800000*%
%TD*%
%TA.AperFunction,SMDPad,CuDef*%
%ADD38R,0.600000X1.450000*%
%TD*%
%TA.AperFunction,SMDPad,CuDef*%
%ADD39R,0.300000X1.450000*%
%TD*%
%TA.AperFunction,ComponentPad*%
%ADD40O,1.000000X2.100000*%
%TD*%
%TA.AperFunction,ComponentPad*%
%ADD41O,1.000000X1.600000*%
%TD*%
%TA.AperFunction,SMDPad,CuDef*%
%ADD42R,2.510000X1.000000*%
%TD*%
%TA.AperFunction,SMDPad,CuDef*%
%ADD43R,2.500000X1.200000*%
%TD*%
%TA.AperFunction,SMDPad,CuDef*%
%ADD44RoundRect,0.150000X-0.256326X-0.468458X0.468458X0.256326X0.256326X0.468458X-0.468458X-0.256326X0*%
%TD*%
%TA.AperFunction,SMDPad,CuDef*%
%ADD45RoundRect,0.237500X0.250000X0.237500X-0.250000X0.237500X-0.250000X-0.237500X0.250000X-0.237500X0*%
%TD*%
%TA.AperFunction,SMDPad,CuDef*%
%ADD46RoundRect,0.140000X-0.021213X0.219203X-0.219203X0.021213X0.021213X-0.219203X0.219203X-0.021213X0*%
%TD*%
%TA.AperFunction,SMDPad,CuDef*%
%ADD47RotRect,0.150000X0.850000X45.000000*%
%TD*%
%TA.AperFunction,SMDPad,CuDef*%
%ADD48RotRect,0.150000X0.850000X315.000000*%
%TD*%
%TA.AperFunction,SMDPad,CuDef*%
%ADD49RotRect,5.800000X5.800000X315.000000*%
%TD*%
%TA.AperFunction,SMDPad,CuDef*%
%ADD50RoundRect,0.237500X-0.237500X0.250000X-0.237500X-0.250000X0.237500X-0.250000X0.237500X0.250000X0*%
%TD*%
%TA.AperFunction,SMDPad,CuDef*%
%ADD51RoundRect,0.140000X0.170000X-0.140000X0.170000X0.140000X-0.170000X0.140000X-0.170000X-0.140000X0*%
%TD*%
%TA.AperFunction,SMDPad,CuDef*%
%ADD52R,3.000000X1.250000*%
%TD*%
%TA.AperFunction,ComponentPad*%
%ADD53C,3.000000*%
%TD*%
%TA.AperFunction,SMDPad,CuDef*%
%ADD54RoundRect,0.237500X-0.380070X0.044194X0.044194X-0.380070X0.380070X-0.044194X-0.044194X0.380070X0*%
%TD*%
%TA.AperFunction,ComponentPad*%
%ADD55R,1.600000X2.400000*%
%TD*%
%TA.AperFunction,ComponentPad*%
%ADD56O,1.600000X2.400000*%
%TD*%
%TA.AperFunction,SMDPad,CuDef*%
%ADD57RotRect,0.900000X0.800000X45.000000*%
%TD*%
%TA.AperFunction,ComponentPad*%
%ADD58R,4.400000X1.800000*%
%TD*%
%TA.AperFunction,ComponentPad*%
%ADD59O,4.000000X1.800000*%
%TD*%
%TA.AperFunction,ComponentPad*%
%ADD60O,1.800000X4.000000*%
%TD*%
%TA.AperFunction,SMDPad,CuDef*%
%ADD61RoundRect,0.135000X0.035355X-0.226274X0.226274X-0.035355X-0.035355X0.226274X-0.226274X0.035355X0*%
%TD*%
%TA.AperFunction,SMDPad,CuDef*%
%ADD62RoundRect,0.140000X-0.140000X-0.170000X0.140000X-0.170000X0.140000X0.170000X-0.140000X0.170000X0*%
%TD*%
%TA.AperFunction,ViaPad*%
%ADD63C,0.600000*%
%TD*%
%TA.AperFunction,ViaPad*%
%ADD64C,1.000000*%
%TD*%
%TA.AperFunction,ViaPad*%
%ADD65C,3.000000*%
%TD*%
%TA.AperFunction,Conductor*%
%ADD66C,0.750000*%
%TD*%
%TA.AperFunction,Conductor*%
%ADD67C,0.200000*%
%TD*%
%TA.AperFunction,Conductor*%
%ADD68C,0.500000*%
%TD*%
%TA.AperFunction,Conductor*%
%ADD69C,1.000000*%
%TD*%
%TA.AperFunction,Conductor*%
%ADD70C,0.150000*%
%TD*%
%TA.AperFunction,Conductor*%
%ADD71C,0.180000*%
%TD*%
%TA.AperFunction,Conductor*%
%ADD72C,2.000000*%
%TD*%
G04 APERTURE END LIST*
D10*
%TO.P,C19,1*%
%TO.N,GND*%
X202922500Y-73419999D03*
%TO.P,C19,2*%
%TO.N,Net-(IC1-VREF)*%
X201197500Y-73419999D03*
%TD*%
D11*
%TO.P,C2,1*%
%TO.N,Net-(U1-VI)*%
X217737500Y-64800000D03*
%TO.P,C2,2*%
%TO.N,GND*%
X219462500Y-64800000D03*
%TD*%
D12*
%TO.P,SW2,1,A*%
%TO.N,/NOR_CE1*%
X212600000Y-103150000D03*
%TO.P,SW2,2,B*%
%TO.N,/NOR_CE*%
X215100000Y-103150000D03*
%TO.P,SW2,3,C*%
%TO.N,/NOR_CE2*%
X217600000Y-103150000D03*
%TD*%
D13*
%TO.P,R22,1*%
%TO.N,+3V3*%
X232910000Y-75600000D03*
%TO.P,R22,2*%
%TO.N,/PB27*%
X232910000Y-76620000D03*
%TD*%
D14*
%TO.P,TP8,1,1*%
%TO.N,GND*%
X245200000Y-60600000D03*
%TD*%
D15*
%TO.P,C20,1*%
%TO.N,GND*%
X183951922Y-71693954D03*
%TO.P,C20,2*%
%TO.N,Net-(IC1-EXCLK_I)*%
X184630744Y-72372776D03*
%TD*%
D16*
%TO.P,U2,1,GND*%
%TO.N,GND*%
X224900000Y-60350000D03*
%TO.P,U2,2,VO*%
%TO.N,Net-(U2-VO)*%
X227200000Y-60350000D03*
D17*
X227200000Y-54050000D03*
D16*
%TO.P,U2,3,VI*%
%TO.N,Net-(U2-VI)*%
X229500000Y-60350000D03*
%TD*%
D18*
%TO.P,H4,1,1*%
%TO.N,GND*%
X242975000Y-55000000D03*
X243568109Y-53568109D03*
X243568109Y-56431891D03*
X245000000Y-52975000D03*
D19*
X245000000Y-55000000D03*
D18*
X245000000Y-57025000D03*
X246431891Y-53568109D03*
X246431891Y-56431891D03*
X247025000Y-55000000D03*
%TD*%
D20*
%TO.P,C1,1*%
%TO.N,Net-(U1-VI)*%
X217762500Y-66600000D03*
%TO.P,C1,2*%
%TO.N,GND*%
X219837500Y-66600000D03*
%TD*%
D21*
%TO.P,U4,1,~{CS}*%
%TO.N,/NOR_CE2*%
X223860000Y-91900000D03*
%TO.P,U4,2,DO(IO1)*%
%TO.N,/NOR_DR*%
X225130000Y-91900000D03*
%TO.P,U4,3,IO2*%
%TO.N,Net-(U4-IO2)*%
X226400000Y-91900000D03*
%TO.P,U4,4,GND*%
%TO.N,GND*%
X227670000Y-91900000D03*
%TO.P,U4,5,DI(IO0)*%
%TO.N,/NOR_DT*%
X227670000Y-84700000D03*
%TO.P,U4,6,CLK*%
%TO.N,/NOR_CK*%
X226400000Y-84700000D03*
%TO.P,U4,7,IO3*%
%TO.N,Net-(U4-IO3)*%
X225130000Y-84700000D03*
%TO.P,U4,8,VCC*%
%TO.N,+3V3*%
X223860000Y-84700000D03*
%TD*%
D22*
%TO.P,S1,1*%
%TO.N,GND*%
X199925000Y-69375000D03*
%TO.P,S1,2C*%
%TO.N,Net-(IC1-BOOT_SEL0_PC00)*%
X201675000Y-67075000D03*
%TO.P,S1,3*%
%TO.N,+3V3*%
X203425000Y-69375000D03*
%TD*%
D14*
%TO.P,TP6,1,1*%
%TO.N,Net-(U3-VO)*%
X242600000Y-70200000D03*
%TD*%
D23*
%TO.P,C37,1*%
%TO.N,+0V8*%
X186529411Y-75209411D03*
%TO.P,C37,2*%
%TO.N,GND*%
X185850589Y-74530589D03*
%TD*%
D24*
%TO.P,R2,1*%
%TO.N,+5V*%
X218600000Y-70712500D03*
%TO.P,R2,2*%
%TO.N,Net-(U1-VI)*%
X218600000Y-68887500D03*
%TD*%
%TO.P,R3,1*%
%TO.N,+3V3*%
X215000000Y-70712500D03*
%TO.P,R3,2*%
%TO.N,Net-(U1-VO)*%
X215000000Y-68887500D03*
%TD*%
D18*
%TO.P,H3,1,1*%
%TO.N,GND*%
X242975000Y-105000000D03*
X243568109Y-103568109D03*
X243568109Y-106431891D03*
X245000000Y-102975000D03*
D19*
X245000000Y-105000000D03*
D18*
X245000000Y-107025000D03*
X246431891Y-103568109D03*
X246431891Y-106431891D03*
X247025000Y-105000000D03*
%TD*%
D25*
%TO.P,J12,1,Pin_1*%
%TO.N,GND*%
X200010000Y-90590000D03*
D26*
%TO.P,J12,2,Pin_2*%
%TO.N,/HPOUTL*%
X202550000Y-90590000D03*
%TO.P,J12,3,Pin_3*%
%TO.N,/MICLP*%
X205090000Y-90590000D03*
%TO.P,J12,4,Pin_4*%
%TO.N,GND*%
X207630000Y-90590000D03*
%TD*%
D27*
%TO.P,C16,1*%
%TO.N,Net-(U3-VO)*%
X240437500Y-66600000D03*
%TO.P,C16,2*%
%TO.N,GND*%
X238362500Y-66600000D03*
%TD*%
D28*
%TO.P,R18,1*%
%TO.N,+3V3*%
X220587500Y-73987500D03*
%TO.P,R18,2*%
%TO.N,/MMC0_CLK*%
X222412500Y-73987500D03*
%TD*%
D15*
%TO.P,C21,1*%
%TO.N,Net-(IC1-EXCLK_O)*%
X186855224Y-68612939D03*
%TO.P,C21,2*%
%TO.N,GND*%
X187534046Y-69291761D03*
%TD*%
%TO.P,C38,1*%
%TO.N,+3V3*%
X196100589Y-83500589D03*
%TO.P,C38,2*%
%TO.N,GND*%
X196779411Y-84179411D03*
%TD*%
D25*
%TO.P,J7,1,Pin_1*%
%TO.N,/MDCK*%
X208825000Y-53825000D03*
D26*
%TO.P,J7,2,Pin_2*%
%TO.N,/MDIO*%
X208825000Y-56365000D03*
%TO.P,J7,3,Pin_3*%
%TO.N,/RXD0*%
X206285000Y-53825000D03*
%TO.P,J7,4,Pin_4*%
%TO.N,/RXDV*%
X206285000Y-56365000D03*
%TO.P,J7,5,Pin_5*%
%TO.N,/TXCLK*%
X203745000Y-53825000D03*
%TO.P,J7,6,Pin_6*%
%TO.N,/RXD1*%
X203745000Y-56365000D03*
%TO.P,J7,7,Pin_7*%
%TO.N,/TXD0*%
X201205000Y-53825000D03*
%TO.P,J7,8,Pin_8*%
%TO.N,/PHYCLK*%
X201205000Y-56365000D03*
%TO.P,J7,9,Pin_9*%
%TO.N,/TXEN*%
X198665000Y-53825000D03*
%TO.P,J7,10,Pin_10*%
%TO.N,/TXD1*%
X198665000Y-56365000D03*
%TO.P,J7,11,Pin_11*%
%TO.N,GND*%
X196125000Y-53825000D03*
%TO.P,J7,12,Pin_12*%
X196125000Y-56365000D03*
%TO.P,J7,13,Pin_13*%
%TO.N,+3V3*%
X193585000Y-53825000D03*
%TO.P,J7,14,Pin_14*%
%TO.N,+5V*%
X193585000Y-56365000D03*
%TD*%
D28*
%TO.P,R17,1*%
%TO.N,+3V3*%
X228537500Y-73987500D03*
%TO.P,R17,2*%
%TO.N,/MMC0_CMD*%
X230362500Y-73987500D03*
%TD*%
D10*
%TO.P,C18,1*%
%TO.N,Net-(U3-VO)*%
X240062500Y-63000000D03*
%TO.P,C18,2*%
%TO.N,GND*%
X238337500Y-63000000D03*
%TD*%
D24*
%TO.P,R8,1*%
%TO.N,+3V3*%
X235600000Y-70712500D03*
%TO.P,R8,2*%
%TO.N,Net-(U3-VI)*%
X235600000Y-68887500D03*
%TD*%
D29*
%TO.P,C25,1*%
%TO.N,+1V8*%
X188960589Y-72739411D03*
%TO.P,C25,2*%
%TO.N,GND*%
X189639411Y-72060589D03*
%TD*%
D30*
%TO.P,S2,1*%
%TO.N,Net-(IC1-PPRST_)*%
X199950000Y-63975000D03*
%TO.P,S2,2*%
%TO.N,GND*%
X204100000Y-63975000D03*
%TD*%
D23*
%TO.P,C30,1*%
%TO.N,+1V8*%
X188039411Y-73889411D03*
%TO.P,C30,2*%
%TO.N,GND*%
X187360589Y-73210589D03*
%TD*%
D28*
%TO.P,R15,1*%
%TO.N,+3V3*%
X235662500Y-73987500D03*
%TO.P,R15,2*%
%TO.N,/MMC0_D2*%
X237487500Y-73987500D03*
%TD*%
D31*
%TO.P,J2,1,DAT2*%
%TO.N,/MMC0_D2*%
X246110000Y-79645000D03*
%TO.P,J2,2,DAT3/CD*%
%TO.N,/MMC0_D3*%
X246110000Y-80745000D03*
%TO.P,J2,3,CMD*%
%TO.N,/MMC0_CMD*%
X246110000Y-81845000D03*
%TO.P,J2,4,VDD*%
%TO.N,+3V3*%
X246110000Y-82945000D03*
%TO.P,J2,5,CLK*%
%TO.N,/MMC0_CLK*%
X246110000Y-84045000D03*
%TO.P,J2,6,VSS*%
%TO.N,GND*%
X246110000Y-85145000D03*
%TO.P,J2,7,DAT0*%
%TO.N,/MMC0_D0*%
X246110000Y-86245000D03*
%TO.P,J2,8,DAT1*%
%TO.N,/MMC0_D1*%
X246110000Y-87345000D03*
D32*
%TO.P,J2,9,SHIELD*%
%TO.N,GND*%
X236885000Y-88470000D03*
D33*
%TO.P,J2,10,CD*%
%TO.N,/PB27*%
X235310000Y-77245000D03*
D34*
%TO.P,J2,11*%
%TO.N,N/C*%
X238385000Y-88795000D03*
D35*
X245985000Y-88545000D03*
D36*
X245985000Y-77195000D03*
D37*
X237735000Y-76845000D03*
%TD*%
D38*
%TO.P,J1,A1,GND*%
%TO.N,GND*%
X175892500Y-99822500D03*
%TO.P,J1,A4,VBUS*%
%TO.N,+5V*%
X176692500Y-99822500D03*
D39*
%TO.P,J1,A5,CC1*%
%TO.N,Net-(J1-CC1)*%
X177892500Y-99822500D03*
%TO.P,J1,A6,D+*%
%TO.N,/USB_D+*%
X178892500Y-99822500D03*
%TO.P,J1,A7,D-*%
%TO.N,/USB_D-*%
X179392500Y-99822500D03*
%TO.P,J1,A8,SBU1*%
%TO.N,/UART0_RXD*%
X180392500Y-99822500D03*
D38*
%TO.P,J1,A9,VBUS*%
%TO.N,+5V*%
X181592500Y-99822500D03*
%TO.P,J1,A12,GND*%
%TO.N,GND*%
X182392500Y-99822500D03*
%TO.P,J1,B1,GND*%
X182392500Y-99822500D03*
%TO.P,J1,B4,VBUS*%
%TO.N,+5V*%
X181592500Y-99822500D03*
D39*
%TO.P,J1,B5,CC2*%
%TO.N,Net-(J1-CC2)*%
X180892500Y-99822500D03*
%TO.P,J1,B6,D+*%
%TO.N,/USB_D+*%
X179892500Y-99822500D03*
%TO.P,J1,B7,D-*%
%TO.N,/USB_D-*%
X178392500Y-99822500D03*
%TO.P,J1,B8,SBU2*%
%TO.N,/UART0_TXD*%
X177392500Y-99822500D03*
D38*
%TO.P,J1,B9,VBUS*%
%TO.N,+5V*%
X176692500Y-99822500D03*
%TO.P,J1,B12,GND*%
%TO.N,GND*%
X175892500Y-99822500D03*
D40*
%TO.P,J1,S1,SHIELD*%
%TO.N,Net-(J1-SHIELD)*%
X174822500Y-100737500D03*
D41*
X174822500Y-104917500D03*
D40*
X183462500Y-100737500D03*
D41*
X183462500Y-104917500D03*
%TD*%
D11*
%TO.P,C15,1*%
%TO.N,Net-(U3-VI)*%
X234737500Y-63000000D03*
%TO.P,C15,2*%
%TO.N,GND*%
X236462500Y-63000000D03*
%TD*%
D42*
%TO.P,J15,1,Pin_1*%
%TO.N,/PA15*%
X173745000Y-70085000D03*
%TO.P,J15,2,Pin_2*%
%TO.N,Net-(J15-Pin_2)*%
X177055000Y-72625000D03*
%TO.P,J15,3,Pin_3*%
%TO.N,+3V3*%
X173745000Y-75165000D03*
%TD*%
D43*
%TO.P,J10,R1*%
%TO.N,/HPOUTL*%
X201780000Y-101895000D03*
%TO.P,J10,R2*%
%TO.N,GND*%
X201780000Y-104895000D03*
%TO.P,J10,S*%
%TO.N,/MICLP*%
X208280000Y-96795000D03*
%TO.P,J10,T*%
%TO.N,/HPOUTL*%
X201780000Y-97895000D03*
%TD*%
D10*
%TO.P,C5,1*%
%TO.N,Net-(U1-VO)*%
X215862500Y-64800000D03*
%TO.P,C5,2*%
%TO.N,GND*%
X214137500Y-64800000D03*
%TD*%
D14*
%TO.P,TP1,1,1*%
%TO.N,Net-(U1-VI)*%
X221800000Y-69800000D03*
%TD*%
D44*
%TO.P,D1,1,A1*%
%TO.N,/USB_D-*%
X181119581Y-94736917D03*
%TO.P,D1,2,A2*%
%TO.N,/USB_D+*%
X182463083Y-96080419D03*
%TO.P,D1,3,common*%
%TO.N,GND*%
X183400000Y-93800000D03*
%TD*%
D10*
%TO.P,C12,1*%
%TO.N,Net-(U2-VO)*%
X226262500Y-63000000D03*
%TO.P,C12,2*%
%TO.N,GND*%
X224537500Y-63000000D03*
%TD*%
D45*
%TO.P,R19,1*%
%TO.N,+3V3*%
X218862500Y-73987500D03*
%TO.P,R19,2*%
%TO.N,/MMC0_D0*%
X217037500Y-73987500D03*
%TD*%
D46*
%TO.P,C43,1*%
%TO.N,+0V8*%
X188689411Y-86760589D03*
%TO.P,C43,2*%
%TO.N,GND*%
X188010589Y-87439411D03*
%TD*%
%TO.P,C44,1*%
%TO.N,+0V8*%
X184789411Y-83610589D03*
%TO.P,C44,2*%
%TO.N,GND*%
X184110589Y-84289411D03*
%TD*%
D47*
%TO.P,IC1,1,PWM0_SSI1_DT_PB17*%
%TO.N,/PB17*%
X190151992Y-73954757D03*
%TO.P,IC1,2,PWM1_SSI1_DR_PB18*%
%TO.N,/PB18*%
X189904505Y-74202245D03*
%TO.P,IC1,3,VDDIO_OSC*%
%TO.N,+1V8*%
X189657017Y-74449732D03*
%TO.P,IC1,4,EXCLK_O*%
%TO.N,Net-(IC1-EXCLK_O)*%
X189409530Y-74697220D03*
%TO.P,IC1,5,EXCLK_I*%
%TO.N,Net-(IC1-EXCLK_I)*%
X189162043Y-74944707D03*
%TO.P,IC1,6,PLL_VDDHV*%
%TO.N,+1V8*%
X188914555Y-75192194D03*
%TO.P,IC1,7,PPRST_*%
%TO.N,Net-(IC1-PPRST_)*%
X188667068Y-75439682D03*
%TO.P,IC1,8,EFUSE_AVD*%
%TO.N,GND*%
X188419581Y-75687169D03*
%TO.P,IC1,9,VDDIO0*%
%TO.N,+1V8*%
X188172093Y-75934656D03*
%TO.P,IC1,10,VDD_1*%
%TO.N,+0V8*%
X187924606Y-76182144D03*
%TO.P,IC1,11,SA2_PA18*%
%TO.N,/PA18*%
X187677119Y-76429631D03*
%TO.P,IC1,12,SD7_SMB0_SCK_PA13*%
%TO.N,/I2C0_SCK*%
X187429631Y-76677119D03*
%TO.P,IC1,13,SD6_SMB0_SDA_PA12*%
%TO.N,/I2C0_SDA*%
X187182144Y-76924606D03*
%TO.P,IC1,14,RD_DVP_VSYNC_SMB1_SCK_MSC1_CMD_PA17*%
%TO.N,/PA17*%
X186934656Y-77172093D03*
%TO.P,IC1,15,CS2_DVP_HSYNC_SMB1_SDA_MSC1_CLK_PA16*%
%TO.N,/PA16*%
X186687169Y-77419581D03*
%TO.P,IC1,16,SA1_DVP_MCLK_PA15*%
%TO.N,/PA15*%
X186439682Y-77667068D03*
%TO.P,IC1,17,SA0_DVP_PCLK_PWM0_PA14*%
%TO.N,/PA14*%
X186192194Y-77914555D03*
%TO.P,IC1,18,SD5_DVP_D11_UART2_RXD_MSC1_D3_PA11*%
%TO.N,/PA11*%
X185944707Y-78162043D03*
%TO.P,IC1,19,SD4_DVP_D10_UART2_TXD_MSC1_D2_PA10*%
%TO.N,/PA10*%
X185697220Y-78409530D03*
%TO.P,IC1,20,SD3_DVP_D9_UART2_RTS_MSC1_D1_PA09*%
%TO.N,/PA09*%
X185449732Y-78657017D03*
%TO.P,IC1,21,SD2_DVP_D8_UART2_CTS_MSC1_D0_PA08*%
%TO.N,/PA08*%
X185202245Y-78904505D03*
%TO.P,IC1,22,SD1_DVP_D7_UART1_RXD_PA07*%
%TO.N,/PA07*%
X184954757Y-79151992D03*
D48*
%TO.P,IC1,23,SD0_DVP6_UART1_TXD_PA06*%
%TO.N,/PA06*%
X184954757Y-80248008D03*
%TO.P,IC1,24,MIPI_DATAN0_DVP_D5*%
%TO.N,/MIPI_0_N*%
X185202245Y-80495495D03*
%TO.P,IC1,25,MIPI_DATAP0_DVP_D4*%
%TO.N,/MIPI_0_P*%
X185449732Y-80742983D03*
%TO.P,IC1,26,MIPI_CLKN_DVP_D3*%
%TO.N,/MIPI_CLK_N*%
X185697220Y-80990470D03*
%TO.P,IC1,27,MIPI_CLKP_DVP_D2*%
%TO.N,/MIPI_CLK_P*%
X185944707Y-81237957D03*
%TO.P,IC1,28,MIPI_DATAN1_DVP_D1*%
%TO.N,/MIPI_1_N*%
X186192194Y-81485445D03*
%TO.P,IC1,29,MIPI_DATAP1_DVP_D0*%
%TO.N,/MIPI_1_P*%
X186439682Y-81732932D03*
%TO.P,IC1,30,MIPI_AVD08*%
%TO.N,+0V8*%
X186687169Y-81980419D03*
%TO.P,IC1,31,MIPI_AVD18*%
%TO.N,+1V8*%
X186934656Y-82227907D03*
%TO.P,IC1,32,ADC_AUX0*%
%TO.N,/AUX0*%
X187182144Y-82475394D03*
%TO.P,IC1,33,ADC_VREF*%
%TO.N,+1V8*%
X187429631Y-82722881D03*
%TO.P,IC1,34,ADC_AVDD*%
X187677119Y-82970369D03*
%TO.P,IC1,35,USB0PN*%
%TO.N,/USB_D-*%
X187924606Y-83217856D03*
%TO.P,IC1,36,USB0PP*%
%TO.N,/USB_D+*%
X188172093Y-83465344D03*
%TO.P,IC1,37,USB_AVD33*%
%TO.N,+3V3*%
X188419581Y-83712831D03*
%TO.P,IC1,38,USB_AVD18*%
%TO.N,+1V8*%
X188667068Y-83960318D03*
%TO.P,IC1,39,VDD_2*%
%TO.N,+0V8*%
X188914555Y-84207806D03*
%TO.P,IC1,40,VDDIO2*%
%TO.N,+3V3*%
X189162043Y-84455293D03*
%TO.P,IC1,41,MICLP*%
%TO.N,/MICLP*%
X189409530Y-84702780D03*
%TO.P,IC1,42,VCM*%
%TO.N,Net-(IC1-VCM)*%
X189657017Y-84950268D03*
%TO.P,IC1,43,CODEC_AVDD*%
%TO.N,+1V8*%
X189904505Y-85197755D03*
%TO.P,IC1,44,HPOUTL*%
%TO.N,/HPOUTL*%
X190151992Y-85445243D03*
D47*
%TO.P,IC1,45,SFC_CE0_PA28*%
%TO.N,/NOR_CE*%
X191248008Y-85445243D03*
%TO.P,IC1,46,SFC_DR_PA24*%
%TO.N,/NOR_DR*%
X191495495Y-85197755D03*
%TO.P,IC1,47,SFC_DT_PA23*%
%TO.N,/NOR_DT*%
X191742983Y-84950268D03*
%TO.P,IC1,48,SFC_CLK_PA27*%
%TO.N,/NOR_CK*%
X191990470Y-84702780D03*
%TO.P,IC1,49,MSC0_D1_SSI_SLV_DR_PB01*%
%TO.N,/MMC0_D1*%
X192237957Y-84455293D03*
%TO.P,IC1,50,MSC0_D0_SSI_SLV_DT_PB00*%
%TO.N,/MMC0_D0*%
X192485445Y-84207806D03*
%TO.P,IC1,51,MSC0_CLK_SSI_SLV_CLK_PB04*%
%TO.N,/MMC0_CLK*%
X192732932Y-83960318D03*
%TO.P,IC1,52,MSC0_CMD_SSI_SLV_CE0_PB05*%
%TO.N,/MMC0_CMD*%
X192980419Y-83712831D03*
%TO.P,IC1,53,MSC0_D3_PB03*%
%TO.N,/MMC0_D3*%
X193227907Y-83465344D03*
%TO.P,IC1,54,MSC0_D2_PB02*%
%TO.N,/MMC0_D2*%
X193475394Y-83217856D03*
%TO.P,IC1,55,VDD_3*%
%TO.N,+0V8*%
X193722881Y-82970369D03*
%TO.P,IC1,56,VDDIO1_1*%
%TO.N,+3V3*%
X193970369Y-82722881D03*
%TO.P,IC1,57,GMAC_MDIO_MSC1_D1_SLCD_D5_PB11*%
%TO.N,/MDIO*%
X194217856Y-82475394D03*
%TO.P,IC1,58,GMAC_MDCK_MSC1_D0_I2S_SDTO_SLCD_D4_PB10*%
%TO.N,/MDCK*%
X194465344Y-82227907D03*
%TO.P,IC1,59,GMAC_RXDV_MSC1_CMD_I2S_SDTI_SLCD_D3_PB09*%
%TO.N,/RXDV*%
X194712831Y-81980419D03*
%TO.P,IC1,60,GMAC_RXD0_I2S_DAC_LRCK_SLCD_WR_PB15/_SFC_CE1_PA26*%
%TO.N,/RXD0*%
X194960318Y-81732932D03*
%TO.P,IC1,61,GMAC_RXD1_SLCD_TE_PB16/_SFC_GPC_PA25*%
%TO.N,/RXD1*%
X195207806Y-81485445D03*
%TO.P,IC1,62,GMAC_TXCLK_SLCD_D0_PB06*%
%TO.N,/TXCLK*%
X195455293Y-81237957D03*
%TO.P,IC1,63,GMAC_PHY_CLK_SLCD_D1_PB07*%
%TO.N,/PHYCLK*%
X195702780Y-80990470D03*
%TO.P,IC1,64,GMAC_TXD0_MSC1_D2_I2S_ADC_LRCK_SLCD_D6_PB13*%
%TO.N,/TXD0*%
X195950268Y-80742983D03*
%TO.P,IC1,65,GMAC_TXD1_MSC1_D3_I2S_DAC_MCLK_SLCD_D7_PB14*%
%TO.N,/TXD1*%
X196197755Y-80495495D03*
%TO.P,IC1,66,GMAC_TXEN_MSC1_CLK_I2S_ADC_MCLK_SLCD_D2_PB08*%
%TO.N,/TXEN*%
X196445243Y-80248008D03*
D48*
%TO.P,IC1,67,BOOT_SEL0_PC00*%
%TO.N,Net-(IC1-BOOT_SEL0_PC00)*%
X196445243Y-79151992D03*
%TO.P,IC1,68,UART0_RTS_I2S_DAC_BCLK_SLCD_DC_PB21*%
%TO.N,/UART0_RTS*%
X196197755Y-78904505D03*
%TO.P,IC1,69,UART0_CTS_I2S_ADC_BCLK_SLCD_CS_PB20*%
%TO.N,/UART0_CTS*%
X195950268Y-78657017D03*
%TO.P,IC1,70,UART0_TXD_TDO_SLCD_RDY_PB22*%
%TO.N,/UART0_TXD*%
X195702780Y-78409530D03*
%TO.P,IC1,71,UART0_RXD_TDI_PB19*%
%TO.N,/UART0_RXD*%
X195455293Y-78162043D03*
%TO.P,IC1,72,VDD_4*%
%TO.N,+0V8*%
X195207806Y-77914555D03*
%TO.P,IC1,73,UART1_RXD_TMS_PB24*%
%TO.N,/UART_RX*%
X194960318Y-77667068D03*
%TO.P,IC1,74,UART1_TXD_TCK_PB23*%
%TO.N,/UART_TX*%
X194712831Y-77419581D03*
%TO.P,IC1,75,DDRVDD*%
%TO.N,+1V8*%
X194465344Y-77172093D03*
%TO.P,IC1,76,VDDMEM*%
X194217856Y-76924606D03*
%TO.P,IC1,77,VREF*%
%TO.N,Net-(IC1-VREF)*%
X193970369Y-76677119D03*
%TO.P,IC1,78,DDRPLL_VCCD*%
%TO.N,+0V8*%
X193722881Y-76429631D03*
%TO.P,IC1,79,DDRPLL_VCCA*%
%TO.N,+1V8*%
X193475394Y-76182144D03*
%TO.P,IC1,80,GPIO_PB31*%
%TO.N,/PB31*%
X193227907Y-75934656D03*
%TO.P,IC1,81,SSI1_CE0_DMIC_DAT1_PB30*%
%TO.N,/PB30*%
X192980419Y-75687169D03*
%TO.P,IC1,82,SSI1_CLK_DMIC_DAT0_PB29*%
%TO.N,/PB29*%
X192732932Y-75439682D03*
%TO.P,IC1,83,VDD_5*%
%TO.N,+0V8*%
X192485445Y-75192194D03*
%TO.P,IC1,84,VDDIO1_2*%
%TO.N,+3V3*%
X192237957Y-74944707D03*
%TO.P,IC1,85,PWM3_SSI1_DR_DMIC_CLK_PB28*%
%TO.N,/PB28*%
X191990470Y-74697220D03*
%TO.P,IC1,86,PWM2_SSI1_DT_DRV_VBUS_PB27*%
%TO.N,/PB27*%
X191742983Y-74449732D03*
%TO.P,IC1,87,SMB1_SCK_SSI1_CLK_PB26*%
%TO.N,/PB26*%
X191495495Y-74202245D03*
%TO.P,IC1,88,SMB1_SDA_SSI1_CE0_PB25*%
%TO.N,/PB25*%
X191248008Y-73954757D03*
D49*
%TO.P,IC1,89,EP*%
%TO.N,GND*%
X190700000Y-79700000D03*
%TD*%
D50*
%TO.P,R13,1*%
%TO.N,+3V3*%
X218900000Y-88087500D03*
%TO.P,R13,2*%
%TO.N,Net-(U4-IO2)*%
X218900000Y-89912500D03*
%TD*%
D45*
%TO.P,R16,1*%
%TO.N,+3V3*%
X233912500Y-73987500D03*
%TO.P,R16,2*%
%TO.N,/MMC0_D3*%
X232087500Y-73987500D03*
%TD*%
D25*
%TO.P,J6,1,Pin_1*%
%TO.N,/UART0_RTS*%
X189025000Y-53825000D03*
D26*
%TO.P,J6,2,Pin_2*%
%TO.N,/UART0_CTS*%
X189025000Y-56365000D03*
%TO.P,J6,3,Pin_3*%
%TO.N,/UART0_TXD*%
X186485000Y-53825000D03*
%TO.P,J6,4,Pin_4*%
%TO.N,/UART0_RXD*%
X186485000Y-56365000D03*
%TO.P,J6,5,Pin_5*%
%TO.N,/PB30*%
X183945000Y-53825000D03*
%TO.P,J6,6,Pin_6*%
%TO.N,/PB31*%
X183945000Y-56365000D03*
%TO.P,J6,7,Pin_7*%
%TO.N,/PB27*%
X181405000Y-53825000D03*
%TO.P,J6,8,Pin_8*%
%TO.N,/PB28*%
X181405000Y-56365000D03*
%TO.P,J6,9,Pin_9*%
%TO.N,/PB25*%
X178865000Y-53825000D03*
%TO.P,J6,10,Pin_10*%
%TO.N,/PB26*%
X178865000Y-56365000D03*
%TO.P,J6,11,Pin_11*%
%TO.N,/AUX0*%
X176325000Y-53825000D03*
%TO.P,J6,12,Pin_12*%
%TO.N,GND*%
X176325000Y-56365000D03*
%TO.P,J6,13,Pin_13*%
%TO.N,+3V3*%
X173785000Y-53825000D03*
%TO.P,J6,14,Pin_14*%
%TO.N,+5V*%
X173785000Y-56365000D03*
%TD*%
D24*
%TO.P,R1,1*%
%TO.N,GND*%
X170050000Y-103622500D03*
%TO.P,R1,2*%
%TO.N,Net-(J3-Shield)*%
X170050000Y-101797500D03*
%TD*%
D16*
%TO.P,U3,1,VI*%
%TO.N,Net-(U3-VI)*%
X235090000Y-60350000D03*
%TO.P,U3,2,GND*%
%TO.N,GND*%
X237390000Y-60350000D03*
D17*
X237390000Y-54050000D03*
D16*
%TO.P,U3,3,VO*%
%TO.N,Net-(U3-VO)*%
X239690000Y-60350000D03*
%TD*%
D45*
%TO.P,R11,1*%
%TO.N,GND*%
X202972500Y-75020000D03*
%TO.P,R11,2*%
%TO.N,Net-(IC1-VREF)*%
X201147500Y-75020000D03*
%TD*%
D18*
%TO.P,H1,1,1*%
%TO.N,GND*%
X162975000Y-105000000D03*
X163568109Y-103568109D03*
X163568109Y-106431891D03*
X165000000Y-102975000D03*
D19*
X165000000Y-105000000D03*
D18*
X165000000Y-107025000D03*
X166431891Y-103568109D03*
X166431891Y-106431891D03*
X167025000Y-105000000D03*
%TD*%
D20*
%TO.P,C13,1*%
%TO.N,Net-(U3-VI)*%
X234362500Y-66600000D03*
%TO.P,C13,2*%
%TO.N,GND*%
X236437500Y-66600000D03*
%TD*%
D46*
%TO.P,C39,1*%
%TO.N,+3V3*%
X187109411Y-85450589D03*
%TO.P,C39,2*%
%TO.N,GND*%
X186430589Y-86129411D03*
%TD*%
D14*
%TO.P,TP2,1,1*%
%TO.N,Net-(U1-VO)*%
X210400000Y-65200000D03*
%TD*%
D16*
%TO.P,U1,1,GND*%
%TO.N,GND*%
X214500000Y-60350000D03*
%TO.P,U1,2,VO*%
%TO.N,Net-(U1-VO)*%
X216800000Y-60350000D03*
D17*
X216800000Y-54050000D03*
D16*
%TO.P,U1,3,VI*%
%TO.N,Net-(U1-VI)*%
X219100000Y-60350000D03*
%TD*%
D11*
%TO.P,C9,1*%
%TO.N,Net-(U2-VI)*%
X228037500Y-63000000D03*
%TO.P,C9,2*%
%TO.N,GND*%
X229762500Y-63000000D03*
%TD*%
D25*
%TO.P,J5,1,Pin_1*%
%TO.N,/UART_TX*%
X246170000Y-93570000D03*
D26*
%TO.P,J5,2,Pin_2*%
%TO.N,/UART_RX*%
X246170000Y-96110000D03*
%TO.P,J5,3,Pin_3*%
%TO.N,GND*%
X246170000Y-98650000D03*
%TD*%
D51*
%TO.P,C23,1*%
%TO.N,+3V3*%
X218800000Y-84680000D03*
%TO.P,C23,2*%
%TO.N,GND*%
X218800000Y-83720000D03*
%TD*%
D25*
%TO.P,J4,1,Pin_1*%
%TO.N,/PA15*%
X176525000Y-64775000D03*
D26*
%TO.P,J4,2,Pin_2*%
%TO.N,+3V3*%
X176525000Y-62235000D03*
%TO.P,J4,3,Pin_3*%
%TO.N,/PA18*%
X179065000Y-64775000D03*
%TO.P,J4,4,Pin_4*%
%TO.N,+5V*%
X179065000Y-62235000D03*
%TO.P,J4,5,Pin_5*%
%TO.N,/PA06*%
X181605000Y-64775000D03*
%TO.P,J4,6,Pin_6*%
%TO.N,/PA07*%
X181605000Y-62235000D03*
%TO.P,J4,7,Pin_7*%
%TO.N,/PA09*%
X184145000Y-64775000D03*
%TO.P,J4,8,Pin_8*%
%TO.N,/PA08*%
X184145000Y-62235000D03*
%TO.P,J4,9,Pin_9*%
%TO.N,/PA11*%
X186685000Y-64775000D03*
%TO.P,J4,10,Pin_10*%
%TO.N,/PA10*%
X186685000Y-62235000D03*
%TO.P,J4,11,Pin_11*%
%TO.N,/PA16*%
X189225000Y-64775000D03*
%TO.P,J4,12,Pin_12*%
%TO.N,/PA14*%
X189225000Y-62235000D03*
%TO.P,J4,13,Pin_13*%
%TO.N,/PA17*%
X191765000Y-64775000D03*
%TO.P,J4,14,Pin_14*%
%TO.N,/PB29*%
X191765000Y-62235000D03*
%TO.P,J4,15,Pin_15*%
%TO.N,/PB17*%
X194305000Y-64775000D03*
%TO.P,J4,16,Pin_16*%
%TO.N,/PB18*%
X194305000Y-62235000D03*
%TD*%
D25*
%TO.P,J11,1,Pin_1*%
%TO.N,+5V*%
X175890000Y-87910000D03*
D26*
%TO.P,J11,2,Pin_2*%
%TO.N,/USB_D-*%
X175890000Y-90450000D03*
%TO.P,J11,3,Pin_3*%
%TO.N,/USB_D+*%
X175890000Y-92990000D03*
%TO.P,J11,4,Pin_4*%
%TO.N,GND*%
X175890000Y-95530000D03*
%TD*%
D23*
%TO.P,C34,1*%
%TO.N,+1V8*%
X187339411Y-74589411D03*
%TO.P,C34,2*%
%TO.N,GND*%
X186660589Y-73910589D03*
%TD*%
D52*
%TO.P,J3,1,VBUS*%
%TO.N,+5V*%
X172080000Y-88600000D03*
%TO.P,J3,2,D-*%
%TO.N,/USB_D-*%
X172080000Y-91100000D03*
%TO.P,J3,3,D+*%
%TO.N,/USB_D+*%
X172080000Y-93100000D03*
%TO.P,J3,4,GND*%
%TO.N,GND*%
X172080000Y-95600000D03*
D53*
%TO.P,J3,5,Shield*%
%TO.N,Net-(J3-Shield)*%
X168400000Y-85530000D03*
X168400000Y-98670000D03*
%TD*%
D10*
%TO.P,C11,1*%
%TO.N,Net-(U2-VO)*%
X226262500Y-64800000D03*
%TO.P,C11,2*%
%TO.N,GND*%
X224537500Y-64800000D03*
%TD*%
D24*
%TO.P,R9,1*%
%TO.N,+0V8*%
X239200000Y-70712500D03*
%TO.P,R9,2*%
%TO.N,Net-(U3-VO)*%
X239200000Y-68887500D03*
%TD*%
D29*
%TO.P,C46,1*%
%TO.N,+0V8*%
X196960589Y-76739411D03*
%TO.P,C46,2*%
%TO.N,GND*%
X197639411Y-76060589D03*
%TD*%
%TO.P,C45,1*%
%TO.N,+0V8*%
X193460589Y-73739411D03*
%TO.P,C45,2*%
%TO.N,GND*%
X194139411Y-73060589D03*
%TD*%
D18*
%TO.P,H2,1,1*%
%TO.N,GND*%
X162975000Y-55000000D03*
X163568109Y-53568109D03*
X163568109Y-56431891D03*
X165000000Y-52975000D03*
D19*
X165000000Y-55000000D03*
D18*
X165000000Y-57025000D03*
X166431891Y-53568109D03*
X166431891Y-56431891D03*
X167025000Y-55000000D03*
%TD*%
D11*
%TO.P,C8,1*%
%TO.N,Net-(U2-VI)*%
X228075000Y-64800000D03*
%TO.P,C8,2*%
%TO.N,GND*%
X229800000Y-64800000D03*
%TD*%
D54*
%TO.P,C22,1*%
%TO.N,Net-(IC1-VCM)*%
X189890120Y-88940120D03*
%TO.P,C22,2*%
%TO.N,GND*%
X191109880Y-90159880D03*
%TD*%
D10*
%TO.P,C6,1*%
%TO.N,Net-(U1-VO)*%
X215862500Y-63000000D03*
%TO.P,C6,2*%
%TO.N,GND*%
X214137500Y-63000000D03*
%TD*%
D24*
%TO.P,R25,1*%
%TO.N,GND*%
X172000000Y-103622500D03*
%TO.P,R25,2*%
%TO.N,Net-(J1-SHIELD)*%
X172000000Y-101797500D03*
%TD*%
D45*
%TO.P,R14,1*%
%TO.N,Net-(U4-IO3)*%
X233237500Y-93100000D03*
%TO.P,R14,2*%
%TO.N,+3V3*%
X231412500Y-93100000D03*
%TD*%
D10*
%TO.P,C17,1*%
%TO.N,Net-(U3-VO)*%
X240062500Y-64800000D03*
%TO.P,C17,2*%
%TO.N,GND*%
X238337500Y-64800000D03*
%TD*%
D15*
%TO.P,C42,1*%
%TO.N,+0V8*%
X195350589Y-84200589D03*
%TO.P,C42,2*%
%TO.N,GND*%
X196029411Y-84879411D03*
%TD*%
D24*
%TO.P,R7,1*%
%TO.N,+1V8*%
X225400000Y-70712500D03*
%TO.P,R7,2*%
%TO.N,Net-(U2-VO)*%
X225400000Y-68887500D03*
%TD*%
D29*
%TO.P,C41,1*%
%TO.N,+0V8*%
X195540589Y-75339411D03*
%TO.P,C41,2*%
%TO.N,GND*%
X196219411Y-74660589D03*
%TD*%
D25*
%TO.P,J9,1,Pin_1*%
%TO.N,Net-(IC1-PPRST_)*%
X201025000Y-60475000D03*
D26*
%TO.P,J9,2,Pin_2*%
%TO.N,Net-(IC1-BOOT_SEL0_PC00)*%
X203565000Y-60475000D03*
%TD*%
D25*
%TO.P,J14,1,Pin_1*%
%TO.N,/I2C0_SDA*%
X175725000Y-81465000D03*
D26*
%TO.P,J14,2,Pin_2*%
%TO.N,/I2C0_SCK*%
X175725000Y-78925000D03*
%TD*%
D29*
%TO.P,C26,1*%
%TO.N,+1V8*%
X196250589Y-76029411D03*
%TO.P,C26,2*%
%TO.N,GND*%
X196929411Y-75350589D03*
%TD*%
D46*
%TO.P,C32,1*%
%TO.N,+1V8*%
X186339411Y-83810589D03*
%TO.P,C32,2*%
%TO.N,GND*%
X185660589Y-84489411D03*
%TD*%
D24*
%TO.P,R12,1*%
%TO.N,/NOR_CE2*%
X216500000Y-89912500D03*
%TO.P,R12,2*%
%TO.N,+3V3*%
X216500000Y-88087500D03*
%TD*%
D15*
%TO.P,C31,1*%
%TO.N,+1V8*%
X190010589Y-87160589D03*
%TO.P,C31,2*%
%TO.N,GND*%
X190689411Y-87839411D03*
%TD*%
D45*
%TO.P,R10,1*%
%TO.N,+1V8*%
X202972500Y-76619999D03*
%TO.P,R10,2*%
%TO.N,Net-(IC1-VREF)*%
X201147500Y-76619999D03*
%TD*%
D20*
%TO.P,C7,1*%
%TO.N,Net-(U2-VI)*%
X228162500Y-66600000D03*
%TO.P,C7,2*%
%TO.N,GND*%
X230237500Y-66600000D03*
%TD*%
D55*
%TO.P,U5,1,~{CS}*%
%TO.N,/NOR_CE1*%
X230775000Y-104475000D03*
D56*
%TO.P,U5,2,DO(IO1)*%
%TO.N,/NOR_DR*%
X233315000Y-104475000D03*
%TO.P,U5,3,IO2*%
%TO.N,Net-(U4-IO2)*%
X235855000Y-104475000D03*
%TO.P,U5,4,GND*%
%TO.N,GND*%
X238395000Y-104475000D03*
%TO.P,U5,5,DI(IO0)*%
%TO.N,/NOR_DT*%
X238395000Y-96855000D03*
%TO.P,U5,6,CLK*%
%TO.N,/NOR_CK*%
X235855000Y-96855000D03*
%TO.P,U5,7,IO3*%
%TO.N,Net-(U4-IO3)*%
X233315000Y-96855000D03*
%TO.P,U5,8,VCC*%
%TO.N,+3V3*%
X230775000Y-96855000D03*
%TD*%
D24*
%TO.P,R5,1*%
%TO.N,GND*%
X186170000Y-97072500D03*
%TO.P,R5,2*%
%TO.N,Net-(J1-CC2)*%
X186170000Y-95247500D03*
%TD*%
D46*
%TO.P,C28,1*%
%TO.N,+1V8*%
X187849411Y-86210589D03*
%TO.P,C28,2*%
%TO.N,GND*%
X187170589Y-86889411D03*
%TD*%
D57*
%TO.P,Y1,1,1*%
%TO.N,Net-(IC1-EXCLK_I)*%
X185652514Y-71450000D03*
%TO.P,Y1,2,2*%
%TO.N,GND*%
X186642463Y-70460051D03*
%TO.P,Y1,3,3*%
%TO.N,Net-(IC1-EXCLK_O)*%
X185864646Y-69682234D03*
%TO.P,Y1,4,4*%
%TO.N,GND*%
X184874697Y-70672183D03*
%TD*%
D58*
%TO.P,J8,1*%
%TO.N,+5V*%
X192740000Y-93900000D03*
D59*
%TO.P,J8,2*%
%TO.N,GND*%
X192740000Y-99700000D03*
D60*
%TO.P,J8,3*%
%TO.N,N/C*%
X197540000Y-96900000D03*
%TD*%
D29*
%TO.P,C36,1*%
%TO.N,+3V3*%
X192860589Y-72939411D03*
%TO.P,C36,2*%
%TO.N,GND*%
X193539411Y-72260589D03*
%TD*%
D24*
%TO.P,R6,1*%
%TO.N,+3V3*%
X228800000Y-70712500D03*
%TO.P,R6,2*%
%TO.N,Net-(U2-VI)*%
X228800000Y-68887500D03*
%TD*%
D11*
%TO.P,C14,1*%
%TO.N,Net-(U3-VI)*%
X234737500Y-64800000D03*
%TO.P,C14,2*%
%TO.N,GND*%
X236462500Y-64800000D03*
%TD*%
D61*
%TO.P,R21,1*%
%TO.N,Net-(IC1-EXCLK_I)*%
X186730852Y-72280852D03*
%TO.P,R21,2*%
%TO.N,Net-(IC1-EXCLK_O)*%
X187452100Y-71559604D03*
%TD*%
D11*
%TO.P,C3,1*%
%TO.N,Net-(U1-VI)*%
X217737500Y-63000000D03*
%TO.P,C3,2*%
%TO.N,GND*%
X219462500Y-63000000D03*
%TD*%
D28*
%TO.P,R20,1*%
%TO.N,+3V3*%
X213437500Y-73987500D03*
%TO.P,R20,2*%
%TO.N,/MMC0_D1*%
X215262500Y-73987500D03*
%TD*%
D14*
%TO.P,TP4,1,1*%
%TO.N,Net-(U2-VO)*%
X222000000Y-57800000D03*
%TD*%
D50*
%TO.P,R4,1*%
%TO.N,GND*%
X178530000Y-95437500D03*
%TO.P,R4,2*%
%TO.N,Net-(J1-CC1)*%
X178530000Y-97262500D03*
%TD*%
D29*
%TO.P,C35,1*%
%TO.N,+1V8*%
X194840589Y-74619411D03*
%TO.P,C35,2*%
%TO.N,GND*%
X195519411Y-73940589D03*
%TD*%
D27*
%TO.P,C10,1*%
%TO.N,Net-(U2-VO)*%
X226237500Y-66600000D03*
%TO.P,C10,2*%
%TO.N,GND*%
X224162500Y-66600000D03*
%TD*%
D62*
%TO.P,C24,1*%
%TO.N,+3V3*%
X225145000Y-73987500D03*
%TO.P,C24,2*%
%TO.N,GND*%
X226105000Y-73987500D03*
%TD*%
D25*
%TO.P,J16,1,Pin_1*%
%TO.N,/NOR_CE1*%
X212570000Y-96450000D03*
D26*
%TO.P,J16,2,Pin_2*%
%TO.N,/NOR_CE*%
X215110000Y-96450000D03*
%TO.P,J16,3,Pin_3*%
%TO.N,/NOR_CE2*%
X217650000Y-96450000D03*
%TD*%
D24*
%TO.P,R24,1*%
%TO.N,/NOR_CE1*%
X222200000Y-105412500D03*
%TO.P,R24,2*%
%TO.N,+3V3*%
X222200000Y-103587500D03*
%TD*%
D27*
%TO.P,C4,1*%
%TO.N,Net-(U1-VO)*%
X215837500Y-66600000D03*
%TO.P,C4,2*%
%TO.N,GND*%
X213762500Y-66600000D03*
%TD*%
D63*
%TO.N,GND*%
X212600000Y-66650000D03*
D64*
X185000000Y-107000000D03*
D63*
X185870000Y-86640000D03*
X194100000Y-71700000D03*
X223000000Y-66600000D03*
D64*
X163000000Y-70000000D03*
D63*
X193579500Y-79090000D03*
X238300000Y-62000000D03*
X185400000Y-73940000D03*
X168048000Y-66176000D03*
X194700000Y-72500000D03*
D64*
X247000000Y-65000000D03*
X190000000Y-107000000D03*
D63*
X184410000Y-98230000D03*
D64*
X244300000Y-84000000D03*
D63*
X227100000Y-78800000D03*
X220700000Y-63000000D03*
X188210000Y-69690000D03*
D64*
X195000000Y-107000000D03*
D63*
X185900000Y-73600000D03*
X196730000Y-74150000D03*
X197440000Y-74840000D03*
X196030000Y-73430000D03*
X184050000Y-69880000D03*
X236500000Y-63950000D03*
D64*
X163000000Y-90000000D03*
D63*
X229100000Y-91500000D03*
X220650000Y-64800000D03*
X214500000Y-59000000D03*
D64*
X213350000Y-107090000D03*
D63*
X221000000Y-66600000D03*
D64*
X163000000Y-65000000D03*
X163000000Y-75000001D03*
D63*
X191850000Y-90850000D03*
X186400000Y-73000000D03*
X191200000Y-87300000D03*
D64*
X163000000Y-84999999D03*
X163140000Y-58800000D03*
X236900000Y-86800000D03*
D63*
X238150000Y-59350000D03*
D64*
X163000000Y-95000000D03*
X180000000Y-107000000D03*
D63*
X168048000Y-68208000D03*
X236500000Y-62100000D03*
X168048000Y-64398000D03*
D64*
X245225000Y-62575000D03*
X209320000Y-107090000D03*
D63*
X183600000Y-84800000D03*
X235500000Y-53100000D03*
X183400000Y-71100000D03*
X223300000Y-64800000D03*
X231050000Y-63000000D03*
X196850000Y-85240000D03*
D64*
X240000000Y-107000000D03*
D63*
X220000000Y-83900000D03*
X187500000Y-88000000D03*
D64*
X163000000Y-100000000D03*
X170000000Y-107000000D03*
X230000000Y-107000000D03*
X225000000Y-107000000D03*
D63*
X238350000Y-65600000D03*
X186660000Y-87450000D03*
X204450000Y-65600000D03*
D65*
X190700000Y-79700000D03*
D63*
X188070000Y-79740000D03*
X185100000Y-85000000D03*
X235500000Y-55000000D03*
D64*
X246850000Y-90390000D03*
D63*
X239300000Y-53000000D03*
X188200000Y-68700000D03*
X231400000Y-66600000D03*
X187949500Y-78950000D03*
X189100000Y-71500000D03*
X197875500Y-75300000D03*
D64*
X170010000Y-105060000D03*
D63*
X213000000Y-63050000D03*
D64*
X247000000Y-60000000D03*
X235000000Y-107000000D03*
D63*
X214500000Y-61800000D03*
X199100000Y-66775000D03*
X212950000Y-64850000D03*
D64*
X247000000Y-75000000D03*
X220700000Y-107060000D03*
X163000000Y-80000001D03*
D63*
X192132863Y-77444315D03*
D64*
X247000000Y-70000000D03*
D63*
X224900000Y-61800000D03*
D64*
X216900000Y-107090000D03*
D63*
X194140000Y-79650000D03*
X197340000Y-84690000D03*
X184040000Y-92680000D03*
X223350000Y-63000000D03*
X224900000Y-58900000D03*
X188350000Y-80575000D03*
X231000000Y-64800000D03*
X202900000Y-72120000D03*
X239300000Y-55100000D03*
X190360000Y-82620000D03*
X236500000Y-65600000D03*
X193680000Y-80340000D03*
X168048000Y-69986000D03*
D64*
X198930000Y-105520000D03*
X175000000Y-107000000D03*
D63*
X236650000Y-59350000D03*
X238350000Y-63950000D03*
%TO.N,Net-(IC1-VREF)*%
X200650000Y-77685500D03*
X193550000Y-77625000D03*
%TO.N,+3V3*%
X193300000Y-81900000D03*
X204530000Y-70740000D03*
D64*
X198971776Y-59316856D03*
X212050000Y-75775000D03*
D63*
X222325000Y-96855000D03*
X212400000Y-74000000D03*
D64*
X227200000Y-73900000D03*
D63*
X235700000Y-75000000D03*
X243629240Y-78960996D03*
X231412500Y-93100000D03*
D64*
X212425000Y-60400000D03*
D63*
X220587500Y-74900000D03*
X228500000Y-75000000D03*
X211875000Y-70725000D03*
X212050000Y-84900000D03*
X192525500Y-72025000D03*
X233900000Y-75000000D03*
X191200000Y-75300000D03*
D64*
X239100000Y-73900000D03*
X216400000Y-70700000D03*
D63*
X213800000Y-88100000D03*
X241200000Y-75374500D03*
X224400000Y-74000000D03*
X218800000Y-74900000D03*
X172874000Y-75320000D03*
X189400000Y-83400000D03*
%TO.N,/USB_D-*%
X178390000Y-102070000D03*
X179630000Y-101640000D03*
%TO.N,/USB_D+*%
X178960000Y-93600000D03*
%TO.N,+1V8*%
X204105000Y-75905000D03*
D64*
X224100000Y-70700000D03*
D63*
X187800000Y-75000000D03*
X195600500Y-76666028D03*
X194287878Y-75202122D03*
X187000000Y-83350000D03*
X190010589Y-87160589D03*
X190300000Y-75100000D03*
X188200000Y-82200000D03*
X188221962Y-85539074D03*
%TO.N,+0V8*%
X188851886Y-87550000D03*
X187300000Y-81200000D03*
D64*
X237900000Y-70700000D03*
D63*
X192800000Y-82600000D03*
X188400000Y-77100000D03*
X191743815Y-75933824D03*
X196300000Y-77149114D03*
X194890901Y-75816528D03*
%TO.N,Net-(IC1-PPRST_)*%
X189454762Y-75945238D03*
X199280000Y-65060000D03*
%TO.N,/PA15*%
X181702603Y-71797397D03*
%TO.N,/MIPI_0_N*%
X182075500Y-76700000D03*
%TO.N,/MIPI_0_P*%
X181536000Y-77800000D03*
%TO.N,/MIPI_CLK_N*%
X179500000Y-79600000D03*
%TO.N,/MIPI_CLK_P*%
X179268790Y-80731759D03*
%TO.N,/MIPI_1_N*%
X182200000Y-82300000D03*
%TO.N,/MIPI_1_P*%
X181000000Y-82400000D03*
%TO.N,/NOR_DT*%
X235200000Y-92800000D03*
X231300000Y-88400000D03*
%TO.N,/MMC0_D1*%
X215800000Y-79400000D03*
X215800000Y-81900000D03*
%TO.N,/MMC0_D0*%
X217200000Y-81500000D03*
X217200000Y-79400000D03*
%TO.N,/MMC0_CLK*%
X222000000Y-81200000D03*
X222000000Y-79300000D03*
%TO.N,/MMC0_CMD*%
X229600000Y-79400000D03*
X229600000Y-80900000D03*
%TO.N,/MMC0_D3*%
X232100000Y-80524500D03*
X232100000Y-79300000D03*
%TO.N,/MICLP*%
X190770000Y-85910000D03*
X190700000Y-84480000D03*
%TO.N,/UART_RX*%
X208046538Y-83416538D03*
X199010886Y-78930000D03*
X194750000Y-78710000D03*
X203957184Y-78882684D03*
%TO.N,/UART_TX*%
X193977521Y-78240613D03*
X197320000Y-79520000D03*
X204487162Y-78352705D03*
X209290000Y-82730000D03*
%TO.N,/PB29*%
X190300000Y-70500000D03*
X192430000Y-76530000D03*
%TO.N,/PB27*%
X195631122Y-68331122D03*
X209000000Y-74800000D03*
X209000000Y-67500000D03*
X233700000Y-77400000D03*
%TO.N,+5V*%
X182080000Y-98160000D03*
D64*
X210900500Y-79100000D03*
D63*
X175900000Y-84800000D03*
X176692500Y-98252500D03*
%TO.N,/I2C0_SCK*%
X186300000Y-80200000D03*
%TO.N,/I2C0_SDA*%
X185700000Y-79700000D03*
%TO.N,Net-(U4-IO2)*%
X222400000Y-90000000D03*
X226400000Y-90000000D03*
%TO.N,/MDCK*%
X193976284Y-81301299D03*
X197168744Y-82900500D03*
%TO.N,/RXD0*%
X198166257Y-82124500D03*
X194700000Y-80700000D03*
%TO.N,/TXD1*%
X198400000Y-80175500D03*
X195270000Y-80050000D03*
%TO.N,/UART0_TXD*%
X166240000Y-100690000D03*
X177080000Y-102030000D03*
%TO.N,/UART0_RXD*%
X166847054Y-101129591D03*
X180780000Y-101980000D03*
%TO.N,Net-(U4-IO3)*%
X224600000Y-85975500D03*
X233237500Y-93100000D03*
%TO.N,/PA18*%
X186680000Y-76150000D03*
%TO.N,Net-(J15-Pin_2)*%
X172620000Y-73796000D03*
%TD*%
D66*
%TO.N,GND*%
X237400000Y-61300000D02*
X237400000Y-60350000D01*
D67*
X194139411Y-73060589D02*
X194700000Y-72500000D01*
X183600000Y-84800000D02*
X184110589Y-84289411D01*
D68*
X227100000Y-77262500D02*
X227075000Y-77237500D01*
D66*
X212950000Y-64850000D02*
X214087500Y-64850000D01*
D69*
X170050000Y-103622500D02*
X170050000Y-105020000D01*
D67*
X185400000Y-73940000D02*
X185400000Y-74080000D01*
D68*
X227100000Y-78800000D02*
X227100000Y-77262500D01*
D67*
X186610589Y-73210589D02*
X186400000Y-73000000D01*
X228700000Y-91900000D02*
X229100000Y-91500000D01*
D66*
X238300000Y-62000000D02*
X237600000Y-61300000D01*
X236462500Y-62137500D02*
X236462500Y-66600000D01*
D67*
X175890000Y-99820000D02*
X175892500Y-99822500D01*
X185150000Y-85000000D02*
X185660589Y-84489411D01*
D68*
X227075000Y-77237500D02*
X227075000Y-76075000D01*
D67*
X202900000Y-72120000D02*
X202922500Y-72142500D01*
X197639411Y-76060589D02*
X197639411Y-75536089D01*
X199100000Y-66775000D02*
X199925000Y-67600000D01*
X188210000Y-69690000D02*
X187439949Y-70460051D01*
X186660000Y-87400000D02*
X187170589Y-86889411D01*
X202972500Y-73469999D02*
X202922500Y-73419999D01*
X191850000Y-90850000D02*
X191800000Y-90850000D01*
X183400000Y-93800000D02*
X183400000Y-93320000D01*
D66*
X213000000Y-63050000D02*
X214087500Y-63050000D01*
D67*
X186660000Y-87450000D02*
X186660000Y-87400000D01*
X187534046Y-69291761D02*
X187608239Y-69291761D01*
X186210589Y-73910589D02*
X185900000Y-73600000D01*
X190550000Y-77817588D02*
X188419581Y-75687169D01*
D66*
X237150000Y-61300000D02*
X237400000Y-61300000D01*
D67*
X183400000Y-93320000D02*
X184040000Y-92680000D01*
X187500000Y-87950000D02*
X188010589Y-87439411D01*
X185400000Y-74080000D02*
X185850589Y-74530589D01*
D69*
X170050000Y-103622500D02*
X172000000Y-103622500D01*
D66*
X238300000Y-62000000D02*
X238337500Y-62037500D01*
X219462500Y-64800000D02*
X220650000Y-64800000D01*
D67*
X186660589Y-73910589D02*
X186210589Y-73910589D01*
X187360589Y-73210589D02*
X186610589Y-73210589D01*
D68*
X245200000Y-62550000D02*
X245225000Y-62575000D01*
D66*
X237600000Y-61300000D02*
X237400000Y-61300000D01*
X238337500Y-62037500D02*
X238337500Y-66600000D01*
D67*
X191800000Y-90850000D02*
X191109880Y-90159880D01*
D68*
X245200000Y-60600000D02*
X245200000Y-62550000D01*
D67*
X204450000Y-65600000D02*
X204450000Y-65475000D01*
X202972500Y-75020000D02*
X202972500Y-73469999D01*
D66*
X230237500Y-66600000D02*
X229787500Y-66150000D01*
D67*
X197639411Y-75536089D02*
X197875500Y-75300000D01*
X219820000Y-83720000D02*
X220000000Y-83900000D01*
D68*
X184410000Y-98230000D02*
X185012500Y-98230000D01*
D66*
X224900000Y-65862500D02*
X224900000Y-61800000D01*
D68*
X184410000Y-98230000D02*
X183570000Y-98230000D01*
D66*
X236500000Y-62100000D02*
X236462500Y-62137500D01*
D67*
X190550000Y-82430000D02*
X190360000Y-82620000D01*
D68*
X227075000Y-76075000D02*
X226105000Y-75105000D01*
D66*
X214087500Y-63050000D02*
X214137500Y-63000000D01*
X219462500Y-66225000D02*
X219462500Y-63000000D01*
D68*
X182392500Y-99407500D02*
X182392500Y-99822500D01*
D67*
X190689411Y-87839411D02*
X190689411Y-87810589D01*
D66*
X223300000Y-64800000D02*
X224537500Y-64800000D01*
D67*
X187500000Y-88000000D02*
X187500000Y-87950000D01*
D66*
X231400000Y-66600000D02*
X230237500Y-66600000D01*
D68*
X226105000Y-75105000D02*
X226105000Y-73987500D01*
D67*
X204450000Y-65475000D02*
X204100000Y-65125000D01*
D66*
X214500000Y-59000000D02*
X214500000Y-61800000D01*
X224900000Y-61800000D02*
X224900000Y-58900000D01*
D67*
X227670000Y-91900000D02*
X228700000Y-91900000D01*
X190550000Y-79550000D02*
X190550000Y-77817588D01*
X196390000Y-85240000D02*
X196029411Y-84879411D01*
D69*
X175820000Y-95600000D02*
X172080000Y-95600000D01*
D66*
X229787500Y-63000000D02*
X231050000Y-63000000D01*
D67*
X184050000Y-69880000D02*
X184082514Y-69880000D01*
D68*
X183570000Y-98230000D02*
X182392500Y-99407500D01*
D67*
X178530000Y-95437500D02*
X178437500Y-95530000D01*
X190550000Y-79850000D02*
X190550000Y-82430000D01*
X236885000Y-88470000D02*
X236885000Y-86875000D01*
D68*
X185012500Y-98230000D02*
X186170000Y-97072500D01*
D66*
X224162500Y-66600000D02*
X224900000Y-65862500D01*
D67*
X187608239Y-69291761D02*
X188200000Y-68700000D01*
X189639411Y-72039411D02*
X189100000Y-71500000D01*
X218800000Y-83720000D02*
X219820000Y-83720000D01*
D66*
X214137500Y-62162500D02*
X214500000Y-61800000D01*
X223350000Y-63000000D02*
X224537500Y-63000000D01*
D67*
X204100000Y-65125000D02*
X204100000Y-63975000D01*
X196850000Y-85240000D02*
X196390000Y-85240000D01*
D66*
X214087500Y-64850000D02*
X214137500Y-64800000D01*
D68*
X175890000Y-95530000D02*
X175890000Y-99820000D01*
D66*
X219837500Y-66600000D02*
X219462500Y-66225000D01*
D68*
X178437500Y-95530000D02*
X175890000Y-95530000D01*
X196929411Y-75350589D02*
X197440000Y-74840000D01*
D67*
X183951922Y-71693954D02*
X183951922Y-71651922D01*
X183951922Y-71651922D02*
X183400000Y-71100000D01*
X189639411Y-72060589D02*
X189639411Y-72039411D01*
D69*
X170050000Y-105020000D02*
X170010000Y-105060000D01*
D66*
X221000000Y-66600000D02*
X219837500Y-66600000D01*
D67*
X193539411Y-72260589D02*
X194100000Y-71700000D01*
X197290000Y-84690000D02*
X196779411Y-84179411D01*
D66*
X231000000Y-64800000D02*
X229800000Y-64800000D01*
X219462500Y-63000000D02*
X220700000Y-63000000D01*
D69*
X199555000Y-104895000D02*
X201780000Y-104895000D01*
D67*
X184082514Y-69880000D02*
X184874697Y-70672183D01*
X195519411Y-73940589D02*
X196030000Y-73430000D01*
D66*
X223000000Y-66600000D02*
X224162500Y-66600000D01*
X214137500Y-66600000D02*
X214137500Y-62162500D01*
D67*
X199925000Y-67600000D02*
X199925000Y-69375000D01*
D66*
X229787500Y-66150000D02*
X229787500Y-63000000D01*
D67*
X190700000Y-79700000D02*
X190550000Y-79850000D01*
D66*
X236500000Y-62100000D02*
X236500000Y-61950000D01*
D67*
X196219411Y-74660589D02*
X196730000Y-74150000D01*
D66*
X236500000Y-61950000D02*
X237150000Y-61300000D01*
X214087500Y-66650000D02*
X214137500Y-66600000D01*
D67*
X245445000Y-85145000D02*
X246110000Y-85145000D01*
D66*
X212600000Y-66650000D02*
X214087500Y-66650000D01*
D67*
X190689411Y-87810589D02*
X191200000Y-87300000D01*
X202922500Y-72142500D02*
X202922500Y-73419999D01*
X185920000Y-86640000D02*
X186430589Y-86129411D01*
X190700000Y-79700000D02*
X190550000Y-79550000D01*
D69*
X198930000Y-105520000D02*
X199555000Y-104895000D01*
D67*
X244300000Y-84000000D02*
X245445000Y-85145000D01*
X187439949Y-70460051D02*
X186642463Y-70460051D01*
D68*
%TO.N,Net-(U1-VO)*%
X215000000Y-68887500D02*
X211787500Y-68887500D01*
X210400000Y-67500000D02*
X210400000Y-65200000D01*
D66*
X216800000Y-60350000D02*
X216800000Y-61600000D01*
D68*
X211787500Y-68887500D02*
X210400000Y-67500000D01*
D66*
X215862500Y-66600000D02*
X215862500Y-68025000D01*
X215862500Y-62537500D02*
X215862500Y-66600000D01*
X216800000Y-61600000D02*
X215862500Y-62537500D01*
X216800000Y-60350000D02*
X216800000Y-54050000D01*
X215862500Y-68025000D02*
X215000000Y-68887500D01*
D68*
%TO.N,Net-(U2-VO)*%
X226050000Y-57800000D02*
X222000000Y-57800000D01*
D66*
X227200000Y-61500000D02*
X226262500Y-62437500D01*
D68*
X227200000Y-58950000D02*
X226050000Y-57800000D01*
D66*
X226262500Y-66600000D02*
X226262500Y-68025000D01*
X227200000Y-60350000D02*
X227200000Y-61500000D01*
X226262500Y-62437500D02*
X226262500Y-66600000D01*
X227200000Y-60350000D02*
X227200000Y-54050000D01*
X226262500Y-68025000D02*
X225400000Y-68887500D01*
D68*
X227200000Y-60350000D02*
X227200000Y-58950000D01*
D66*
%TO.N,Net-(U3-VO)*%
X239212500Y-68887500D02*
X240062500Y-68037500D01*
D68*
X241300000Y-68900000D02*
X239212500Y-68900000D01*
X242600000Y-70200000D02*
X241300000Y-68900000D01*
D66*
X240062500Y-60712500D02*
X239700000Y-60350000D01*
X239200000Y-68887500D02*
X239212500Y-68887500D01*
D68*
X239212500Y-68900000D02*
X239200000Y-68887500D01*
D66*
X240062500Y-68037500D02*
X240062500Y-63000000D01*
X240062500Y-63000000D02*
X240062500Y-60712500D01*
D67*
%TO.N,Net-(IC1-VREF)*%
X201147500Y-73469999D02*
X201197500Y-73419999D01*
X200650000Y-77117499D02*
X201147500Y-76619999D01*
X193550000Y-77097488D02*
X193550000Y-77625000D01*
X201147500Y-76619999D02*
X201147500Y-73469999D01*
X200650000Y-77685500D02*
X200650000Y-77117499D01*
X193970369Y-76677119D02*
X193550000Y-77097488D01*
D70*
%TO.N,Net-(IC1-EXCLK_I)*%
X187187456Y-72280852D02*
X188623614Y-73717010D01*
X186730852Y-72280852D02*
X187187456Y-72280852D01*
X185900000Y-71450000D02*
X186730852Y-72280852D01*
X188623614Y-74406278D02*
X189162043Y-74944707D01*
X184630744Y-72372776D02*
X184729738Y-72372776D01*
X184729738Y-72372776D02*
X185652514Y-71450000D01*
X188623614Y-73717010D02*
X188623614Y-74406278D01*
X185652514Y-71450000D02*
X185900000Y-71450000D01*
X186730852Y-72280852D02*
X187042051Y-72280852D01*
D67*
%TO.N,+3V3*%
X204530000Y-70740000D02*
X203425000Y-69635000D01*
X218862500Y-74837500D02*
X218800000Y-74900000D01*
X172874000Y-75320000D02*
X173590000Y-75320000D01*
X193300000Y-82052512D02*
X193970369Y-82722881D01*
D69*
X216387500Y-70712500D02*
X216400000Y-70700000D01*
D67*
X218862500Y-73987500D02*
X218862500Y-74837500D01*
X222200000Y-103587500D02*
X222200000Y-96980000D01*
X192851386Y-72350886D02*
X192851386Y-74331278D01*
X218800000Y-84680000D02*
X212270000Y-84680000D01*
X216500000Y-88087500D02*
X213812500Y-88087500D01*
X233900000Y-75000000D02*
X233900000Y-74000000D01*
X216500000Y-88087500D02*
X218900000Y-88087500D01*
D69*
X238400000Y-72300000D02*
X239100000Y-73000000D01*
X215000000Y-70712500D02*
X216387500Y-70712500D01*
X239100000Y-73000000D02*
X239100000Y-73900000D01*
D67*
X222200000Y-96980000D02*
X222325000Y-96855000D01*
X189400000Y-83400000D02*
X189610000Y-83610000D01*
D69*
X227200000Y-72312500D02*
X228800000Y-70712500D01*
D67*
X187109411Y-85023001D02*
X187109411Y-85450589D01*
D69*
X236700000Y-72300000D02*
X238400000Y-72300000D01*
D70*
X245585000Y-82945000D02*
X243500000Y-80860000D01*
D67*
X188419581Y-83712831D02*
X187109411Y-85023001D01*
X173590000Y-75320000D02*
X173745000Y-75165000D01*
X220587500Y-73987500D02*
X220587500Y-74900000D01*
X233900000Y-74000000D02*
X233912500Y-73987500D01*
X188842412Y-83290000D02*
X189290000Y-83290000D01*
X233900000Y-75000000D02*
X233510000Y-75000000D01*
X228500000Y-74025000D02*
X228537500Y-73987500D01*
D70*
X243500000Y-79090236D02*
X243629240Y-78960996D01*
D67*
X193970369Y-82722881D02*
X194397488Y-83150000D01*
D70*
X246110000Y-82945000D02*
X245585000Y-82945000D01*
D67*
X235700000Y-75000000D02*
X235700000Y-74025000D01*
X212270000Y-84680000D02*
X212050000Y-84900000D01*
X191220000Y-75320000D02*
X191862664Y-75320000D01*
X189290000Y-83290000D02*
X189400000Y-83400000D01*
X218820000Y-84700000D02*
X218800000Y-84680000D01*
X194397488Y-83150000D02*
X195750000Y-83150000D01*
X192851386Y-74331278D02*
X192237957Y-74944707D01*
X233510000Y-75000000D02*
X232910000Y-75600000D01*
X189610000Y-83610000D02*
X189610000Y-84007336D01*
X212400000Y-74000000D02*
X213425000Y-74000000D01*
D69*
X235600000Y-70712500D02*
X235600000Y-71200000D01*
D67*
X195750000Y-83150000D02*
X196100589Y-83500589D01*
X213425000Y-74000000D02*
X213437500Y-73987500D01*
D68*
X225132500Y-74000000D02*
X225145000Y-73987500D01*
D69*
X227200000Y-73900000D02*
X227200000Y-72312500D01*
D70*
X243500000Y-80860000D02*
X243500000Y-79090236D01*
D68*
X224400000Y-74000000D02*
X225132500Y-74000000D01*
D67*
X188419581Y-83712831D02*
X188842412Y-83290000D01*
X191862664Y-75320000D02*
X192237957Y-74944707D01*
X228500000Y-75000000D02*
X228500000Y-74025000D01*
X213812500Y-88087500D02*
X213800000Y-88100000D01*
X189610000Y-84007336D02*
X189162043Y-84455293D01*
X223860000Y-84700000D02*
X218820000Y-84700000D01*
X193300000Y-81900000D02*
X193300000Y-82052512D01*
X192525500Y-72025000D02*
X192851386Y-72350886D01*
X191200000Y-75300000D02*
X191220000Y-75320000D01*
D69*
X235600000Y-71200000D02*
X236700000Y-72300000D01*
D67*
X235700000Y-74025000D02*
X235662500Y-73987500D01*
%TO.N,/USB_D-*%
X179392500Y-98566877D02*
X181233274Y-96726103D01*
X182436380Y-88706077D02*
X182287702Y-88854758D01*
X182287702Y-88854758D02*
X181233274Y-89909188D01*
X178220000Y-92780000D02*
X178220000Y-93637818D01*
X178392500Y-98576929D02*
X178392500Y-99822500D01*
X184047471Y-86851231D02*
X184047472Y-86851231D01*
X183803713Y-86851231D02*
X183623207Y-87031736D01*
X181233274Y-89909188D02*
X181233274Y-94577487D01*
X179392500Y-101402500D02*
X179392500Y-99822500D01*
X179780000Y-97189429D02*
X178392500Y-98576929D01*
X179780000Y-95197818D02*
X179780000Y-97189429D01*
X183623207Y-87519253D02*
X183136230Y-88006230D01*
X172080000Y-91100000D02*
X175240000Y-91100000D01*
X183623206Y-87519254D02*
X183623207Y-87519253D01*
X187610000Y-83532462D02*
X184291231Y-86851231D01*
X179630000Y-101640000D02*
X179392500Y-101402500D01*
X183803713Y-86851230D02*
X183803713Y-86851231D01*
X179392500Y-99822500D02*
X179392500Y-98566877D01*
X178392500Y-102067500D02*
X178390000Y-102070000D01*
X178220000Y-93637818D02*
X179780000Y-95197818D01*
X175890000Y-90450000D02*
X178220000Y-92780000D01*
X182860646Y-88006230D02*
X182860645Y-88006229D01*
X182585061Y-88006229D02*
X182436380Y-88154909D01*
X178392500Y-99822500D02*
X178392500Y-102067500D01*
X175240000Y-91100000D02*
X175890000Y-90450000D01*
X181233274Y-96726103D02*
X181233274Y-94577487D01*
X183623206Y-87275495D02*
X183623207Y-87275495D01*
X184047471Y-86851231D02*
G75*
G03*
X184291231Y-86851231I121880J121881D01*
G01*
X182860646Y-88006230D02*
G75*
G03*
X183136230Y-88006230I137792J137793D01*
G01*
X182860645Y-88006229D02*
G75*
G03*
X182585061Y-88006229I-137792J-137793D01*
G01*
X183623232Y-87519280D02*
G75*
G03*
X183623207Y-87275495I-121932J121880D01*
G01*
X183623192Y-87031721D02*
G75*
G03*
X183623207Y-87275494I121908J-121879D01*
G01*
X182436395Y-88706092D02*
G75*
G03*
X182436380Y-88430493I-137795J137792D01*
G01*
X184047480Y-86851223D02*
G75*
G03*
X183803713Y-86851230I-121880J-121877D01*
G01*
X182436380Y-88154909D02*
G75*
G03*
X182436381Y-88430492I137820J-137791D01*
G01*
%TO.N,/USB_D+*%
X178892500Y-98571903D02*
X178892500Y-99822500D01*
X182152513Y-95496726D02*
X182152513Y-89484924D01*
X175780000Y-93100000D02*
X175890000Y-92990000D01*
X178892500Y-101680318D02*
X179402182Y-102190000D01*
X180130000Y-94770000D02*
X180130000Y-97334403D01*
X180180000Y-100985000D02*
X179892500Y-100697500D01*
X182152513Y-89484924D02*
X188172093Y-83465344D01*
X172080000Y-93100000D02*
X175780000Y-93100000D01*
X178892500Y-99822500D02*
X178892500Y-101680318D01*
X179402182Y-102190000D02*
X179870000Y-102190000D01*
X179870000Y-102190000D02*
X180180000Y-101880000D01*
X182152513Y-96637487D02*
X182152513Y-95496726D01*
X180130000Y-97334403D02*
X178892500Y-98571903D01*
X180180000Y-101880000D02*
X180180000Y-100985000D01*
X178960000Y-93600000D02*
X180130000Y-94770000D01*
X179892500Y-99822500D02*
X179892500Y-98897500D01*
X179892500Y-98897500D02*
X182152513Y-96637487D01*
X179892500Y-100697500D02*
X179892500Y-99822500D01*
D70*
%TO.N,Net-(IC1-EXCLK_O)*%
X187452100Y-71559604D02*
X186787422Y-71559604D01*
X185864646Y-69603517D02*
X186855224Y-68612939D01*
X185816422Y-70588604D02*
X185816422Y-69730458D01*
X187452100Y-72121232D02*
X188923614Y-73592746D01*
X188923614Y-73592746D02*
X188923614Y-74211304D01*
X185816422Y-69730458D02*
X185864646Y-69682234D01*
X186787422Y-71559604D02*
X185816422Y-70588604D01*
X188923614Y-74211304D02*
X189409530Y-74697220D01*
X185864646Y-69682234D02*
X185864646Y-69603517D01*
X187452100Y-71559604D02*
X187452100Y-72121232D01*
D67*
%TO.N,Net-(IC1-VCM)*%
X189401386Y-88451386D02*
X189401386Y-86696361D01*
X189401386Y-86696361D02*
X189150000Y-86444975D01*
X189150000Y-86444975D02*
X189150000Y-85457285D01*
X189150000Y-85457285D02*
X189657017Y-84950268D01*
X189890120Y-88940120D02*
X189401386Y-88451386D01*
D70*
%TO.N,+1V8*%
X189223614Y-73468482D02*
X188960589Y-73205457D01*
X189657017Y-74449732D02*
X189223614Y-74016329D01*
D67*
X194287878Y-75172122D02*
X194840589Y-74619411D01*
D70*
X189657017Y-74449732D02*
X189657017Y-74457017D01*
X187800000Y-75000000D02*
X187891028Y-75091028D01*
D67*
X188221962Y-85256937D02*
X187930000Y-84964975D01*
D70*
X188039411Y-74317050D02*
X188039411Y-73889411D01*
X187800000Y-75000000D02*
X188261181Y-74538819D01*
X187429631Y-82722881D02*
X187429631Y-82770369D01*
D67*
X190010589Y-86810589D02*
X190010589Y-87160589D01*
D70*
X188172093Y-75934656D02*
X187800000Y-75562563D01*
D68*
X196250589Y-76029411D02*
X195613972Y-76666028D01*
D70*
X189223614Y-74016329D02*
X189223614Y-73468482D01*
D68*
X187050000Y-83350000D02*
X188200000Y-82200000D01*
D70*
X189657017Y-74457017D02*
X190300000Y-75100000D01*
D67*
X187930000Y-84697386D02*
X188667068Y-83960318D01*
D70*
X187389411Y-74589411D02*
X187339411Y-74589411D01*
X187800000Y-75182056D02*
X187891028Y-75091028D01*
D67*
X187930000Y-84964975D02*
X187930000Y-84697386D01*
X188200000Y-82200000D02*
X187830000Y-81830000D01*
X189500000Y-85602260D02*
X189500000Y-86300000D01*
D70*
X187950000Y-82697488D02*
X187677119Y-82970369D01*
D67*
X202972500Y-76619999D02*
X203390001Y-76619999D01*
D70*
X187800000Y-75562563D02*
X187800000Y-75182056D01*
D67*
X188221962Y-85539074D02*
X188221962Y-85256937D01*
D68*
X194733972Y-76666028D02*
X194150000Y-77250000D01*
X187000000Y-83350000D02*
X187050000Y-83350000D01*
D70*
X188914555Y-75192194D02*
X188261181Y-74538819D01*
X188960589Y-73205457D02*
X188960589Y-72739411D01*
D67*
X194287878Y-75369660D02*
X193475394Y-76182144D01*
D70*
X187891028Y-75091028D02*
X187389411Y-74589411D01*
D67*
X188221962Y-85539074D02*
X188221962Y-85838038D01*
X187830000Y-81830000D02*
X187339634Y-81830000D01*
X194287878Y-75202122D02*
X194287878Y-75172122D01*
D69*
X224100000Y-70700000D02*
X225387500Y-70700000D01*
X225387500Y-70700000D02*
X225400000Y-70712500D01*
D68*
X186539411Y-83810589D02*
X187000000Y-83350000D01*
D67*
X187339634Y-81830000D02*
X186938191Y-82231443D01*
X189904505Y-85197755D02*
X189500000Y-85602260D01*
D70*
X188261181Y-74538819D02*
X188039411Y-74317050D01*
D67*
X203390001Y-76619999D02*
X204105000Y-75905000D01*
X188221962Y-85838038D02*
X187849411Y-86210589D01*
D68*
X195513972Y-76666028D02*
X194733972Y-76666028D01*
X195613972Y-76666028D02*
X195513972Y-76666028D01*
D67*
X189500000Y-86300000D02*
X190010589Y-86810589D01*
D68*
X186339411Y-83810589D02*
X186539411Y-83810589D01*
D67*
X194287878Y-75202122D02*
X194287878Y-75369660D01*
D69*
%TO.N,+0V8*%
X237912500Y-70712500D02*
X239200000Y-70712500D01*
D67*
X184789411Y-83610589D02*
X185064071Y-83610589D01*
D70*
X186870000Y-75550000D02*
X187292462Y-75550000D01*
D67*
X195063472Y-75816528D02*
X195390589Y-75489411D01*
X194650000Y-83500000D02*
X195350589Y-84200589D01*
D70*
X186529411Y-75209411D02*
X186870000Y-75550000D01*
X188400000Y-76657538D02*
X187924606Y-76182144D01*
D67*
X193460589Y-74217050D02*
X193460589Y-73739411D01*
X194710901Y-76016528D02*
X194644373Y-75950000D01*
X194644373Y-75950000D02*
X194202512Y-75950000D01*
X191743815Y-75933824D02*
X192485445Y-75192194D01*
X188500000Y-84622361D02*
X188914555Y-84207806D01*
X192485445Y-75192194D02*
X193460589Y-74217050D01*
X185064071Y-83610589D02*
X186690705Y-81983955D01*
X188500000Y-85040000D02*
X188500000Y-84622361D01*
X195973247Y-77149114D02*
X195207806Y-77914555D01*
X192876257Y-82523743D02*
X193276257Y-82523743D01*
X196300000Y-77149114D02*
X195973247Y-77149114D01*
X193722881Y-82970369D02*
X194252512Y-83500000D01*
X194710901Y-76016528D02*
X194883472Y-76016528D01*
X196300000Y-77149114D02*
X196550886Y-77149114D01*
X188800000Y-87498114D02*
X188800000Y-85340000D01*
X192800000Y-82600000D02*
X192876257Y-82523743D01*
X188851886Y-87550000D02*
X188851886Y-86923064D01*
X194252512Y-83500000D02*
X194650000Y-83500000D01*
D70*
X187292462Y-75550000D02*
X187924606Y-76182144D01*
D67*
X188851886Y-87550000D02*
X188800000Y-87498114D01*
X188851886Y-86923064D02*
X188689411Y-86760589D01*
D70*
X187300000Y-81367588D02*
X187300000Y-81200000D01*
D67*
X193276257Y-82523743D02*
X193722881Y-82970369D01*
D69*
X237900000Y-70700000D02*
X237912500Y-70712500D01*
D70*
X188400000Y-77100000D02*
X188400000Y-76657538D01*
D67*
X194202512Y-75950000D02*
X193722881Y-76429631D01*
X188800000Y-85340000D02*
X188500000Y-85040000D01*
D70*
X186687169Y-81980419D02*
X187300000Y-81367588D01*
D67*
X196550886Y-77149114D02*
X196960589Y-76739411D01*
%TO.N,Net-(IC1-PPRST_)*%
X201025000Y-60475000D02*
X201025000Y-62900000D01*
D70*
X199280000Y-65060000D02*
X199950000Y-64390000D01*
D67*
X201025000Y-62900000D02*
X199950000Y-63975000D01*
X188667068Y-75439682D02*
X189127386Y-75900000D01*
X189409524Y-75900000D02*
X189454762Y-75945238D01*
X189127386Y-75900000D02*
X189300000Y-75900000D01*
X189300000Y-75900000D02*
X189409524Y-75900000D01*
D70*
X199950000Y-64390000D02*
X199950000Y-63975000D01*
%TO.N,/PA17*%
X185300000Y-74851472D02*
X184165142Y-73716614D01*
X188540000Y-68000000D02*
X191765000Y-64775000D01*
X184165142Y-73065142D02*
X181100000Y-70000000D01*
X186934656Y-77172093D02*
X185300000Y-75537437D01*
X185300000Y-75537437D02*
X185300000Y-74851472D01*
X182400000Y-68000000D02*
X188540000Y-68000000D01*
X181100000Y-69300000D02*
X182400000Y-68000000D01*
X181100000Y-70000000D02*
X181100000Y-69300000D01*
X184165142Y-73716614D02*
X184165142Y-73065142D01*
%TO.N,/PA16*%
X183865142Y-73218179D02*
X180800000Y-70153037D01*
X185000000Y-75732412D02*
X185000000Y-74975736D01*
X182275736Y-67700000D02*
X188100000Y-67700000D01*
X180800000Y-69175736D02*
X182275736Y-67700000D01*
X186687169Y-77419581D02*
X185000000Y-75732412D01*
X188100000Y-67700000D02*
X189225000Y-66575000D01*
X180800000Y-70153037D02*
X180800000Y-69175736D01*
X185000000Y-74975736D02*
X183865142Y-73840878D01*
X183865142Y-73840878D02*
X183865142Y-73218179D01*
X189225000Y-66575000D02*
X189225000Y-64775000D01*
%TO.N,/PA15*%
X184700000Y-75930000D02*
X186401714Y-77631714D01*
X184700000Y-75140000D02*
X184700000Y-75930000D01*
X183565142Y-73659936D02*
X183565142Y-74005142D01*
X181702603Y-71797397D02*
X183565142Y-73659936D01*
D67*
X173745000Y-67555000D02*
X176525000Y-64775000D01*
X173745000Y-70085000D02*
X173745000Y-67555000D01*
D70*
X183565142Y-74005142D02*
X184700000Y-75140000D01*
%TO.N,/PA14*%
X184400000Y-76122361D02*
X184400000Y-75264264D01*
X186192194Y-77914555D02*
X184400000Y-76122361D01*
X180500000Y-71364264D02*
X180500000Y-69051472D01*
X180500000Y-69051472D02*
X182151472Y-67400000D01*
X188100000Y-63360000D02*
X189225000Y-62235000D01*
X188100000Y-65900000D02*
X188100000Y-63360000D01*
X182151472Y-67400000D02*
X186600000Y-67400000D01*
X184400000Y-75264264D02*
X180500000Y-71364264D01*
X186600000Y-67400000D02*
X188100000Y-65900000D01*
%TO.N,/PA11*%
X180200000Y-71488528D02*
X180200000Y-68927208D01*
X184100000Y-75388528D02*
X180200000Y-71488528D01*
X186685000Y-65915000D02*
X186685000Y-64775000D01*
X184100000Y-76317336D02*
X184100000Y-75388528D01*
X185500000Y-67100000D02*
X186685000Y-65915000D01*
X185944707Y-78162043D02*
X184100000Y-76317336D01*
X180200000Y-68927208D02*
X182027208Y-67100000D01*
X182027208Y-67100000D02*
X185500000Y-67100000D01*
%TO.N,/PA10*%
X185697220Y-78409530D02*
X183800000Y-76512310D01*
X185610000Y-63310000D02*
X186685000Y-62235000D01*
X179900000Y-71612792D02*
X179900000Y-68802944D01*
X185610000Y-65890000D02*
X185610000Y-63310000D01*
X184700000Y-66800000D02*
X185610000Y-65890000D01*
X183800000Y-75512792D02*
X179900000Y-71612792D01*
X183800000Y-76512310D02*
X183800000Y-75512792D01*
X181902944Y-66800000D02*
X184700000Y-66800000D01*
X179900000Y-68802944D02*
X181902944Y-66800000D01*
%TO.N,/PA09*%
X179600000Y-68678680D02*
X181778680Y-66500000D01*
X183500000Y-75637056D02*
X179600000Y-71737056D01*
X185449732Y-78657017D02*
X183500000Y-76707285D01*
X182420000Y-66500000D02*
X184145000Y-64775000D01*
X183500000Y-76707285D02*
X183500000Y-75637056D01*
X179600000Y-71737056D02*
X179600000Y-68678680D01*
X181778680Y-66500000D02*
X182420000Y-66500000D01*
%TO.N,/PA08*%
X182295736Y-66200000D02*
X183000000Y-65495736D01*
X183200000Y-75761320D02*
X179300000Y-71861320D01*
X183200000Y-76902260D02*
X183200000Y-75761320D01*
X181654416Y-66200000D02*
X182295736Y-66200000D01*
X183000000Y-65495736D02*
X183000000Y-63380000D01*
X179300000Y-68554416D02*
X181654416Y-66200000D01*
X179300000Y-71861320D02*
X179300000Y-68554416D01*
X185202245Y-78904505D02*
X183200000Y-76902260D01*
X183000000Y-63380000D02*
X184145000Y-62235000D01*
%TO.N,/PA07*%
X182700000Y-65371472D02*
X182700000Y-63330000D01*
X182900000Y-75885584D02*
X179000000Y-71985584D01*
X179000000Y-67900000D02*
X181000000Y-65900000D01*
X182171472Y-65900000D02*
X182700000Y-65371472D01*
X179000000Y-71985584D02*
X179000000Y-67900000D01*
X182700000Y-63330000D02*
X181605000Y-62235000D01*
X181000000Y-65900000D02*
X182171472Y-65900000D01*
X182900000Y-77097235D02*
X182900000Y-75885584D01*
X184954757Y-79151992D02*
X182900000Y-77097235D01*
%TO.N,/PA06*%
X182600000Y-77221499D02*
X182600000Y-76009848D01*
X184954757Y-80248008D02*
X184500000Y-79793251D01*
X184500000Y-79793251D02*
X184500000Y-79121499D01*
X184500000Y-79121499D02*
X182600000Y-77221499D01*
X182600000Y-76009848D02*
X178600000Y-72009848D01*
X178600000Y-72009848D02*
X178600000Y-67780000D01*
X178600000Y-67780000D02*
X181605000Y-64775000D01*
D71*
%TO.N,/MIPI_0_N*%
X182075500Y-78309203D02*
X184607858Y-80841561D01*
X184856179Y-80841561D02*
X185202245Y-80495495D01*
X184607858Y-80841561D02*
X184856179Y-80841561D01*
X182075500Y-76700000D02*
X182075500Y-78309203D01*
%TO.N,/MIPI_0_P*%
X185021155Y-81171560D02*
X185449732Y-80742983D01*
X181536000Y-77800000D02*
X181536000Y-78236000D01*
X184471560Y-81171560D02*
X185021155Y-81171560D01*
X181536000Y-78236000D02*
X184471560Y-81171560D01*
%TO.N,/MIPI_CLK_N*%
X185186130Y-81501560D02*
X185697220Y-80990470D01*
X179500000Y-80200000D02*
X179500000Y-79600000D01*
X184133310Y-81300000D02*
X184334870Y-81501560D01*
X180600000Y-81300000D02*
X184133310Y-81300000D01*
X180000000Y-80700000D02*
X180600000Y-81300000D01*
X184334870Y-81501560D02*
X185186130Y-81501560D01*
X180000000Y-80700000D02*
X179500000Y-80200000D01*
%TO.N,/MIPI_CLK_P*%
X179300000Y-80800000D02*
X179300000Y-80762969D01*
X184198180Y-81831560D02*
X185372318Y-81831560D01*
X179300000Y-80762969D02*
X179268790Y-80731759D01*
X179300000Y-80800000D02*
X180130000Y-81630000D01*
X185372318Y-81831560D02*
X185944707Y-81259171D01*
X183996620Y-81630000D02*
X184198180Y-81831560D01*
X180130000Y-81630000D02*
X183996620Y-81630000D01*
%TO.N,/MIPI_1_N*%
X185377639Y-82300000D02*
X186192194Y-81485445D01*
X182200000Y-82300000D02*
X185377639Y-82300000D01*
%TO.N,/MIPI_1_P*%
X181000000Y-82790000D02*
X181000000Y-82400000D01*
X181200000Y-82990000D02*
X185203828Y-82990000D01*
X185203828Y-82990000D02*
X186439682Y-81754146D01*
X181200000Y-82990000D02*
X181000000Y-82790000D01*
D70*
%TO.N,/NOR_CE*%
X201197056Y-86850000D02*
X208367208Y-86850000D01*
X194267765Y-88465000D02*
X199582056Y-88465000D01*
X191248008Y-85445243D02*
X194267765Y-88465000D01*
X215110000Y-93592792D02*
X215110000Y-96450000D01*
X199582056Y-88465000D02*
X201197056Y-86850000D01*
X215110000Y-96450000D02*
X215110000Y-103140000D01*
X215110000Y-103140000D02*
X215100000Y-103150000D01*
X208367208Y-86850000D02*
X215110000Y-93592792D01*
%TO.N,/NOR_DR*%
X201072792Y-86550000D02*
X219840330Y-86550000D01*
X194462740Y-88165000D02*
X199457792Y-88165000D01*
X191495495Y-85197755D02*
X194462740Y-88165000D01*
D67*
X233315000Y-104475000D02*
X225130000Y-96290000D01*
D70*
X199457792Y-88165000D02*
X201072792Y-86550000D01*
X219840330Y-86550000D02*
X225130000Y-91839670D01*
D67*
X225130000Y-96290000D02*
X225130000Y-91900000D01*
D70*
%TO.N,/NOR_DT*%
X194657715Y-87865000D02*
X199333528Y-87865000D01*
X200948528Y-86250000D02*
X219964594Y-86250000D01*
X227670000Y-84700000D02*
X231300000Y-88330000D01*
X191742983Y-84950268D02*
X194657715Y-87865000D01*
X227670000Y-85830000D02*
X227670000Y-84700000D01*
X220514594Y-86800000D02*
X226700000Y-86800000D01*
D67*
X238395000Y-96855000D02*
X238395000Y-95995000D01*
D70*
X199333528Y-87865000D02*
X200948528Y-86250000D01*
D67*
X238395000Y-95995000D02*
X235200000Y-92800000D01*
D70*
X226700000Y-86800000D02*
X227670000Y-85830000D01*
X231300000Y-88330000D02*
X231300000Y-88400000D01*
X219964594Y-86250000D02*
X220514594Y-86800000D01*
%TO.N,/NOR_CK*%
X227100000Y-83500000D02*
X228200000Y-83500000D01*
X199209264Y-87565000D02*
X200824264Y-85950000D01*
X200824264Y-85950000D02*
X220088858Y-85950000D01*
X234340000Y-89640000D02*
X234340000Y-94590000D01*
X191990470Y-84702780D02*
X194852690Y-87565000D01*
X220638858Y-86500000D02*
X226100000Y-86500000D01*
X226400000Y-84700000D02*
X226400000Y-84200000D01*
X220088858Y-85950000D02*
X220638858Y-86500000D01*
X194852690Y-87565000D02*
X199209264Y-87565000D01*
X234340000Y-94590000D02*
X235855000Y-96105000D01*
X228200000Y-83500000D02*
X234340000Y-89640000D01*
X235855000Y-96105000D02*
X235855000Y-96855000D01*
X226100000Y-86500000D02*
X226400000Y-86200000D01*
X226400000Y-86200000D02*
X226400000Y-84700000D01*
X226400000Y-84200000D02*
X227100000Y-83500000D01*
%TO.N,/MMC0_D1*%
X241690000Y-78710000D02*
X239250000Y-78710000D01*
X245585000Y-87345000D02*
X242200000Y-83960000D01*
X235098147Y-79740000D02*
X232763147Y-82075000D01*
X215500000Y-82200000D02*
X208521320Y-82200000D01*
X205221320Y-85500000D02*
X200850000Y-85500000D01*
X239250000Y-78710000D02*
X238220000Y-79740000D01*
X232763147Y-82075000D02*
X215975000Y-82075000D01*
X208521320Y-82200000D02*
X205221320Y-85500000D01*
X215800000Y-81900000D02*
X215500000Y-82200000D01*
X242200000Y-79220000D02*
X241690000Y-78710000D01*
X200850000Y-85500000D02*
X199085000Y-87265000D01*
X199085000Y-87265000D02*
X195047664Y-87265000D01*
X242200000Y-83960000D02*
X242200000Y-79220000D01*
X238220000Y-79740000D02*
X235098147Y-79740000D01*
X215450000Y-77237500D02*
X215450000Y-74175000D01*
X215450000Y-74175000D02*
X215262500Y-73987500D01*
X215450000Y-79050000D02*
X215450000Y-77237500D01*
X195047664Y-87265000D02*
X192237957Y-84455293D01*
X215975000Y-82075000D02*
X215800000Y-81900000D01*
X215800000Y-79400000D02*
X215450000Y-79050000D01*
D67*
X246110000Y-87345000D02*
X245585000Y-87345000D01*
D70*
%TO.N,/MMC0_D0*%
X242600000Y-79180000D02*
X241760000Y-78340000D01*
X198960736Y-86965000D02*
X200725736Y-85200000D01*
X237932792Y-79440000D02*
X234973883Y-79440000D01*
X217450000Y-81750000D02*
X217200000Y-81500000D01*
X217150000Y-79350000D02*
X217150000Y-77237500D01*
X208397056Y-81900000D02*
X214872057Y-81900000D01*
X239032792Y-78340000D02*
X237932792Y-79440000D01*
D67*
X246110000Y-86245000D02*
X245585000Y-86245000D01*
D70*
X245585000Y-86245000D02*
X245245000Y-86245000D01*
X232663883Y-81750000D02*
X217450000Y-81750000D01*
X215536029Y-81236028D02*
X216936028Y-81236028D01*
X245245000Y-86245000D02*
X242600000Y-83600000D01*
X217150000Y-77237500D02*
X217150000Y-74100000D01*
X217200000Y-79400000D02*
X217150000Y-79350000D01*
X214872057Y-81900000D02*
X215536029Y-81236028D01*
X216936028Y-81236028D02*
X217200000Y-81500000D01*
X241760000Y-78340000D02*
X239032792Y-78340000D01*
X192485445Y-84207806D02*
X195242639Y-86965000D01*
X217150000Y-74100000D02*
X217037500Y-73987500D01*
X242600000Y-83600000D02*
X242600000Y-79180000D01*
X234973883Y-79440000D02*
X232663883Y-81750000D01*
X195242639Y-86965000D02*
X198960736Y-86965000D01*
X205097056Y-85200000D02*
X208397056Y-81900000D01*
X200725736Y-85200000D02*
X205097056Y-85200000D01*
%TO.N,/MMC0_CLK*%
X215447793Y-80900000D02*
X221700000Y-80900000D01*
X222412500Y-75087500D02*
X222412500Y-73987500D01*
X244810305Y-83255000D02*
X244795000Y-83255000D01*
X243000000Y-79074219D02*
X241965781Y-78040000D01*
X198836472Y-86665000D02*
X200601472Y-84900000D01*
X245235000Y-83679695D02*
X244810305Y-83255000D01*
X244795000Y-83255000D02*
X243000000Y-81460000D01*
X245585000Y-84045000D02*
X245235000Y-83695000D01*
X241965781Y-78040000D02*
X238908528Y-78040000D01*
X243000000Y-81460000D02*
X243000000Y-79074219D01*
X222225000Y-81425000D02*
X222000000Y-81200000D01*
X222000000Y-79300000D02*
X222075000Y-79225000D01*
X195437614Y-86665000D02*
X198836472Y-86665000D01*
X246110000Y-84045000D02*
X245585000Y-84045000D01*
X208272792Y-81600000D02*
X214747793Y-81600000D01*
X222075000Y-77237500D02*
X222075000Y-75425000D01*
X200601472Y-84900000D02*
X204972792Y-84900000D01*
X234814264Y-79140000D02*
X232529264Y-81425000D01*
X221700000Y-80900000D02*
X222000000Y-81200000D01*
X192732932Y-83960318D02*
X195437614Y-86665000D01*
X232529264Y-81425000D02*
X222225000Y-81425000D01*
X245235000Y-83695000D02*
X245235000Y-83679695D01*
X222075000Y-75425000D02*
X222412500Y-75087500D01*
X204972792Y-84900000D02*
X208272792Y-81600000D01*
X214747793Y-81600000D02*
X215447793Y-80900000D01*
X237808528Y-79140000D02*
X234814264Y-79140000D01*
X238908528Y-78040000D02*
X237808528Y-79140000D01*
X222075000Y-79225000D02*
X222075000Y-77237500D01*
%TO.N,/MMC0_CMD*%
X244300000Y-78700000D02*
X243340000Y-77740000D01*
X229749500Y-81049500D02*
X229600000Y-80900000D01*
X234690000Y-78840000D02*
X232480500Y-81049500D01*
X198712208Y-86365000D02*
X200477208Y-84600000D01*
X238784264Y-77740000D02*
X237684264Y-78840000D01*
X192980419Y-83712831D02*
X195632588Y-86365000D01*
X204848528Y-84600000D02*
X208148528Y-81300000D01*
X195632588Y-86365000D02*
X198712208Y-86365000D01*
X214623529Y-81300000D02*
X215323529Y-80600000D01*
X208148528Y-81300000D02*
X214623529Y-81300000D01*
X245585000Y-81845000D02*
X244300000Y-80560000D01*
X229300000Y-80600000D02*
X229600000Y-80900000D01*
X229600000Y-79400000D02*
X229575000Y-79375000D01*
X215323529Y-80600000D02*
X229300000Y-80600000D01*
X244300000Y-80560000D02*
X244300000Y-78700000D01*
X237684264Y-78840000D02*
X234690000Y-78840000D01*
X200477208Y-84600000D02*
X204848528Y-84600000D01*
X232480500Y-81049500D02*
X229749500Y-81049500D01*
X229575000Y-79375000D02*
X229575000Y-77237500D01*
X230362500Y-75037500D02*
X230362500Y-73987500D01*
X246110000Y-81845000D02*
X245585000Y-81845000D01*
X243340000Y-77740000D02*
X238784264Y-77740000D01*
X229575000Y-77237500D02*
X229575000Y-75825000D01*
X229575000Y-75825000D02*
X230362500Y-75037500D01*
%TO.N,/MMC0_D3*%
X232075000Y-77237500D02*
X232075000Y-74000000D01*
X204724264Y-84300000D02*
X200352944Y-84300000D01*
X232100000Y-79300000D02*
X232075000Y-79275000D01*
X232075000Y-79275000D02*
X232075000Y-77237500D01*
X214499265Y-81000000D02*
X208024264Y-81000000D01*
X238660000Y-77440000D02*
X237560000Y-78540000D01*
X215199265Y-80300000D02*
X214499265Y-81000000D01*
X232075000Y-74000000D02*
X232087500Y-73987500D01*
X246110000Y-80745000D02*
X245535000Y-80745000D01*
X231875500Y-80300000D02*
X215199265Y-80300000D01*
X243540000Y-77440000D02*
X238660000Y-77440000D01*
X234364264Y-78540000D02*
X232379764Y-80524500D01*
X208024264Y-81000000D02*
X204724264Y-84300000D01*
X245535000Y-80745000D02*
X244800000Y-80010000D01*
X232100000Y-80524500D02*
X231875500Y-80300000D01*
X198587944Y-86065000D02*
X195827563Y-86065000D01*
X244800000Y-78700000D02*
X243540000Y-77440000D01*
X244800000Y-80010000D02*
X244800000Y-78700000D01*
X237560000Y-78540000D02*
X234364264Y-78540000D01*
X200352944Y-84300000D02*
X198587944Y-86065000D01*
X195827563Y-86065000D02*
X193227907Y-83465344D01*
X232379764Y-80524500D02*
X232100000Y-80524500D01*
%TO.N,/MMC0_D2*%
X240640000Y-77140000D02*
X237487500Y-73987500D01*
X237140000Y-75690000D02*
X237140000Y-74335000D01*
X246110000Y-79480000D02*
X243770000Y-77140000D01*
X237140000Y-74335000D02*
X237487500Y-73987500D01*
X198463680Y-85765000D02*
X200228680Y-84000000D01*
X214375001Y-80700000D02*
X215075001Y-80000000D01*
X196022538Y-85765000D02*
X198463680Y-85765000D01*
X232480000Y-80000000D02*
X234240000Y-78240000D01*
X204600000Y-84000000D02*
X207900000Y-80700000D01*
X193475394Y-83217856D02*
X196022538Y-85765000D01*
X236310000Y-76520000D02*
X237140000Y-75690000D01*
X200228680Y-84000000D02*
X204600000Y-84000000D01*
X234240000Y-78240000D02*
X236020000Y-78240000D01*
X246110000Y-79645000D02*
X246110000Y-79480000D01*
X236020000Y-78240000D02*
X236310000Y-77950000D01*
X215075001Y-80000000D02*
X232480000Y-80000000D01*
X236310000Y-77950000D02*
X236310000Y-76520000D01*
X243770000Y-77140000D02*
X240640000Y-77140000D01*
X207900000Y-80700000D02*
X214375001Y-80700000D01*
D67*
%TO.N,/MICLP*%
X190566715Y-84346715D02*
X190700000Y-84480000D01*
D70*
X203265000Y-88765000D02*
X205090000Y-90590000D01*
X191335000Y-86475000D02*
X191541727Y-86475000D01*
X205090000Y-93605000D02*
X208280000Y-96795000D01*
D67*
X189409530Y-84702780D02*
X189765595Y-84346715D01*
D70*
X205090000Y-90590000D02*
X205090000Y-93605000D01*
D67*
X189765595Y-84346715D02*
X190566715Y-84346715D01*
D70*
X190770000Y-85910000D02*
X191335000Y-86475000D01*
X191541727Y-86475000D02*
X193831727Y-88765000D01*
X193831727Y-88765000D02*
X203265000Y-88765000D01*
%TO.N,/HPOUTL*%
X201780000Y-97895000D02*
X201780000Y-101965000D01*
X190151992Y-86161992D02*
X190765000Y-86775000D01*
X202550000Y-97125000D02*
X201780000Y-97895000D01*
X202550000Y-90590000D02*
X202550000Y-97125000D01*
X190151992Y-85445243D02*
X190151992Y-86161992D01*
X190765000Y-86775000D02*
X191417463Y-86775000D01*
X193707463Y-89065000D02*
X201025000Y-89065000D01*
X191417463Y-86775000D02*
X193707463Y-89065000D01*
X201025000Y-89065000D02*
X202550000Y-90590000D01*
D67*
%TO.N,Net-(IC1-BOOT_SEL0_PC00)*%
X201675000Y-62365000D02*
X201675000Y-67075000D01*
D70*
X196445243Y-79151992D02*
X196723621Y-78873614D01*
X200010000Y-76390000D02*
X200010000Y-72370000D01*
X196723621Y-78873614D02*
X197526386Y-78873614D01*
X197526386Y-78873614D02*
X200010000Y-76390000D01*
X201600000Y-67150000D02*
X201675000Y-67075000D01*
D67*
X203565000Y-60475000D02*
X201675000Y-62365000D01*
D70*
X200010000Y-72370000D02*
X201600000Y-70780000D01*
X201600000Y-70780000D02*
X201600000Y-67150000D01*
%TO.N,/UART_RX*%
X194629253Y-78589253D02*
X194750000Y-78710000D01*
X230430000Y-83030000D02*
X235200000Y-87800000D01*
X235200000Y-87800000D02*
X235200000Y-89400000D01*
X203957184Y-78882684D02*
X203939868Y-78900000D01*
X239800000Y-90300000D02*
X245595000Y-96095000D01*
X235200000Y-89400000D02*
X236100000Y-90300000D01*
X236100000Y-90300000D02*
X239800000Y-90300000D01*
X245595000Y-96095000D02*
X246170000Y-96095000D01*
X194629253Y-77998133D02*
X194629253Y-78589253D01*
X194960318Y-77667068D02*
X194600000Y-78027386D01*
X209345925Y-83416538D02*
X209732463Y-83030000D01*
X209732463Y-83030000D02*
X230430000Y-83030000D01*
X203939868Y-78900000D02*
X199040886Y-78900000D01*
X208046538Y-83416538D02*
X209345925Y-83416538D01*
X194960318Y-77667068D02*
X194629253Y-77998133D01*
%TO.N,/UART_TX*%
X230630000Y-82730000D02*
X235500000Y-87600000D01*
X235500000Y-87600000D02*
X235500000Y-89275736D01*
X236224264Y-90000000D02*
X242600000Y-90000000D01*
X198630000Y-78210000D02*
X203304590Y-78210000D01*
X235500000Y-89275736D02*
X236224264Y-90000000D01*
X203304590Y-78210000D02*
X203447295Y-78352705D01*
X197320000Y-79520000D02*
X198630000Y-78210000D01*
X242600000Y-90000000D02*
X246170000Y-93570000D01*
X193977521Y-78240613D02*
X193977521Y-78154891D01*
X203447295Y-78352705D02*
X204487162Y-78352705D01*
X193977521Y-78154891D02*
X194712831Y-77419581D01*
X209290000Y-82730000D02*
X230630000Y-82730000D01*
%TO.N,/PB30*%
X192980419Y-75687169D02*
X193410000Y-75257588D01*
X196950000Y-60574264D02*
X195705736Y-59330000D01*
X196950000Y-61250000D02*
X196950000Y-60574264D01*
X196950000Y-71220000D02*
X196950000Y-61250000D01*
X195705736Y-59330000D02*
X185120000Y-59330000D01*
X193410000Y-75257588D02*
X193410000Y-74760000D01*
X185120000Y-59330000D02*
X182680000Y-56890000D01*
X193410000Y-74760000D02*
X196950000Y-71220000D01*
X182680000Y-55090000D02*
X183945000Y-53825000D01*
X182680000Y-56890000D02*
X182680000Y-55090000D01*
%TO.N,/PB29*%
X192840000Y-63310000D02*
X191765000Y-62235000D01*
X192840000Y-67960000D02*
X192840000Y-63310000D01*
X192310000Y-76410000D02*
X192430000Y-76530000D01*
X192310000Y-75862614D02*
X192310000Y-76410000D01*
X192732932Y-75439682D02*
X192310000Y-75862614D01*
X190300000Y-70500000D02*
X192840000Y-67960000D01*
%TO.N,/PB28*%
X192000500Y-71807537D02*
X192308037Y-71500000D01*
X196650000Y-68054000D02*
X196650000Y-60698528D01*
X195581472Y-59630000D02*
X184670000Y-59630000D01*
X184670000Y-59630000D02*
X181405000Y-56365000D01*
X193204000Y-71500000D02*
X196650000Y-68054000D01*
X192308037Y-71500000D02*
X193204000Y-71500000D01*
X192526386Y-74161304D02*
X192526386Y-73368849D01*
X191990470Y-74697220D02*
X192526386Y-74161304D01*
X192526386Y-73368849D02*
X192000500Y-72842963D01*
X192000500Y-72842963D02*
X192000500Y-71807537D01*
X196650000Y-60698528D02*
X195581472Y-59630000D01*
%TO.N,/PB27*%
X180160000Y-56850000D02*
X180160000Y-55070000D01*
X183240000Y-59930000D02*
X180160000Y-56850000D01*
X180160000Y-55070000D02*
X181405000Y-53825000D01*
D67*
X233855000Y-77245000D02*
X233700000Y-77400000D01*
D70*
X192226386Y-73493113D02*
X191700500Y-72967227D01*
D67*
X235310000Y-77245000D02*
X233855000Y-77245000D01*
D70*
X195052651Y-68331122D02*
X195631122Y-68331122D01*
X192226386Y-73966329D02*
X192226386Y-73493113D01*
X191742983Y-74449732D02*
X192226386Y-73966329D01*
X195631122Y-68331122D02*
X196350000Y-67612244D01*
X196350000Y-67612244D02*
X196350000Y-60840000D01*
D67*
X233700000Y-77400000D02*
X233690000Y-77400000D01*
D70*
X195440000Y-59930000D02*
X183240000Y-59930000D01*
D67*
X209000000Y-74800000D02*
X209000000Y-67500000D01*
D70*
X196350000Y-60840000D02*
X195440000Y-59930000D01*
X191700500Y-71683273D02*
X195052651Y-68331122D01*
D67*
X233690000Y-77400000D02*
X232910000Y-76620000D01*
D70*
X191700500Y-72967227D02*
X191700500Y-71683273D01*
D69*
%TO.N,+5V*%
X211500000Y-72400000D02*
X216912500Y-72400000D01*
X216912500Y-72400000D02*
X218600000Y-70712500D01*
X173725304Y-84800000D02*
X164500000Y-75574696D01*
X172080000Y-88600000D02*
X172490000Y-88190000D01*
X172490000Y-88190000D02*
X175610000Y-88190000D01*
D68*
X176692500Y-98252500D02*
X176692500Y-99822500D01*
D69*
X210300000Y-75651346D02*
X210300000Y-73600000D01*
X210300000Y-73600000D02*
X211500000Y-72400000D01*
X164500000Y-75574696D02*
X164500000Y-65650000D01*
D68*
X182080000Y-98160000D02*
X181592500Y-98647500D01*
D69*
X210900500Y-79100000D02*
X210900500Y-76251846D01*
X164500000Y-65650000D02*
X173785000Y-56365000D01*
X175900000Y-84800000D02*
X173725304Y-84800000D01*
X175610000Y-88190000D02*
X175890000Y-87910000D01*
X210900500Y-76251846D02*
X210300000Y-75651346D01*
D68*
X181592500Y-98647500D02*
X181592500Y-99822500D01*
D67*
%TO.N,Net-(J1-CC1)*%
X177892500Y-99822500D02*
X177892500Y-97900000D01*
X177892500Y-97900000D02*
X178530000Y-97262500D01*
%TO.N,Net-(J1-CC2)*%
X182500000Y-97100000D02*
X184352500Y-95247500D01*
X180892500Y-98392474D02*
X182184974Y-97100000D01*
X184352500Y-95247500D02*
X186170000Y-95247500D01*
X182184974Y-97100000D02*
X182500000Y-97100000D01*
X180892500Y-99822500D02*
X180892500Y-98392474D01*
D70*
%TO.N,/PB26*%
X191495495Y-74202245D02*
X191926386Y-73771354D01*
X182730000Y-60230000D02*
X178865000Y-56365000D01*
X191400000Y-71559509D02*
X196050000Y-66909509D01*
X191926386Y-73771354D02*
X191926386Y-73617377D01*
X191400000Y-73090991D02*
X191400000Y-71559509D01*
X195315736Y-60230000D02*
X182730000Y-60230000D01*
X196050000Y-60964264D02*
X195315736Y-60230000D01*
X191926386Y-73617377D02*
X191400000Y-73090991D01*
X196050000Y-66909509D02*
X196050000Y-60964264D01*
%TO.N,/PB25*%
X177690000Y-55000000D02*
X178865000Y-53825000D01*
X181220000Y-60530000D02*
X177690000Y-57000000D01*
X195190000Y-60530000D02*
X181220000Y-60530000D01*
X195750000Y-66785245D02*
X195750000Y-61090000D01*
X191100000Y-71435245D02*
X195750000Y-66785245D01*
X177690000Y-57000000D02*
X177690000Y-55000000D01*
X191248008Y-73954757D02*
X191100000Y-73806749D01*
X195750000Y-61090000D02*
X195190000Y-60530000D01*
X191100000Y-73806749D02*
X191100000Y-71435245D01*
%TO.N,/I2C0_SCK*%
X187429631Y-76677119D02*
X187875000Y-77122488D01*
X187880000Y-77644264D02*
X186300000Y-79224264D01*
X187880000Y-77322463D02*
X187880000Y-77644264D01*
X187875000Y-77317463D02*
X187880000Y-77322463D01*
X186300000Y-79224264D02*
X186300000Y-80200000D01*
X187875000Y-77122488D02*
X187875000Y-77317463D01*
%TO.N,/I2C0_SDA*%
X187580000Y-77520000D02*
X185650000Y-79450000D01*
X187182144Y-76924606D02*
X187575000Y-77317462D01*
X187580000Y-77446727D02*
X187580000Y-77520000D01*
X185650000Y-79450000D02*
X185650000Y-79650000D01*
X187575000Y-77317462D02*
X187575000Y-77441727D01*
X185650000Y-79650000D02*
X185700000Y-79700000D01*
X187575000Y-77441727D02*
X187580000Y-77446727D01*
%TO.N,/AUX0*%
X175250000Y-54900000D02*
X176325000Y-53825000D01*
X186473540Y-82806460D02*
X183430000Y-85850000D01*
X183430000Y-85850000D02*
X172650000Y-85850000D01*
X187182144Y-82475394D02*
X186851078Y-82806460D01*
X172650000Y-85850000D02*
X163725000Y-76925000D01*
X163725000Y-64514720D02*
X173339720Y-54900000D01*
X173339720Y-54900000D02*
X175250000Y-54900000D01*
X186851078Y-82806460D02*
X186473540Y-82806460D01*
X163725000Y-76925000D02*
X163725000Y-64514720D01*
D67*
%TO.N,Net-(U4-IO2)*%
X222312500Y-89912500D02*
X222400000Y-90000000D01*
X226375000Y-94995000D02*
X235855000Y-104475000D01*
X218900000Y-89912500D02*
X222312500Y-89912500D01*
X226375000Y-91925000D02*
X226375000Y-94995000D01*
X226400000Y-90000000D02*
X226400000Y-91900000D01*
X226400000Y-91900000D02*
X226375000Y-91925000D01*
D70*
%TO.N,/MDIO*%
X207800000Y-59000000D02*
X208825000Y-57975000D01*
X196302915Y-82825000D02*
X197127915Y-83650000D01*
X194567462Y-82825000D02*
X196302915Y-82825000D01*
X208825000Y-57975000D02*
X208825000Y-56365000D01*
X197127915Y-83650000D02*
X203750000Y-83650000D01*
X207800000Y-79600000D02*
X207800000Y-59000000D01*
X203750000Y-83650000D02*
X207800000Y-79600000D01*
X194217856Y-82475394D02*
X194567462Y-82825000D01*
%TO.N,/MDCK*%
X193976284Y-81301299D02*
X193976284Y-81738847D01*
X203975236Y-83000500D02*
X207500000Y-79475736D01*
X207500000Y-58400000D02*
X207750000Y-58150000D01*
X207750000Y-54900000D02*
X208825000Y-53825000D01*
X207500000Y-79475736D02*
X207500000Y-58400000D01*
X197168744Y-82900500D02*
X197268744Y-83000500D01*
X193976284Y-81738847D02*
X194465344Y-82227907D01*
X207750000Y-58150000D02*
X207750000Y-54900000D01*
X197268744Y-83000500D02*
X203975236Y-83000500D01*
%TO.N,/RXDV*%
X197386207Y-82375500D02*
X197711207Y-82700500D01*
X207200000Y-57280000D02*
X206285000Y-56365000D01*
X203850972Y-82700500D02*
X207200000Y-79351472D01*
X197711207Y-82700500D02*
X203850972Y-82700500D01*
X207200000Y-79351472D02*
X207200000Y-57280000D01*
X194712831Y-81980419D02*
X195107912Y-82375500D01*
X195107912Y-82375500D02*
X197386207Y-82375500D01*
%TO.N,/RXD0*%
X198166257Y-82124500D02*
X198221757Y-82180000D01*
X198221757Y-82180000D02*
X203947208Y-82180000D01*
X205210000Y-54900000D02*
X206285000Y-53825000D01*
X203947208Y-82180000D02*
X206900000Y-79227208D01*
X194500000Y-81272614D02*
X194960318Y-81732932D01*
X205210000Y-56910000D02*
X205210000Y-54900000D01*
X206900000Y-58600000D02*
X205210000Y-56910000D01*
X206900000Y-79227208D02*
X206900000Y-58600000D01*
X194700000Y-80700000D02*
X194500000Y-80900000D01*
X194500000Y-80900000D02*
X194500000Y-81272614D01*
%TO.N,/RXD1*%
X206600000Y-79102944D02*
X206600000Y-59220000D01*
X198384220Y-81600000D02*
X204102944Y-81600000D01*
X197472794Y-82075500D02*
X197948794Y-81599500D01*
X195207806Y-81485445D02*
X195797861Y-82075500D01*
X204102944Y-81600000D02*
X206600000Y-79102944D01*
X206600000Y-59220000D02*
X203745000Y-56365000D01*
X197948794Y-81599500D02*
X198383720Y-81599500D01*
X198383720Y-81599500D02*
X198384220Y-81600000D01*
X195797861Y-82075500D02*
X197472794Y-82075500D01*
%TO.N,/TXCLK*%
X195455293Y-81237957D02*
X195992836Y-81775500D01*
X203978680Y-81300000D02*
X206300000Y-78978680D01*
X202670000Y-56810280D02*
X202670000Y-54900000D01*
X195992836Y-81775500D02*
X197348530Y-81775500D01*
X204395736Y-57440000D02*
X203299720Y-57440000D01*
X203299720Y-57440000D02*
X202670000Y-56810280D01*
X206300000Y-78978680D02*
X206300000Y-59344264D01*
X206300000Y-59344264D02*
X204395736Y-57440000D01*
X202670000Y-54900000D02*
X203745000Y-53825000D01*
X197348530Y-81775500D02*
X197824030Y-81300000D01*
X197824030Y-81300000D02*
X203978680Y-81300000D01*
%TO.N,/PHYCLK*%
X203854416Y-81000000D02*
X206000000Y-78854416D01*
X204271472Y-57740000D02*
X203175456Y-57740000D01*
X203175456Y-57740000D02*
X201800456Y-56365000D01*
X197224266Y-81475500D02*
X197699766Y-81000000D01*
X206000000Y-78854416D02*
X206000000Y-59468528D01*
X197699766Y-81000000D02*
X203854416Y-81000000D01*
X196187810Y-81475500D02*
X197224266Y-81475500D01*
X206000000Y-59468528D02*
X204271472Y-57740000D01*
X201800456Y-56365000D02*
X201205000Y-56365000D01*
X195702780Y-80990470D02*
X196187810Y-81475500D01*
%TO.N,/TXD0*%
X200130000Y-54900000D02*
X201205000Y-53825000D01*
X197375736Y-80700000D02*
X203730152Y-80700000D01*
X196382785Y-81175500D02*
X196900236Y-81175500D01*
X196900236Y-81175500D02*
X197375736Y-80700000D01*
X202451192Y-57440000D02*
X200759720Y-57440000D01*
X195950268Y-80742983D02*
X196382785Y-81175500D01*
X203051192Y-58040000D02*
X202451192Y-57440000D01*
X205700000Y-78730152D02*
X205700000Y-59592792D01*
X205700000Y-59592792D02*
X204147208Y-58040000D01*
X203730152Y-80700000D02*
X205700000Y-78730152D01*
X204147208Y-58040000D02*
X203051192Y-58040000D01*
X200130000Y-56810280D02*
X200130000Y-54900000D01*
X200759720Y-57440000D02*
X200130000Y-56810280D01*
%TO.N,/TXD1*%
X198615500Y-79960000D02*
X204045888Y-79960000D01*
X202926928Y-58340000D02*
X202326928Y-57740000D01*
X204022944Y-58340000D02*
X202926928Y-58340000D01*
X202326928Y-57740000D02*
X200040000Y-57740000D01*
X205400000Y-78605888D02*
X205400000Y-59717056D01*
X200040000Y-57740000D02*
X198665000Y-56365000D01*
X195270000Y-80050000D02*
X195752260Y-80050000D01*
X205400000Y-59717056D02*
X204022944Y-58340000D01*
X204045888Y-79960000D02*
X205400000Y-78605888D01*
X198400000Y-80175500D02*
X198615500Y-79960000D01*
X195752260Y-80050000D02*
X196197755Y-80495495D01*
%TO.N,/TXEN*%
X205100000Y-59841320D02*
X203898680Y-58640000D01*
X203921624Y-79660000D02*
X205100000Y-78481624D01*
X198182537Y-79650500D02*
X198617463Y-79650500D01*
X197585029Y-80248008D02*
X198182537Y-79650500D01*
X198819720Y-58040000D02*
X197590000Y-56810280D01*
X202202664Y-58040000D02*
X198819720Y-58040000D01*
X205100000Y-78481624D02*
X205100000Y-59841320D01*
X202802664Y-58640000D02*
X202202664Y-58040000D01*
X196445243Y-80248008D02*
X197585029Y-80248008D01*
X197590000Y-56810280D02*
X197590000Y-54900000D01*
X197590000Y-54900000D02*
X198665000Y-53825000D01*
X198617463Y-79650500D02*
X198626963Y-79660000D01*
X203898680Y-58640000D02*
X202802664Y-58640000D01*
X198626963Y-79660000D02*
X203921624Y-79660000D01*
%TO.N,/UART0_RTS*%
X199300000Y-74300000D02*
X198450000Y-73450000D01*
X198450000Y-59819500D02*
X196390500Y-57760000D01*
X196390500Y-57760000D02*
X192960000Y-57760000D01*
X197402122Y-78573614D02*
X199300000Y-76675736D01*
X198450000Y-73450000D02*
X198450000Y-59819500D01*
X196197755Y-78904505D02*
X196528646Y-78573614D01*
X192960000Y-57760000D02*
X189025000Y-53825000D01*
X199300000Y-76675736D02*
X199300000Y-74300000D01*
X196528646Y-78573614D02*
X197402122Y-78573614D01*
%TO.N,/UART0_CTS*%
X199000000Y-76551472D02*
X199000000Y-74424264D01*
X196326386Y-78273614D02*
X197277858Y-78273614D01*
X195950268Y-78657017D02*
X196200000Y-78407285D01*
X196200000Y-78407285D02*
X196200000Y-78400000D01*
X196266236Y-58060000D02*
X190720000Y-58060000D01*
X198150000Y-73574264D02*
X198150000Y-59943764D01*
X198150000Y-59943764D02*
X196266236Y-58060000D01*
X199000000Y-74424264D02*
X198150000Y-73574264D01*
X190720000Y-58060000D02*
X189025000Y-56365000D01*
X196200000Y-78400000D02*
X196326386Y-78273614D01*
X197277858Y-78273614D02*
X199000000Y-76551472D01*
D67*
%TO.N,/UART0_TXD*%
X177392500Y-101717500D02*
X177080000Y-102030000D01*
D70*
X187750000Y-57000280D02*
X187750000Y-55090000D01*
X197850000Y-73698528D02*
X197850000Y-60201472D01*
X195702780Y-78409530D02*
X196138696Y-77973614D01*
X187750000Y-55090000D02*
X186485000Y-53825000D01*
X197153594Y-77973614D02*
X198700000Y-76427208D01*
X189109720Y-58360000D02*
X187750000Y-57000280D01*
X196138696Y-77973614D02*
X197153594Y-77973614D01*
X197850000Y-60201472D02*
X196008528Y-58360000D01*
X198700000Y-74548528D02*
X197850000Y-73698528D01*
D67*
X177392500Y-99822500D02*
X177392500Y-101717500D01*
D70*
X196008528Y-58360000D02*
X189109720Y-58360000D01*
X198700000Y-76427208D02*
X198700000Y-74548528D01*
%TO.N,/UART0_RXD*%
X188850000Y-58730000D02*
X186485000Y-56365000D01*
X197550000Y-73822792D02*
X197550000Y-60325736D01*
X195954264Y-58730000D02*
X188850000Y-58730000D01*
D67*
X180392500Y-100697500D02*
X180392500Y-99822500D01*
D70*
X195455293Y-78162043D02*
X195943722Y-77673614D01*
X197550000Y-60325736D02*
X195954264Y-58730000D01*
X195943722Y-77673614D02*
X197029330Y-77673614D01*
X197029330Y-77673614D02*
X198400000Y-76302944D01*
D67*
X180780000Y-101085000D02*
X180392500Y-100697500D01*
D70*
X198400000Y-74672792D02*
X197550000Y-73822792D01*
X198400000Y-76302944D02*
X198400000Y-74672792D01*
D67*
X180780000Y-101980000D02*
X180780000Y-101085000D01*
D70*
%TO.N,/PB31*%
X193710000Y-75452563D02*
X193710000Y-74993396D01*
X186610000Y-59030000D02*
X183945000Y-56365000D01*
X197250000Y-71453396D02*
X197250000Y-60450000D01*
X195830000Y-59030000D02*
X186610000Y-59030000D01*
X197250000Y-60450000D02*
X195830000Y-59030000D01*
X193263262Y-75899301D02*
X193710000Y-75452563D01*
X193710000Y-74993396D02*
X197250000Y-71453396D01*
D69*
%TO.N,Net-(J3-Shield)*%
X168400000Y-100820000D02*
X169500000Y-101920000D01*
X168400000Y-98670000D02*
X168400000Y-100820000D01*
X169500000Y-101920000D02*
X169927500Y-101920000D01*
D72*
X168400000Y-85530000D02*
X168400000Y-98670000D01*
D69*
X169927500Y-101920000D02*
X170050000Y-101797500D01*
%TO.N,Net-(J1-SHIELD)*%
X173060000Y-100737500D02*
X172000000Y-101797500D01*
X174822500Y-100737500D02*
X173060000Y-100737500D01*
D67*
%TO.N,Net-(U4-IO3)*%
X225130000Y-84700000D02*
X225130000Y-85445500D01*
X225130000Y-85445500D02*
X224600000Y-85975500D01*
D70*
%TO.N,/PB17*%
X194305000Y-64775000D02*
X194305000Y-67805981D01*
X190800000Y-71310981D02*
X190800000Y-73306749D01*
X190800000Y-73306749D02*
X190151992Y-73954757D01*
X194305000Y-67805981D02*
X190800000Y-71310981D01*
%TO.N,/PB18*%
X189573439Y-73871179D02*
X189904505Y-74202245D01*
X190500000Y-71042463D02*
X190500000Y-72310000D01*
X194305000Y-62235000D02*
X193140000Y-63400000D01*
X189573439Y-73236561D02*
X189573439Y-73871179D01*
X193140000Y-63400000D02*
X193140000Y-68402463D01*
X190500000Y-72310000D02*
X189573439Y-73236561D01*
X193140000Y-68402463D02*
X190500000Y-71042463D01*
D67*
%TO.N,/NOR_CE2*%
X217600000Y-103150000D02*
X217600000Y-96500000D01*
X217600000Y-96500000D02*
X217650000Y-96450000D01*
X219310000Y-96450000D02*
X223860000Y-91900000D01*
X217650000Y-96450000D02*
X219310000Y-96450000D01*
X218487500Y-91900000D02*
X223860000Y-91900000D01*
X216500000Y-89912500D02*
X218487500Y-91900000D01*
%TO.N,/NOR_CE1*%
X223137500Y-104475000D02*
X230775000Y-104475000D01*
X212600000Y-103150000D02*
X214550000Y-105100000D01*
X214550000Y-105100000D02*
X221887500Y-105100000D01*
X212600000Y-103150000D02*
X212600000Y-96480000D01*
X221887500Y-105100000D02*
X222200000Y-105412500D01*
X222200000Y-105412500D02*
X223137500Y-104475000D01*
X212600000Y-96480000D02*
X212570000Y-96450000D01*
D70*
%TO.N,/PA18*%
X186731434Y-76098566D02*
X187346054Y-76098566D01*
X186680000Y-76150000D02*
X186731434Y-76098566D01*
X187346054Y-76098566D02*
X187677119Y-76429631D01*
D67*
%TO.N,Net-(J15-Pin_2)*%
X173791000Y-72625000D02*
X172620000Y-73796000D01*
X177055000Y-72625000D02*
X173791000Y-72625000D01*
D68*
%TO.N,Net-(U1-VI)*%
X218600000Y-68887500D02*
X220887500Y-68887500D01*
D66*
X219100000Y-61450000D02*
X219100000Y-60350000D01*
X218600000Y-68887500D02*
X218600000Y-68650000D01*
X217737500Y-66600000D02*
X217737500Y-63000000D01*
X217737500Y-67787500D02*
X217737500Y-66600000D01*
X218600000Y-68650000D02*
X217737500Y-67787500D01*
D68*
X220887500Y-68887500D02*
X221800000Y-69800000D01*
D66*
X217737500Y-63000000D02*
X217737500Y-62812500D01*
X217737500Y-62812500D02*
X219100000Y-61450000D01*
%TO.N,Net-(U2-VI)*%
X229500000Y-60350000D02*
X229500000Y-61150000D01*
X228062500Y-68150000D02*
X228800000Y-68887500D01*
X228062500Y-66600000D02*
X228062500Y-68150000D01*
X228062500Y-62587500D02*
X228062500Y-66600000D01*
X229500000Y-61150000D02*
X228062500Y-62587500D01*
%TO.N,Net-(U3-VI)*%
X235600000Y-68200000D02*
X235600000Y-68887500D01*
X234650000Y-60800000D02*
X234650000Y-67250000D01*
X235100000Y-60350000D02*
X234650000Y-60800000D01*
X234650000Y-67250000D02*
X235600000Y-68200000D01*
%TD*%
M02*
