%TF.GenerationSoftware,KiCad,Pcbnew,7.0.1*%
%TF.CreationDate,2024-02-21T01:36:57-05:00*%
%TF.ProjectId,12-30-23-Teacup.kicad_pcb-revC,31322d33-302d-4323-932d-546561637570,B*%
%TF.SameCoordinates,Original*%
%TF.FileFunction,Soldermask,Bot*%
%TF.FilePolarity,Negative*%
%FSLAX46Y46*%
G04 Gerber Fmt 4.6, Leading zero omitted, Abs format (unit mm)*
G04 Created by KiCad (PCBNEW 7.0.1) date 2024-02-21 01:36:57*
%MOMM*%
%LPD*%
G01*
G04 APERTURE LIST*
%ADD10R,2.000000X0.600000*%
%ADD11R,4.200000X0.700000*%
%ADD12C,0.900000*%
%ADD13C,0.800000*%
%ADD14C,5.400000*%
%ADD15R,1.700000X1.700000*%
%ADD16O,1.700000X1.700000*%
%ADD17C,0.650000*%
%ADD18O,1.000000X2.100000*%
%ADD19O,1.000000X1.600000*%
%ADD20C,1.500000*%
%ADD21C,3.000000*%
%ADD22R,1.600000X2.400000*%
%ADD23O,1.600000X2.400000*%
%ADD24R,4.400000X1.800000*%
%ADD25O,4.000000X1.800000*%
%ADD26O,1.800000X4.000000*%
G04 APERTURE END LIST*
D10*
%TO.C,J13*%
X170790000Y-77240000D03*
X170790000Y-76240000D03*
X170790000Y-75240000D03*
X170790000Y-74240000D03*
X170790000Y-73240000D03*
X170790000Y-72240000D03*
X170790000Y-71240000D03*
X170790000Y-70240000D03*
X170790000Y-69240000D03*
X170790000Y-68240000D03*
X170790000Y-67240000D03*
X170790000Y-66240000D03*
X170790000Y-65240000D03*
X170790000Y-64240000D03*
X170790000Y-63240000D03*
D11*
X168690000Y-78240000D03*
X168690000Y-62240000D03*
%TD*%
D12*
%TO.C,SW2*%
X211700000Y-105900000D03*
X218500000Y-105900000D03*
%TD*%
D13*
%TO.C,H4*%
X242975000Y-55000000D03*
X243568109Y-53568109D03*
X243568109Y-56431891D03*
X245000000Y-52975000D03*
D14*
X245000000Y-55000000D03*
D13*
X245000000Y-57025000D03*
X246431891Y-53568109D03*
X246431891Y-56431891D03*
X247025000Y-55000000D03*
%TD*%
%TO.C,H3*%
X242975000Y-105000000D03*
X243568109Y-103568109D03*
X243568109Y-106431891D03*
X245000000Y-102975000D03*
D14*
X245000000Y-105000000D03*
D13*
X245000000Y-107025000D03*
X246431891Y-103568109D03*
X246431891Y-106431891D03*
X247025000Y-105000000D03*
%TD*%
D15*
%TO.C,J12*%
X200010000Y-90590000D03*
D16*
X202550000Y-90590000D03*
X205090000Y-90590000D03*
X207630000Y-90590000D03*
%TD*%
D15*
%TO.C,J7*%
X208825000Y-53825000D03*
D16*
X208825000Y-56365000D03*
X206285000Y-53825000D03*
X206285000Y-56365000D03*
X203745000Y-53825000D03*
X203745000Y-56365000D03*
X201205000Y-53825000D03*
X201205000Y-56365000D03*
X198665000Y-53825000D03*
X198665000Y-56365000D03*
X196125000Y-53825000D03*
X196125000Y-56365000D03*
X193585000Y-53825000D03*
X193585000Y-56365000D03*
%TD*%
D17*
%TO.C,J1*%
X176252500Y-101267500D03*
X182032500Y-101267500D03*
D18*
X174822500Y-100737500D03*
D19*
X174822500Y-104917500D03*
D18*
X183462500Y-100737500D03*
D19*
X183462500Y-104917500D03*
%TD*%
D20*
%TO.C,J10*%
X205030000Y-106495000D03*
X205030000Y-99495000D03*
%TD*%
D15*
%TO.C,J6*%
X189025000Y-53825000D03*
D16*
X189025000Y-56365000D03*
X186485000Y-53825000D03*
X186485000Y-56365000D03*
X183945000Y-53825000D03*
X183945000Y-56365000D03*
X181405000Y-53825000D03*
X181405000Y-56365000D03*
X178865000Y-53825000D03*
X178865000Y-56365000D03*
X176325000Y-53825000D03*
X176325000Y-56365000D03*
X173785000Y-53825000D03*
X173785000Y-56365000D03*
%TD*%
D13*
%TO.C,H1*%
X162975000Y-105000000D03*
X163568109Y-103568109D03*
X163568109Y-106431891D03*
X165000000Y-102975000D03*
D14*
X165000000Y-105000000D03*
D13*
X165000000Y-107025000D03*
X166431891Y-103568109D03*
X166431891Y-106431891D03*
X167025000Y-105000000D03*
%TD*%
D15*
%TO.C,J5*%
X246170000Y-93570000D03*
D16*
X246170000Y-96110000D03*
X246170000Y-98650000D03*
%TD*%
D15*
%TO.C,J4*%
X176525000Y-64775000D03*
D16*
X176525000Y-62235000D03*
X179065000Y-64775000D03*
X179065000Y-62235000D03*
X181605000Y-64775000D03*
X181605000Y-62235000D03*
X184145000Y-64775000D03*
X184145000Y-62235000D03*
X186685000Y-64775000D03*
X186685000Y-62235000D03*
X189225000Y-64775000D03*
X189225000Y-62235000D03*
X191765000Y-64775000D03*
X191765000Y-62235000D03*
X194305000Y-64775000D03*
X194305000Y-62235000D03*
%TD*%
D15*
%TO.C,J11*%
X175890000Y-87910000D03*
D16*
X175890000Y-90450000D03*
X175890000Y-92990000D03*
X175890000Y-95530000D03*
%TD*%
D21*
%TO.C,J3*%
X168400000Y-85530000D03*
X168400000Y-98670000D03*
%TD*%
D13*
%TO.C,H2*%
X162975000Y-55000000D03*
X163568109Y-53568109D03*
X163568109Y-56431891D03*
X165000000Y-52975000D03*
D14*
X165000000Y-55000000D03*
D13*
X165000000Y-57025000D03*
X166431891Y-53568109D03*
X166431891Y-56431891D03*
X167025000Y-55000000D03*
%TD*%
D15*
%TO.C,J9*%
X201025000Y-60475000D03*
D16*
X203565000Y-60475000D03*
%TD*%
D15*
%TO.C,J14*%
X175725000Y-81465000D03*
D16*
X175725000Y-78925000D03*
%TD*%
D22*
%TO.C,U5*%
X230775000Y-104475000D03*
D23*
X233315000Y-104475000D03*
X235855000Y-104475000D03*
X238395000Y-104475000D03*
X238395000Y-96855000D03*
X235855000Y-96855000D03*
X233315000Y-96855000D03*
X230775000Y-96855000D03*
%TD*%
D24*
%TO.C,J8*%
X192740000Y-93900000D03*
D25*
X192740000Y-99700000D03*
D26*
X197540000Y-96900000D03*
%TD*%
D15*
%TO.C,J16*%
X212570000Y-96450000D03*
D16*
X215110000Y-96450000D03*
X217650000Y-96450000D03*
%TD*%
M02*
