%TF.GenerationSoftware,KiCad,Pcbnew,7.0.1*%
%TF.CreationDate,2024-02-21T01:36:57-05:00*%
%TF.ProjectId,12-30-23-Teacup.kicad_pcb-revC,31322d33-302d-4323-932d-546561637570,B*%
%TF.SameCoordinates,Original*%
%TF.FileFunction,Copper,L2,Inr*%
%TF.FilePolarity,Positive*%
%FSLAX46Y46*%
G04 Gerber Fmt 4.6, Leading zero omitted, Abs format (unit mm)*
G04 Created by KiCad (PCBNEW 7.0.1) date 2024-02-21 01:36:57*
%MOMM*%
%LPD*%
G01*
G04 APERTURE LIST*
%TA.AperFunction,ComponentPad*%
%ADD10C,0.800000*%
%TD*%
%TA.AperFunction,ComponentPad*%
%ADD11C,5.400000*%
%TD*%
%TA.AperFunction,ComponentPad*%
%ADD12R,1.700000X1.700000*%
%TD*%
%TA.AperFunction,ComponentPad*%
%ADD13O,1.700000X1.700000*%
%TD*%
%TA.AperFunction,ComponentPad*%
%ADD14O,1.000000X2.100000*%
%TD*%
%TA.AperFunction,ComponentPad*%
%ADD15O,1.000000X1.600000*%
%TD*%
%TA.AperFunction,ComponentPad*%
%ADD16C,3.000000*%
%TD*%
%TA.AperFunction,ComponentPad*%
%ADD17R,1.600000X2.400000*%
%TD*%
%TA.AperFunction,ComponentPad*%
%ADD18O,1.600000X2.400000*%
%TD*%
%TA.AperFunction,ComponentPad*%
%ADD19R,4.400000X1.800000*%
%TD*%
%TA.AperFunction,ComponentPad*%
%ADD20O,4.000000X1.800000*%
%TD*%
%TA.AperFunction,ComponentPad*%
%ADD21O,1.800000X4.000000*%
%TD*%
%TA.AperFunction,ViaPad*%
%ADD22C,0.600000*%
%TD*%
%TA.AperFunction,ViaPad*%
%ADD23C,1.000000*%
%TD*%
%TA.AperFunction,ViaPad*%
%ADD24C,3.000000*%
%TD*%
%TA.AperFunction,Conductor*%
%ADD25C,0.500000*%
%TD*%
%TA.AperFunction,Conductor*%
%ADD26C,0.200000*%
%TD*%
G04 APERTURE END LIST*
D10*
%TO.N,GND*%
%TO.C,H4*%
X242975000Y-55000000D03*
X243568109Y-53568109D03*
X243568109Y-56431891D03*
X245000000Y-52975000D03*
D11*
X245000000Y-55000000D03*
D10*
X245000000Y-57025000D03*
X246431891Y-53568109D03*
X246431891Y-56431891D03*
X247025000Y-55000000D03*
%TD*%
%TO.N,GND*%
%TO.C,H3*%
X242975000Y-105000000D03*
X243568109Y-103568109D03*
X243568109Y-106431891D03*
X245000000Y-102975000D03*
D11*
X245000000Y-105000000D03*
D10*
X245000000Y-107025000D03*
X246431891Y-103568109D03*
X246431891Y-106431891D03*
X247025000Y-105000000D03*
%TD*%
D12*
%TO.N,GND*%
%TO.C,J12*%
X200010000Y-90590000D03*
D13*
%TO.N,/HPOUTL*%
X202550000Y-90590000D03*
%TO.N,/MICLP*%
X205090000Y-90590000D03*
%TO.N,GND*%
X207630000Y-90590000D03*
%TD*%
D12*
%TO.N,/MDCK*%
%TO.C,J7*%
X208825000Y-53825000D03*
D13*
%TO.N,/MDIO*%
X208825000Y-56365000D03*
%TO.N,/RXD0*%
X206285000Y-53825000D03*
%TO.N,/RXDV*%
X206285000Y-56365000D03*
%TO.N,/TXCLK*%
X203745000Y-53825000D03*
%TO.N,/RXD1*%
X203745000Y-56365000D03*
%TO.N,/TXD0*%
X201205000Y-53825000D03*
%TO.N,/PHYCLK*%
X201205000Y-56365000D03*
%TO.N,/TXEN*%
X198665000Y-53825000D03*
%TO.N,/TXD1*%
X198665000Y-56365000D03*
%TO.N,GND*%
X196125000Y-53825000D03*
X196125000Y-56365000D03*
%TO.N,+3V3*%
X193585000Y-53825000D03*
%TO.N,+5V*%
X193585000Y-56365000D03*
%TD*%
D14*
%TO.N,Net-(J1-SHIELD)*%
%TO.C,J1*%
X174822500Y-100737500D03*
D15*
X174822500Y-104917500D03*
D14*
X183462500Y-100737500D03*
D15*
X183462500Y-104917500D03*
%TD*%
D12*
%TO.N,/UART0_RTS*%
%TO.C,J6*%
X189025000Y-53825000D03*
D13*
%TO.N,/UART0_CTS*%
X189025000Y-56365000D03*
%TO.N,/UART0_TXD*%
X186485000Y-53825000D03*
%TO.N,/UART0_RXD*%
X186485000Y-56365000D03*
%TO.N,/PB30*%
X183945000Y-53825000D03*
%TO.N,/PB31*%
X183945000Y-56365000D03*
%TO.N,/PB27*%
X181405000Y-53825000D03*
%TO.N,/PB28*%
X181405000Y-56365000D03*
%TO.N,/PB25*%
X178865000Y-53825000D03*
%TO.N,/PB26*%
X178865000Y-56365000D03*
%TO.N,/AUX0*%
X176325000Y-53825000D03*
%TO.N,GND*%
X176325000Y-56365000D03*
%TO.N,+3V3*%
X173785000Y-53825000D03*
%TO.N,+5V*%
X173785000Y-56365000D03*
%TD*%
D10*
%TO.N,GND*%
%TO.C,H1*%
X162975000Y-105000000D03*
X163568109Y-103568109D03*
X163568109Y-106431891D03*
X165000000Y-102975000D03*
D11*
X165000000Y-105000000D03*
D10*
X165000000Y-107025000D03*
X166431891Y-103568109D03*
X166431891Y-106431891D03*
X167025000Y-105000000D03*
%TD*%
D12*
%TO.N,/UART_TX*%
%TO.C,J5*%
X246170000Y-93570000D03*
D13*
%TO.N,/UART_RX*%
X246170000Y-96110000D03*
%TO.N,GND*%
X246170000Y-98650000D03*
%TD*%
D12*
%TO.N,/PA15*%
%TO.C,J4*%
X176525000Y-64775000D03*
D13*
%TO.N,+3V3*%
X176525000Y-62235000D03*
%TO.N,/PA18*%
X179065000Y-64775000D03*
%TO.N,+5V*%
X179065000Y-62235000D03*
%TO.N,/PA06*%
X181605000Y-64775000D03*
%TO.N,/PA07*%
X181605000Y-62235000D03*
%TO.N,/PA09*%
X184145000Y-64775000D03*
%TO.N,/PA08*%
X184145000Y-62235000D03*
%TO.N,/PA11*%
X186685000Y-64775000D03*
%TO.N,/PA10*%
X186685000Y-62235000D03*
%TO.N,/PA16*%
X189225000Y-64775000D03*
%TO.N,/PA14*%
X189225000Y-62235000D03*
%TO.N,/PA17*%
X191765000Y-64775000D03*
%TO.N,/PB29*%
X191765000Y-62235000D03*
%TO.N,/PB17*%
X194305000Y-64775000D03*
%TO.N,/PB18*%
X194305000Y-62235000D03*
%TD*%
D12*
%TO.N,+5V*%
%TO.C,J11*%
X175890000Y-87910000D03*
D13*
%TO.N,/USB_D-*%
X175890000Y-90450000D03*
%TO.N,/USB_D+*%
X175890000Y-92990000D03*
%TO.N,GND*%
X175890000Y-95530000D03*
%TD*%
D16*
%TO.N,Net-(J3-Shield)*%
%TO.C,J3*%
X168400000Y-85530000D03*
X168400000Y-98670000D03*
%TD*%
D10*
%TO.N,GND*%
%TO.C,H2*%
X162975000Y-55000000D03*
X163568109Y-53568109D03*
X163568109Y-56431891D03*
X165000000Y-52975000D03*
D11*
X165000000Y-55000000D03*
D10*
X165000000Y-57025000D03*
X166431891Y-53568109D03*
X166431891Y-56431891D03*
X167025000Y-55000000D03*
%TD*%
D12*
%TO.N,Net-(IC1-PPRST_)*%
%TO.C,J9*%
X201025000Y-60475000D03*
D13*
%TO.N,Net-(IC1-BOOT_SEL0_PC00)*%
X203565000Y-60475000D03*
%TD*%
D12*
%TO.N,/I2C0_SDA*%
%TO.C,J14*%
X175725000Y-81465000D03*
D13*
%TO.N,/I2C0_SCK*%
X175725000Y-78925000D03*
%TD*%
D17*
%TO.N,/NOR_CE1*%
%TO.C,U5*%
X230775000Y-104475000D03*
D18*
%TO.N,/NOR_DR*%
X233315000Y-104475000D03*
%TO.N,Net-(U4-IO2)*%
X235855000Y-104475000D03*
%TO.N,GND*%
X238395000Y-104475000D03*
%TO.N,/NOR_DT*%
X238395000Y-96855000D03*
%TO.N,/NOR_CK*%
X235855000Y-96855000D03*
%TO.N,Net-(U4-IO3)*%
X233315000Y-96855000D03*
%TO.N,+3V3*%
X230775000Y-96855000D03*
%TD*%
D19*
%TO.N,+5V*%
%TO.C,J8*%
X192740000Y-93900000D03*
D20*
%TO.N,GND*%
X192740000Y-99700000D03*
D21*
%TO.N,N/C*%
X197540000Y-96900000D03*
%TD*%
D12*
%TO.N,/NOR_CE1*%
%TO.C,J16*%
X212570000Y-96450000D03*
D13*
%TO.N,/NOR_CE*%
X215110000Y-96450000D03*
%TO.N,/NOR_CE2*%
X217650000Y-96450000D03*
%TD*%
D22*
%TO.N,GND*%
X212600000Y-66650000D03*
D23*
X185000000Y-107000000D03*
D22*
X185870000Y-86640000D03*
X194100000Y-71700000D03*
X223000000Y-66600000D03*
D23*
X163000000Y-70000000D03*
D22*
X193579500Y-79090000D03*
X238300000Y-62000000D03*
X185400000Y-73940000D03*
X168048000Y-66176000D03*
X194700000Y-72500000D03*
D23*
X247000000Y-65000000D03*
X190000000Y-107000000D03*
D22*
X184410000Y-98230000D03*
D23*
X244300000Y-84000000D03*
D22*
X227100000Y-78800000D03*
X220700000Y-63000000D03*
X188210000Y-69690000D03*
D23*
X195000000Y-107000000D03*
D22*
X185900000Y-73600000D03*
X196730000Y-74150000D03*
X197440000Y-74840000D03*
X196030000Y-73430000D03*
X184050000Y-69880000D03*
X236500000Y-63950000D03*
D23*
X163000000Y-90000000D03*
D22*
X229100000Y-91500000D03*
X220650000Y-64800000D03*
X214500000Y-59000000D03*
D23*
X213350000Y-107090000D03*
D22*
X221000000Y-66600000D03*
D23*
X163000000Y-65000000D03*
X163000000Y-75000001D03*
D22*
X191850000Y-90850000D03*
X186400000Y-73000000D03*
X191200000Y-87300000D03*
D23*
X163000000Y-84999999D03*
X163140000Y-58800000D03*
X236900000Y-86800000D03*
D22*
X238150000Y-59350000D03*
D23*
X163000000Y-95000000D03*
X180000000Y-107000000D03*
D22*
X168048000Y-68208000D03*
X236500000Y-62100000D03*
X168048000Y-64398000D03*
D23*
X245225000Y-62575000D03*
X209320000Y-107090000D03*
D22*
X183600000Y-84800000D03*
X235500000Y-53100000D03*
X183400000Y-71100000D03*
X223300000Y-64800000D03*
X231050000Y-63000000D03*
X196850000Y-85240000D03*
D23*
X240000000Y-107000000D03*
D22*
X220000000Y-83900000D03*
X187500000Y-88000000D03*
D23*
X163000000Y-100000000D03*
X170000000Y-107000000D03*
X230000000Y-107000000D03*
X225000000Y-107000000D03*
D22*
X238350000Y-65600000D03*
X186660000Y-87450000D03*
X204450000Y-65600000D03*
D24*
X190700000Y-79700000D03*
D22*
X188070000Y-79740000D03*
X185100000Y-85000000D03*
X235500000Y-55000000D03*
D23*
X246850000Y-90390000D03*
D22*
X239300000Y-53000000D03*
X188200000Y-68700000D03*
X231400000Y-66600000D03*
X187949500Y-78950000D03*
X189100000Y-71500000D03*
X197875500Y-75300000D03*
D23*
X170010000Y-105060000D03*
D22*
X213000000Y-63050000D03*
D23*
X247000000Y-60000000D03*
X235000000Y-107000000D03*
D22*
X214500000Y-61800000D03*
X199100000Y-66775000D03*
X212950000Y-64850000D03*
D23*
X247000000Y-75000000D03*
X220700000Y-107060000D03*
X163000000Y-80000001D03*
D22*
X192132863Y-77444315D03*
D23*
X247000000Y-70000000D03*
D22*
X224900000Y-61800000D03*
D23*
X216900000Y-107090000D03*
D22*
X194140000Y-79650000D03*
X197340000Y-84690000D03*
X184040000Y-92680000D03*
X223350000Y-63000000D03*
X224900000Y-58900000D03*
X188350000Y-80575000D03*
X231000000Y-64800000D03*
X202900000Y-72120000D03*
X239300000Y-55100000D03*
X190360000Y-82620000D03*
X236500000Y-65600000D03*
X193680000Y-80340000D03*
X168048000Y-69986000D03*
D23*
X198930000Y-105520000D03*
X175000000Y-107000000D03*
D22*
X236650000Y-59350000D03*
X238350000Y-63950000D03*
%TO.N,Net-(IC1-VREF)*%
X200650000Y-77685500D03*
X193550000Y-77625000D03*
%TO.N,+3V3*%
X193300000Y-81900000D03*
X204530000Y-70740000D03*
D23*
X198971776Y-59316856D03*
X212050000Y-75775000D03*
D22*
X222325000Y-96855000D03*
X212400000Y-74000000D03*
D23*
X227200000Y-73900000D03*
D22*
X235700000Y-75000000D03*
X243629240Y-78960996D03*
X231412500Y-93100000D03*
D23*
X212425000Y-60400000D03*
D22*
X220587500Y-74900000D03*
X228500000Y-75000000D03*
X211875000Y-70725000D03*
X212050000Y-84900000D03*
X192525500Y-72025000D03*
X233900000Y-75000000D03*
X191200000Y-75300000D03*
D23*
X239100000Y-73900000D03*
X216400000Y-70700000D03*
D22*
X213800000Y-88100000D03*
X241200000Y-75374500D03*
X224400000Y-74000000D03*
X218800000Y-74900000D03*
X172874000Y-75320000D03*
X189400000Y-83400000D03*
%TO.N,/USB_D-*%
X178390000Y-102070000D03*
X179630000Y-101640000D03*
%TO.N,/USB_D+*%
X178960000Y-93600000D03*
%TO.N,+1V8*%
X204105000Y-75905000D03*
D23*
X224100000Y-70700000D03*
D22*
X187800000Y-75000000D03*
X195600500Y-76666028D03*
X194287878Y-75202122D03*
X187000000Y-83350000D03*
X190010589Y-87160589D03*
X190300000Y-75100000D03*
X188200000Y-82200000D03*
X188221962Y-85539074D03*
%TO.N,+0V8*%
X188851886Y-87550000D03*
X187300000Y-81200000D03*
D23*
X237900000Y-70700000D03*
D22*
X192800000Y-82600000D03*
X188400000Y-77100000D03*
X191743815Y-75933824D03*
X196300000Y-77149114D03*
X194890901Y-75816528D03*
%TO.N,Net-(IC1-PPRST_)*%
X189454762Y-75945238D03*
X199280000Y-65060000D03*
%TO.N,/PA15*%
X181702603Y-71797397D03*
%TO.N,/MIPI_0_N*%
X182075500Y-76700000D03*
%TO.N,/MIPI_0_P*%
X181536000Y-77800000D03*
%TO.N,/MIPI_CLK_N*%
X179500000Y-79600000D03*
%TO.N,/MIPI_CLK_P*%
X179268790Y-80731759D03*
%TO.N,/MIPI_1_N*%
X182200000Y-82300000D03*
%TO.N,/MIPI_1_P*%
X181000000Y-82400000D03*
%TO.N,/NOR_DT*%
X235200000Y-92800000D03*
X231300000Y-88400000D03*
%TO.N,/MMC0_D1*%
X215800000Y-79400000D03*
X215800000Y-81900000D03*
%TO.N,/MMC0_D0*%
X217200000Y-81500000D03*
X217200000Y-79400000D03*
%TO.N,/MMC0_CLK*%
X222000000Y-81200000D03*
X222000000Y-79300000D03*
%TO.N,/MMC0_CMD*%
X229600000Y-79400000D03*
X229600000Y-80900000D03*
%TO.N,/MMC0_D3*%
X232100000Y-80524500D03*
X232100000Y-79300000D03*
%TO.N,/MICLP*%
X190770000Y-85910000D03*
X190700000Y-84480000D03*
%TO.N,/UART_RX*%
X208046538Y-83416538D03*
X199010886Y-78930000D03*
X194750000Y-78710000D03*
X203957184Y-78882684D03*
%TO.N,/UART_TX*%
X193977521Y-78240613D03*
X197320000Y-79520000D03*
X204487162Y-78352705D03*
X209290000Y-82730000D03*
%TO.N,/PB29*%
X190300000Y-70500000D03*
X192430000Y-76530000D03*
%TO.N,/PB27*%
X195631122Y-68331122D03*
X209000000Y-74800000D03*
X209000000Y-67500000D03*
X233700000Y-77400000D03*
%TO.N,+5V*%
X182080000Y-98160000D03*
D23*
X210900500Y-79100000D03*
D22*
X175900000Y-84800000D03*
X176692500Y-98252500D03*
%TO.N,/I2C0_SCK*%
X186300000Y-80200000D03*
%TO.N,/I2C0_SDA*%
X185700000Y-79700000D03*
%TO.N,Net-(U4-IO2)*%
X222400000Y-90000000D03*
X226400000Y-90000000D03*
%TO.N,/MDCK*%
X193976284Y-81301299D03*
X197168744Y-82900500D03*
%TO.N,/RXD0*%
X198166257Y-82124500D03*
X194700000Y-80700000D03*
%TO.N,/TXD1*%
X198400000Y-80175500D03*
X195270000Y-80050000D03*
%TO.N,/UART0_TXD*%
X166240000Y-100690000D03*
X177080000Y-102030000D03*
%TO.N,/UART0_RXD*%
X166847054Y-101129591D03*
X180780000Y-101980000D03*
%TO.N,Net-(U4-IO3)*%
X224600000Y-85975500D03*
X233237500Y-93100000D03*
%TO.N,/PA18*%
X186680000Y-76150000D03*
%TO.N,Net-(J15-Pin_2)*%
X172620000Y-73796000D03*
%TD*%
D25*
%TO.N,GND*%
X195025000Y-52725000D02*
X196125000Y-53825000D01*
X194950000Y-55190000D02*
X196125000Y-56365000D01*
X194950000Y-55000000D02*
X196125000Y-53825000D01*
X196125000Y-56365000D02*
X197290000Y-55200000D01*
X177570000Y-57610000D02*
X176325000Y-56365000D01*
X194950000Y-55190000D02*
X194940000Y-55190000D01*
X177510000Y-55180000D02*
X176325000Y-56365000D01*
X197290000Y-55200000D02*
X197290000Y-54990000D01*
X196125000Y-58065000D02*
X196125000Y-56365000D01*
X194950000Y-55190000D02*
X194950000Y-55000000D01*
X197290000Y-54990000D02*
X196125000Y-53825000D01*
X194900000Y-57590000D02*
X196125000Y-56365000D01*
X197570000Y-57810000D02*
X196125000Y-56365000D01*
D26*
X196125000Y-58065000D02*
X196110000Y-58080000D01*
D25*
X175160000Y-57530000D02*
X176325000Y-56365000D01*
X196125000Y-53825000D02*
X197125000Y-52825000D01*
X175170000Y-55210000D02*
X176325000Y-56365000D01*
X194900000Y-57590000D02*
X194900000Y-57600000D01*
%TD*%
%TA.AperFunction,Conductor*%
%TO.N,GND*%
G36*
X245002595Y-51900636D02*
G01*
X245133464Y-51907494D01*
X245326004Y-51918307D01*
X245335909Y-51919367D01*
X245489630Y-51943714D01*
X245490444Y-51943848D01*
X245658005Y-51972318D01*
X245667015Y-51974285D01*
X245821588Y-52015703D01*
X245823229Y-52016159D01*
X245982208Y-52061960D01*
X245990244Y-52064655D01*
X246141338Y-52122655D01*
X246143572Y-52123546D01*
X246294728Y-52186157D01*
X246301787Y-52189411D01*
X246446754Y-52263275D01*
X246449660Y-52264818D01*
X246591986Y-52343479D01*
X246597987Y-52347079D01*
X246734858Y-52435965D01*
X246738226Y-52438252D01*
X246870408Y-52532040D01*
X246875422Y-52535843D01*
X247002484Y-52638735D01*
X247006138Y-52641844D01*
X247096719Y-52722793D01*
X247126799Y-52749674D01*
X247130835Y-52753488D01*
X247246510Y-52869163D01*
X247250324Y-52873199D01*
X247358143Y-52993848D01*
X247361263Y-52997514D01*
X247464155Y-53124576D01*
X247467958Y-53129590D01*
X247561746Y-53261772D01*
X247564033Y-53265140D01*
X247652910Y-53401997D01*
X247656529Y-53408029D01*
X247735170Y-53550320D01*
X247736733Y-53553263D01*
X247810587Y-53698211D01*
X247813841Y-53705270D01*
X247876425Y-53856359D01*
X247877386Y-53858767D01*
X247935335Y-54009730D01*
X247938041Y-54017801D01*
X247983819Y-54176698D01*
X247984315Y-54178482D01*
X248025709Y-54332968D01*
X248027683Y-54342008D01*
X248056125Y-54509406D01*
X248056305Y-54510502D01*
X248080629Y-54664075D01*
X248081692Y-54674011D01*
X248092505Y-54866552D01*
X248092525Y-54866921D01*
X248099364Y-54997405D01*
X248099500Y-55002587D01*
X248099500Y-104997413D01*
X248099364Y-105002595D01*
X248092525Y-105133077D01*
X248092505Y-105133446D01*
X248081692Y-105325987D01*
X248080629Y-105335923D01*
X248056305Y-105489496D01*
X248056125Y-105490592D01*
X248027683Y-105657990D01*
X248025709Y-105667030D01*
X247984315Y-105821516D01*
X247983819Y-105823300D01*
X247938041Y-105982197D01*
X247935335Y-105990268D01*
X247877386Y-106141231D01*
X247876425Y-106143639D01*
X247813841Y-106294728D01*
X247810587Y-106301787D01*
X247736733Y-106446735D01*
X247735170Y-106449678D01*
X247656529Y-106591969D01*
X247652910Y-106598001D01*
X247564033Y-106734858D01*
X247561746Y-106738226D01*
X247467958Y-106870408D01*
X247464155Y-106875422D01*
X247361263Y-107002484D01*
X247358143Y-107006150D01*
X247250324Y-107126799D01*
X247246510Y-107130835D01*
X247130835Y-107246510D01*
X247126799Y-107250324D01*
X247006150Y-107358143D01*
X247002484Y-107361263D01*
X246875422Y-107464155D01*
X246870408Y-107467958D01*
X246738226Y-107561746D01*
X246734858Y-107564033D01*
X246598001Y-107652910D01*
X246591969Y-107656529D01*
X246449678Y-107735170D01*
X246446735Y-107736733D01*
X246301787Y-107810587D01*
X246294728Y-107813841D01*
X246143639Y-107876425D01*
X246141231Y-107877386D01*
X245990268Y-107935335D01*
X245982197Y-107938041D01*
X245823300Y-107983819D01*
X245821516Y-107984315D01*
X245667030Y-108025709D01*
X245657990Y-108027683D01*
X245490592Y-108056125D01*
X245489496Y-108056305D01*
X245335923Y-108080629D01*
X245325987Y-108081692D01*
X245133446Y-108092505D01*
X245133077Y-108092525D01*
X245002595Y-108099364D01*
X244997413Y-108099500D01*
X165002587Y-108099500D01*
X164997405Y-108099364D01*
X164866921Y-108092525D01*
X164866552Y-108092505D01*
X164674011Y-108081692D01*
X164664075Y-108080629D01*
X164510502Y-108056305D01*
X164509406Y-108056125D01*
X164342008Y-108027683D01*
X164332968Y-108025709D01*
X164178482Y-107984315D01*
X164176698Y-107983819D01*
X164017801Y-107938041D01*
X164009730Y-107935335D01*
X163976082Y-107922419D01*
X163858740Y-107877375D01*
X163856359Y-107876425D01*
X163705270Y-107813841D01*
X163698211Y-107810587D01*
X163553263Y-107736733D01*
X163550320Y-107735170D01*
X163408029Y-107656529D01*
X163401997Y-107652910D01*
X163265140Y-107564033D01*
X163261772Y-107561746D01*
X163129590Y-107467958D01*
X163124576Y-107464155D01*
X162997514Y-107361263D01*
X162993848Y-107358143D01*
X162873199Y-107250324D01*
X162869163Y-107246510D01*
X162753488Y-107130835D01*
X162749674Y-107126799D01*
X162735172Y-107110571D01*
X162641844Y-107006138D01*
X162638735Y-107002484D01*
X162535843Y-106875422D01*
X162532040Y-106870408D01*
X162438252Y-106738226D01*
X162435965Y-106734858D01*
X162379094Y-106647285D01*
X162347079Y-106597987D01*
X162343479Y-106591986D01*
X162318029Y-106545938D01*
X204025630Y-106545938D01*
X204056443Y-106747072D01*
X204127112Y-106937885D01*
X204234747Y-107110571D01*
X204363968Y-107246510D01*
X204374941Y-107258053D01*
X204541951Y-107374295D01*
X204728942Y-107454540D01*
X204928259Y-107495500D01*
X205080742Y-107495500D01*
X205080744Y-107495500D01*
X205156590Y-107487786D01*
X205232438Y-107480074D01*
X205426588Y-107419159D01*
X205604502Y-107320409D01*
X205758895Y-107187866D01*
X205883448Y-107026958D01*
X205973060Y-106844271D01*
X206024063Y-106647285D01*
X206034369Y-106444064D01*
X206031936Y-106428183D01*
X206003556Y-106242927D01*
X205932887Y-106052114D01*
X205891090Y-105985057D01*
X210999500Y-105985057D01*
X211040209Y-106150223D01*
X211119266Y-106300854D01*
X211215545Y-106409529D01*
X211232071Y-106428183D01*
X211372070Y-106524818D01*
X211531128Y-106585140D01*
X211594378Y-106592820D01*
X211657627Y-106600500D01*
X211657628Y-106600500D01*
X211742372Y-106600500D01*
X211742373Y-106600500D01*
X211784538Y-106595379D01*
X211868872Y-106585140D01*
X212027930Y-106524818D01*
X212167929Y-106428183D01*
X212279906Y-106301787D01*
X212280733Y-106300854D01*
X212301818Y-106260680D01*
X212359790Y-106150225D01*
X212396110Y-106002867D01*
X212400500Y-105985057D01*
X217799500Y-105985057D01*
X217840209Y-106150223D01*
X217919266Y-106300854D01*
X218015545Y-106409529D01*
X218032071Y-106428183D01*
X218172070Y-106524818D01*
X218331128Y-106585140D01*
X218394378Y-106592820D01*
X218457627Y-106600500D01*
X218457628Y-106600500D01*
X218542372Y-106600500D01*
X218542373Y-106600500D01*
X218584538Y-106595379D01*
X218668872Y-106585140D01*
X218827930Y-106524818D01*
X218967929Y-106428183D01*
X219079906Y-106301787D01*
X219080733Y-106300854D01*
X219101818Y-106260680D01*
X219159790Y-106150225D01*
X219196110Y-106002867D01*
X219200500Y-105985057D01*
X219200500Y-105814943D01*
X219177065Y-105719862D01*
X229674500Y-105719862D01*
X229677032Y-105741693D01*
X229677415Y-105744991D01*
X229697451Y-105790368D01*
X229722793Y-105847764D01*
X229722794Y-105847765D01*
X229802235Y-105927206D01*
X229905009Y-105972585D01*
X229930135Y-105975500D01*
X231619864Y-105975499D01*
X231644991Y-105972585D01*
X231747765Y-105927206D01*
X231827206Y-105847765D01*
X231872585Y-105744991D01*
X231875500Y-105719865D01*
X231875500Y-104927425D01*
X232214500Y-104927425D01*
X232221183Y-104997413D01*
X232229472Y-105084219D01*
X232288683Y-105285875D01*
X232384989Y-105472682D01*
X232514908Y-105637887D01*
X232673740Y-105775516D01*
X232673741Y-105775516D01*
X232673744Y-105775519D01*
X232855756Y-105880604D01*
X233054367Y-105949344D01*
X233113167Y-105957798D01*
X233262395Y-105979254D01*
X233262397Y-105979253D01*
X233262398Y-105979254D01*
X233472330Y-105969254D01*
X233579358Y-105943289D01*
X233676574Y-105919705D01*
X233702864Y-105907698D01*
X233867753Y-105832396D01*
X234025781Y-105719865D01*
X234038948Y-105710489D01*
X234038948Y-105710488D01*
X234038952Y-105710486D01*
X234183986Y-105558378D01*
X234297613Y-105381572D01*
X234301519Y-105371817D01*
X234375724Y-105186460D01*
X234386335Y-105131408D01*
X234415500Y-104980085D01*
X234415500Y-104927425D01*
X234754500Y-104927425D01*
X234761183Y-104997413D01*
X234769472Y-105084219D01*
X234828683Y-105285875D01*
X234924989Y-105472682D01*
X235054908Y-105637887D01*
X235213740Y-105775516D01*
X235213741Y-105775516D01*
X235213744Y-105775519D01*
X235395756Y-105880604D01*
X235594367Y-105949344D01*
X235653167Y-105957798D01*
X235802395Y-105979254D01*
X235802397Y-105979253D01*
X235802398Y-105979254D01*
X236012330Y-105969254D01*
X236119358Y-105943289D01*
X236216574Y-105919705D01*
X236242864Y-105907698D01*
X236407753Y-105832396D01*
X236565781Y-105719865D01*
X236578948Y-105710489D01*
X236578948Y-105710488D01*
X236578952Y-105710486D01*
X236723986Y-105558378D01*
X236837613Y-105381572D01*
X236841519Y-105371817D01*
X236904354Y-105214860D01*
X236915725Y-105186457D01*
X236925007Y-105138295D01*
X236948332Y-105091138D01*
X236992523Y-105062590D01*
X237045100Y-105060712D01*
X237091215Y-105086035D01*
X237117845Y-105131408D01*
X237168734Y-105321329D01*
X237264864Y-105527480D01*
X237395335Y-105713812D01*
X237556187Y-105874664D01*
X237742519Y-106005135D01*
X237948670Y-106101265D01*
X238145000Y-106153872D01*
X238645000Y-106153872D01*
X238841329Y-106101265D01*
X239047480Y-106005135D01*
X239233812Y-105874664D01*
X239394664Y-105713812D01*
X239525135Y-105527480D01*
X239621265Y-105321329D01*
X239680141Y-105101601D01*
X239695000Y-104931766D01*
X239695000Y-104725001D01*
X239694999Y-104725000D01*
X238645001Y-104725000D01*
X238645000Y-104725001D01*
X238645000Y-106153872D01*
X238145000Y-106153872D01*
X238145000Y-102796128D01*
X238645000Y-102796128D01*
X238645000Y-104224999D01*
X238645001Y-104225000D01*
X239694999Y-104225000D01*
X239695000Y-104224999D01*
X239695000Y-104018234D01*
X239680141Y-103848398D01*
X239621265Y-103628670D01*
X239525135Y-103422519D01*
X239394664Y-103236187D01*
X239233812Y-103075335D01*
X239047480Y-102944864D01*
X238841329Y-102848734D01*
X238645000Y-102796128D01*
X238145000Y-102796128D01*
X237948670Y-102848734D01*
X237742519Y-102944864D01*
X237556187Y-103075335D01*
X237395335Y-103236187D01*
X237264864Y-103422519D01*
X237168734Y-103628670D01*
X237117897Y-103818397D01*
X237092606Y-103862444D01*
X237048802Y-103888152D01*
X236998015Y-103888757D01*
X236953612Y-103864097D01*
X236927280Y-103820665D01*
X236881316Y-103664124D01*
X236785010Y-103477317D01*
X236655091Y-103312112D01*
X236496259Y-103174483D01*
X236397742Y-103117604D01*
X236314244Y-103069396D01*
X236115633Y-103000656D01*
X236115632Y-103000655D01*
X236115630Y-103000655D01*
X235907604Y-102970745D01*
X235697667Y-102980746D01*
X235493425Y-103030294D01*
X235302245Y-103117604D01*
X235131051Y-103239510D01*
X234986013Y-103391622D01*
X234872384Y-103568431D01*
X234794275Y-103763539D01*
X234762455Y-103928640D01*
X234754500Y-103969915D01*
X234754500Y-104927425D01*
X234415500Y-104927425D01*
X234415500Y-104022575D01*
X234400528Y-103865782D01*
X234341316Y-103664125D01*
X234341316Y-103664124D01*
X234245010Y-103477317D01*
X234115091Y-103312112D01*
X233956259Y-103174483D01*
X233857742Y-103117604D01*
X233774244Y-103069396D01*
X233575633Y-103000656D01*
X233575632Y-103000655D01*
X233575630Y-103000655D01*
X233367604Y-102970745D01*
X233157667Y-102980746D01*
X232953425Y-103030294D01*
X232762245Y-103117604D01*
X232591051Y-103239510D01*
X232446013Y-103391622D01*
X232332384Y-103568431D01*
X232254275Y-103763539D01*
X232222455Y-103928640D01*
X232214500Y-103969915D01*
X232214500Y-104927425D01*
X231875500Y-104927425D01*
X231875499Y-103230136D01*
X231872585Y-103205009D01*
X231827206Y-103102235D01*
X231747765Y-103022794D01*
X231747764Y-103022793D01*
X231644989Y-102977414D01*
X231619867Y-102974500D01*
X229930137Y-102974500D01*
X229905009Y-102977415D01*
X229802235Y-103022793D01*
X229722793Y-103102235D01*
X229677414Y-103205010D01*
X229674500Y-103230132D01*
X229674500Y-105719862D01*
X219177065Y-105719862D01*
X219177040Y-105719760D01*
X219159790Y-105649775D01*
X219111820Y-105558377D01*
X219080733Y-105499145D01*
X218967930Y-105371818D01*
X218967929Y-105371817D01*
X218827930Y-105275182D01*
X218730753Y-105238328D01*
X218668870Y-105214859D01*
X218542373Y-105199500D01*
X218542372Y-105199500D01*
X218457628Y-105199500D01*
X218457627Y-105199500D01*
X218331129Y-105214859D01*
X218172070Y-105275182D01*
X218032069Y-105371818D01*
X217919266Y-105499145D01*
X217840209Y-105649776D01*
X217799500Y-105814943D01*
X217799500Y-105985057D01*
X212400500Y-105985057D01*
X212400500Y-105814943D01*
X212377040Y-105719760D01*
X212359790Y-105649775D01*
X212311820Y-105558377D01*
X212280733Y-105499145D01*
X212167930Y-105371818D01*
X212167929Y-105371817D01*
X212027930Y-105275182D01*
X211930753Y-105238328D01*
X211868870Y-105214859D01*
X211742373Y-105199500D01*
X211742372Y-105199500D01*
X211657628Y-105199500D01*
X211657627Y-105199500D01*
X211531129Y-105214859D01*
X211372070Y-105275182D01*
X211232069Y-105371818D01*
X211119266Y-105499145D01*
X211040209Y-105649776D01*
X210999500Y-105814943D01*
X210999500Y-105985057D01*
X205891090Y-105985057D01*
X205825252Y-105879428D01*
X205685061Y-105731949D01*
X205685060Y-105731948D01*
X205685059Y-105731947D01*
X205518049Y-105615705D01*
X205518048Y-105615704D01*
X205518046Y-105615703D01*
X205331059Y-105535460D01*
X205264619Y-105521806D01*
X205131741Y-105494500D01*
X204979258Y-105494500D01*
X204979256Y-105494500D01*
X204827563Y-105509925D01*
X204633409Y-105570841D01*
X204455499Y-105669589D01*
X204301106Y-105802133D01*
X204301105Y-105802134D01*
X204291190Y-105814943D01*
X204176551Y-105963042D01*
X204086940Y-106145728D01*
X204035936Y-106342716D01*
X204025630Y-106545938D01*
X162318029Y-106545938D01*
X162264818Y-106449660D01*
X162263265Y-106446735D01*
X162253812Y-106428183D01*
X162189411Y-106301787D01*
X162186157Y-106294728D01*
X162164700Y-106242927D01*
X162123546Y-106143572D01*
X162122655Y-106141338D01*
X162064655Y-105990244D01*
X162061960Y-105982208D01*
X162016159Y-105823229D01*
X162015703Y-105821588D01*
X161974285Y-105667015D01*
X161972318Y-105658005D01*
X161943848Y-105490444D01*
X161943714Y-105489630D01*
X161919367Y-105335909D01*
X161918307Y-105326004D01*
X161914738Y-105262451D01*
X174022000Y-105262451D01*
X174037132Y-105396758D01*
X174085667Y-105535460D01*
X174096711Y-105567022D01*
X174192684Y-105719762D01*
X174320238Y-105847316D01*
X174472978Y-105943289D01*
X174565029Y-105975499D01*
X174643241Y-106002867D01*
X174643242Y-106002867D01*
X174643245Y-106002868D01*
X174822500Y-106023065D01*
X175001755Y-106002868D01*
X175172022Y-105943289D01*
X175324762Y-105847316D01*
X175452316Y-105719762D01*
X175548289Y-105567022D01*
X175607868Y-105396755D01*
X175623000Y-105262454D01*
X175623000Y-105262451D01*
X182662000Y-105262451D01*
X182677132Y-105396758D01*
X182725667Y-105535460D01*
X182736711Y-105567022D01*
X182832684Y-105719762D01*
X182960238Y-105847316D01*
X183112978Y-105943289D01*
X183205029Y-105975499D01*
X183283241Y-106002867D01*
X183283242Y-106002867D01*
X183283245Y-106002868D01*
X183462500Y-106023065D01*
X183641755Y-106002868D01*
X183812022Y-105943289D01*
X183964762Y-105847316D01*
X184092316Y-105719762D01*
X184188289Y-105567022D01*
X184247868Y-105396755D01*
X184263000Y-105262454D01*
X184263000Y-104572546D01*
X184247868Y-104438245D01*
X184188289Y-104267978D01*
X184092316Y-104115238D01*
X183964762Y-103987684D01*
X183812022Y-103891711D01*
X183801851Y-103888152D01*
X183641758Y-103832132D01*
X183462500Y-103811935D01*
X183283241Y-103832132D01*
X183112980Y-103891710D01*
X182960239Y-103987683D01*
X182832683Y-104115239D01*
X182736710Y-104267980D01*
X182677132Y-104438241D01*
X182662000Y-104572549D01*
X182662000Y-105262451D01*
X175623000Y-105262451D01*
X175623000Y-104572546D01*
X175607868Y-104438245D01*
X175548289Y-104267978D01*
X175452316Y-104115238D01*
X175324762Y-103987684D01*
X175172022Y-103891711D01*
X175161851Y-103888152D01*
X175001758Y-103832132D01*
X174822500Y-103811935D01*
X174643241Y-103832132D01*
X174472980Y-103891710D01*
X174320239Y-103987683D01*
X174192683Y-104115239D01*
X174096710Y-104267980D01*
X174037132Y-104438241D01*
X174022000Y-104572549D01*
X174022000Y-105262451D01*
X161914738Y-105262451D01*
X161907493Y-105133446D01*
X161900636Y-105002595D01*
X161900500Y-104997414D01*
X161900500Y-100689999D01*
X165634318Y-100689999D01*
X165654955Y-100846761D01*
X165715464Y-100992841D01*
X165811717Y-101118282D01*
X165907971Y-101192139D01*
X165937159Y-101214536D01*
X166083238Y-101275044D01*
X166210697Y-101291824D01*
X166258042Y-101311435D01*
X166289239Y-101352090D01*
X166322518Y-101432432D01*
X166322519Y-101432433D01*
X166418771Y-101557873D01*
X166475912Y-101601718D01*
X166544213Y-101654127D01*
X166690292Y-101714635D01*
X166847054Y-101735273D01*
X167003816Y-101714635D01*
X167149895Y-101654127D01*
X167275336Y-101557873D01*
X167371590Y-101432432D01*
X167413002Y-101332454D01*
X174022000Y-101332454D01*
X174026717Y-101374318D01*
X174037132Y-101466758D01*
X174094014Y-101629315D01*
X174096711Y-101637022D01*
X174192684Y-101789762D01*
X174320238Y-101917316D01*
X174472978Y-102013289D01*
X174581351Y-102051210D01*
X174643241Y-102072867D01*
X174643242Y-102072867D01*
X174643245Y-102072868D01*
X174822500Y-102093065D01*
X175001755Y-102072868D01*
X175172022Y-102013289D01*
X175324762Y-101917316D01*
X175452316Y-101789762D01*
X175548289Y-101637022D01*
X175569966Y-101575070D01*
X175599892Y-101531833D01*
X175647740Y-101510018D01*
X175700009Y-101515784D01*
X175741952Y-101547503D01*
X175842048Y-101677951D01*
X175916751Y-101735272D01*
X175962267Y-101770198D01*
X176090316Y-101823238D01*
X176102264Y-101828187D01*
X176214779Y-101843000D01*
X176214780Y-101843000D01*
X176290219Y-101843000D01*
X176290220Y-101843000D01*
X176374703Y-101831877D01*
X176433336Y-101842215D01*
X176475438Y-101884316D01*
X176485777Y-101942951D01*
X176474318Y-102029999D01*
X176494955Y-102186761D01*
X176555464Y-102332841D01*
X176651717Y-102458282D01*
X176747971Y-102532139D01*
X176777159Y-102554536D01*
X176923238Y-102615044D01*
X177080000Y-102635682D01*
X177236762Y-102615044D01*
X177382841Y-102554536D01*
X177508282Y-102458282D01*
X177604536Y-102332841D01*
X177635252Y-102258685D01*
X177671713Y-102214257D01*
X177726714Y-102197572D01*
X177781716Y-102214256D01*
X177818179Y-102258686D01*
X177865464Y-102372841D01*
X177961717Y-102498282D01*
X178035030Y-102554536D01*
X178087159Y-102594536D01*
X178233238Y-102655044D01*
X178390000Y-102675682D01*
X178546762Y-102655044D01*
X178692841Y-102594536D01*
X178818282Y-102498282D01*
X178914536Y-102372841D01*
X178975044Y-102226762D01*
X178994851Y-102076304D01*
X179018572Y-102023954D01*
X179067381Y-101993602D01*
X179124827Y-101995483D01*
X179171546Y-102028962D01*
X179201717Y-102068282D01*
X179276904Y-102125974D01*
X179327159Y-102164536D01*
X179473238Y-102225044D01*
X179630000Y-102245682D01*
X179786762Y-102225044D01*
X179932841Y-102164536D01*
X180038188Y-102083700D01*
X180085529Y-102064090D01*
X180136332Y-102070774D01*
X180176988Y-102101962D01*
X180186939Y-102125974D01*
X180189968Y-102124720D01*
X180255464Y-102282841D01*
X180351717Y-102408282D01*
X180416879Y-102458282D01*
X180477159Y-102504536D01*
X180623238Y-102565044D01*
X180780000Y-102585682D01*
X180936762Y-102565044D01*
X181082841Y-102504536D01*
X181208282Y-102408282D01*
X181304536Y-102282841D01*
X181365044Y-102136762D01*
X181385682Y-101980000D01*
X181365044Y-101823238D01*
X181304536Y-101677159D01*
X181277341Y-101641718D01*
X181208282Y-101551717D01*
X181082841Y-101455464D01*
X180936761Y-101394955D01*
X180780000Y-101374318D01*
X180623238Y-101394955D01*
X180477158Y-101455464D01*
X180371809Y-101536300D01*
X180324412Y-101555917D01*
X180273559Y-101549180D01*
X180232904Y-101517898D01*
X180223067Y-101494022D01*
X180220032Y-101495280D01*
X180208218Y-101466758D01*
X180154536Y-101337159D01*
X180122710Y-101295682D01*
X180101085Y-101267499D01*
X181452034Y-101267499D01*
X181471812Y-101417735D01*
X181529802Y-101557733D01*
X181622048Y-101677951D01*
X181696751Y-101735272D01*
X181742267Y-101770198D01*
X181870316Y-101823238D01*
X181882264Y-101828187D01*
X181994779Y-101843000D01*
X181994780Y-101843000D01*
X182070220Y-101843000D01*
X182070221Y-101843000D01*
X182126478Y-101835593D01*
X182182736Y-101828187D01*
X182322733Y-101770198D01*
X182442951Y-101677951D01*
X182535198Y-101557733D01*
X182535198Y-101557730D01*
X182543047Y-101547503D01*
X182584989Y-101515784D01*
X182637258Y-101510018D01*
X182685106Y-101531832D01*
X182715033Y-101575071D01*
X182736710Y-101637019D01*
X182736711Y-101637022D01*
X182832684Y-101789762D01*
X182960238Y-101917316D01*
X183112978Y-102013289D01*
X183221351Y-102051210D01*
X183283241Y-102072867D01*
X183283242Y-102072867D01*
X183283245Y-102072868D01*
X183462500Y-102093065D01*
X183641755Y-102072868D01*
X183812022Y-102013289D01*
X183964762Y-101917316D01*
X184092316Y-101789762D01*
X184188289Y-101637022D01*
X184247868Y-101466755D01*
X184263000Y-101332454D01*
X184263000Y-100142546D01*
X184247868Y-100008245D01*
X184227487Y-99950000D01*
X190261734Y-99950000D01*
X190296525Y-100111434D01*
X190385383Y-100332562D01*
X190510333Y-100535494D01*
X190667782Y-100714392D01*
X190853204Y-100864109D01*
X191061250Y-100980332D01*
X191285955Y-101059725D01*
X191520842Y-101100000D01*
X192489999Y-101100000D01*
X192490000Y-101099999D01*
X192990000Y-101099999D01*
X192990001Y-101100000D01*
X193899477Y-101100000D01*
X194077452Y-101084851D01*
X194308083Y-101024799D01*
X194525243Y-100926637D01*
X194722686Y-100793189D01*
X194894739Y-100628289D01*
X195036451Y-100436682D01*
X195143743Y-100223882D01*
X195213525Y-99996018D01*
X195219419Y-99950000D01*
X192990001Y-99950000D01*
X192990000Y-99950001D01*
X192990000Y-101099999D01*
X192490000Y-101099999D01*
X192490000Y-99950001D01*
X192489999Y-99950000D01*
X190261734Y-99950000D01*
X184227487Y-99950000D01*
X184188289Y-99837978D01*
X184092316Y-99685238D01*
X183964762Y-99557684D01*
X183946068Y-99545938D01*
X204025630Y-99545938D01*
X204056443Y-99747072D01*
X204127112Y-99937885D01*
X204234747Y-100110571D01*
X204351745Y-100233651D01*
X204374941Y-100258053D01*
X204541951Y-100374295D01*
X204728942Y-100454540D01*
X204928259Y-100495500D01*
X205080742Y-100495500D01*
X205080744Y-100495500D01*
X205156590Y-100487786D01*
X205232438Y-100480074D01*
X205426588Y-100419159D01*
X205604502Y-100320409D01*
X205758895Y-100187866D01*
X205883448Y-100026958D01*
X205973060Y-99844271D01*
X206024063Y-99647285D01*
X206034369Y-99444064D01*
X206028228Y-99403981D01*
X206003556Y-99242927D01*
X205932887Y-99052114D01*
X205838075Y-98900000D01*
X244839364Y-98900000D01*
X244896570Y-99113495D01*
X244996398Y-99327576D01*
X245131887Y-99521074D01*
X245298925Y-99688112D01*
X245492423Y-99823601D01*
X245706504Y-99923429D01*
X245920000Y-99980636D01*
X246420000Y-99980636D01*
X246633495Y-99923429D01*
X246847576Y-99823601D01*
X247041074Y-99688112D01*
X247208112Y-99521074D01*
X247343601Y-99327576D01*
X247443429Y-99113495D01*
X247500636Y-98900000D01*
X246420001Y-98900000D01*
X246420000Y-98900001D01*
X246420000Y-99980636D01*
X245920000Y-99980636D01*
X245920000Y-98900001D01*
X245919999Y-98900000D01*
X244839364Y-98900000D01*
X205838075Y-98900000D01*
X205825252Y-98879428D01*
X205685061Y-98731949D01*
X205685060Y-98731948D01*
X205685059Y-98731947D01*
X205518049Y-98615705D01*
X205518048Y-98615704D01*
X205518046Y-98615703D01*
X205331059Y-98535460D01*
X205264619Y-98521806D01*
X205131741Y-98494500D01*
X204979258Y-98494500D01*
X204979256Y-98494500D01*
X204827563Y-98509925D01*
X204633409Y-98570841D01*
X204455499Y-98669589D01*
X204330340Y-98777036D01*
X204301105Y-98802134D01*
X204278150Y-98831788D01*
X204176551Y-98963042D01*
X204086940Y-99145728D01*
X204035936Y-99342716D01*
X204025630Y-99545938D01*
X183946068Y-99545938D01*
X183812022Y-99461711D01*
X183778554Y-99450000D01*
X183778551Y-99449999D01*
X190260580Y-99449999D01*
X190260581Y-99450000D01*
X192489999Y-99450000D01*
X192490000Y-99449999D01*
X192990000Y-99449999D01*
X192990001Y-99450000D01*
X195218266Y-99450000D01*
X195218266Y-99449999D01*
X195183474Y-99288565D01*
X195094616Y-99067437D01*
X194969666Y-98864505D01*
X194812217Y-98685607D01*
X194626795Y-98535890D01*
X194418749Y-98419667D01*
X194194044Y-98340274D01*
X193959158Y-98300000D01*
X192990001Y-98300000D01*
X192990000Y-98300001D01*
X192990000Y-99449999D01*
X192490000Y-99449999D01*
X192490000Y-98300001D01*
X192489999Y-98300000D01*
X191580523Y-98300000D01*
X191402547Y-98315148D01*
X191171916Y-98375200D01*
X190954756Y-98473362D01*
X190757313Y-98606810D01*
X190585260Y-98771710D01*
X190443548Y-98963317D01*
X190336256Y-99176117D01*
X190266474Y-99403981D01*
X190260580Y-99449999D01*
X183778551Y-99449999D01*
X183641758Y-99402132D01*
X183462500Y-99381935D01*
X183283241Y-99402132D01*
X183112980Y-99461710D01*
X182960239Y-99557683D01*
X182832683Y-99685239D01*
X182736710Y-99837980D01*
X182677132Y-100008241D01*
X182668863Y-100081631D01*
X182665506Y-100111434D01*
X182662000Y-100142549D01*
X182662000Y-100850874D01*
X182643472Y-100908539D01*
X182594822Y-100944620D01*
X182534262Y-100945611D01*
X182484458Y-100911141D01*
X182442951Y-100857048D01*
X182322733Y-100764802D01*
X182182735Y-100706812D01*
X182070221Y-100692000D01*
X182070220Y-100692000D01*
X181994780Y-100692000D01*
X181994779Y-100692000D01*
X181882264Y-100706812D01*
X181742266Y-100764802D01*
X181622048Y-100857048D01*
X181529802Y-100977266D01*
X181471812Y-101117264D01*
X181452034Y-101267499D01*
X180101085Y-101267499D01*
X180058282Y-101211717D01*
X179932841Y-101115464D01*
X179786761Y-101054955D01*
X179630000Y-101034318D01*
X179473238Y-101054955D01*
X179327158Y-101115464D01*
X179201717Y-101211717D01*
X179105464Y-101337158D01*
X179044955Y-101483238D01*
X179025148Y-101633692D01*
X179001427Y-101686045D01*
X178952618Y-101716397D01*
X178895172Y-101714516D01*
X178848453Y-101681037D01*
X178818282Y-101641717D01*
X178692841Y-101545464D01*
X178546761Y-101484955D01*
X178390000Y-101464318D01*
X178233238Y-101484955D01*
X178087158Y-101545464D01*
X177961717Y-101641717D01*
X177865464Y-101767158D01*
X177834748Y-101841313D01*
X177798285Y-101885743D01*
X177743284Y-101902427D01*
X177688283Y-101885742D01*
X177651820Y-101841313D01*
X177647911Y-101831877D01*
X177604536Y-101727159D01*
X177604535Y-101727158D01*
X177604535Y-101727157D01*
X177508282Y-101601717D01*
X177382841Y-101505464D01*
X177236761Y-101444955D01*
X177100637Y-101427034D01*
X177080000Y-101424318D01*
X177079999Y-101424318D01*
X176935513Y-101443339D01*
X176876878Y-101433000D01*
X176834778Y-101390899D01*
X176824439Y-101332265D01*
X176832966Y-101267500D01*
X176813187Y-101117264D01*
X176755198Y-100977267D01*
X176716348Y-100926637D01*
X176662951Y-100857048D01*
X176542733Y-100764802D01*
X176402735Y-100706812D01*
X176290221Y-100692000D01*
X176290220Y-100692000D01*
X176214780Y-100692000D01*
X176214779Y-100692000D01*
X176102264Y-100706812D01*
X175962266Y-100764802D01*
X175842048Y-100857048D01*
X175800542Y-100911141D01*
X175750738Y-100945611D01*
X175690178Y-100944620D01*
X175641528Y-100908539D01*
X175623000Y-100850874D01*
X175623000Y-100142549D01*
X175623000Y-100142546D01*
X175607868Y-100008245D01*
X175548289Y-99837978D01*
X175452316Y-99685238D01*
X175324762Y-99557684D01*
X175172022Y-99461711D01*
X175138554Y-99450000D01*
X175001758Y-99402132D01*
X174822500Y-99381935D01*
X174643241Y-99402132D01*
X174472980Y-99461710D01*
X174320239Y-99557683D01*
X174192683Y-99685239D01*
X174096710Y-99837980D01*
X174037132Y-100008241D01*
X174028863Y-100081631D01*
X174022000Y-100142546D01*
X174022000Y-101332454D01*
X167413002Y-101332454D01*
X167432098Y-101286353D01*
X167452736Y-101129591D01*
X167432098Y-100972829D01*
X167371590Y-100826750D01*
X167324056Y-100764802D01*
X167275336Y-100701308D01*
X167149895Y-100605055D01*
X167003815Y-100544546D01*
X166876355Y-100527766D01*
X166829009Y-100508155D01*
X166797813Y-100467498D01*
X166785049Y-100436682D01*
X166764536Y-100387159D01*
X166736589Y-100350738D01*
X166668282Y-100261717D01*
X166542841Y-100165464D01*
X166396761Y-100104955D01*
X166240000Y-100084318D01*
X166083238Y-100104955D01*
X165937158Y-100165464D01*
X165811717Y-100261717D01*
X165715464Y-100387158D01*
X165654955Y-100533238D01*
X165634318Y-100689999D01*
X161900500Y-100689999D01*
X161900500Y-98669999D01*
X166594450Y-98669999D01*
X166614616Y-98939099D01*
X166674667Y-99202199D01*
X166773254Y-99453393D01*
X166773257Y-99453398D01*
X166908185Y-99687102D01*
X166942261Y-99729831D01*
X167076439Y-99898086D01*
X167195159Y-100008241D01*
X167274259Y-100081635D01*
X167497226Y-100233651D01*
X167740359Y-100350738D01*
X167998228Y-100430280D01*
X167998229Y-100430280D01*
X167998232Y-100430281D01*
X168265069Y-100470500D01*
X168265071Y-100470500D01*
X168534929Y-100470500D01*
X168534931Y-100470500D01*
X168801767Y-100430281D01*
X168801768Y-100430280D01*
X168801772Y-100430280D01*
X169059641Y-100350738D01*
X169302775Y-100233651D01*
X169525741Y-100081635D01*
X169723561Y-99898085D01*
X169891815Y-99687102D01*
X170026743Y-99453398D01*
X170125334Y-99202195D01*
X170185383Y-98939103D01*
X170205549Y-98670000D01*
X170185383Y-98400897D01*
X170151512Y-98252499D01*
X176086818Y-98252499D01*
X176107455Y-98409261D01*
X176167964Y-98555341D01*
X176264217Y-98680782D01*
X176330900Y-98731949D01*
X176389659Y-98777036D01*
X176535738Y-98837544D01*
X176692500Y-98858182D01*
X176849262Y-98837544D01*
X176995341Y-98777036D01*
X177120782Y-98680782D01*
X177217036Y-98555341D01*
X177277544Y-98409262D01*
X177298182Y-98252500D01*
X177286004Y-98160000D01*
X181474318Y-98160000D01*
X181494955Y-98316761D01*
X181555464Y-98462841D01*
X181651717Y-98588282D01*
X181687456Y-98615705D01*
X181777159Y-98684536D01*
X181923238Y-98745044D01*
X182080000Y-98765682D01*
X182236762Y-98745044D01*
X182382841Y-98684536D01*
X182508282Y-98588282D01*
X182604536Y-98462841D01*
X182665044Y-98316762D01*
X182685682Y-98160000D01*
X182671925Y-98055503D01*
X196339500Y-98055503D01*
X196354885Y-98221536D01*
X196411258Y-98419667D01*
X196415772Y-98435530D01*
X196514940Y-98634686D01*
X196514941Y-98634687D01*
X196514942Y-98634689D01*
X196649019Y-98812236D01*
X196813438Y-98962124D01*
X197002599Y-99079247D01*
X197210060Y-99159618D01*
X197210063Y-99159619D01*
X197428755Y-99200500D01*
X197428757Y-99200500D01*
X197651243Y-99200500D01*
X197651245Y-99200500D01*
X197869936Y-99159619D01*
X197869937Y-99159618D01*
X197869940Y-99159618D01*
X198077401Y-99079247D01*
X198266562Y-98962124D01*
X198430981Y-98812236D01*
X198565058Y-98634689D01*
X198664229Y-98435528D01*
X198674338Y-98400000D01*
X244839364Y-98400000D01*
X247500636Y-98400000D01*
X247443429Y-98186505D01*
X247343601Y-97972424D01*
X247208112Y-97778925D01*
X247041074Y-97611887D01*
X246847576Y-97476398D01*
X246633491Y-97376568D01*
X246602301Y-97368211D01*
X246551035Y-97334946D01*
X246529069Y-97277918D01*
X246544773Y-97218857D01*
X246592162Y-97180270D01*
X246685019Y-97144298D01*
X246866302Y-97032052D01*
X247023872Y-96888407D01*
X247152366Y-96718255D01*
X247247405Y-96527389D01*
X247305756Y-96322310D01*
X247325429Y-96110000D01*
X247305756Y-95897690D01*
X247247405Y-95692611D01*
X247152366Y-95501745D01*
X247152365Y-95501744D01*
X247152365Y-95501743D01*
X247023874Y-95331595D01*
X246866300Y-95187946D01*
X246685021Y-95075703D01*
X246685019Y-95075702D01*
X246642898Y-95059384D01*
X246486195Y-94998677D01*
X246276612Y-94959500D01*
X246276610Y-94959500D01*
X246063390Y-94959500D01*
X246063388Y-94959500D01*
X245853804Y-94998677D01*
X245654978Y-95075703D01*
X245473699Y-95187946D01*
X245316125Y-95331595D01*
X245187634Y-95501743D01*
X245092843Y-95692112D01*
X245092595Y-95692611D01*
X245034244Y-95897690D01*
X245014571Y-96110000D01*
X245034244Y-96322310D01*
X245070575Y-96449999D01*
X245092596Y-96527391D01*
X245187634Y-96718256D01*
X245316125Y-96888404D01*
X245473699Y-97032053D01*
X245593688Y-97106347D01*
X245654981Y-97144298D01*
X245747837Y-97180270D01*
X245795226Y-97218857D01*
X245810930Y-97277918D01*
X245788964Y-97334946D01*
X245737698Y-97368211D01*
X245706509Y-97376568D01*
X245492424Y-97476398D01*
X245298925Y-97611887D01*
X245131887Y-97778925D01*
X244996398Y-97972424D01*
X244896570Y-98186505D01*
X244839364Y-98400000D01*
X198674338Y-98400000D01*
X198725115Y-98221536D01*
X198740500Y-98055503D01*
X198740500Y-97344862D01*
X211419500Y-97344862D01*
X211419501Y-97344867D01*
X211422415Y-97369991D01*
X211425319Y-97376568D01*
X211467793Y-97472764D01*
X211467794Y-97472765D01*
X211547235Y-97552206D01*
X211650009Y-97597585D01*
X211675135Y-97600500D01*
X213464864Y-97600499D01*
X213489991Y-97597585D01*
X213592765Y-97552206D01*
X213672206Y-97472765D01*
X213717585Y-97369991D01*
X213720500Y-97344865D01*
X213720499Y-96450000D01*
X213954571Y-96450000D01*
X213974244Y-96662310D01*
X213990162Y-96718256D01*
X214032596Y-96867391D01*
X214127634Y-97058256D01*
X214256125Y-97228404D01*
X214256127Y-97228406D01*
X214256128Y-97228407D01*
X214291332Y-97260500D01*
X214413699Y-97372053D01*
X214526527Y-97441913D01*
X214594981Y-97484298D01*
X214751681Y-97545003D01*
X214793804Y-97561322D01*
X215003388Y-97600500D01*
X215003390Y-97600500D01*
X215216610Y-97600500D01*
X215216612Y-97600500D01*
X215426195Y-97561322D01*
X215426198Y-97561321D01*
X215625019Y-97484298D01*
X215806302Y-97372052D01*
X215963872Y-97228407D01*
X216092366Y-97058255D01*
X216187405Y-96867389D01*
X216245756Y-96662310D01*
X216265429Y-96450000D01*
X216494571Y-96450000D01*
X216514244Y-96662310D01*
X216530162Y-96718256D01*
X216572596Y-96867391D01*
X216667634Y-97058256D01*
X216796125Y-97228404D01*
X216796127Y-97228406D01*
X216796128Y-97228407D01*
X216831332Y-97260500D01*
X216953699Y-97372053D01*
X217066527Y-97441913D01*
X217134981Y-97484298D01*
X217291681Y-97545003D01*
X217333804Y-97561322D01*
X217543388Y-97600500D01*
X217543390Y-97600500D01*
X217756610Y-97600500D01*
X217756612Y-97600500D01*
X217966195Y-97561322D01*
X217966198Y-97561321D01*
X218165019Y-97484298D01*
X218346302Y-97372052D01*
X218503872Y-97228407D01*
X218632366Y-97058255D01*
X218727405Y-96867389D01*
X218730930Y-96855000D01*
X221719318Y-96855000D01*
X221739955Y-97011761D01*
X221800464Y-97157841D01*
X221896717Y-97283282D01*
X221964048Y-97334946D01*
X222022159Y-97379536D01*
X222168238Y-97440044D01*
X222325000Y-97460682D01*
X222481762Y-97440044D01*
X222627841Y-97379536D01*
X222721818Y-97307425D01*
X229674500Y-97307425D01*
X229681386Y-97379535D01*
X229689472Y-97464219D01*
X229748683Y-97665875D01*
X229844989Y-97852682D01*
X229974908Y-98017887D01*
X230133740Y-98155516D01*
X230133741Y-98155516D01*
X230133744Y-98155519D01*
X230315756Y-98260604D01*
X230514367Y-98329344D01*
X230590388Y-98340274D01*
X230722395Y-98359254D01*
X230722397Y-98359253D01*
X230722398Y-98359254D01*
X230932330Y-98349254D01*
X231072916Y-98315148D01*
X231136574Y-98299705D01*
X231162864Y-98287698D01*
X231327753Y-98212396D01*
X231498952Y-98090486D01*
X231643986Y-97938378D01*
X231757613Y-97761572D01*
X231795292Y-97667456D01*
X231835724Y-97566460D01*
X231836715Y-97561322D01*
X231875500Y-97360085D01*
X231875500Y-97307425D01*
X232214500Y-97307425D01*
X232221386Y-97379535D01*
X232229472Y-97464219D01*
X232288683Y-97665875D01*
X232384989Y-97852682D01*
X232514908Y-98017887D01*
X232673740Y-98155516D01*
X232673741Y-98155516D01*
X232673744Y-98155519D01*
X232855756Y-98260604D01*
X233054367Y-98329344D01*
X233130388Y-98340274D01*
X233262395Y-98359254D01*
X233262397Y-98359253D01*
X233262398Y-98359254D01*
X233472330Y-98349254D01*
X233612916Y-98315148D01*
X233676574Y-98299705D01*
X233702864Y-98287698D01*
X233867753Y-98212396D01*
X234038952Y-98090486D01*
X234183986Y-97938378D01*
X234297613Y-97761572D01*
X234335292Y-97667456D01*
X234375724Y-97566460D01*
X234376715Y-97561322D01*
X234415500Y-97360085D01*
X234415500Y-97307425D01*
X234754500Y-97307425D01*
X234761386Y-97379535D01*
X234769472Y-97464219D01*
X234828683Y-97665875D01*
X234924989Y-97852682D01*
X235054908Y-98017887D01*
X235213740Y-98155516D01*
X235213741Y-98155516D01*
X235213744Y-98155519D01*
X235395756Y-98260604D01*
X235594367Y-98329344D01*
X235670388Y-98340274D01*
X235802395Y-98359254D01*
X235802397Y-98359253D01*
X235802398Y-98359254D01*
X236012330Y-98349254D01*
X236152916Y-98315148D01*
X236216574Y-98299705D01*
X236242864Y-98287698D01*
X236407753Y-98212396D01*
X236578952Y-98090486D01*
X236723986Y-97938378D01*
X236837613Y-97761572D01*
X236875292Y-97667456D01*
X236915724Y-97566460D01*
X236916715Y-97561322D01*
X236955500Y-97360085D01*
X236955500Y-97307425D01*
X237294500Y-97307425D01*
X237301386Y-97379535D01*
X237309472Y-97464219D01*
X237368683Y-97665875D01*
X237464989Y-97852682D01*
X237594908Y-98017887D01*
X237753740Y-98155516D01*
X237753741Y-98155516D01*
X237753744Y-98155519D01*
X237935756Y-98260604D01*
X238134367Y-98329344D01*
X238210388Y-98340274D01*
X238342395Y-98359254D01*
X238342397Y-98359253D01*
X238342398Y-98359254D01*
X238552330Y-98349254D01*
X238692916Y-98315148D01*
X238756574Y-98299705D01*
X238782864Y-98287698D01*
X238947753Y-98212396D01*
X239118952Y-98090486D01*
X239263986Y-97938378D01*
X239377613Y-97761572D01*
X239415292Y-97667456D01*
X239455724Y-97566460D01*
X239456715Y-97561322D01*
X239495500Y-97360085D01*
X239495500Y-96402575D01*
X239480528Y-96245782D01*
X239421316Y-96044125D01*
X239421316Y-96044124D01*
X239325010Y-95857317D01*
X239312762Y-95841743D01*
X239264207Y-95780000D01*
X239195091Y-95692112D01*
X239036259Y-95554483D01*
X239036256Y-95554481D01*
X238854244Y-95449396D01*
X238655633Y-95380656D01*
X238655632Y-95380655D01*
X238655630Y-95380655D01*
X238447604Y-95350745D01*
X238237667Y-95360746D01*
X238033425Y-95410294D01*
X237842245Y-95497604D01*
X237671051Y-95619510D01*
X237526013Y-95771622D01*
X237412384Y-95948431D01*
X237334275Y-96143539D01*
X237309911Y-96269955D01*
X237294500Y-96349915D01*
X237294500Y-97307425D01*
X236955500Y-97307425D01*
X236955500Y-96402575D01*
X236940528Y-96245782D01*
X236881316Y-96044125D01*
X236881316Y-96044124D01*
X236785010Y-95857317D01*
X236772762Y-95841743D01*
X236724207Y-95780000D01*
X236655091Y-95692112D01*
X236496259Y-95554483D01*
X236496256Y-95554481D01*
X236314244Y-95449396D01*
X236115633Y-95380656D01*
X236115632Y-95380655D01*
X236115630Y-95380655D01*
X235907604Y-95350745D01*
X235697667Y-95360746D01*
X235493425Y-95410294D01*
X235302245Y-95497604D01*
X235131051Y-95619510D01*
X234986013Y-95771622D01*
X234872384Y-95948431D01*
X234794275Y-96143539D01*
X234769911Y-96269955D01*
X234754500Y-96349915D01*
X234754500Y-97307425D01*
X234415500Y-97307425D01*
X234415500Y-96402575D01*
X234400528Y-96245782D01*
X234341316Y-96044125D01*
X234341316Y-96044124D01*
X234245010Y-95857317D01*
X234232762Y-95841743D01*
X234184207Y-95780000D01*
X234115091Y-95692112D01*
X233956259Y-95554483D01*
X233956256Y-95554481D01*
X233774244Y-95449396D01*
X233575633Y-95380656D01*
X233575632Y-95380655D01*
X233575630Y-95380655D01*
X233367604Y-95350745D01*
X233157667Y-95360746D01*
X232953425Y-95410294D01*
X232762245Y-95497604D01*
X232591051Y-95619510D01*
X232446013Y-95771622D01*
X232332384Y-95948431D01*
X232254275Y-96143539D01*
X232229911Y-96269955D01*
X232214500Y-96349915D01*
X232214500Y-97307425D01*
X231875500Y-97307425D01*
X231875500Y-96402575D01*
X231860528Y-96245782D01*
X231801316Y-96044125D01*
X231801316Y-96044124D01*
X231705010Y-95857317D01*
X231692762Y-95841743D01*
X231644207Y-95780000D01*
X231575091Y-95692112D01*
X231416259Y-95554483D01*
X231416256Y-95554481D01*
X231234244Y-95449396D01*
X231035633Y-95380656D01*
X231035632Y-95380655D01*
X231035630Y-95380655D01*
X230827604Y-95350745D01*
X230617667Y-95360746D01*
X230413425Y-95410294D01*
X230222245Y-95497604D01*
X230051051Y-95619510D01*
X229906013Y-95771622D01*
X229792384Y-95948431D01*
X229714275Y-96143539D01*
X229689911Y-96269955D01*
X229674500Y-96349915D01*
X229674500Y-97307425D01*
X222721818Y-97307425D01*
X222753282Y-97283282D01*
X222849536Y-97157841D01*
X222910044Y-97011762D01*
X222930682Y-96855000D01*
X222910044Y-96698238D01*
X222849536Y-96552159D01*
X222771147Y-96450000D01*
X222753282Y-96426717D01*
X222627841Y-96330464D01*
X222481761Y-96269955D01*
X222325000Y-96249318D01*
X222168238Y-96269955D01*
X222022158Y-96330464D01*
X221896717Y-96426717D01*
X221800464Y-96552158D01*
X221739955Y-96698238D01*
X221719318Y-96855000D01*
X218730930Y-96855000D01*
X218785756Y-96662310D01*
X218805429Y-96450000D01*
X218785756Y-96237690D01*
X218727405Y-96032611D01*
X218632366Y-95841745D01*
X218632365Y-95841744D01*
X218632365Y-95841743D01*
X218503874Y-95671595D01*
X218346300Y-95527946D01*
X218165021Y-95415703D01*
X218165019Y-95415702D01*
X218122898Y-95399384D01*
X217966195Y-95338677D01*
X217756612Y-95299500D01*
X217756610Y-95299500D01*
X217543390Y-95299500D01*
X217543388Y-95299500D01*
X217333804Y-95338677D01*
X217134978Y-95415703D01*
X216953699Y-95527946D01*
X216796125Y-95671595D01*
X216667634Y-95841743D01*
X216572596Y-96032608D01*
X216514244Y-96237690D01*
X216499105Y-96401074D01*
X216494571Y-96450000D01*
X216265429Y-96450000D01*
X216245756Y-96237690D01*
X216187405Y-96032611D01*
X216092366Y-95841745D01*
X216092365Y-95841744D01*
X216092365Y-95841743D01*
X215963874Y-95671595D01*
X215806300Y-95527946D01*
X215625021Y-95415703D01*
X215625019Y-95415702D01*
X215582898Y-95399384D01*
X215426195Y-95338677D01*
X215216612Y-95299500D01*
X215216610Y-95299500D01*
X215003390Y-95299500D01*
X215003388Y-95299500D01*
X214793804Y-95338677D01*
X214594978Y-95415703D01*
X214413699Y-95527946D01*
X214256125Y-95671595D01*
X214127634Y-95841743D01*
X214032596Y-96032608D01*
X213974244Y-96237690D01*
X213959105Y-96401074D01*
X213954571Y-96450000D01*
X213720499Y-96450000D01*
X213720499Y-95555136D01*
X213717585Y-95530009D01*
X213672206Y-95427235D01*
X213592765Y-95347794D01*
X213592764Y-95347793D01*
X213489989Y-95302414D01*
X213464867Y-95299500D01*
X211675137Y-95299500D01*
X211650009Y-95302415D01*
X211547235Y-95347793D01*
X211467793Y-95427235D01*
X211422414Y-95530010D01*
X211419500Y-95555132D01*
X211419500Y-97344862D01*
X198740500Y-97344862D01*
X198740500Y-95744497D01*
X198725115Y-95578464D01*
X198664229Y-95364472D01*
X198565058Y-95165311D01*
X198430981Y-94987764D01*
X198266562Y-94837876D01*
X198077401Y-94720753D01*
X198077399Y-94720752D01*
X197869936Y-94640380D01*
X197651245Y-94599500D01*
X197651243Y-94599500D01*
X197428757Y-94599500D01*
X197428755Y-94599500D01*
X197210063Y-94640380D01*
X197002600Y-94720752D01*
X196813436Y-94837877D01*
X196680023Y-94959500D01*
X196649019Y-94987764D01*
X196604326Y-95046946D01*
X196514940Y-95165313D01*
X196417626Y-95360746D01*
X196415771Y-95364472D01*
X196354885Y-95578464D01*
X196339500Y-95744497D01*
X196339500Y-98055503D01*
X182671925Y-98055503D01*
X182665044Y-98003238D01*
X182604536Y-97857159D01*
X182531187Y-97761568D01*
X182508282Y-97731717D01*
X182382841Y-97635464D01*
X182236761Y-97574955D01*
X182080000Y-97554318D01*
X181923238Y-97574955D01*
X181777158Y-97635464D01*
X181651717Y-97731717D01*
X181555464Y-97857158D01*
X181494955Y-98003238D01*
X181474318Y-98160000D01*
X177286004Y-98160000D01*
X177277544Y-98095738D01*
X177217036Y-97949659D01*
X177168651Y-97886602D01*
X177120782Y-97824217D01*
X176995341Y-97727964D01*
X176849261Y-97667455D01*
X176692500Y-97646818D01*
X176535738Y-97667455D01*
X176389658Y-97727964D01*
X176264217Y-97824217D01*
X176167964Y-97949658D01*
X176107455Y-98095738D01*
X176086818Y-98252499D01*
X170151512Y-98252499D01*
X170125334Y-98137805D01*
X170106764Y-98090489D01*
X170026745Y-97886606D01*
X170009744Y-97857159D01*
X169891815Y-97652898D01*
X169818785Y-97561322D01*
X169723560Y-97441913D01*
X169525744Y-97258368D01*
X169525741Y-97258365D01*
X169302775Y-97106349D01*
X169059641Y-96989262D01*
X168942148Y-96953020D01*
X168801767Y-96909718D01*
X168534931Y-96869500D01*
X168534929Y-96869500D01*
X168265071Y-96869500D01*
X168265069Y-96869500D01*
X167998232Y-96909718D01*
X167740359Y-96989262D01*
X167497227Y-97106348D01*
X167497224Y-97106349D01*
X167497226Y-97106349D01*
X167318200Y-97228407D01*
X167274255Y-97258368D01*
X167076439Y-97441913D01*
X166908186Y-97652896D01*
X166773254Y-97886606D01*
X166674667Y-98137800D01*
X166614616Y-98400900D01*
X166594450Y-98669999D01*
X161900500Y-98669999D01*
X161900500Y-95780000D01*
X174559364Y-95780000D01*
X174616570Y-95993495D01*
X174716398Y-96207576D01*
X174851887Y-96401074D01*
X175018925Y-96568112D01*
X175212423Y-96703601D01*
X175426504Y-96803429D01*
X175640000Y-96860636D01*
X176140000Y-96860636D01*
X176353495Y-96803429D01*
X176567576Y-96703601D01*
X176761074Y-96568112D01*
X176928112Y-96401074D01*
X177063601Y-96207576D01*
X177163429Y-95993495D01*
X177220636Y-95780000D01*
X176140001Y-95780000D01*
X176140000Y-95780001D01*
X176140000Y-96860636D01*
X175640000Y-96860636D01*
X175640000Y-95780001D01*
X175639999Y-95780000D01*
X174559364Y-95780000D01*
X161900500Y-95780000D01*
X161900500Y-95280000D01*
X174559364Y-95280000D01*
X177220636Y-95280000D01*
X177163429Y-95066505D01*
X177063601Y-94852424D01*
X177058306Y-94844862D01*
X190239500Y-94844862D01*
X190242415Y-94869990D01*
X190287793Y-94972764D01*
X190287794Y-94972765D01*
X190367235Y-95052206D01*
X190470009Y-95097585D01*
X190495135Y-95100500D01*
X194984864Y-95100499D01*
X195009991Y-95097585D01*
X195112765Y-95052206D01*
X195192206Y-94972765D01*
X195237585Y-94869991D01*
X195240500Y-94844865D01*
X195240500Y-94464862D01*
X245019500Y-94464862D01*
X245019501Y-94464867D01*
X245022415Y-94489991D01*
X245042451Y-94535368D01*
X245067793Y-94592764D01*
X245067794Y-94592765D01*
X245147235Y-94672206D01*
X245250009Y-94717585D01*
X245275135Y-94720500D01*
X247064864Y-94720499D01*
X247089991Y-94717585D01*
X247192765Y-94672206D01*
X247272206Y-94592765D01*
X247317585Y-94489991D01*
X247320500Y-94464865D01*
X247320499Y-92675136D01*
X247317585Y-92650009D01*
X247272206Y-92547235D01*
X247192765Y-92467794D01*
X247192765Y-92467793D01*
X247192764Y-92467793D01*
X247089989Y-92422414D01*
X247064867Y-92419500D01*
X245275137Y-92419500D01*
X245250009Y-92422415D01*
X245147235Y-92467793D01*
X245067793Y-92547235D01*
X245022414Y-92650010D01*
X245019500Y-92675132D01*
X245019500Y-94464862D01*
X195240500Y-94464862D01*
X195240499Y-93100000D01*
X230806818Y-93100000D01*
X230827455Y-93256761D01*
X230887964Y-93402841D01*
X230984217Y-93528282D01*
X231075409Y-93598255D01*
X231109659Y-93624536D01*
X231255738Y-93685044D01*
X231412500Y-93705682D01*
X231569262Y-93685044D01*
X231715341Y-93624536D01*
X231840782Y-93528282D01*
X231937036Y-93402841D01*
X231997544Y-93256762D01*
X232018182Y-93100000D01*
X232631818Y-93100000D01*
X232652455Y-93256761D01*
X232712964Y-93402841D01*
X232809217Y-93528282D01*
X232900409Y-93598255D01*
X232934659Y-93624536D01*
X233080738Y-93685044D01*
X233237500Y-93705682D01*
X233394262Y-93685044D01*
X233540341Y-93624536D01*
X233665782Y-93528282D01*
X233762036Y-93402841D01*
X233822544Y-93256762D01*
X233843182Y-93100000D01*
X233822544Y-92943238D01*
X233763213Y-92800000D01*
X234594318Y-92800000D01*
X234614955Y-92956761D01*
X234675464Y-93102841D01*
X234771717Y-93228282D01*
X234867971Y-93302139D01*
X234897159Y-93324536D01*
X235043238Y-93385044D01*
X235200000Y-93405682D01*
X235356762Y-93385044D01*
X235502841Y-93324536D01*
X235628282Y-93228282D01*
X235724536Y-93102841D01*
X235785044Y-92956762D01*
X235805682Y-92800000D01*
X235785044Y-92643238D01*
X235724536Y-92497159D01*
X235667183Y-92422415D01*
X235628282Y-92371717D01*
X235502841Y-92275464D01*
X235356761Y-92214955D01*
X235200000Y-92194318D01*
X235043238Y-92214955D01*
X234897158Y-92275464D01*
X234771717Y-92371717D01*
X234675464Y-92497158D01*
X234614955Y-92643238D01*
X234594318Y-92800000D01*
X233763213Y-92800000D01*
X233762036Y-92797159D01*
X233687100Y-92699500D01*
X233665782Y-92671717D01*
X233540341Y-92575464D01*
X233394261Y-92514955D01*
X233237500Y-92494318D01*
X233080738Y-92514955D01*
X232934658Y-92575464D01*
X232809217Y-92671717D01*
X232712964Y-92797158D01*
X232652455Y-92943238D01*
X232631818Y-93100000D01*
X232018182Y-93100000D01*
X231997544Y-92943238D01*
X231937036Y-92797159D01*
X231862100Y-92699500D01*
X231840782Y-92671717D01*
X231715341Y-92575464D01*
X231569261Y-92514955D01*
X231412500Y-92494318D01*
X231255738Y-92514955D01*
X231109658Y-92575464D01*
X230984217Y-92671717D01*
X230887964Y-92797158D01*
X230827455Y-92943238D01*
X230806818Y-93100000D01*
X195240499Y-93100000D01*
X195240499Y-92955136D01*
X195237585Y-92930009D01*
X195192206Y-92827235D01*
X195112765Y-92747794D01*
X195112764Y-92747793D01*
X195009989Y-92702414D01*
X194984867Y-92699500D01*
X190495137Y-92699500D01*
X190470009Y-92702415D01*
X190367235Y-92747793D01*
X190287793Y-92827235D01*
X190242414Y-92930010D01*
X190239500Y-92955132D01*
X190239500Y-94844862D01*
X177058306Y-94844862D01*
X176928112Y-94658925D01*
X176761074Y-94491887D01*
X176567576Y-94356398D01*
X176353491Y-94256568D01*
X176322301Y-94248211D01*
X176271035Y-94214946D01*
X176249069Y-94157918D01*
X176264773Y-94098857D01*
X176312162Y-94060270D01*
X176405019Y-94024298D01*
X176586302Y-93912052D01*
X176743872Y-93768407D01*
X176871049Y-93599999D01*
X178354318Y-93599999D01*
X178374955Y-93756761D01*
X178435464Y-93902841D01*
X178531717Y-94028282D01*
X178623693Y-94098857D01*
X178657159Y-94124536D01*
X178803238Y-94185044D01*
X178960000Y-94205682D01*
X179116762Y-94185044D01*
X179262841Y-94124536D01*
X179388282Y-94028282D01*
X179484536Y-93902841D01*
X179545044Y-93756762D01*
X179565682Y-93600000D01*
X179545044Y-93443238D01*
X179484536Y-93297159D01*
X179431685Y-93228282D01*
X179388282Y-93171717D01*
X179262841Y-93075464D01*
X179116761Y-93014955D01*
X178960000Y-92994318D01*
X178803238Y-93014955D01*
X178657158Y-93075464D01*
X178531717Y-93171717D01*
X178435464Y-93297158D01*
X178374955Y-93443238D01*
X178354318Y-93599999D01*
X176871049Y-93599999D01*
X176872366Y-93598255D01*
X176967405Y-93407389D01*
X177025756Y-93202310D01*
X177045429Y-92990000D01*
X177025756Y-92777690D01*
X176967405Y-92572611D01*
X176872366Y-92381745D01*
X176872365Y-92381744D01*
X176872365Y-92381743D01*
X176743874Y-92211595D01*
X176586300Y-92067946D01*
X176405021Y-91955703D01*
X176405019Y-91955702D01*
X176347962Y-91933598D01*
X176206195Y-91878677D01*
X175996612Y-91839500D01*
X175996610Y-91839500D01*
X175783390Y-91839500D01*
X175783388Y-91839500D01*
X175573804Y-91878677D01*
X175374978Y-91955703D01*
X175193699Y-92067946D01*
X175036125Y-92211595D01*
X174907634Y-92381743D01*
X174812596Y-92572608D01*
X174812595Y-92572611D01*
X174754244Y-92777690D01*
X174734571Y-92990000D01*
X174754244Y-93202310D01*
X174812109Y-93405682D01*
X174812596Y-93407391D01*
X174907634Y-93598256D01*
X175036125Y-93768404D01*
X175193699Y-93912053D01*
X175325622Y-93993736D01*
X175374981Y-94024298D01*
X175467837Y-94060270D01*
X175515226Y-94098857D01*
X175530930Y-94157918D01*
X175508964Y-94214946D01*
X175457698Y-94248211D01*
X175426509Y-94256568D01*
X175212424Y-94356398D01*
X175018925Y-94491887D01*
X174851887Y-94658925D01*
X174716398Y-94852424D01*
X174616570Y-95066505D01*
X174559364Y-95280000D01*
X161900500Y-95280000D01*
X161900500Y-90450000D01*
X174734571Y-90450000D01*
X174754244Y-90662310D01*
X174804802Y-90840001D01*
X174812596Y-90867391D01*
X174907634Y-91058256D01*
X175036125Y-91228404D01*
X175193699Y-91372053D01*
X175325622Y-91453736D01*
X175374981Y-91484298D01*
X175531681Y-91545003D01*
X175573804Y-91561322D01*
X175783388Y-91600500D01*
X175783390Y-91600500D01*
X175996610Y-91600500D01*
X175996612Y-91600500D01*
X176206195Y-91561322D01*
X176206198Y-91561321D01*
X176395912Y-91487826D01*
X198660000Y-91487826D01*
X198666401Y-91547376D01*
X198716646Y-91682089D01*
X198802811Y-91797188D01*
X198917910Y-91883353D01*
X199052623Y-91933598D01*
X199112174Y-91940000D01*
X199759999Y-91940000D01*
X199760000Y-91939999D01*
X200260000Y-91939999D01*
X200260001Y-91940000D01*
X200907826Y-91940000D01*
X200967376Y-91933598D01*
X201102089Y-91883353D01*
X201217188Y-91797188D01*
X201303353Y-91682089D01*
X201353598Y-91547376D01*
X201360000Y-91487826D01*
X201360000Y-91202191D01*
X201373880Y-91151638D01*
X201411628Y-91115261D01*
X201462659Y-91103259D01*
X201512664Y-91118997D01*
X201547621Y-91158063D01*
X201567634Y-91198256D01*
X201696125Y-91368404D01*
X201696127Y-91368406D01*
X201696128Y-91368407D01*
X201797778Y-91461074D01*
X201853699Y-91512053D01*
X201985622Y-91593736D01*
X202034981Y-91624298D01*
X202184158Y-91682089D01*
X202233804Y-91701322D01*
X202443388Y-91740500D01*
X202443390Y-91740500D01*
X202656610Y-91740500D01*
X202656612Y-91740500D01*
X202866195Y-91701322D01*
X202866198Y-91701321D01*
X203065019Y-91624298D01*
X203246302Y-91512052D01*
X203403872Y-91368407D01*
X203532366Y-91198255D01*
X203627405Y-91007389D01*
X203685756Y-90802310D01*
X203705429Y-90590000D01*
X203934571Y-90590000D01*
X203954244Y-90802310D01*
X204004609Y-90979323D01*
X204012596Y-91007391D01*
X204107634Y-91198256D01*
X204236125Y-91368404D01*
X204236127Y-91368406D01*
X204236128Y-91368407D01*
X204337778Y-91461074D01*
X204393699Y-91512053D01*
X204525622Y-91593736D01*
X204574981Y-91624298D01*
X204724158Y-91682089D01*
X204773804Y-91701322D01*
X204983388Y-91740500D01*
X204983390Y-91740500D01*
X205196610Y-91740500D01*
X205196612Y-91740500D01*
X205406195Y-91701322D01*
X205406198Y-91701321D01*
X205605019Y-91624298D01*
X205786302Y-91512052D01*
X205943872Y-91368407D01*
X206072366Y-91198255D01*
X206165795Y-91010621D01*
X206206573Y-90968079D01*
X206264306Y-90956247D01*
X206318534Y-90979323D01*
X206350040Y-91029127D01*
X206356569Y-91053492D01*
X206456398Y-91267576D01*
X206591887Y-91461074D01*
X206758925Y-91628112D01*
X206952423Y-91763601D01*
X207166504Y-91863429D01*
X207380000Y-91920636D01*
X207880000Y-91920636D01*
X208093495Y-91863429D01*
X208307576Y-91763601D01*
X208501074Y-91628112D01*
X208668112Y-91461074D01*
X208803601Y-91267576D01*
X208903429Y-91053495D01*
X208960636Y-90840000D01*
X207880001Y-90840000D01*
X207880000Y-90840001D01*
X207880000Y-91920636D01*
X207380000Y-91920636D01*
X207380000Y-89259364D01*
X207880000Y-89259364D01*
X207880000Y-90339999D01*
X207880001Y-90340000D01*
X208960636Y-90340000D01*
X208903429Y-90126505D01*
X208844439Y-90000000D01*
X221794318Y-90000000D01*
X221814955Y-90156761D01*
X221875464Y-90302841D01*
X221971717Y-90428282D01*
X222067970Y-90502139D01*
X222097159Y-90524536D01*
X222243238Y-90585044D01*
X222400000Y-90605682D01*
X222556762Y-90585044D01*
X222702841Y-90524536D01*
X222828282Y-90428282D01*
X222924536Y-90302841D01*
X222985044Y-90156762D01*
X223005682Y-90000000D01*
X225794318Y-90000000D01*
X225814955Y-90156761D01*
X225875464Y-90302841D01*
X225971717Y-90428282D01*
X226067970Y-90502139D01*
X226097159Y-90524536D01*
X226243238Y-90585044D01*
X226400000Y-90605682D01*
X226556762Y-90585044D01*
X226702841Y-90524536D01*
X226828282Y-90428282D01*
X226924536Y-90302841D01*
X226985044Y-90156762D01*
X227005682Y-90000000D01*
X226985044Y-89843238D01*
X226924536Y-89697159D01*
X226875016Y-89632623D01*
X226828282Y-89571717D01*
X226702841Y-89475464D01*
X226556761Y-89414955D01*
X226400000Y-89394318D01*
X226243238Y-89414955D01*
X226097158Y-89475464D01*
X225971717Y-89571717D01*
X225875464Y-89697158D01*
X225814955Y-89843238D01*
X225794318Y-90000000D01*
X223005682Y-90000000D01*
X222985044Y-89843238D01*
X222924536Y-89697159D01*
X222875016Y-89632623D01*
X222828282Y-89571717D01*
X222702841Y-89475464D01*
X222556761Y-89414955D01*
X222400000Y-89394318D01*
X222243238Y-89414955D01*
X222097158Y-89475464D01*
X221971717Y-89571717D01*
X221875464Y-89697158D01*
X221814955Y-89843238D01*
X221794318Y-90000000D01*
X208844439Y-90000000D01*
X208803601Y-89912424D01*
X208668112Y-89718925D01*
X208501074Y-89551887D01*
X208307576Y-89416398D01*
X208093495Y-89316570D01*
X207880000Y-89259364D01*
X207380000Y-89259364D01*
X207166505Y-89316570D01*
X206952424Y-89416398D01*
X206758925Y-89551887D01*
X206591887Y-89718925D01*
X206456398Y-89912424D01*
X206356568Y-90126508D01*
X206350040Y-90150872D01*
X206318534Y-90200677D01*
X206264306Y-90223752D01*
X206206573Y-90211920D01*
X206165793Y-90169374D01*
X206097692Y-90032608D01*
X206072366Y-89981745D01*
X206020017Y-89912424D01*
X205943874Y-89811595D01*
X205786300Y-89667946D01*
X205605021Y-89555703D01*
X205605019Y-89555702D01*
X205533372Y-89527946D01*
X205406195Y-89478677D01*
X205196612Y-89439500D01*
X205196610Y-89439500D01*
X204983390Y-89439500D01*
X204983388Y-89439500D01*
X204773804Y-89478677D01*
X204574978Y-89555703D01*
X204393699Y-89667946D01*
X204236125Y-89811595D01*
X204107634Y-89981743D01*
X204012596Y-90172608D01*
X204012595Y-90172611D01*
X203954244Y-90377690D01*
X203934571Y-90590000D01*
X203705429Y-90590000D01*
X203685756Y-90377690D01*
X203627405Y-90172611D01*
X203532366Y-89981745D01*
X203532365Y-89981744D01*
X203532365Y-89981743D01*
X203403874Y-89811595D01*
X203246300Y-89667946D01*
X203065021Y-89555703D01*
X203065019Y-89555702D01*
X202993372Y-89527946D01*
X202866195Y-89478677D01*
X202656612Y-89439500D01*
X202656610Y-89439500D01*
X202443390Y-89439500D01*
X202443388Y-89439500D01*
X202233804Y-89478677D01*
X202034978Y-89555703D01*
X201853699Y-89667946D01*
X201696125Y-89811595D01*
X201567634Y-89981743D01*
X201547621Y-90021937D01*
X201512664Y-90061003D01*
X201462659Y-90076741D01*
X201411628Y-90064739D01*
X201373880Y-90028362D01*
X201360000Y-89977809D01*
X201360000Y-89692174D01*
X201353598Y-89632623D01*
X201303353Y-89497910D01*
X201217188Y-89382811D01*
X201102089Y-89296646D01*
X200967376Y-89246401D01*
X200907826Y-89240000D01*
X200260001Y-89240000D01*
X200260000Y-89240001D01*
X200260000Y-91939999D01*
X199760000Y-91939999D01*
X199760000Y-90840001D01*
X199759999Y-90840000D01*
X198660001Y-90840000D01*
X198660000Y-90840001D01*
X198660000Y-91487826D01*
X176395912Y-91487826D01*
X176405019Y-91484298D01*
X176586302Y-91372052D01*
X176743872Y-91228407D01*
X176872366Y-91058255D01*
X176967405Y-90867389D01*
X177025756Y-90662310D01*
X177045429Y-90450000D01*
X177035236Y-90339999D01*
X198660000Y-90339999D01*
X198660001Y-90340000D01*
X199759999Y-90340000D01*
X199760000Y-90339999D01*
X199760000Y-89240001D01*
X199759999Y-89240000D01*
X199112174Y-89240000D01*
X199052623Y-89246401D01*
X198917910Y-89296646D01*
X198802811Y-89382811D01*
X198716646Y-89497910D01*
X198666401Y-89632623D01*
X198660000Y-89692174D01*
X198660000Y-90339999D01*
X177035236Y-90339999D01*
X177025756Y-90237690D01*
X176967405Y-90032611D01*
X176872366Y-89841745D01*
X176872365Y-89841744D01*
X176872365Y-89841743D01*
X176743874Y-89671595D01*
X176739873Y-89667948D01*
X176616748Y-89555703D01*
X176586300Y-89527946D01*
X176405021Y-89415703D01*
X176405019Y-89415702D01*
X176320117Y-89382811D01*
X176206195Y-89338677D01*
X175996612Y-89299500D01*
X175996610Y-89299500D01*
X175783390Y-89299500D01*
X175783388Y-89299500D01*
X175573804Y-89338677D01*
X175374978Y-89415703D01*
X175193699Y-89527946D01*
X175036125Y-89671595D01*
X174907634Y-89841743D01*
X174812596Y-90032608D01*
X174812595Y-90032611D01*
X174754244Y-90237690D01*
X174734571Y-90450000D01*
X161900500Y-90450000D01*
X161900500Y-88804862D01*
X174739500Y-88804862D01*
X174742415Y-88829990D01*
X174787793Y-88932764D01*
X174787794Y-88932765D01*
X174867235Y-89012206D01*
X174970009Y-89057585D01*
X174995135Y-89060500D01*
X176784864Y-89060499D01*
X176809991Y-89057585D01*
X176912765Y-89012206D01*
X176992206Y-88932765D01*
X177037585Y-88829991D01*
X177040500Y-88804865D01*
X177040499Y-87550000D01*
X188246204Y-87550000D01*
X188266841Y-87706761D01*
X188327350Y-87852841D01*
X188423603Y-87978282D01*
X188519857Y-88052139D01*
X188549045Y-88074536D01*
X188695124Y-88135044D01*
X188851886Y-88155682D01*
X189008648Y-88135044D01*
X189093254Y-88099999D01*
X213194318Y-88099999D01*
X213214955Y-88256761D01*
X213275464Y-88402841D01*
X213371717Y-88528282D01*
X213467971Y-88602139D01*
X213497159Y-88624536D01*
X213643238Y-88685044D01*
X213800000Y-88705682D01*
X213956762Y-88685044D01*
X214102841Y-88624536D01*
X214228282Y-88528282D01*
X214324536Y-88402841D01*
X214325713Y-88399999D01*
X230694318Y-88399999D01*
X230714955Y-88556761D01*
X230775464Y-88702841D01*
X230871717Y-88828282D01*
X230967971Y-88902139D01*
X230997159Y-88924536D01*
X231143238Y-88985044D01*
X231300000Y-89005682D01*
X231456762Y-88985044D01*
X231602841Y-88924536D01*
X231728282Y-88828282D01*
X231824536Y-88702841D01*
X231885044Y-88556762D01*
X231905682Y-88400000D01*
X231885044Y-88243238D01*
X231824536Y-88097159D01*
X231733319Y-87978282D01*
X231728282Y-87971717D01*
X231602841Y-87875464D01*
X231456761Y-87814955D01*
X231300000Y-87794318D01*
X231143238Y-87814955D01*
X230997158Y-87875464D01*
X230871717Y-87971717D01*
X230775464Y-88097158D01*
X230714955Y-88243238D01*
X230694318Y-88399999D01*
X214325713Y-88399999D01*
X214385044Y-88256762D01*
X214405682Y-88100000D01*
X214385044Y-87943238D01*
X214324536Y-87797159D01*
X214284999Y-87745633D01*
X214228282Y-87671717D01*
X214102841Y-87575464D01*
X213956761Y-87514955D01*
X213800000Y-87494318D01*
X213643238Y-87514955D01*
X213497158Y-87575464D01*
X213371717Y-87671717D01*
X213275464Y-87797158D01*
X213214955Y-87943238D01*
X213194318Y-88099999D01*
X189093254Y-88099999D01*
X189154727Y-88074536D01*
X189280168Y-87978282D01*
X189376422Y-87852841D01*
X189436930Y-87706762D01*
X189441983Y-87668376D01*
X189461593Y-87621032D01*
X189502250Y-87589835D01*
X189553057Y-87583146D01*
X189600403Y-87602757D01*
X189624220Y-87621032D01*
X189707748Y-87685125D01*
X189853827Y-87745633D01*
X190010589Y-87766271D01*
X190167351Y-87745633D01*
X190313430Y-87685125D01*
X190438871Y-87588871D01*
X190535125Y-87463430D01*
X190595633Y-87317351D01*
X190616271Y-87160589D01*
X190595633Y-87003827D01*
X190535125Y-86857748D01*
X190458652Y-86758086D01*
X190438871Y-86732306D01*
X190313430Y-86636053D01*
X190167350Y-86575544D01*
X190010589Y-86554907D01*
X189853827Y-86575544D01*
X189707747Y-86636053D01*
X189582306Y-86732306D01*
X189486053Y-86857747D01*
X189425544Y-87003827D01*
X189420491Y-87042212D01*
X189400880Y-87089557D01*
X189360224Y-87120753D01*
X189309416Y-87127442D01*
X189262071Y-87107831D01*
X189154727Y-87025464D01*
X189008647Y-86964955D01*
X188851886Y-86944318D01*
X188695124Y-86964955D01*
X188549044Y-87025464D01*
X188423603Y-87121717D01*
X188327350Y-87247158D01*
X188266841Y-87393238D01*
X188246204Y-87550000D01*
X177040499Y-87550000D01*
X177040499Y-87015136D01*
X177037585Y-86990009D01*
X176992206Y-86887235D01*
X176912765Y-86807794D01*
X176912764Y-86807793D01*
X176809989Y-86762414D01*
X176784867Y-86759500D01*
X174995137Y-86759500D01*
X174970009Y-86762415D01*
X174867235Y-86807793D01*
X174787793Y-86887235D01*
X174742414Y-86990010D01*
X174739500Y-87015132D01*
X174739500Y-88804862D01*
X161900500Y-88804862D01*
X161900500Y-85530000D01*
X166594450Y-85530000D01*
X166614616Y-85799099D01*
X166674667Y-86062199D01*
X166773254Y-86313393D01*
X166773257Y-86313398D01*
X166890044Y-86515681D01*
X166908186Y-86547103D01*
X167076439Y-86758086D01*
X167183849Y-86857747D01*
X167274259Y-86941635D01*
X167497226Y-87093651D01*
X167740359Y-87210738D01*
X167998228Y-87290280D01*
X167998229Y-87290280D01*
X167998232Y-87290281D01*
X168265069Y-87330500D01*
X168265071Y-87330500D01*
X168534929Y-87330500D01*
X168534931Y-87330500D01*
X168801767Y-87290281D01*
X168801768Y-87290280D01*
X168801772Y-87290280D01*
X169059641Y-87210738D01*
X169302775Y-87093651D01*
X169525741Y-86941635D01*
X169723561Y-86758085D01*
X169891815Y-86547102D01*
X170026743Y-86313398D01*
X170125334Y-86062195D01*
X170185383Y-85799103D01*
X170204869Y-85539074D01*
X187616280Y-85539074D01*
X187636917Y-85695835D01*
X187697426Y-85841915D01*
X187793679Y-85967356D01*
X187804293Y-85975500D01*
X187919121Y-86063610D01*
X188065200Y-86124118D01*
X188221962Y-86144756D01*
X188378724Y-86124118D01*
X188524803Y-86063610D01*
X188650244Y-85967356D01*
X188694255Y-85909999D01*
X190164318Y-85909999D01*
X190184955Y-86066761D01*
X190245464Y-86212841D01*
X190341717Y-86338282D01*
X190427079Y-86403782D01*
X190467159Y-86434536D01*
X190613238Y-86495044D01*
X190770000Y-86515682D01*
X190926762Y-86495044D01*
X191072841Y-86434536D01*
X191198282Y-86338282D01*
X191294536Y-86212841D01*
X191355044Y-86066762D01*
X191367059Y-85975499D01*
X223994318Y-85975499D01*
X224014955Y-86132261D01*
X224075464Y-86278341D01*
X224171717Y-86403782D01*
X224267970Y-86477639D01*
X224297159Y-86500036D01*
X224443238Y-86560544D01*
X224600000Y-86581182D01*
X224756762Y-86560544D01*
X224902841Y-86500036D01*
X225028282Y-86403782D01*
X225124536Y-86278341D01*
X225185044Y-86132262D01*
X225205682Y-85975500D01*
X225185044Y-85818738D01*
X225124536Y-85672659D01*
X225102139Y-85643470D01*
X225028282Y-85547217D01*
X224902841Y-85450964D01*
X224756761Y-85390455D01*
X224600000Y-85369818D01*
X224443238Y-85390455D01*
X224297158Y-85450964D01*
X224171717Y-85547217D01*
X224075464Y-85672658D01*
X224014955Y-85818738D01*
X223994318Y-85975499D01*
X191367059Y-85975499D01*
X191375682Y-85910000D01*
X191355044Y-85753238D01*
X191294536Y-85607159D01*
X191235330Y-85530000D01*
X191198282Y-85481717D01*
X191072841Y-85385464D01*
X190926761Y-85324955D01*
X190770000Y-85304318D01*
X190613238Y-85324955D01*
X190467158Y-85385464D01*
X190341717Y-85481717D01*
X190245464Y-85607158D01*
X190184955Y-85753238D01*
X190164318Y-85909999D01*
X188694255Y-85909999D01*
X188746498Y-85841915D01*
X188807006Y-85695836D01*
X188827644Y-85539074D01*
X188807006Y-85382312D01*
X188746498Y-85236233D01*
X188724101Y-85207044D01*
X188650244Y-85110791D01*
X188524803Y-85014538D01*
X188378723Y-84954029D01*
X188221962Y-84933392D01*
X188065200Y-84954029D01*
X187919120Y-85014538D01*
X187793679Y-85110791D01*
X187697426Y-85236232D01*
X187636917Y-85382312D01*
X187616280Y-85539074D01*
X170204869Y-85539074D01*
X170205549Y-85530000D01*
X170185383Y-85260897D01*
X170125334Y-84997805D01*
X170108153Y-84954029D01*
X170047701Y-84800000D01*
X175294318Y-84800000D01*
X175314955Y-84956761D01*
X175375464Y-85102841D01*
X175471717Y-85228282D01*
X175567971Y-85302139D01*
X175597159Y-85324536D01*
X175743238Y-85385044D01*
X175900000Y-85405682D01*
X176056762Y-85385044D01*
X176202841Y-85324536D01*
X176328282Y-85228282D01*
X176424536Y-85102841D01*
X176485044Y-84956762D01*
X176505682Y-84800000D01*
X176485044Y-84643238D01*
X176424536Y-84497159D01*
X176411369Y-84479999D01*
X190094318Y-84479999D01*
X190114955Y-84636761D01*
X190175464Y-84782841D01*
X190271717Y-84908282D01*
X190367970Y-84982139D01*
X190397159Y-85004536D01*
X190543238Y-85065044D01*
X190700000Y-85085682D01*
X190856762Y-85065044D01*
X191002841Y-85004536D01*
X191128282Y-84908282D01*
X191134638Y-84899999D01*
X211444318Y-84899999D01*
X211464955Y-85056761D01*
X211525464Y-85202841D01*
X211621717Y-85328282D01*
X211702745Y-85390456D01*
X211747159Y-85424536D01*
X211893238Y-85485044D01*
X212050000Y-85505682D01*
X212206762Y-85485044D01*
X212352841Y-85424536D01*
X212478282Y-85328282D01*
X212574536Y-85202841D01*
X212635044Y-85056762D01*
X212655682Y-84900000D01*
X212635044Y-84743238D01*
X212574536Y-84597159D01*
X212552139Y-84567970D01*
X212478282Y-84471717D01*
X212352841Y-84375464D01*
X212206761Y-84314955D01*
X212050000Y-84294318D01*
X211893238Y-84314955D01*
X211747158Y-84375464D01*
X211621717Y-84471717D01*
X211525464Y-84597158D01*
X211464955Y-84743238D01*
X211444318Y-84899999D01*
X191134638Y-84899999D01*
X191224536Y-84782841D01*
X191285044Y-84636762D01*
X191305682Y-84480000D01*
X191285044Y-84323238D01*
X191224536Y-84177159D01*
X191179422Y-84118365D01*
X191128282Y-84051717D01*
X191002841Y-83955464D01*
X190856761Y-83894955D01*
X190700000Y-83874318D01*
X190543238Y-83894955D01*
X190397158Y-83955464D01*
X190271717Y-84051717D01*
X190175464Y-84177158D01*
X190114955Y-84323238D01*
X190094318Y-84479999D01*
X176411369Y-84479999D01*
X176402139Y-84467970D01*
X176328282Y-84371717D01*
X176202841Y-84275464D01*
X176056761Y-84214955D01*
X175900000Y-84194318D01*
X175743238Y-84214955D01*
X175597158Y-84275464D01*
X175471717Y-84371717D01*
X175375464Y-84497158D01*
X175314955Y-84643238D01*
X175294318Y-84800000D01*
X170047701Y-84800000D01*
X170026745Y-84746606D01*
X170026743Y-84746602D01*
X169891815Y-84512898D01*
X169782215Y-84375464D01*
X169723560Y-84301913D01*
X169525744Y-84118368D01*
X169525741Y-84118365D01*
X169302775Y-83966349D01*
X169059641Y-83849262D01*
X168942148Y-83813020D01*
X168801767Y-83769718D01*
X168534931Y-83729500D01*
X168534929Y-83729500D01*
X168265071Y-83729500D01*
X168265069Y-83729500D01*
X167998232Y-83769718D01*
X167740359Y-83849262D01*
X167497227Y-83966348D01*
X167274255Y-84118368D01*
X167076439Y-84301913D01*
X166908186Y-84512896D01*
X166773254Y-84746606D01*
X166674667Y-84997800D01*
X166614616Y-85260900D01*
X166594450Y-85530000D01*
X161900500Y-85530000D01*
X161900500Y-83350000D01*
X186394318Y-83350000D01*
X186414955Y-83506761D01*
X186475464Y-83652841D01*
X186571717Y-83778282D01*
X186636879Y-83828282D01*
X186697159Y-83874536D01*
X186843238Y-83935044D01*
X187000000Y-83955682D01*
X187156762Y-83935044D01*
X187302841Y-83874536D01*
X187428282Y-83778282D01*
X187524536Y-83652841D01*
X187585044Y-83506762D01*
X187599099Y-83400000D01*
X188794318Y-83400000D01*
X188814955Y-83556761D01*
X188875464Y-83702841D01*
X188971717Y-83828282D01*
X189058608Y-83894955D01*
X189097159Y-83924536D01*
X189243238Y-83985044D01*
X189400000Y-84005682D01*
X189556762Y-83985044D01*
X189702841Y-83924536D01*
X189828282Y-83828282D01*
X189924536Y-83702841D01*
X189985044Y-83556762D01*
X190005682Y-83400000D01*
X189985044Y-83243238D01*
X189924536Y-83097159D01*
X189871685Y-83028282D01*
X189828282Y-82971717D01*
X189702841Y-82875464D01*
X189556761Y-82814955D01*
X189400000Y-82794318D01*
X189243238Y-82814955D01*
X189097158Y-82875464D01*
X188971717Y-82971717D01*
X188875464Y-83097158D01*
X188814955Y-83243238D01*
X188794318Y-83400000D01*
X187599099Y-83400000D01*
X187605682Y-83350000D01*
X187585044Y-83193238D01*
X187524536Y-83047159D01*
X187479338Y-82988256D01*
X187428282Y-82921717D01*
X187302841Y-82825464D01*
X187156761Y-82764955D01*
X187000000Y-82744318D01*
X186843238Y-82764955D01*
X186697158Y-82825464D01*
X186571717Y-82921717D01*
X186475464Y-83047158D01*
X186414955Y-83193238D01*
X186394318Y-83350000D01*
X161900500Y-83350000D01*
X161900500Y-82359862D01*
X174574500Y-82359862D01*
X174574501Y-82359867D01*
X174577415Y-82384991D01*
X174596034Y-82427159D01*
X174622793Y-82487764D01*
X174622794Y-82487765D01*
X174702235Y-82567206D01*
X174805009Y-82612585D01*
X174830135Y-82615500D01*
X176619864Y-82615499D01*
X176644991Y-82612585D01*
X176747765Y-82567206D01*
X176827206Y-82487765D01*
X176865958Y-82400000D01*
X180394318Y-82400000D01*
X180414955Y-82556761D01*
X180475464Y-82702841D01*
X180571717Y-82828282D01*
X180647931Y-82886762D01*
X180697159Y-82924536D01*
X180843238Y-82985044D01*
X181000000Y-83005682D01*
X181156762Y-82985044D01*
X181302841Y-82924536D01*
X181428282Y-82828282D01*
X181524536Y-82702841D01*
X181538727Y-82668578D01*
X181569923Y-82627923D01*
X181617269Y-82608312D01*
X181668077Y-82615001D01*
X181708733Y-82646198D01*
X181771717Y-82728282D01*
X181820288Y-82765551D01*
X181897159Y-82824536D01*
X182043238Y-82885044D01*
X182200000Y-82905682D01*
X182356762Y-82885044D01*
X182502841Y-82824536D01*
X182628282Y-82728282D01*
X182724536Y-82602841D01*
X182785044Y-82456762D01*
X182805682Y-82300000D01*
X182785044Y-82143238D01*
X182724536Y-81997159D01*
X182666331Y-81921304D01*
X182628282Y-81871717D01*
X182502841Y-81775464D01*
X182356761Y-81714955D01*
X182200000Y-81694318D01*
X182043238Y-81714955D01*
X181897158Y-81775464D01*
X181771717Y-81871717D01*
X181675463Y-81997160D01*
X181661271Y-82031421D01*
X181630074Y-82072077D01*
X181582729Y-82091687D01*
X181531921Y-82084998D01*
X181491268Y-82053803D01*
X181428282Y-81971718D01*
X181428280Y-81971716D01*
X181428279Y-81971715D01*
X181302841Y-81875464D01*
X181156761Y-81814955D01*
X181000000Y-81794318D01*
X180843238Y-81814955D01*
X180697158Y-81875464D01*
X180571717Y-81971717D01*
X180475464Y-82097158D01*
X180414955Y-82243238D01*
X180394318Y-82400000D01*
X176865958Y-82400000D01*
X176872585Y-82384991D01*
X176875500Y-82359865D01*
X176875499Y-80731759D01*
X178663108Y-80731759D01*
X178683745Y-80888520D01*
X178744254Y-81034600D01*
X178840507Y-81160041D01*
X178896286Y-81202841D01*
X178965949Y-81256295D01*
X179112028Y-81316803D01*
X179268790Y-81337441D01*
X179425552Y-81316803D01*
X179571631Y-81256295D01*
X179644998Y-81199999D01*
X186694318Y-81199999D01*
X186714955Y-81356761D01*
X186775464Y-81502841D01*
X186871717Y-81628282D01*
X186919945Y-81665288D01*
X186997159Y-81724536D01*
X187143238Y-81785044D01*
X187300000Y-81805682D01*
X187456762Y-81785044D01*
X187562128Y-81741399D01*
X187612933Y-81734711D01*
X187660278Y-81754321D01*
X187691475Y-81794976D01*
X187698165Y-81845783D01*
X187678556Y-81893128D01*
X187675465Y-81897155D01*
X187614955Y-82043238D01*
X187594318Y-82199999D01*
X187614955Y-82356761D01*
X187675464Y-82502841D01*
X187771717Y-82628282D01*
X187831412Y-82674087D01*
X187897159Y-82724536D01*
X188043238Y-82785044D01*
X188200000Y-82805682D01*
X188356762Y-82785044D01*
X188502841Y-82724536D01*
X188628282Y-82628282D01*
X188649983Y-82600000D01*
X192194318Y-82600000D01*
X192196359Y-82615500D01*
X192214955Y-82756761D01*
X192275464Y-82902841D01*
X192371717Y-83028282D01*
X192467971Y-83102139D01*
X192497159Y-83124536D01*
X192643238Y-83185044D01*
X192800000Y-83205682D01*
X192956762Y-83185044D01*
X193102841Y-83124536D01*
X193228282Y-83028282D01*
X193324536Y-82902841D01*
X193325506Y-82900499D01*
X196563062Y-82900499D01*
X196583699Y-83057261D01*
X196644208Y-83203341D01*
X196740461Y-83328782D01*
X196833275Y-83400000D01*
X196865903Y-83425036D01*
X197011982Y-83485544D01*
X197168744Y-83506182D01*
X197325506Y-83485544D01*
X197471585Y-83425036D01*
X197482661Y-83416537D01*
X207440856Y-83416537D01*
X207461493Y-83573299D01*
X207522002Y-83719379D01*
X207618255Y-83844820D01*
X207714509Y-83918677D01*
X207743697Y-83941074D01*
X207889776Y-84001582D01*
X208046538Y-84022220D01*
X208203300Y-84001582D01*
X208349379Y-83941074D01*
X208474820Y-83844820D01*
X208571074Y-83719379D01*
X208631582Y-83573300D01*
X208652220Y-83416538D01*
X208631582Y-83259776D01*
X208571074Y-83113697D01*
X208520017Y-83047158D01*
X208474820Y-82988255D01*
X208349379Y-82892002D01*
X208203299Y-82831493D01*
X208046538Y-82810856D01*
X207889776Y-82831493D01*
X207743696Y-82892002D01*
X207618255Y-82988255D01*
X207522002Y-83113696D01*
X207461493Y-83259776D01*
X207440856Y-83416537D01*
X197482661Y-83416537D01*
X197597026Y-83328782D01*
X197693280Y-83203341D01*
X197753788Y-83057262D01*
X197774426Y-82900500D01*
X197756659Y-82765548D01*
X197763348Y-82714744D01*
X197794545Y-82674087D01*
X197841890Y-82654476D01*
X197892697Y-82661164D01*
X198009495Y-82709544D01*
X198166257Y-82730182D01*
X198167639Y-82730000D01*
X208684318Y-82730000D01*
X208704955Y-82886761D01*
X208765464Y-83032841D01*
X208861717Y-83158282D01*
X208923491Y-83205682D01*
X208987159Y-83254536D01*
X209133238Y-83315044D01*
X209290000Y-83335682D01*
X209446762Y-83315044D01*
X209592841Y-83254536D01*
X209718282Y-83158282D01*
X209814536Y-83032841D01*
X209875044Y-82886762D01*
X209895682Y-82730000D01*
X209875044Y-82573238D01*
X209814536Y-82427159D01*
X209792139Y-82397971D01*
X209718282Y-82301717D01*
X209592841Y-82205464D01*
X209446761Y-82144955D01*
X209290000Y-82124318D01*
X209133238Y-82144955D01*
X208987158Y-82205464D01*
X208861717Y-82301717D01*
X208765464Y-82427158D01*
X208704955Y-82573238D01*
X208684318Y-82730000D01*
X198167639Y-82730000D01*
X198323019Y-82709544D01*
X198469098Y-82649036D01*
X198594539Y-82552782D01*
X198690793Y-82427341D01*
X198751301Y-82281262D01*
X198771939Y-82124500D01*
X198751301Y-81967738D01*
X198723243Y-81899999D01*
X215194318Y-81899999D01*
X215214955Y-82056761D01*
X215275464Y-82202841D01*
X215371717Y-82328282D01*
X215445623Y-82384991D01*
X215497159Y-82424536D01*
X215643238Y-82485044D01*
X215800000Y-82505682D01*
X215956762Y-82485044D01*
X216102841Y-82424536D01*
X216228282Y-82328282D01*
X216324536Y-82202841D01*
X216385044Y-82056762D01*
X216405682Y-81900000D01*
X216385044Y-81743238D01*
X216324536Y-81597159D01*
X216280259Y-81539456D01*
X216249983Y-81499999D01*
X216594318Y-81499999D01*
X216614955Y-81656761D01*
X216675464Y-81802841D01*
X216771717Y-81928282D01*
X216861482Y-81997160D01*
X216897159Y-82024536D01*
X217043238Y-82085044D01*
X217200000Y-82105682D01*
X217356762Y-82085044D01*
X217502841Y-82024536D01*
X217628282Y-81928282D01*
X217724536Y-81802841D01*
X217785044Y-81656762D01*
X217805682Y-81500000D01*
X217785044Y-81343238D01*
X217725712Y-81199999D01*
X221394318Y-81199999D01*
X221414955Y-81356761D01*
X221475464Y-81502841D01*
X221571717Y-81628282D01*
X221619945Y-81665288D01*
X221697159Y-81724536D01*
X221843238Y-81785044D01*
X222000000Y-81805682D01*
X222156762Y-81785044D01*
X222302841Y-81724536D01*
X222428282Y-81628282D01*
X222524536Y-81502841D01*
X222585044Y-81356762D01*
X222605682Y-81200000D01*
X222585044Y-81043238D01*
X222525713Y-80900000D01*
X228994318Y-80900000D01*
X229014955Y-81056761D01*
X229075464Y-81202841D01*
X229171717Y-81328282D01*
X229267971Y-81402139D01*
X229297159Y-81424536D01*
X229443238Y-81485044D01*
X229600000Y-81505682D01*
X229756762Y-81485044D01*
X229902841Y-81424536D01*
X230028282Y-81328282D01*
X230124536Y-81202841D01*
X230185044Y-81056762D01*
X230205682Y-80900000D01*
X230185044Y-80743238D01*
X230124536Y-80597159D01*
X230068783Y-80524500D01*
X231494318Y-80524500D01*
X231514955Y-80681261D01*
X231575464Y-80827341D01*
X231671717Y-80952782D01*
X231731243Y-80998457D01*
X231797159Y-81049036D01*
X231943238Y-81109544D01*
X232100000Y-81130182D01*
X232256762Y-81109544D01*
X232402841Y-81049036D01*
X232528282Y-80952782D01*
X232624536Y-80827341D01*
X232685044Y-80681262D01*
X232705682Y-80524500D01*
X232685044Y-80367738D01*
X232624536Y-80221659D01*
X232589116Y-80175498D01*
X232528282Y-80096217D01*
X232392501Y-79992030D01*
X232394493Y-79989433D01*
X232367464Y-79967252D01*
X232350779Y-79912250D01*
X232367464Y-79857248D01*
X232394493Y-79835066D01*
X232392501Y-79832470D01*
X232528282Y-79728282D01*
X232547369Y-79703407D01*
X232624536Y-79602841D01*
X232685044Y-79456762D01*
X232705682Y-79300000D01*
X232685044Y-79143238D01*
X232624536Y-78997159D01*
X232596787Y-78960996D01*
X243023558Y-78960996D01*
X243044195Y-79117757D01*
X243104704Y-79263837D01*
X243200957Y-79389278D01*
X243279466Y-79449519D01*
X243326399Y-79485532D01*
X243472478Y-79546040D01*
X243629240Y-79566678D01*
X243786002Y-79546040D01*
X243932081Y-79485532D01*
X244057522Y-79389278D01*
X244153776Y-79263837D01*
X244214284Y-79117758D01*
X244234922Y-78960996D01*
X244214284Y-78804234D01*
X244153776Y-78658155D01*
X244129991Y-78627158D01*
X244057522Y-78532713D01*
X243932081Y-78436460D01*
X243786001Y-78375951D01*
X243629240Y-78355314D01*
X243472478Y-78375951D01*
X243326398Y-78436460D01*
X243200957Y-78532713D01*
X243104704Y-78658154D01*
X243044195Y-78804234D01*
X243023558Y-78960996D01*
X232596787Y-78960996D01*
X232576806Y-78934956D01*
X232528282Y-78871717D01*
X232402841Y-78775464D01*
X232256761Y-78714955D01*
X232100000Y-78694318D01*
X231943238Y-78714955D01*
X231797158Y-78775464D01*
X231671717Y-78871717D01*
X231575464Y-78997158D01*
X231514955Y-79143238D01*
X231494318Y-79300000D01*
X231514955Y-79456761D01*
X231575464Y-79602841D01*
X231671717Y-79728282D01*
X231807499Y-79832470D01*
X231805507Y-79835065D01*
X231832538Y-79857252D01*
X231849220Y-79912250D01*
X231832538Y-79967248D01*
X231805507Y-79989434D01*
X231807499Y-79992030D01*
X231671717Y-80096217D01*
X231575464Y-80221658D01*
X231514955Y-80367738D01*
X231494318Y-80524500D01*
X230068783Y-80524500D01*
X230028282Y-80471717D01*
X229902841Y-80375464D01*
X229756761Y-80314955D01*
X229600000Y-80294318D01*
X229443238Y-80314955D01*
X229297158Y-80375464D01*
X229171717Y-80471717D01*
X229075464Y-80597158D01*
X229014955Y-80743238D01*
X228994318Y-80900000D01*
X222525713Y-80900000D01*
X222524536Y-80897159D01*
X222470963Y-80827341D01*
X222428282Y-80771717D01*
X222302841Y-80675464D01*
X222156761Y-80614955D01*
X222000000Y-80594318D01*
X221843238Y-80614955D01*
X221697158Y-80675464D01*
X221571717Y-80771717D01*
X221475464Y-80897158D01*
X221414955Y-81043238D01*
X221394318Y-81199999D01*
X217725712Y-81199999D01*
X217724536Y-81197159D01*
X217657307Y-81109544D01*
X217628282Y-81071717D01*
X217502841Y-80975464D01*
X217356761Y-80914955D01*
X217200000Y-80894318D01*
X217043238Y-80914955D01*
X216897158Y-80975464D01*
X216771717Y-81071717D01*
X216675464Y-81197158D01*
X216614955Y-81343238D01*
X216594318Y-81499999D01*
X216249983Y-81499999D01*
X216228282Y-81471717D01*
X216102841Y-81375464D01*
X215956761Y-81314955D01*
X215800000Y-81294318D01*
X215643238Y-81314955D01*
X215497158Y-81375464D01*
X215371717Y-81471717D01*
X215275464Y-81597158D01*
X215214955Y-81743238D01*
X215194318Y-81899999D01*
X198723243Y-81899999D01*
X198690793Y-81821659D01*
X198662697Y-81785044D01*
X198594539Y-81696217D01*
X198469098Y-81599964D01*
X198323018Y-81539455D01*
X198166257Y-81518818D01*
X198009495Y-81539455D01*
X197863415Y-81599964D01*
X197737974Y-81696217D01*
X197641721Y-81821658D01*
X197581212Y-81967738D01*
X197560575Y-82124500D01*
X197578341Y-82259448D01*
X197571652Y-82310256D01*
X197540455Y-82350912D01*
X197493110Y-82370523D01*
X197442303Y-82363834D01*
X197325507Y-82315455D01*
X197168744Y-82294818D01*
X197011982Y-82315455D01*
X196865902Y-82375964D01*
X196740461Y-82472217D01*
X196644208Y-82597658D01*
X196583699Y-82743738D01*
X196563062Y-82900499D01*
X193325506Y-82900499D01*
X193385044Y-82756762D01*
X193405682Y-82600000D01*
X193403887Y-82586367D01*
X193407622Y-82543676D01*
X193429049Y-82506563D01*
X193464154Y-82481982D01*
X193602841Y-82424536D01*
X193728282Y-82328282D01*
X193824536Y-82202841D01*
X193885044Y-82056762D01*
X193893586Y-81991877D01*
X193908243Y-81951607D01*
X193938546Y-81921304D01*
X193978814Y-81906647D01*
X194133046Y-81886343D01*
X194279125Y-81825835D01*
X194404566Y-81729581D01*
X194500820Y-81604140D01*
X194561328Y-81458061D01*
X194570487Y-81388483D01*
X194590098Y-81341140D01*
X194630755Y-81309943D01*
X194681560Y-81303254D01*
X194700000Y-81305682D01*
X194856762Y-81285044D01*
X195002841Y-81224536D01*
X195128282Y-81128282D01*
X195224536Y-81002841D01*
X195285044Y-80856762D01*
X195302333Y-80725433D01*
X195316990Y-80685164D01*
X195347294Y-80654861D01*
X195387564Y-80640204D01*
X195426762Y-80635044D01*
X195572841Y-80574536D01*
X195698282Y-80478282D01*
X195794536Y-80352841D01*
X195855044Y-80206762D01*
X195875682Y-80050000D01*
X195855044Y-79893238D01*
X195794536Y-79747159D01*
X195738201Y-79673741D01*
X195698282Y-79621717D01*
X195572841Y-79525464D01*
X195559647Y-79519999D01*
X196714318Y-79519999D01*
X196734955Y-79676761D01*
X196795464Y-79822841D01*
X196891717Y-79948282D01*
X196959071Y-79999964D01*
X197017159Y-80044536D01*
X197163238Y-80105044D01*
X197320000Y-80125682D01*
X197476762Y-80105044D01*
X197622841Y-80044536D01*
X197643151Y-80028951D01*
X197696939Y-80008706D01*
X197752914Y-80021757D01*
X197792206Y-80063706D01*
X197801569Y-80120414D01*
X197794317Y-80175498D01*
X197814955Y-80332261D01*
X197875464Y-80478341D01*
X197971717Y-80603782D01*
X198045189Y-80660158D01*
X198097159Y-80700036D01*
X198243238Y-80760544D01*
X198400000Y-80781182D01*
X198556762Y-80760544D01*
X198702841Y-80700036D01*
X198828282Y-80603782D01*
X198924536Y-80478341D01*
X198985044Y-80332262D01*
X199005682Y-80175500D01*
X198985044Y-80018738D01*
X198924536Y-79872659D01*
X198893698Y-79832470D01*
X198828282Y-79747217D01*
X198737048Y-79677211D01*
X198703993Y-79631716D01*
X198701051Y-79575557D01*
X198729169Y-79526856D01*
X198779276Y-79501326D01*
X198835200Y-79507205D01*
X198854124Y-79515044D01*
X199010886Y-79535682D01*
X199167648Y-79515044D01*
X199313727Y-79454536D01*
X199439168Y-79358282D01*
X199535422Y-79232841D01*
X199595930Y-79086762D01*
X199616568Y-78930000D01*
X199610339Y-78882684D01*
X203351502Y-78882684D01*
X203372139Y-79039445D01*
X203432648Y-79185525D01*
X203528901Y-79310966D01*
X203625154Y-79384823D01*
X203654343Y-79407220D01*
X203800422Y-79467728D01*
X203957184Y-79488366D01*
X204113946Y-79467728D01*
X204260025Y-79407220D01*
X204385466Y-79310966D01*
X204481720Y-79185525D01*
X204517146Y-79099999D01*
X210094935Y-79099999D01*
X210115132Y-79279258D01*
X210159909Y-79407220D01*
X210174711Y-79449522D01*
X210270684Y-79602262D01*
X210398238Y-79729816D01*
X210550978Y-79825789D01*
X210639491Y-79856761D01*
X210721241Y-79885367D01*
X210721242Y-79885367D01*
X210721245Y-79885368D01*
X210900500Y-79905565D01*
X211079755Y-79885368D01*
X211250022Y-79825789D01*
X211402762Y-79729816D01*
X211530316Y-79602262D01*
X211626289Y-79449522D01*
X211643618Y-79399999D01*
X215194318Y-79399999D01*
X215214955Y-79556761D01*
X215275464Y-79702841D01*
X215371717Y-79828282D01*
X215467970Y-79902139D01*
X215497159Y-79924536D01*
X215643238Y-79985044D01*
X215800000Y-80005682D01*
X215956762Y-79985044D01*
X216102841Y-79924536D01*
X216228282Y-79828282D01*
X216324536Y-79702841D01*
X216385044Y-79556762D01*
X216401847Y-79429128D01*
X216414816Y-79399999D01*
X216585183Y-79399999D01*
X216598153Y-79429129D01*
X216614955Y-79556761D01*
X216675464Y-79702841D01*
X216771717Y-79828282D01*
X216867970Y-79902139D01*
X216897159Y-79924536D01*
X217043238Y-79985044D01*
X217200000Y-80005682D01*
X217356762Y-79985044D01*
X217502841Y-79924536D01*
X217628282Y-79828282D01*
X217724536Y-79702841D01*
X217785044Y-79556762D01*
X217805682Y-79400000D01*
X217792517Y-79300000D01*
X221394318Y-79300000D01*
X221414955Y-79456761D01*
X221475464Y-79602841D01*
X221571717Y-79728282D01*
X221628325Y-79771718D01*
X221697159Y-79824536D01*
X221843238Y-79885044D01*
X222000000Y-79905682D01*
X222156762Y-79885044D01*
X222302841Y-79824536D01*
X222428282Y-79728282D01*
X222524536Y-79602841D01*
X222585044Y-79456762D01*
X222592517Y-79399999D01*
X228994318Y-79399999D01*
X229014955Y-79556761D01*
X229075464Y-79702841D01*
X229171717Y-79828282D01*
X229267970Y-79902139D01*
X229297159Y-79924536D01*
X229443238Y-79985044D01*
X229600000Y-80005682D01*
X229756762Y-79985044D01*
X229902841Y-79924536D01*
X230028282Y-79828282D01*
X230124536Y-79702841D01*
X230185044Y-79556762D01*
X230205682Y-79400000D01*
X230185044Y-79243238D01*
X230124536Y-79097159D01*
X230102139Y-79067970D01*
X230028282Y-78971717D01*
X229902841Y-78875464D01*
X229756761Y-78814955D01*
X229600000Y-78794318D01*
X229443238Y-78814955D01*
X229297158Y-78875464D01*
X229171717Y-78971717D01*
X229075464Y-79097158D01*
X229014955Y-79243238D01*
X228994318Y-79399999D01*
X222592517Y-79399999D01*
X222605682Y-79300000D01*
X222585044Y-79143238D01*
X222524536Y-78997159D01*
X222476806Y-78934956D01*
X222428282Y-78871717D01*
X222302841Y-78775464D01*
X222156761Y-78714955D01*
X222000000Y-78694318D01*
X221843238Y-78714955D01*
X221697158Y-78775464D01*
X221571717Y-78871717D01*
X221475464Y-78997158D01*
X221414955Y-79143238D01*
X221394318Y-79300000D01*
X217792517Y-79300000D01*
X217785044Y-79243238D01*
X217724536Y-79097159D01*
X217702139Y-79067970D01*
X217628282Y-78971717D01*
X217502841Y-78875464D01*
X217356761Y-78814955D01*
X217200000Y-78794318D01*
X217043238Y-78814955D01*
X216897158Y-78875464D01*
X216771717Y-78971717D01*
X216675464Y-79097158D01*
X216614955Y-79243238D01*
X216598153Y-79370870D01*
X216585183Y-79399999D01*
X216414816Y-79399999D01*
X216401847Y-79370870D01*
X216385044Y-79243238D01*
X216385043Y-79243237D01*
X216324536Y-79097159D01*
X216302139Y-79067970D01*
X216228282Y-78971717D01*
X216102841Y-78875464D01*
X215956761Y-78814955D01*
X215800000Y-78794318D01*
X215643238Y-78814955D01*
X215497158Y-78875464D01*
X215371717Y-78971717D01*
X215275464Y-79097158D01*
X215214955Y-79243238D01*
X215194318Y-79399999D01*
X211643618Y-79399999D01*
X211685868Y-79279255D01*
X211706065Y-79100000D01*
X211685868Y-78920745D01*
X211670023Y-78875464D01*
X211641629Y-78794318D01*
X211626289Y-78750478D01*
X211530316Y-78597738D01*
X211402762Y-78470184D01*
X211250022Y-78374211D01*
X211204117Y-78358148D01*
X211079758Y-78314632D01*
X210900500Y-78294435D01*
X210721241Y-78314632D01*
X210550980Y-78374210D01*
X210550978Y-78374210D01*
X210550978Y-78374211D01*
X210514113Y-78397375D01*
X210398239Y-78470183D01*
X210270683Y-78597739D01*
X210174710Y-78750480D01*
X210115132Y-78920741D01*
X210094935Y-79099999D01*
X204517146Y-79099999D01*
X204542228Y-79039446D01*
X204544143Y-79024896D01*
X204558800Y-78984625D01*
X204589104Y-78954321D01*
X204629377Y-78939664D01*
X204629927Y-78939591D01*
X204643924Y-78937749D01*
X204790003Y-78877241D01*
X204915444Y-78780987D01*
X205011698Y-78655546D01*
X205072206Y-78509467D01*
X205092844Y-78352705D01*
X205072206Y-78195943D01*
X205011698Y-78049864D01*
X204940258Y-77956761D01*
X204915444Y-77924422D01*
X204790003Y-77828169D01*
X204643923Y-77767660D01*
X204487162Y-77747023D01*
X204330400Y-77767660D01*
X204184320Y-77828169D01*
X204058879Y-77924422D01*
X203962626Y-78049863D01*
X203902117Y-78195942D01*
X203900201Y-78210497D01*
X203885543Y-78250765D01*
X203855241Y-78281067D01*
X203814972Y-78295724D01*
X203800422Y-78297639D01*
X203654342Y-78358148D01*
X203528901Y-78454401D01*
X203432648Y-78579842D01*
X203372139Y-78725922D01*
X203351502Y-78882684D01*
X199610339Y-78882684D01*
X199595930Y-78773238D01*
X199535422Y-78627159D01*
X199499115Y-78579843D01*
X199439168Y-78501717D01*
X199313727Y-78405464D01*
X199167647Y-78344955D01*
X199010886Y-78324318D01*
X198854124Y-78344955D01*
X198708044Y-78405464D01*
X198582603Y-78501717D01*
X198486350Y-78627158D01*
X198425841Y-78773238D01*
X198406423Y-78920741D01*
X198405204Y-78930000D01*
X198406224Y-78937749D01*
X198425841Y-79086761D01*
X198486350Y-79232841D01*
X198582603Y-79358282D01*
X198673837Y-79428288D01*
X198706891Y-79473783D01*
X198709835Y-79529941D01*
X198681717Y-79578642D01*
X198631611Y-79604172D01*
X198575684Y-79598294D01*
X198566086Y-79594318D01*
X198556761Y-79590455D01*
X198400000Y-79569818D01*
X198243238Y-79590455D01*
X198097158Y-79650964D01*
X198076849Y-79666548D01*
X198023057Y-79686793D01*
X197967082Y-79673741D01*
X197927792Y-79631791D01*
X197918430Y-79575083D01*
X197919123Y-79569818D01*
X197925682Y-79520000D01*
X197905044Y-79363238D01*
X197844536Y-79217159D01*
X197783266Y-79137310D01*
X197748282Y-79091717D01*
X197622841Y-78995464D01*
X197476761Y-78934955D01*
X197320000Y-78914318D01*
X197163238Y-78934955D01*
X197017158Y-78995464D01*
X196891717Y-79091717D01*
X196795464Y-79217158D01*
X196734955Y-79363238D01*
X196714318Y-79519999D01*
X195559647Y-79519999D01*
X195426761Y-79464955D01*
X195270000Y-79444318D01*
X195113238Y-79464955D01*
X194967158Y-79525464D01*
X194841717Y-79621717D01*
X194745464Y-79747158D01*
X194684955Y-79893238D01*
X194667666Y-80024564D01*
X194653009Y-80064835D01*
X194622706Y-80095138D01*
X194582436Y-80109795D01*
X194543238Y-80114955D01*
X194397158Y-80175464D01*
X194271717Y-80271717D01*
X194175464Y-80397158D01*
X194114955Y-80543238D01*
X194105796Y-80612813D01*
X194086185Y-80660158D01*
X194045530Y-80691355D01*
X193994722Y-80698044D01*
X193976285Y-80695617D01*
X193976284Y-80695617D01*
X193958047Y-80698017D01*
X193819522Y-80716254D01*
X193673442Y-80776763D01*
X193548001Y-80873016D01*
X193451748Y-80998457D01*
X193391239Y-81144537D01*
X193382697Y-81209421D01*
X193368039Y-81249691D01*
X193337736Y-81279994D01*
X193297466Y-81294651D01*
X193143238Y-81314955D01*
X192997158Y-81375464D01*
X192871717Y-81471717D01*
X192775464Y-81597158D01*
X192714955Y-81743238D01*
X192694317Y-81900002D01*
X192696112Y-81913634D01*
X192692377Y-81956324D01*
X192670949Y-81993437D01*
X192635846Y-82018017D01*
X192497157Y-82075465D01*
X192371717Y-82171717D01*
X192275464Y-82297158D01*
X192214955Y-82443238D01*
X192194626Y-82597658D01*
X192194318Y-82600000D01*
X188649983Y-82600000D01*
X188724536Y-82502841D01*
X188785044Y-82356762D01*
X188805682Y-82200000D01*
X188785044Y-82043238D01*
X188724536Y-81897159D01*
X188685114Y-81845783D01*
X188628282Y-81771717D01*
X188502841Y-81675464D01*
X188356761Y-81614955D01*
X188200000Y-81594318D01*
X188043236Y-81614955D01*
X187937872Y-81658599D01*
X187887064Y-81665288D01*
X187839718Y-81645676D01*
X187808522Y-81605019D01*
X187801834Y-81554210D01*
X187821445Y-81506868D01*
X187824536Y-81502841D01*
X187885044Y-81356762D01*
X187905682Y-81200000D01*
X187885044Y-81043238D01*
X187824536Y-80897159D01*
X187770963Y-80827341D01*
X187728282Y-80771717D01*
X187602841Y-80675464D01*
X187456761Y-80614955D01*
X187300000Y-80594318D01*
X187143238Y-80614955D01*
X186997158Y-80675464D01*
X186871717Y-80771717D01*
X186775464Y-80897158D01*
X186714955Y-81043238D01*
X186694318Y-81199999D01*
X179644998Y-81199999D01*
X179697072Y-81160041D01*
X179793326Y-81034600D01*
X179853834Y-80888521D01*
X179874472Y-80731759D01*
X179853834Y-80574997D01*
X179793326Y-80428918D01*
X179768005Y-80395919D01*
X179696933Y-80303295D01*
X179676569Y-80247346D01*
X179691979Y-80189835D01*
X179737588Y-80151564D01*
X179802841Y-80124536D01*
X179928282Y-80028282D01*
X180024536Y-79902841D01*
X180085044Y-79756762D01*
X180092517Y-79699999D01*
X185094318Y-79699999D01*
X185114955Y-79856761D01*
X185175464Y-80002841D01*
X185271717Y-80128282D01*
X185365183Y-80200000D01*
X185397159Y-80224536D01*
X185543238Y-80285044D01*
X185636772Y-80297357D01*
X185684116Y-80316968D01*
X185715313Y-80357624D01*
X185775464Y-80502841D01*
X185871717Y-80628282D01*
X185959471Y-80695617D01*
X185997159Y-80724536D01*
X186143238Y-80785044D01*
X186300000Y-80805682D01*
X186456762Y-80785044D01*
X186602841Y-80724536D01*
X186728282Y-80628282D01*
X186824536Y-80502841D01*
X186885044Y-80356762D01*
X186905682Y-80200000D01*
X186885044Y-80043238D01*
X186824536Y-79897159D01*
X186793538Y-79856761D01*
X186728282Y-79771717D01*
X186602841Y-79675464D01*
X186456761Y-79614955D01*
X186363228Y-79602642D01*
X186315883Y-79583031D01*
X186284687Y-79542376D01*
X186224536Y-79397159D01*
X186224535Y-79397158D01*
X186224535Y-79397157D01*
X186128282Y-79271717D01*
X186002841Y-79175464D01*
X185856761Y-79114955D01*
X185700000Y-79094318D01*
X185543238Y-79114955D01*
X185397158Y-79175464D01*
X185271717Y-79271717D01*
X185175464Y-79397158D01*
X185114955Y-79543238D01*
X185094318Y-79699999D01*
X180092517Y-79699999D01*
X180105682Y-79600000D01*
X180085044Y-79443238D01*
X180024536Y-79297159D01*
X179963150Y-79217159D01*
X179928282Y-79171717D01*
X179802841Y-79075464D01*
X179656761Y-79014955D01*
X179500000Y-78994318D01*
X179343238Y-79014955D01*
X179197158Y-79075464D01*
X179071717Y-79171717D01*
X178975464Y-79297158D01*
X178914955Y-79443238D01*
X178894318Y-79600000D01*
X178914955Y-79756761D01*
X178975464Y-79902841D01*
X179071856Y-80028463D01*
X179092220Y-80084411D01*
X179076810Y-80141922D01*
X179031201Y-80180193D01*
X178965950Y-80207222D01*
X178840507Y-80303476D01*
X178744254Y-80428917D01*
X178683745Y-80574997D01*
X178663108Y-80731759D01*
X176875499Y-80731759D01*
X176875499Y-80570136D01*
X176872585Y-80545009D01*
X176827206Y-80442235D01*
X176747765Y-80362794D01*
X176747764Y-80362793D01*
X176644989Y-80317414D01*
X176619867Y-80314500D01*
X174830137Y-80314500D01*
X174805009Y-80317415D01*
X174702235Y-80362793D01*
X174622793Y-80442235D01*
X174577414Y-80545010D01*
X174574500Y-80570132D01*
X174574500Y-82359862D01*
X161900500Y-82359862D01*
X161900500Y-78925000D01*
X174569571Y-78925000D01*
X174589244Y-79137310D01*
X174638654Y-79310966D01*
X174647596Y-79342391D01*
X174742634Y-79533256D01*
X174871125Y-79703404D01*
X174871127Y-79703406D01*
X174871128Y-79703407D01*
X174919185Y-79747217D01*
X175028699Y-79847053D01*
X175109622Y-79897158D01*
X175209981Y-79959298D01*
X175329713Y-80005682D01*
X175408804Y-80036322D01*
X175618388Y-80075500D01*
X175618390Y-80075500D01*
X175831610Y-80075500D01*
X175831612Y-80075500D01*
X176041195Y-80036322D01*
X176041198Y-80036321D01*
X176240019Y-79959298D01*
X176421302Y-79847052D01*
X176578872Y-79703407D01*
X176707366Y-79533255D01*
X176802405Y-79342389D01*
X176860756Y-79137310D01*
X176880429Y-78925000D01*
X176860756Y-78712690D01*
X176802405Y-78507611D01*
X176707366Y-78316745D01*
X176707365Y-78316744D01*
X176707365Y-78316743D01*
X176578874Y-78146595D01*
X176555137Y-78124956D01*
X176421302Y-78002948D01*
X176421300Y-78002946D01*
X176240021Y-77890703D01*
X176240019Y-77890702D01*
X176197898Y-77874384D01*
X176041195Y-77813677D01*
X175968028Y-77800000D01*
X180930318Y-77800000D01*
X180950955Y-77956761D01*
X181011464Y-78102841D01*
X181107717Y-78228282D01*
X181195610Y-78295724D01*
X181233159Y-78324536D01*
X181379238Y-78385044D01*
X181536000Y-78405682D01*
X181692762Y-78385044D01*
X181838841Y-78324536D01*
X181964282Y-78228282D01*
X182060536Y-78102841D01*
X182121044Y-77956762D01*
X182141682Y-77800000D01*
X182121044Y-77643238D01*
X182060536Y-77497159D01*
X182032849Y-77461076D01*
X182013239Y-77413731D01*
X182019928Y-77362923D01*
X182051125Y-77322267D01*
X182098468Y-77302658D01*
X182232262Y-77285044D01*
X182378341Y-77224536D01*
X182503782Y-77128282D01*
X182525483Y-77100000D01*
X187794318Y-77100000D01*
X187814955Y-77256761D01*
X187875464Y-77402841D01*
X187971717Y-77528282D01*
X188067970Y-77602139D01*
X188097159Y-77624536D01*
X188243238Y-77685044D01*
X188400000Y-77705682D01*
X188556762Y-77685044D01*
X188701723Y-77624999D01*
X192944318Y-77624999D01*
X192964955Y-77781761D01*
X193025464Y-77927841D01*
X193121717Y-78053282D01*
X193247157Y-78149535D01*
X193247158Y-78149535D01*
X193247159Y-78149536D01*
X193313542Y-78177032D01*
X193354197Y-78208229D01*
X193373808Y-78255574D01*
X193392476Y-78397374D01*
X193452985Y-78543454D01*
X193549238Y-78668895D01*
X193609267Y-78714956D01*
X193674680Y-78765149D01*
X193820759Y-78825657D01*
X193977521Y-78846295D01*
X194071911Y-78833868D01*
X194114599Y-78837603D01*
X194151713Y-78859030D01*
X194176294Y-78894135D01*
X194225464Y-79012841D01*
X194321717Y-79138282D01*
X194383286Y-79185525D01*
X194447159Y-79234536D01*
X194593238Y-79295044D01*
X194750000Y-79315682D01*
X194906762Y-79295044D01*
X195052841Y-79234536D01*
X195178282Y-79138282D01*
X195274536Y-79012841D01*
X195335044Y-78866762D01*
X195355682Y-78710000D01*
X195335044Y-78553238D01*
X195274536Y-78407159D01*
X195232752Y-78352705D01*
X195178282Y-78281717D01*
X195052841Y-78185464D01*
X194906761Y-78124955D01*
X194770637Y-78107034D01*
X194750000Y-78104318D01*
X194749999Y-78104318D01*
X194655612Y-78116744D01*
X194612920Y-78113009D01*
X194575807Y-78091581D01*
X194551226Y-78056477D01*
X194548486Y-78049863D01*
X194502057Y-77937772D01*
X194502056Y-77937771D01*
X194502056Y-77937770D01*
X194405803Y-77812330D01*
X194280362Y-77716077D01*
X194280361Y-77716076D01*
X194213978Y-77688579D01*
X194173323Y-77657383D01*
X194153712Y-77610038D01*
X194138851Y-77497159D01*
X194135044Y-77468238D01*
X194074536Y-77322159D01*
X194035825Y-77271710D01*
X193978282Y-77196717D01*
X193852841Y-77100464D01*
X193706761Y-77039955D01*
X193550000Y-77019318D01*
X193393238Y-77039955D01*
X193247158Y-77100464D01*
X193121717Y-77196717D01*
X193025464Y-77322158D01*
X192964955Y-77468238D01*
X192944318Y-77624999D01*
X188701723Y-77624999D01*
X188702841Y-77624536D01*
X188828282Y-77528282D01*
X188924536Y-77402841D01*
X188985044Y-77256762D01*
X189005682Y-77100000D01*
X188985044Y-76943238D01*
X188924536Y-76797159D01*
X188876874Y-76735044D01*
X188828282Y-76671717D01*
X188702841Y-76575464D01*
X188556761Y-76514955D01*
X188400000Y-76494318D01*
X188243238Y-76514955D01*
X188097158Y-76575464D01*
X187971717Y-76671717D01*
X187875464Y-76797158D01*
X187814955Y-76943238D01*
X187794318Y-77100000D01*
X182525483Y-77100000D01*
X182600036Y-77002841D01*
X182660544Y-76856762D01*
X182681182Y-76700000D01*
X182660544Y-76543238D01*
X182600036Y-76397159D01*
X182551022Y-76333282D01*
X182503782Y-76271717D01*
X182378341Y-76175464D01*
X182316866Y-76150000D01*
X186074318Y-76150000D01*
X186094955Y-76306761D01*
X186155464Y-76452841D01*
X186251717Y-76578282D01*
X186347970Y-76652139D01*
X186377159Y-76674536D01*
X186523238Y-76735044D01*
X186680000Y-76755682D01*
X186836762Y-76735044D01*
X186982841Y-76674536D01*
X187108282Y-76578282D01*
X187204536Y-76452841D01*
X187265044Y-76306762D01*
X187285682Y-76150000D01*
X187265044Y-75993238D01*
X187245162Y-75945238D01*
X188849080Y-75945238D01*
X188850963Y-75959544D01*
X188869717Y-76101999D01*
X188930226Y-76248079D01*
X189026479Y-76373520D01*
X189122733Y-76447377D01*
X189151921Y-76469774D01*
X189298000Y-76530282D01*
X189454762Y-76550920D01*
X189611524Y-76530282D01*
X189757603Y-76469774D01*
X189883044Y-76373520D01*
X189979298Y-76248079D01*
X190039806Y-76102000D01*
X190060444Y-75945238D01*
X190040964Y-75797274D01*
X190051303Y-75738642D01*
X190093404Y-75696541D01*
X190152036Y-75686202D01*
X190300000Y-75705682D01*
X190456762Y-75685044D01*
X190600402Y-75625546D01*
X190642601Y-75618105D01*
X190683996Y-75629197D01*
X190716825Y-75656744D01*
X190771717Y-75728282D01*
X190861634Y-75797277D01*
X190897159Y-75824536D01*
X191043238Y-75885044D01*
X191057952Y-75886981D01*
X191098224Y-75901637D01*
X191128528Y-75931940D01*
X191143186Y-75972212D01*
X191158770Y-76090585D01*
X191219279Y-76236665D01*
X191315532Y-76362106D01*
X191392060Y-76420827D01*
X191440974Y-76458360D01*
X191587053Y-76518868D01*
X191743815Y-76539506D01*
X191743816Y-76539505D01*
X191751695Y-76540543D01*
X191791965Y-76555200D01*
X191822268Y-76585503D01*
X191836926Y-76625773D01*
X191844955Y-76686761D01*
X191905464Y-76832841D01*
X192001717Y-76958282D01*
X192081262Y-77019318D01*
X192127159Y-77054536D01*
X192273238Y-77115044D01*
X192430000Y-77135682D01*
X192586762Y-77115044D01*
X192732841Y-77054536D01*
X192858282Y-76958282D01*
X192954536Y-76832841D01*
X193015044Y-76686762D01*
X193035682Y-76530000D01*
X193015044Y-76373238D01*
X192954536Y-76227159D01*
X192888802Y-76141492D01*
X192858282Y-76101717D01*
X192732841Y-76005464D01*
X192586761Y-75944955D01*
X192422119Y-75923280D01*
X192381848Y-75908623D01*
X192351545Y-75878319D01*
X192336888Y-75838049D01*
X192328859Y-75777062D01*
X192312945Y-75738642D01*
X192268351Y-75630983D01*
X192233101Y-75585044D01*
X192172097Y-75505541D01*
X192046656Y-75409288D01*
X191900576Y-75348779D01*
X191885854Y-75346841D01*
X191845585Y-75332182D01*
X191815283Y-75301879D01*
X191800628Y-75261612D01*
X191792796Y-75202122D01*
X193682196Y-75202122D01*
X193702833Y-75358883D01*
X193763342Y-75504963D01*
X193859595Y-75630404D01*
X193945788Y-75696541D01*
X193985037Y-75726658D01*
X194101745Y-75775000D01*
X194131116Y-75787166D01*
X194208686Y-75797378D01*
X194248957Y-75812035D01*
X194279260Y-75842338D01*
X194293918Y-75882609D01*
X194305856Y-75973289D01*
X194366365Y-76119369D01*
X194462618Y-76244810D01*
X194558872Y-76318667D01*
X194588060Y-76341064D01*
X194734139Y-76401572D01*
X194890901Y-76422210D01*
X194901401Y-76420827D01*
X194960033Y-76431165D01*
X195002135Y-76473266D01*
X195012475Y-76531901D01*
X194994818Y-76666027D01*
X195015455Y-76822789D01*
X195075964Y-76968869D01*
X195172217Y-77094310D01*
X195243639Y-77149113D01*
X195297659Y-77190564D01*
X195443738Y-77251072D01*
X195600500Y-77271710D01*
X195620304Y-77269102D01*
X195662991Y-77272836D01*
X195700106Y-77294264D01*
X195724687Y-77329369D01*
X195775464Y-77451955D01*
X195871717Y-77577396D01*
X195933757Y-77625000D01*
X195997159Y-77673650D01*
X196143238Y-77734158D01*
X196300000Y-77754796D01*
X196456762Y-77734158D01*
X196574233Y-77685500D01*
X200044318Y-77685500D01*
X200064955Y-77842261D01*
X200125464Y-77988341D01*
X200221717Y-78113782D01*
X200304147Y-78177032D01*
X200347159Y-78210036D01*
X200493238Y-78270544D01*
X200650000Y-78291182D01*
X200806762Y-78270544D01*
X200952841Y-78210036D01*
X201078282Y-78113782D01*
X201174536Y-77988341D01*
X201235044Y-77842262D01*
X201255682Y-77685500D01*
X201235044Y-77528738D01*
X201181719Y-77400000D01*
X233094318Y-77400000D01*
X233114955Y-77556761D01*
X233175464Y-77702841D01*
X233271717Y-77828282D01*
X233353067Y-77890703D01*
X233397159Y-77924536D01*
X233543238Y-77985044D01*
X233700000Y-78005682D01*
X233856762Y-77985044D01*
X234002841Y-77924536D01*
X234128282Y-77828282D01*
X234224536Y-77702841D01*
X234285044Y-77556762D01*
X234305682Y-77400000D01*
X234285044Y-77243238D01*
X234224536Y-77097159D01*
X234164807Y-77019318D01*
X234128282Y-76971717D01*
X234002841Y-76875464D01*
X233856761Y-76814955D01*
X233700000Y-76794318D01*
X233543238Y-76814955D01*
X233397158Y-76875464D01*
X233271717Y-76971717D01*
X233175464Y-77097158D01*
X233114955Y-77243238D01*
X233094318Y-77400000D01*
X201181719Y-77400000D01*
X201174536Y-77382659D01*
X201128112Y-77322158D01*
X201078282Y-77257217D01*
X200952841Y-77160964D01*
X200806761Y-77100455D01*
X200650000Y-77079818D01*
X200493238Y-77100455D01*
X200347158Y-77160964D01*
X200221717Y-77257217D01*
X200125464Y-77382658D01*
X200064955Y-77528738D01*
X200044318Y-77685500D01*
X196574233Y-77685500D01*
X196602841Y-77673650D01*
X196728282Y-77577396D01*
X196824536Y-77451955D01*
X196885044Y-77305876D01*
X196905682Y-77149114D01*
X196885044Y-76992352D01*
X196824536Y-76846273D01*
X196784670Y-76794318D01*
X196728282Y-76720831D01*
X196602841Y-76624578D01*
X196456761Y-76564069D01*
X196300000Y-76543432D01*
X196280195Y-76546039D01*
X196237504Y-76542302D01*
X196200392Y-76520875D01*
X196175812Y-76485771D01*
X196164458Y-76458360D01*
X196125036Y-76363187D01*
X196059104Y-76277262D01*
X196028782Y-76237745D01*
X195903341Y-76141492D01*
X195757261Y-76080983D01*
X195600497Y-76060345D01*
X195589998Y-76061728D01*
X195531364Y-76051388D01*
X195489264Y-76009287D01*
X195478925Y-75950653D01*
X195479675Y-75944955D01*
X195484935Y-75904999D01*
X203499318Y-75904999D01*
X203519955Y-76061761D01*
X203580464Y-76207841D01*
X203676717Y-76333282D01*
X203769943Y-76404816D01*
X203802159Y-76429536D01*
X203948238Y-76490044D01*
X204105000Y-76510682D01*
X204261762Y-76490044D01*
X204407841Y-76429536D01*
X204533282Y-76333282D01*
X204629536Y-76207841D01*
X204690044Y-76061762D01*
X204710682Y-75905000D01*
X204693567Y-75775000D01*
X211244435Y-75775000D01*
X211264632Y-75954258D01*
X211316330Y-76101999D01*
X211324211Y-76124522D01*
X211420184Y-76277262D01*
X211547738Y-76404816D01*
X211700478Y-76500789D01*
X211789391Y-76531901D01*
X211870741Y-76560367D01*
X211870742Y-76560367D01*
X211870745Y-76560368D01*
X212050000Y-76580565D01*
X212229255Y-76560368D01*
X212399522Y-76500789D01*
X212552262Y-76404816D01*
X212679816Y-76277262D01*
X212775789Y-76124522D01*
X212835368Y-75954255D01*
X212855565Y-75775000D01*
X212835368Y-75595745D01*
X212824831Y-75565633D01*
X212810451Y-75524536D01*
X212775789Y-75425478D01*
X212679816Y-75272738D01*
X212552262Y-75145184D01*
X212399522Y-75049211D01*
X212391815Y-75046514D01*
X212229258Y-74989632D01*
X212050000Y-74969435D01*
X211870741Y-74989632D01*
X211700480Y-75049210D01*
X211700478Y-75049210D01*
X211700478Y-75049211D01*
X211688461Y-75056762D01*
X211547739Y-75145183D01*
X211420183Y-75272739D01*
X211390515Y-75319956D01*
X211347606Y-75388246D01*
X211324210Y-75425480D01*
X211264632Y-75595741D01*
X211244435Y-75775000D01*
X204693567Y-75775000D01*
X204690044Y-75748238D01*
X204629536Y-75602159D01*
X204600989Y-75564956D01*
X204533282Y-75476717D01*
X204407841Y-75380464D01*
X204261761Y-75319955D01*
X204105000Y-75299318D01*
X203948238Y-75319955D01*
X203802158Y-75380464D01*
X203676717Y-75476717D01*
X203580464Y-75602158D01*
X203519955Y-75748238D01*
X203499318Y-75904999D01*
X195484935Y-75904999D01*
X195496583Y-75816528D01*
X195475945Y-75659766D01*
X195415437Y-75513687D01*
X195347754Y-75425480D01*
X195319183Y-75388245D01*
X195193742Y-75291992D01*
X195047662Y-75231483D01*
X194970091Y-75221271D01*
X194929820Y-75206614D01*
X194899517Y-75176310D01*
X194884860Y-75136040D01*
X194872922Y-75045360D01*
X194852956Y-74997158D01*
X194812414Y-74899281D01*
X194753867Y-74822981D01*
X194736234Y-74800000D01*
X208394318Y-74800000D01*
X208414955Y-74956761D01*
X208475464Y-75102841D01*
X208571717Y-75228282D01*
X208654747Y-75291992D01*
X208697159Y-75324536D01*
X208843238Y-75385044D01*
X209000000Y-75405682D01*
X209156762Y-75385044D01*
X209302841Y-75324536D01*
X209428282Y-75228282D01*
X209524536Y-75102841D01*
X209585044Y-74956762D01*
X209592517Y-74899999D01*
X218194318Y-74899999D01*
X218214955Y-75056761D01*
X218275464Y-75202841D01*
X218371717Y-75328282D01*
X218449865Y-75388246D01*
X218497159Y-75424536D01*
X218643238Y-75485044D01*
X218800000Y-75505682D01*
X218956762Y-75485044D01*
X219102841Y-75424536D01*
X219228282Y-75328282D01*
X219324536Y-75202841D01*
X219385044Y-75056762D01*
X219405682Y-74900000D01*
X219405682Y-74899999D01*
X219981818Y-74899999D01*
X220002455Y-75056761D01*
X220062964Y-75202841D01*
X220159217Y-75328282D01*
X220237365Y-75388246D01*
X220284659Y-75424536D01*
X220430738Y-75485044D01*
X220587500Y-75505682D01*
X220744262Y-75485044D01*
X220890341Y-75424536D01*
X221015782Y-75328282D01*
X221112036Y-75202841D01*
X221172544Y-75056762D01*
X221180017Y-74999999D01*
X227894318Y-74999999D01*
X227914955Y-75156761D01*
X227975464Y-75302841D01*
X228071717Y-75428282D01*
X228138602Y-75479604D01*
X228197159Y-75524536D01*
X228343238Y-75585044D01*
X228500000Y-75605682D01*
X228656762Y-75585044D01*
X228802841Y-75524536D01*
X228928282Y-75428282D01*
X229024536Y-75302841D01*
X229085044Y-75156762D01*
X229105682Y-75000000D01*
X229105682Y-74999999D01*
X233294318Y-74999999D01*
X233314955Y-75156761D01*
X233375464Y-75302841D01*
X233471717Y-75428282D01*
X233538602Y-75479604D01*
X233597159Y-75524536D01*
X233743238Y-75585044D01*
X233900000Y-75605682D01*
X234056762Y-75585044D01*
X234202841Y-75524536D01*
X234328282Y-75428282D01*
X234424536Y-75302841D01*
X234485044Y-75156762D01*
X234505682Y-75000000D01*
X234505682Y-74999999D01*
X235094318Y-74999999D01*
X235114955Y-75156761D01*
X235175464Y-75302841D01*
X235271717Y-75428282D01*
X235338602Y-75479604D01*
X235397159Y-75524536D01*
X235543238Y-75585044D01*
X235700000Y-75605682D01*
X235856762Y-75585044D01*
X236002841Y-75524536D01*
X236128282Y-75428282D01*
X236169550Y-75374500D01*
X240594318Y-75374500D01*
X240614955Y-75531261D01*
X240675464Y-75677341D01*
X240771717Y-75802782D01*
X240826133Y-75844536D01*
X240897159Y-75899036D01*
X241043238Y-75959544D01*
X241200000Y-75980182D01*
X241356762Y-75959544D01*
X241502841Y-75899036D01*
X241628282Y-75802782D01*
X241724536Y-75677341D01*
X241785044Y-75531262D01*
X241805682Y-75374500D01*
X241785044Y-75217738D01*
X241724536Y-75071659D01*
X241682716Y-75017158D01*
X241628282Y-74946217D01*
X241502841Y-74849964D01*
X241356761Y-74789455D01*
X241200000Y-74768818D01*
X241043238Y-74789455D01*
X240897158Y-74849964D01*
X240771717Y-74946217D01*
X240675464Y-75071658D01*
X240614955Y-75217738D01*
X240594318Y-75374500D01*
X236169550Y-75374500D01*
X236224536Y-75302841D01*
X236285044Y-75156762D01*
X236305682Y-75000000D01*
X236285044Y-74843238D01*
X236224536Y-74697159D01*
X236163087Y-74617077D01*
X236128282Y-74571717D01*
X236002841Y-74475464D01*
X235856761Y-74414955D01*
X235700000Y-74394318D01*
X235543238Y-74414955D01*
X235397158Y-74475464D01*
X235271717Y-74571717D01*
X235175464Y-74697158D01*
X235114955Y-74843238D01*
X235094318Y-74999999D01*
X234505682Y-74999999D01*
X234485044Y-74843238D01*
X234424536Y-74697159D01*
X234363087Y-74617077D01*
X234328282Y-74571717D01*
X234202841Y-74475464D01*
X234056761Y-74414955D01*
X233900000Y-74394318D01*
X233743238Y-74414955D01*
X233597158Y-74475464D01*
X233471717Y-74571717D01*
X233375464Y-74697158D01*
X233314955Y-74843238D01*
X233294318Y-74999999D01*
X229105682Y-74999999D01*
X229085044Y-74843238D01*
X229024536Y-74697159D01*
X228963087Y-74617077D01*
X228928282Y-74571717D01*
X228802841Y-74475464D01*
X228656761Y-74414955D01*
X228500000Y-74394318D01*
X228343238Y-74414955D01*
X228197158Y-74475464D01*
X228071717Y-74571717D01*
X227975464Y-74697158D01*
X227914955Y-74843238D01*
X227894318Y-74999999D01*
X221180017Y-74999999D01*
X221193182Y-74900000D01*
X221172544Y-74743238D01*
X221112036Y-74597159D01*
X221033124Y-74494318D01*
X221015782Y-74471717D01*
X220890341Y-74375464D01*
X220744261Y-74314955D01*
X220587500Y-74294318D01*
X220430738Y-74314955D01*
X220284658Y-74375464D01*
X220159217Y-74471717D01*
X220062964Y-74597158D01*
X220002455Y-74743238D01*
X219981818Y-74899999D01*
X219405682Y-74899999D01*
X219385044Y-74743238D01*
X219324536Y-74597159D01*
X219245624Y-74494318D01*
X219228282Y-74471717D01*
X219102841Y-74375464D01*
X218956761Y-74314955D01*
X218800000Y-74294318D01*
X218643238Y-74314955D01*
X218497158Y-74375464D01*
X218371717Y-74471717D01*
X218275464Y-74597158D01*
X218214955Y-74743238D01*
X218194318Y-74899999D01*
X209592517Y-74899999D01*
X209605682Y-74800000D01*
X209585044Y-74643238D01*
X209524536Y-74497159D01*
X209461459Y-74414955D01*
X209428282Y-74371717D01*
X209302841Y-74275464D01*
X209156761Y-74214955D01*
X209000000Y-74194318D01*
X208843238Y-74214955D01*
X208697158Y-74275464D01*
X208571717Y-74371717D01*
X208475464Y-74497158D01*
X208414955Y-74643238D01*
X208394318Y-74800000D01*
X194736234Y-74800000D01*
X194716160Y-74773839D01*
X194590719Y-74677586D01*
X194444639Y-74617077D01*
X194287878Y-74596440D01*
X194131116Y-74617077D01*
X193985036Y-74677586D01*
X193859595Y-74773839D01*
X193763342Y-74899280D01*
X193702833Y-75045360D01*
X193682196Y-75202122D01*
X191792796Y-75202122D01*
X191785044Y-75143238D01*
X191724536Y-74997159D01*
X191683161Y-74943238D01*
X191628282Y-74871717D01*
X191502841Y-74775464D01*
X191356761Y-74714955D01*
X191200000Y-74694318D01*
X191043236Y-74714955D01*
X190899601Y-74774451D01*
X190857397Y-74781893D01*
X190816003Y-74770801D01*
X190783174Y-74743254D01*
X190728282Y-74671717D01*
X190602841Y-74575464D01*
X190456761Y-74514955D01*
X190300000Y-74494318D01*
X190143238Y-74514955D01*
X189997158Y-74575464D01*
X189871717Y-74671717D01*
X189775464Y-74797158D01*
X189714955Y-74943238D01*
X189694318Y-75100000D01*
X189713797Y-75247960D01*
X189703458Y-75306595D01*
X189661357Y-75348696D01*
X189602722Y-75359035D01*
X189454762Y-75339556D01*
X189298000Y-75360193D01*
X189151920Y-75420702D01*
X189026479Y-75516955D01*
X188930226Y-75642396D01*
X188869717Y-75788476D01*
X188850436Y-75934935D01*
X188849080Y-75945238D01*
X187245162Y-75945238D01*
X187204536Y-75847159D01*
X187181031Y-75816527D01*
X187108282Y-75721717D01*
X186982841Y-75625464D01*
X186836761Y-75564955D01*
X186680000Y-75544318D01*
X186523238Y-75564955D01*
X186377158Y-75625464D01*
X186251717Y-75721717D01*
X186155464Y-75847158D01*
X186094955Y-75993238D01*
X186074318Y-76150000D01*
X182316866Y-76150000D01*
X182232261Y-76114955D01*
X182075500Y-76094318D01*
X181918738Y-76114955D01*
X181772658Y-76175464D01*
X181647217Y-76271717D01*
X181550964Y-76397158D01*
X181490455Y-76543238D01*
X181469818Y-76700000D01*
X181490455Y-76856761D01*
X181550964Y-77002841D01*
X181578650Y-77038923D01*
X181598260Y-77086268D01*
X181591571Y-77137075D01*
X181560374Y-77177731D01*
X181513029Y-77197342D01*
X181379238Y-77214955D01*
X181233158Y-77275464D01*
X181107717Y-77371717D01*
X181011464Y-77497158D01*
X180950955Y-77643238D01*
X180930318Y-77800000D01*
X175968028Y-77800000D01*
X175831612Y-77774500D01*
X175831610Y-77774500D01*
X175618390Y-77774500D01*
X175618388Y-77774500D01*
X175408804Y-77813677D01*
X175209978Y-77890703D01*
X175028699Y-78002946D01*
X174871125Y-78146595D01*
X174742634Y-78316743D01*
X174650529Y-78501718D01*
X174647595Y-78507611D01*
X174589244Y-78712690D01*
X174569571Y-78925000D01*
X161900500Y-78925000D01*
X161900500Y-75319999D01*
X172268318Y-75319999D01*
X172288955Y-75476761D01*
X172349464Y-75622841D01*
X172445717Y-75748282D01*
X172509701Y-75797378D01*
X172571159Y-75844536D01*
X172717238Y-75905044D01*
X172874000Y-75925682D01*
X173030762Y-75905044D01*
X173176841Y-75844536D01*
X173302282Y-75748282D01*
X173398536Y-75622841D01*
X173459044Y-75476762D01*
X173479682Y-75320000D01*
X173459044Y-75163238D01*
X173398536Y-75017159D01*
X173385369Y-74999999D01*
X187194318Y-74999999D01*
X187214955Y-75156761D01*
X187275464Y-75302841D01*
X187371717Y-75428282D01*
X187438602Y-75479604D01*
X187497159Y-75524536D01*
X187643238Y-75585044D01*
X187800000Y-75605682D01*
X187956762Y-75585044D01*
X188102841Y-75524536D01*
X188228282Y-75428282D01*
X188324536Y-75302841D01*
X188385044Y-75156762D01*
X188405682Y-75000000D01*
X188385044Y-74843238D01*
X188324536Y-74697159D01*
X188263087Y-74617077D01*
X188228282Y-74571717D01*
X188102841Y-74475464D01*
X187956761Y-74414955D01*
X187800000Y-74394318D01*
X187643238Y-74414955D01*
X187497158Y-74475464D01*
X187371717Y-74571717D01*
X187275464Y-74697158D01*
X187214955Y-74843238D01*
X187194318Y-74999999D01*
X173385369Y-74999999D01*
X173352191Y-74956761D01*
X173302282Y-74891717D01*
X173176841Y-74795464D01*
X173030761Y-74734955D01*
X172874000Y-74714318D01*
X172717238Y-74734955D01*
X172571158Y-74795464D01*
X172445717Y-74891717D01*
X172349464Y-75017158D01*
X172288955Y-75163238D01*
X172268318Y-75319999D01*
X161900500Y-75319999D01*
X161900500Y-73796000D01*
X172014318Y-73796000D01*
X172034955Y-73952761D01*
X172095464Y-74098841D01*
X172191717Y-74224282D01*
X172224611Y-74249522D01*
X172317159Y-74320536D01*
X172463238Y-74381044D01*
X172620000Y-74401682D01*
X172776762Y-74381044D01*
X172922841Y-74320536D01*
X173048282Y-74224282D01*
X173144536Y-74098841D01*
X173185477Y-74000000D01*
X211794318Y-74000000D01*
X211814955Y-74156761D01*
X211875464Y-74302841D01*
X211971717Y-74428282D01*
X212067971Y-74502139D01*
X212097159Y-74524536D01*
X212243238Y-74585044D01*
X212400000Y-74605682D01*
X212556762Y-74585044D01*
X212702841Y-74524536D01*
X212828282Y-74428282D01*
X212924536Y-74302841D01*
X212985044Y-74156762D01*
X213005682Y-74000000D01*
X223794318Y-74000000D01*
X223814955Y-74156761D01*
X223875464Y-74302841D01*
X223971717Y-74428282D01*
X224067971Y-74502139D01*
X224097159Y-74524536D01*
X224243238Y-74585044D01*
X224400000Y-74605682D01*
X224556762Y-74585044D01*
X224702841Y-74524536D01*
X224828282Y-74428282D01*
X224924536Y-74302841D01*
X224985044Y-74156762D01*
X225005682Y-74000000D01*
X224992517Y-73900000D01*
X226394435Y-73900000D01*
X226414632Y-74079258D01*
X226454894Y-74194318D01*
X226474211Y-74249522D01*
X226570184Y-74402262D01*
X226697738Y-74529816D01*
X226850478Y-74625789D01*
X226958851Y-74663710D01*
X227020741Y-74685367D01*
X227020742Y-74685367D01*
X227020745Y-74685368D01*
X227200000Y-74705565D01*
X227379255Y-74685368D01*
X227549522Y-74625789D01*
X227702262Y-74529816D01*
X227829816Y-74402262D01*
X227925789Y-74249522D01*
X227985368Y-74079255D01*
X228005565Y-73900000D01*
X238294435Y-73900000D01*
X238314632Y-74079258D01*
X238354894Y-74194318D01*
X238374211Y-74249522D01*
X238470184Y-74402262D01*
X238597738Y-74529816D01*
X238750478Y-74625789D01*
X238858851Y-74663710D01*
X238920741Y-74685367D01*
X238920742Y-74685367D01*
X238920745Y-74685368D01*
X239100000Y-74705565D01*
X239279255Y-74685368D01*
X239449522Y-74625789D01*
X239602262Y-74529816D01*
X239729816Y-74402262D01*
X239825789Y-74249522D01*
X239885368Y-74079255D01*
X239905565Y-73900000D01*
X239885368Y-73720745D01*
X239825789Y-73550478D01*
X239729816Y-73397738D01*
X239602262Y-73270184D01*
X239449522Y-73174211D01*
X239441815Y-73171514D01*
X239279258Y-73114632D01*
X239100000Y-73094435D01*
X238920741Y-73114632D01*
X238750480Y-73174210D01*
X238597739Y-73270183D01*
X238470183Y-73397739D01*
X238374210Y-73550480D01*
X238314632Y-73720741D01*
X238294435Y-73900000D01*
X228005565Y-73900000D01*
X227985368Y-73720745D01*
X227925789Y-73550478D01*
X227829816Y-73397738D01*
X227702262Y-73270184D01*
X227549522Y-73174211D01*
X227541815Y-73171514D01*
X227379258Y-73114632D01*
X227200000Y-73094435D01*
X227020741Y-73114632D01*
X226850480Y-73174210D01*
X226697739Y-73270183D01*
X226570183Y-73397739D01*
X226474210Y-73550480D01*
X226414632Y-73720741D01*
X226394435Y-73900000D01*
X224992517Y-73900000D01*
X224985044Y-73843238D01*
X224924536Y-73697159D01*
X224880092Y-73639238D01*
X224828282Y-73571717D01*
X224702841Y-73475464D01*
X224556761Y-73414955D01*
X224400000Y-73394318D01*
X224243238Y-73414955D01*
X224097158Y-73475464D01*
X223971717Y-73571717D01*
X223875464Y-73697158D01*
X223814955Y-73843238D01*
X223794318Y-74000000D01*
X213005682Y-74000000D01*
X212985044Y-73843238D01*
X212924536Y-73697159D01*
X212880092Y-73639238D01*
X212828282Y-73571717D01*
X212702841Y-73475464D01*
X212556761Y-73414955D01*
X212400000Y-73394318D01*
X212243238Y-73414955D01*
X212097158Y-73475464D01*
X211971717Y-73571717D01*
X211875464Y-73697158D01*
X211814955Y-73843238D01*
X211794318Y-74000000D01*
X173185477Y-74000000D01*
X173205044Y-73952762D01*
X173225682Y-73796000D01*
X173205044Y-73639238D01*
X173144536Y-73493159D01*
X173084529Y-73414956D01*
X173048282Y-73367717D01*
X172922841Y-73271464D01*
X172776761Y-73210955D01*
X172620000Y-73190318D01*
X172463238Y-73210955D01*
X172317158Y-73271464D01*
X172191717Y-73367717D01*
X172095464Y-73493158D01*
X172034955Y-73639238D01*
X172014318Y-73796000D01*
X161900500Y-73796000D01*
X161900500Y-71797397D01*
X181096921Y-71797397D01*
X181117558Y-71954158D01*
X181178067Y-72100238D01*
X181274320Y-72225679D01*
X181370573Y-72299536D01*
X181399762Y-72321933D01*
X181545841Y-72382441D01*
X181702603Y-72403079D01*
X181859365Y-72382441D01*
X182005444Y-72321933D01*
X182130885Y-72225679D01*
X182227139Y-72100238D01*
X182258304Y-72024999D01*
X191919818Y-72024999D01*
X191940455Y-72181761D01*
X192000964Y-72327841D01*
X192097217Y-72453282D01*
X192193471Y-72527139D01*
X192222659Y-72549536D01*
X192368738Y-72610044D01*
X192525500Y-72630682D01*
X192682262Y-72610044D01*
X192828341Y-72549536D01*
X192953782Y-72453282D01*
X193050036Y-72327841D01*
X193110544Y-72181762D01*
X193131182Y-72025000D01*
X193110544Y-71868238D01*
X193050036Y-71722159D01*
X192987481Y-71640635D01*
X192953782Y-71596717D01*
X192828341Y-71500464D01*
X192682261Y-71439955D01*
X192525500Y-71419318D01*
X192368738Y-71439955D01*
X192222658Y-71500464D01*
X192097217Y-71596717D01*
X192000964Y-71722158D01*
X191940455Y-71868238D01*
X191919818Y-72024999D01*
X182258304Y-72024999D01*
X182287647Y-71954159D01*
X182308285Y-71797397D01*
X182287647Y-71640635D01*
X182227139Y-71494556D01*
X182185242Y-71439955D01*
X182130885Y-71369114D01*
X182005444Y-71272861D01*
X181859364Y-71212352D01*
X181702603Y-71191715D01*
X181545841Y-71212352D01*
X181399761Y-71272861D01*
X181274320Y-71369114D01*
X181178067Y-71494555D01*
X181117558Y-71640635D01*
X181096921Y-71797397D01*
X161900500Y-71797397D01*
X161900500Y-70500000D01*
X189694318Y-70500000D01*
X189714955Y-70656761D01*
X189775464Y-70802841D01*
X189871717Y-70928282D01*
X189967971Y-71002139D01*
X189997159Y-71024536D01*
X190143238Y-71085044D01*
X190300000Y-71105682D01*
X190456762Y-71085044D01*
X190602841Y-71024536D01*
X190728282Y-70928282D01*
X190824536Y-70802841D01*
X190850566Y-70740000D01*
X203924318Y-70740000D01*
X203944955Y-70896761D01*
X204005464Y-71042841D01*
X204101717Y-71168282D01*
X204197970Y-71242139D01*
X204227159Y-71264536D01*
X204373238Y-71325044D01*
X204530000Y-71345682D01*
X204686762Y-71325044D01*
X204832841Y-71264536D01*
X204958282Y-71168282D01*
X205054536Y-71042841D01*
X205115044Y-70896762D01*
X205135682Y-70740000D01*
X205133707Y-70724999D01*
X211269318Y-70724999D01*
X211289955Y-70881761D01*
X211350464Y-71027841D01*
X211446717Y-71153282D01*
X211510550Y-71202262D01*
X211572159Y-71249536D01*
X211718238Y-71310044D01*
X211875000Y-71330682D01*
X212031762Y-71310044D01*
X212177841Y-71249536D01*
X212303282Y-71153282D01*
X212399536Y-71027841D01*
X212460044Y-70881762D01*
X212480682Y-70725000D01*
X212477391Y-70699999D01*
X215594435Y-70699999D01*
X215614632Y-70879258D01*
X215631787Y-70928282D01*
X215674211Y-71049522D01*
X215770184Y-71202262D01*
X215897738Y-71329816D01*
X216050478Y-71425789D01*
X216158851Y-71463710D01*
X216220741Y-71485367D01*
X216220742Y-71485367D01*
X216220745Y-71485368D01*
X216400000Y-71505565D01*
X216579255Y-71485368D01*
X216749522Y-71425789D01*
X216902262Y-71329816D01*
X217029816Y-71202262D01*
X217125789Y-71049522D01*
X217185368Y-70879255D01*
X217205565Y-70700000D01*
X217205565Y-70699999D01*
X223294435Y-70699999D01*
X223314632Y-70879258D01*
X223331787Y-70928282D01*
X223374211Y-71049522D01*
X223470184Y-71202262D01*
X223597738Y-71329816D01*
X223750478Y-71425789D01*
X223858851Y-71463710D01*
X223920741Y-71485367D01*
X223920742Y-71485367D01*
X223920745Y-71485368D01*
X224100000Y-71505565D01*
X224279255Y-71485368D01*
X224449522Y-71425789D01*
X224602262Y-71329816D01*
X224729816Y-71202262D01*
X224825789Y-71049522D01*
X224885368Y-70879255D01*
X224905565Y-70700000D01*
X224905565Y-70699999D01*
X237094435Y-70699999D01*
X237114632Y-70879258D01*
X237131787Y-70928282D01*
X237174211Y-71049522D01*
X237270184Y-71202262D01*
X237397738Y-71329816D01*
X237550478Y-71425789D01*
X237658851Y-71463710D01*
X237720741Y-71485367D01*
X237720742Y-71485367D01*
X237720745Y-71485368D01*
X237900000Y-71505565D01*
X238079255Y-71485368D01*
X238249522Y-71425789D01*
X238402262Y-71329816D01*
X238529816Y-71202262D01*
X238625789Y-71049522D01*
X238685368Y-70879255D01*
X238705565Y-70700000D01*
X238685368Y-70520745D01*
X238625789Y-70350478D01*
X238529816Y-70197738D01*
X238402262Y-70070184D01*
X238249522Y-69974211D01*
X238241815Y-69971514D01*
X238079258Y-69914632D01*
X237900000Y-69894435D01*
X237720741Y-69914632D01*
X237550480Y-69974210D01*
X237397739Y-70070183D01*
X237270183Y-70197739D01*
X237174210Y-70350480D01*
X237114632Y-70520741D01*
X237094435Y-70699999D01*
X224905565Y-70699999D01*
X224885368Y-70520745D01*
X224825789Y-70350478D01*
X224729816Y-70197738D01*
X224602262Y-70070184D01*
X224449522Y-69974211D01*
X224441815Y-69971514D01*
X224279258Y-69914632D01*
X224100000Y-69894435D01*
X223920741Y-69914632D01*
X223750480Y-69974210D01*
X223597739Y-70070183D01*
X223470183Y-70197739D01*
X223374210Y-70350480D01*
X223314632Y-70520741D01*
X223294435Y-70699999D01*
X217205565Y-70699999D01*
X217185368Y-70520745D01*
X217125789Y-70350478D01*
X217029816Y-70197738D01*
X216902262Y-70070184D01*
X216749522Y-69974211D01*
X216741815Y-69971514D01*
X216579258Y-69914632D01*
X216400000Y-69894435D01*
X216220741Y-69914632D01*
X216050480Y-69974210D01*
X215897739Y-70070183D01*
X215770183Y-70197739D01*
X215674210Y-70350480D01*
X215614632Y-70520741D01*
X215594435Y-70699999D01*
X212477391Y-70699999D01*
X212460044Y-70568238D01*
X212399536Y-70422159D01*
X212344535Y-70350480D01*
X212303282Y-70296717D01*
X212177841Y-70200464D01*
X212031761Y-70139955D01*
X211875000Y-70119318D01*
X211718238Y-70139955D01*
X211572158Y-70200464D01*
X211446717Y-70296717D01*
X211350464Y-70422158D01*
X211289955Y-70568238D01*
X211269318Y-70724999D01*
X205133707Y-70724999D01*
X205115044Y-70583238D01*
X205054536Y-70437159D01*
X205032139Y-70407971D01*
X204958282Y-70311717D01*
X204832841Y-70215464D01*
X204686761Y-70154955D01*
X204550637Y-70137034D01*
X204530000Y-70134318D01*
X204529999Y-70134318D01*
X204373238Y-70154955D01*
X204227158Y-70215464D01*
X204101717Y-70311717D01*
X204005464Y-70437158D01*
X203944955Y-70583238D01*
X203924318Y-70740000D01*
X190850566Y-70740000D01*
X190885044Y-70656762D01*
X190905682Y-70500000D01*
X190885044Y-70343238D01*
X190824536Y-70197159D01*
X190764807Y-70119318D01*
X190728282Y-70071717D01*
X190602841Y-69975464D01*
X190456761Y-69914955D01*
X190300000Y-69894318D01*
X190143238Y-69914955D01*
X189997158Y-69975464D01*
X189871717Y-70071717D01*
X189775464Y-70197158D01*
X189714955Y-70343238D01*
X189694318Y-70500000D01*
X161900500Y-70500000D01*
X161900500Y-68331122D01*
X195025440Y-68331122D01*
X195046077Y-68487883D01*
X195106586Y-68633963D01*
X195202839Y-68759404D01*
X195299092Y-68833261D01*
X195328281Y-68855658D01*
X195474360Y-68916166D01*
X195631122Y-68936804D01*
X195787884Y-68916166D01*
X195933963Y-68855658D01*
X196059404Y-68759404D01*
X196155658Y-68633963D01*
X196216166Y-68487884D01*
X196236804Y-68331122D01*
X196216166Y-68174360D01*
X196155658Y-68028281D01*
X196133261Y-67999092D01*
X196059404Y-67902839D01*
X195933963Y-67806586D01*
X195787883Y-67746077D01*
X195631122Y-67725440D01*
X195474360Y-67746077D01*
X195328280Y-67806586D01*
X195202839Y-67902839D01*
X195106586Y-68028280D01*
X195046077Y-68174360D01*
X195025440Y-68331122D01*
X161900500Y-68331122D01*
X161900500Y-67499999D01*
X208394318Y-67499999D01*
X208414955Y-67656761D01*
X208475464Y-67802841D01*
X208571717Y-67928282D01*
X208667970Y-68002139D01*
X208697159Y-68024536D01*
X208843238Y-68085044D01*
X209000000Y-68105682D01*
X209156762Y-68085044D01*
X209302841Y-68024536D01*
X209428282Y-67928282D01*
X209524536Y-67802841D01*
X209585044Y-67656762D01*
X209605682Y-67500000D01*
X209585044Y-67343238D01*
X209524536Y-67197159D01*
X209502139Y-67167970D01*
X209428282Y-67071717D01*
X209302841Y-66975464D01*
X209156761Y-66914955D01*
X209000000Y-66894318D01*
X208843238Y-66914955D01*
X208697158Y-66975464D01*
X208571717Y-67071717D01*
X208475464Y-67197158D01*
X208414955Y-67343238D01*
X208394318Y-67499999D01*
X161900500Y-67499999D01*
X161900500Y-65669862D01*
X175374500Y-65669862D01*
X175374501Y-65669867D01*
X175377415Y-65694991D01*
X175397451Y-65740369D01*
X175422793Y-65797764D01*
X175422794Y-65797764D01*
X175422794Y-65797765D01*
X175502235Y-65877206D01*
X175605009Y-65922585D01*
X175630135Y-65925500D01*
X177419864Y-65925499D01*
X177444991Y-65922585D01*
X177547765Y-65877206D01*
X177627206Y-65797765D01*
X177672585Y-65694991D01*
X177675500Y-65669865D01*
X177675499Y-64775000D01*
X177909571Y-64775000D01*
X177929244Y-64987310D01*
X177949926Y-65060000D01*
X177987596Y-65192391D01*
X178082634Y-65383256D01*
X178211125Y-65553404D01*
X178368699Y-65697053D01*
X178500622Y-65778736D01*
X178549981Y-65809298D01*
X178706681Y-65870003D01*
X178748804Y-65886322D01*
X178958388Y-65925500D01*
X178958390Y-65925500D01*
X179171610Y-65925500D01*
X179171612Y-65925500D01*
X179381195Y-65886322D01*
X179381198Y-65886321D01*
X179580019Y-65809298D01*
X179761302Y-65697052D01*
X179918872Y-65553407D01*
X180047366Y-65383255D01*
X180142405Y-65192389D01*
X180200756Y-64987310D01*
X180220429Y-64775000D01*
X180449571Y-64775000D01*
X180469244Y-64987310D01*
X180489926Y-65060000D01*
X180527596Y-65192391D01*
X180622634Y-65383256D01*
X180751125Y-65553404D01*
X180908699Y-65697053D01*
X181040622Y-65778736D01*
X181089981Y-65809298D01*
X181246681Y-65870003D01*
X181288804Y-65886322D01*
X181498388Y-65925500D01*
X181498390Y-65925500D01*
X181711610Y-65925500D01*
X181711612Y-65925500D01*
X181921195Y-65886322D01*
X181921198Y-65886321D01*
X182120019Y-65809298D01*
X182301302Y-65697052D01*
X182458872Y-65553407D01*
X182587366Y-65383255D01*
X182682405Y-65192389D01*
X182740756Y-64987310D01*
X182760429Y-64775000D01*
X182989571Y-64775000D01*
X183009244Y-64987310D01*
X183029926Y-65060000D01*
X183067596Y-65192391D01*
X183162634Y-65383256D01*
X183291125Y-65553404D01*
X183448699Y-65697053D01*
X183580622Y-65778736D01*
X183629981Y-65809298D01*
X183786681Y-65870003D01*
X183828804Y-65886322D01*
X184038388Y-65925500D01*
X184038390Y-65925500D01*
X184251610Y-65925500D01*
X184251612Y-65925500D01*
X184461195Y-65886322D01*
X184461198Y-65886321D01*
X184660019Y-65809298D01*
X184841302Y-65697052D01*
X184998872Y-65553407D01*
X185127366Y-65383255D01*
X185222405Y-65192389D01*
X185280756Y-64987310D01*
X185300429Y-64775000D01*
X185529571Y-64775000D01*
X185549244Y-64987310D01*
X185569926Y-65060000D01*
X185607596Y-65192391D01*
X185702634Y-65383256D01*
X185831125Y-65553404D01*
X185988699Y-65697053D01*
X186120622Y-65778736D01*
X186169981Y-65809298D01*
X186326681Y-65870003D01*
X186368804Y-65886322D01*
X186578388Y-65925500D01*
X186578390Y-65925500D01*
X186791610Y-65925500D01*
X186791612Y-65925500D01*
X187001195Y-65886322D01*
X187001198Y-65886321D01*
X187200019Y-65809298D01*
X187381302Y-65697052D01*
X187538872Y-65553407D01*
X187667366Y-65383255D01*
X187762405Y-65192389D01*
X187820756Y-64987310D01*
X187840429Y-64775000D01*
X188069571Y-64775000D01*
X188089244Y-64987310D01*
X188109926Y-65060000D01*
X188147596Y-65192391D01*
X188242634Y-65383256D01*
X188371125Y-65553404D01*
X188528699Y-65697053D01*
X188660622Y-65778736D01*
X188709981Y-65809298D01*
X188866681Y-65870003D01*
X188908804Y-65886322D01*
X189118388Y-65925500D01*
X189118390Y-65925500D01*
X189331610Y-65925500D01*
X189331612Y-65925500D01*
X189541195Y-65886322D01*
X189541198Y-65886321D01*
X189740019Y-65809298D01*
X189921302Y-65697052D01*
X190078872Y-65553407D01*
X190207366Y-65383255D01*
X190302405Y-65192389D01*
X190360756Y-64987310D01*
X190380429Y-64775000D01*
X190609571Y-64775000D01*
X190629244Y-64987310D01*
X190649926Y-65060000D01*
X190687596Y-65192391D01*
X190782634Y-65383256D01*
X190911125Y-65553404D01*
X191068699Y-65697053D01*
X191200622Y-65778736D01*
X191249981Y-65809298D01*
X191406681Y-65870003D01*
X191448804Y-65886322D01*
X191658388Y-65925500D01*
X191658390Y-65925500D01*
X191871610Y-65925500D01*
X191871612Y-65925500D01*
X192081195Y-65886322D01*
X192081198Y-65886321D01*
X192280019Y-65809298D01*
X192461302Y-65697052D01*
X192618872Y-65553407D01*
X192747366Y-65383255D01*
X192842405Y-65192389D01*
X192900756Y-64987310D01*
X192920429Y-64775000D01*
X193149571Y-64775000D01*
X193169244Y-64987310D01*
X193189926Y-65060000D01*
X193227596Y-65192391D01*
X193322634Y-65383256D01*
X193451125Y-65553404D01*
X193608699Y-65697053D01*
X193740622Y-65778736D01*
X193789981Y-65809298D01*
X193946681Y-65870003D01*
X193988804Y-65886322D01*
X194198388Y-65925500D01*
X194198390Y-65925500D01*
X194411610Y-65925500D01*
X194411612Y-65925500D01*
X194621195Y-65886322D01*
X194621198Y-65886321D01*
X194820019Y-65809298D01*
X195001302Y-65697052D01*
X195158872Y-65553407D01*
X195287366Y-65383255D01*
X195382405Y-65192389D01*
X195420074Y-65059999D01*
X198674318Y-65059999D01*
X198694955Y-65216761D01*
X198755464Y-65362841D01*
X198851717Y-65488282D01*
X198936587Y-65553404D01*
X198977159Y-65584536D01*
X199123238Y-65645044D01*
X199280000Y-65665682D01*
X199436762Y-65645044D01*
X199582841Y-65584536D01*
X199708282Y-65488282D01*
X199804536Y-65362841D01*
X199865044Y-65216762D01*
X199885682Y-65060000D01*
X199865044Y-64903238D01*
X199804536Y-64757159D01*
X199782139Y-64727970D01*
X199708282Y-64631717D01*
X199582841Y-64535464D01*
X199436761Y-64474955D01*
X199280000Y-64454318D01*
X199123238Y-64474955D01*
X198977158Y-64535464D01*
X198851717Y-64631717D01*
X198755464Y-64757158D01*
X198694955Y-64903238D01*
X198674318Y-65059999D01*
X195420074Y-65059999D01*
X195440756Y-64987310D01*
X195460429Y-64775000D01*
X195440756Y-64562690D01*
X195382405Y-64357611D01*
X195287366Y-64166745D01*
X195287365Y-64166744D01*
X195287365Y-64166743D01*
X195158874Y-63996595D01*
X195001300Y-63852946D01*
X194820021Y-63740703D01*
X194820019Y-63740702D01*
X194777898Y-63724384D01*
X194621195Y-63663677D01*
X194411612Y-63624500D01*
X194411610Y-63624500D01*
X194198390Y-63624500D01*
X194198388Y-63624500D01*
X193988804Y-63663677D01*
X193789978Y-63740703D01*
X193608699Y-63852946D01*
X193451125Y-63996595D01*
X193322634Y-64166743D01*
X193227596Y-64357608D01*
X193227595Y-64357611D01*
X193169244Y-64562690D01*
X193149571Y-64775000D01*
X192920429Y-64775000D01*
X192900756Y-64562690D01*
X192842405Y-64357611D01*
X192747366Y-64166745D01*
X192747365Y-64166744D01*
X192747365Y-64166743D01*
X192618874Y-63996595D01*
X192461300Y-63852946D01*
X192280021Y-63740703D01*
X192280019Y-63740702D01*
X192237898Y-63724384D01*
X192081195Y-63663677D01*
X191871612Y-63624500D01*
X191871610Y-63624500D01*
X191658390Y-63624500D01*
X191658388Y-63624500D01*
X191448804Y-63663677D01*
X191249978Y-63740703D01*
X191068699Y-63852946D01*
X190911125Y-63996595D01*
X190782634Y-64166743D01*
X190687596Y-64357608D01*
X190687595Y-64357611D01*
X190629244Y-64562690D01*
X190609571Y-64775000D01*
X190380429Y-64775000D01*
X190360756Y-64562690D01*
X190302405Y-64357611D01*
X190207366Y-64166745D01*
X190207365Y-64166744D01*
X190207365Y-64166743D01*
X190078874Y-63996595D01*
X189921300Y-63852946D01*
X189740021Y-63740703D01*
X189740019Y-63740702D01*
X189697898Y-63724384D01*
X189541195Y-63663677D01*
X189331612Y-63624500D01*
X189331610Y-63624500D01*
X189118390Y-63624500D01*
X189118388Y-63624500D01*
X188908804Y-63663677D01*
X188709978Y-63740703D01*
X188528699Y-63852946D01*
X188371125Y-63996595D01*
X188242634Y-64166743D01*
X188147596Y-64357608D01*
X188147595Y-64357611D01*
X188089244Y-64562690D01*
X188069571Y-64775000D01*
X187840429Y-64775000D01*
X187820756Y-64562690D01*
X187762405Y-64357611D01*
X187667366Y-64166745D01*
X187667365Y-64166744D01*
X187667365Y-64166743D01*
X187538874Y-63996595D01*
X187381300Y-63852946D01*
X187200021Y-63740703D01*
X187200019Y-63740702D01*
X187157898Y-63724384D01*
X187001195Y-63663677D01*
X186791612Y-63624500D01*
X186791610Y-63624500D01*
X186578390Y-63624500D01*
X186578388Y-63624500D01*
X186368804Y-63663677D01*
X186169978Y-63740703D01*
X185988699Y-63852946D01*
X185831125Y-63996595D01*
X185702634Y-64166743D01*
X185607596Y-64357608D01*
X185607595Y-64357611D01*
X185549244Y-64562690D01*
X185529571Y-64775000D01*
X185300429Y-64775000D01*
X185280756Y-64562690D01*
X185222405Y-64357611D01*
X185127366Y-64166745D01*
X185127365Y-64166744D01*
X185127365Y-64166743D01*
X184998874Y-63996595D01*
X184841300Y-63852946D01*
X184660021Y-63740703D01*
X184660019Y-63740702D01*
X184617898Y-63724384D01*
X184461195Y-63663677D01*
X184251612Y-63624500D01*
X184251610Y-63624500D01*
X184038390Y-63624500D01*
X184038388Y-63624500D01*
X183828804Y-63663677D01*
X183629978Y-63740703D01*
X183448699Y-63852946D01*
X183291125Y-63996595D01*
X183162634Y-64166743D01*
X183067596Y-64357608D01*
X183067595Y-64357611D01*
X183009244Y-64562690D01*
X182989571Y-64775000D01*
X182760429Y-64775000D01*
X182740756Y-64562690D01*
X182682405Y-64357611D01*
X182587366Y-64166745D01*
X182587365Y-64166744D01*
X182587365Y-64166743D01*
X182458874Y-63996595D01*
X182301300Y-63852946D01*
X182120021Y-63740703D01*
X182120019Y-63740702D01*
X182077898Y-63724384D01*
X181921195Y-63663677D01*
X181711612Y-63624500D01*
X181711610Y-63624500D01*
X181498390Y-63624500D01*
X181498388Y-63624500D01*
X181288804Y-63663677D01*
X181089978Y-63740703D01*
X180908699Y-63852946D01*
X180751125Y-63996595D01*
X180622634Y-64166743D01*
X180527596Y-64357608D01*
X180527595Y-64357611D01*
X180469244Y-64562690D01*
X180449571Y-64775000D01*
X180220429Y-64775000D01*
X180200756Y-64562690D01*
X180142405Y-64357611D01*
X180047366Y-64166745D01*
X180047365Y-64166744D01*
X180047365Y-64166743D01*
X179918874Y-63996595D01*
X179761300Y-63852946D01*
X179580021Y-63740703D01*
X179580019Y-63740702D01*
X179537898Y-63724384D01*
X179381195Y-63663677D01*
X179171612Y-63624500D01*
X179171610Y-63624500D01*
X178958390Y-63624500D01*
X178958388Y-63624500D01*
X178748804Y-63663677D01*
X178549978Y-63740703D01*
X178368699Y-63852946D01*
X178211125Y-63996595D01*
X178082634Y-64166743D01*
X177987596Y-64357608D01*
X177987595Y-64357611D01*
X177929244Y-64562690D01*
X177909571Y-64775000D01*
X177675499Y-64775000D01*
X177675499Y-63880136D01*
X177672585Y-63855009D01*
X177627206Y-63752235D01*
X177547765Y-63672794D01*
X177547765Y-63672793D01*
X177547764Y-63672793D01*
X177444989Y-63627414D01*
X177419867Y-63624500D01*
X175630137Y-63624500D01*
X175605009Y-63627415D01*
X175502235Y-63672793D01*
X175422793Y-63752235D01*
X175377414Y-63855010D01*
X175374500Y-63880132D01*
X175374500Y-65669862D01*
X161900500Y-65669862D01*
X161900500Y-62234999D01*
X175369571Y-62234999D01*
X175389244Y-62447309D01*
X175447596Y-62652391D01*
X175542634Y-62843256D01*
X175671125Y-63013404D01*
X175828699Y-63157053D01*
X175960622Y-63238736D01*
X176009981Y-63269298D01*
X176166681Y-63330003D01*
X176208804Y-63346322D01*
X176418388Y-63385500D01*
X176418390Y-63385500D01*
X176631610Y-63385500D01*
X176631612Y-63385500D01*
X176841195Y-63346322D01*
X176841198Y-63346321D01*
X177040019Y-63269298D01*
X177221302Y-63157052D01*
X177378872Y-63013407D01*
X177507366Y-62843255D01*
X177602405Y-62652389D01*
X177660756Y-62447310D01*
X177680429Y-62235000D01*
X177680429Y-62234999D01*
X177909571Y-62234999D01*
X177929244Y-62447309D01*
X177987596Y-62652391D01*
X178082634Y-62843256D01*
X178211125Y-63013404D01*
X178368699Y-63157053D01*
X178500622Y-63238736D01*
X178549981Y-63269298D01*
X178706681Y-63330003D01*
X178748804Y-63346322D01*
X178958388Y-63385500D01*
X178958390Y-63385500D01*
X179171610Y-63385500D01*
X179171612Y-63385500D01*
X179381195Y-63346322D01*
X179381198Y-63346321D01*
X179580019Y-63269298D01*
X179761302Y-63157052D01*
X179918872Y-63013407D01*
X180047366Y-62843255D01*
X180142405Y-62652389D01*
X180200756Y-62447310D01*
X180220429Y-62235000D01*
X180220429Y-62234999D01*
X180449571Y-62234999D01*
X180469244Y-62447309D01*
X180527596Y-62652391D01*
X180622634Y-62843256D01*
X180751125Y-63013404D01*
X180908699Y-63157053D01*
X181040622Y-63238736D01*
X181089981Y-63269298D01*
X181246681Y-63330003D01*
X181288804Y-63346322D01*
X181498388Y-63385500D01*
X181498390Y-63385500D01*
X181711610Y-63385500D01*
X181711612Y-63385500D01*
X181921195Y-63346322D01*
X181921198Y-63346321D01*
X182120019Y-63269298D01*
X182301302Y-63157052D01*
X182458872Y-63013407D01*
X182587366Y-62843255D01*
X182682405Y-62652389D01*
X182740756Y-62447310D01*
X182760429Y-62235000D01*
X182760429Y-62234999D01*
X182989571Y-62234999D01*
X183009244Y-62447309D01*
X183067596Y-62652391D01*
X183162634Y-62843256D01*
X183291125Y-63013404D01*
X183448699Y-63157053D01*
X183580622Y-63238736D01*
X183629981Y-63269298D01*
X183786681Y-63330003D01*
X183828804Y-63346322D01*
X184038388Y-63385500D01*
X184038390Y-63385500D01*
X184251610Y-63385500D01*
X184251612Y-63385500D01*
X184461195Y-63346322D01*
X184461198Y-63346321D01*
X184660019Y-63269298D01*
X184841302Y-63157052D01*
X184998872Y-63013407D01*
X185127366Y-62843255D01*
X185222405Y-62652389D01*
X185280756Y-62447310D01*
X185300429Y-62235000D01*
X185300429Y-62234999D01*
X185529571Y-62234999D01*
X185549244Y-62447309D01*
X185607596Y-62652391D01*
X185702634Y-62843256D01*
X185831125Y-63013404D01*
X185988699Y-63157053D01*
X186120622Y-63238736D01*
X186169981Y-63269298D01*
X186326681Y-63330003D01*
X186368804Y-63346322D01*
X186578388Y-63385500D01*
X186578390Y-63385500D01*
X186791610Y-63385500D01*
X186791612Y-63385500D01*
X187001195Y-63346322D01*
X187001198Y-63346321D01*
X187200019Y-63269298D01*
X187381302Y-63157052D01*
X187538872Y-63013407D01*
X187667366Y-62843255D01*
X187762405Y-62652389D01*
X187820756Y-62447310D01*
X187840429Y-62235000D01*
X187840429Y-62234999D01*
X188069571Y-62234999D01*
X188089244Y-62447309D01*
X188147596Y-62652391D01*
X188242634Y-62843256D01*
X188371125Y-63013404D01*
X188528699Y-63157053D01*
X188660622Y-63238736D01*
X188709981Y-63269298D01*
X188866681Y-63330003D01*
X188908804Y-63346322D01*
X189118388Y-63385500D01*
X189118390Y-63385500D01*
X189331610Y-63385500D01*
X189331612Y-63385500D01*
X189541195Y-63346322D01*
X189541198Y-63346321D01*
X189740019Y-63269298D01*
X189921302Y-63157052D01*
X190078872Y-63013407D01*
X190207366Y-62843255D01*
X190302405Y-62652389D01*
X190360756Y-62447310D01*
X190380429Y-62235000D01*
X190380429Y-62234999D01*
X190609571Y-62234999D01*
X190629244Y-62447309D01*
X190687596Y-62652391D01*
X190782634Y-62843256D01*
X190911125Y-63013404D01*
X191068699Y-63157053D01*
X191200622Y-63238736D01*
X191249981Y-63269298D01*
X191406681Y-63330003D01*
X191448804Y-63346322D01*
X191658388Y-63385500D01*
X191658390Y-63385500D01*
X191871610Y-63385500D01*
X191871612Y-63385500D01*
X192081195Y-63346322D01*
X192081198Y-63346321D01*
X192280019Y-63269298D01*
X192461302Y-63157052D01*
X192618872Y-63013407D01*
X192747366Y-62843255D01*
X192842405Y-62652389D01*
X192900756Y-62447310D01*
X192920429Y-62235000D01*
X192920429Y-62234999D01*
X193149571Y-62234999D01*
X193169244Y-62447309D01*
X193227596Y-62652391D01*
X193322634Y-62843256D01*
X193451125Y-63013404D01*
X193608699Y-63157053D01*
X193740622Y-63238736D01*
X193789981Y-63269298D01*
X193946681Y-63330003D01*
X193988804Y-63346322D01*
X194198388Y-63385500D01*
X194198390Y-63385500D01*
X194411610Y-63385500D01*
X194411612Y-63385500D01*
X194621195Y-63346322D01*
X194621198Y-63346321D01*
X194820019Y-63269298D01*
X195001302Y-63157052D01*
X195158872Y-63013407D01*
X195287366Y-62843255D01*
X195382405Y-62652389D01*
X195440756Y-62447310D01*
X195460429Y-62235000D01*
X195440756Y-62022690D01*
X195382405Y-61817611D01*
X195287366Y-61626745D01*
X195287365Y-61626744D01*
X195287365Y-61626743D01*
X195158874Y-61456595D01*
X195001300Y-61312946D01*
X194820021Y-61200703D01*
X194820019Y-61200702D01*
X194777898Y-61184384D01*
X194621195Y-61123677D01*
X194411612Y-61084500D01*
X194411610Y-61084500D01*
X194198390Y-61084500D01*
X194198388Y-61084500D01*
X193988804Y-61123677D01*
X193789978Y-61200703D01*
X193608699Y-61312946D01*
X193451125Y-61456595D01*
X193322634Y-61626743D01*
X193227596Y-61817608D01*
X193169244Y-62022690D01*
X193149571Y-62234999D01*
X192920429Y-62234999D01*
X192900756Y-62022690D01*
X192842405Y-61817611D01*
X192747366Y-61626745D01*
X192747365Y-61626744D01*
X192747365Y-61626743D01*
X192618874Y-61456595D01*
X192461300Y-61312946D01*
X192280021Y-61200703D01*
X192280019Y-61200702D01*
X192237898Y-61184384D01*
X192081195Y-61123677D01*
X191871612Y-61084500D01*
X191871610Y-61084500D01*
X191658390Y-61084500D01*
X191658388Y-61084500D01*
X191448804Y-61123677D01*
X191249978Y-61200703D01*
X191068699Y-61312946D01*
X190911125Y-61456595D01*
X190782634Y-61626743D01*
X190687596Y-61817608D01*
X190629244Y-62022690D01*
X190609571Y-62234999D01*
X190380429Y-62234999D01*
X190360756Y-62022690D01*
X190302405Y-61817611D01*
X190207366Y-61626745D01*
X190207365Y-61626744D01*
X190207365Y-61626743D01*
X190078874Y-61456595D01*
X189921300Y-61312946D01*
X189740021Y-61200703D01*
X189740019Y-61200702D01*
X189697898Y-61184384D01*
X189541195Y-61123677D01*
X189331612Y-61084500D01*
X189331610Y-61084500D01*
X189118390Y-61084500D01*
X189118388Y-61084500D01*
X188908804Y-61123677D01*
X188709978Y-61200703D01*
X188528699Y-61312946D01*
X188371125Y-61456595D01*
X188242634Y-61626743D01*
X188147596Y-61817608D01*
X188089244Y-62022690D01*
X188069571Y-62234999D01*
X187840429Y-62234999D01*
X187820756Y-62022690D01*
X187762405Y-61817611D01*
X187667366Y-61626745D01*
X187667365Y-61626744D01*
X187667365Y-61626743D01*
X187538874Y-61456595D01*
X187381300Y-61312946D01*
X187200021Y-61200703D01*
X187200019Y-61200702D01*
X187157898Y-61184384D01*
X187001195Y-61123677D01*
X186791612Y-61084500D01*
X186791610Y-61084500D01*
X186578390Y-61084500D01*
X186578388Y-61084500D01*
X186368804Y-61123677D01*
X186169978Y-61200703D01*
X185988699Y-61312946D01*
X185831125Y-61456595D01*
X185702634Y-61626743D01*
X185607596Y-61817608D01*
X185549244Y-62022690D01*
X185529571Y-62234999D01*
X185300429Y-62234999D01*
X185280756Y-62022690D01*
X185222405Y-61817611D01*
X185127366Y-61626745D01*
X185127365Y-61626744D01*
X185127365Y-61626743D01*
X184998874Y-61456595D01*
X184841300Y-61312946D01*
X184660021Y-61200703D01*
X184660019Y-61200702D01*
X184617898Y-61184384D01*
X184461195Y-61123677D01*
X184251612Y-61084500D01*
X184251610Y-61084500D01*
X184038390Y-61084500D01*
X184038388Y-61084500D01*
X183828804Y-61123677D01*
X183629978Y-61200703D01*
X183448699Y-61312946D01*
X183291125Y-61456595D01*
X183162634Y-61626743D01*
X183067596Y-61817608D01*
X183009244Y-62022690D01*
X182989571Y-62234999D01*
X182760429Y-62234999D01*
X182740756Y-62022690D01*
X182682405Y-61817611D01*
X182587366Y-61626745D01*
X182587365Y-61626744D01*
X182587365Y-61626743D01*
X182458874Y-61456595D01*
X182301300Y-61312946D01*
X182120021Y-61200703D01*
X182120019Y-61200702D01*
X182077898Y-61184384D01*
X181921195Y-61123677D01*
X181711612Y-61084500D01*
X181711610Y-61084500D01*
X181498390Y-61084500D01*
X181498388Y-61084500D01*
X181288804Y-61123677D01*
X181089978Y-61200703D01*
X180908699Y-61312946D01*
X180751125Y-61456595D01*
X180622634Y-61626743D01*
X180527596Y-61817608D01*
X180469244Y-62022690D01*
X180449571Y-62234999D01*
X180220429Y-62234999D01*
X180200756Y-62022690D01*
X180142405Y-61817611D01*
X180047366Y-61626745D01*
X180047365Y-61626744D01*
X180047365Y-61626743D01*
X179918874Y-61456595D01*
X179761300Y-61312946D01*
X179580021Y-61200703D01*
X179580019Y-61200702D01*
X179537898Y-61184384D01*
X179381195Y-61123677D01*
X179171612Y-61084500D01*
X179171610Y-61084500D01*
X178958390Y-61084500D01*
X178958388Y-61084500D01*
X178748804Y-61123677D01*
X178549978Y-61200703D01*
X178368699Y-61312946D01*
X178211125Y-61456595D01*
X178082634Y-61626743D01*
X177987596Y-61817608D01*
X177929244Y-62022690D01*
X177909571Y-62234999D01*
X177680429Y-62234999D01*
X177660756Y-62022690D01*
X177602405Y-61817611D01*
X177507366Y-61626745D01*
X177507365Y-61626744D01*
X177507365Y-61626743D01*
X177378874Y-61456595D01*
X177221300Y-61312946D01*
X177040021Y-61200703D01*
X177040019Y-61200702D01*
X176997898Y-61184384D01*
X176841195Y-61123677D01*
X176631612Y-61084500D01*
X176631610Y-61084500D01*
X176418390Y-61084500D01*
X176418388Y-61084500D01*
X176208804Y-61123677D01*
X176009978Y-61200703D01*
X175828699Y-61312946D01*
X175671125Y-61456595D01*
X175542634Y-61626743D01*
X175447596Y-61817608D01*
X175389244Y-62022690D01*
X175369571Y-62234999D01*
X161900500Y-62234999D01*
X161900500Y-59316855D01*
X198166211Y-59316855D01*
X198186408Y-59496114D01*
X198243290Y-59658671D01*
X198245987Y-59666378D01*
X198341960Y-59819118D01*
X198469514Y-59946672D01*
X198622254Y-60042645D01*
X198730627Y-60080566D01*
X198792517Y-60102223D01*
X198792518Y-60102223D01*
X198792521Y-60102224D01*
X198971776Y-60122421D01*
X199151031Y-60102224D01*
X199321298Y-60042645D01*
X199474038Y-59946672D01*
X199601592Y-59819118D01*
X199691676Y-59675749D01*
X199728587Y-59641244D01*
X199777721Y-59629448D01*
X199826277Y-59643437D01*
X199861604Y-59679566D01*
X199874500Y-59728423D01*
X199874500Y-61369862D01*
X199874501Y-61369867D01*
X199877415Y-61394991D01*
X199897451Y-61440369D01*
X199922793Y-61497764D01*
X199922794Y-61497765D01*
X200002235Y-61577206D01*
X200105009Y-61622585D01*
X200130135Y-61625500D01*
X201919864Y-61625499D01*
X201944991Y-61622585D01*
X202047765Y-61577206D01*
X202127206Y-61497765D01*
X202172585Y-61394991D01*
X202175500Y-61369865D01*
X202175499Y-60475000D01*
X202409571Y-60475000D01*
X202429244Y-60687310D01*
X202446944Y-60749519D01*
X202487596Y-60892391D01*
X202582634Y-61083256D01*
X202711125Y-61253404D01*
X202868699Y-61397053D01*
X202964860Y-61456593D01*
X203049981Y-61509298D01*
X203206681Y-61570003D01*
X203248804Y-61586322D01*
X203458388Y-61625500D01*
X203458390Y-61625500D01*
X203671610Y-61625500D01*
X203671612Y-61625500D01*
X203881195Y-61586322D01*
X203881198Y-61586321D01*
X204080019Y-61509298D01*
X204261302Y-61397052D01*
X204418872Y-61253407D01*
X204547366Y-61083255D01*
X204642405Y-60892389D01*
X204700756Y-60687310D01*
X204720429Y-60475000D01*
X204713479Y-60400000D01*
X211619435Y-60400000D01*
X211639632Y-60579258D01*
X211677442Y-60687310D01*
X211699211Y-60749522D01*
X211795184Y-60902262D01*
X211922738Y-61029816D01*
X212075478Y-61125789D01*
X212183851Y-61163710D01*
X212245741Y-61185367D01*
X212245742Y-61185367D01*
X212245745Y-61185368D01*
X212425000Y-61205565D01*
X212604255Y-61185368D01*
X212774522Y-61125789D01*
X212927262Y-61029816D01*
X213054816Y-60902262D01*
X213150789Y-60749522D01*
X213210368Y-60579255D01*
X213230565Y-60400000D01*
X213210368Y-60220745D01*
X213150789Y-60050478D01*
X213054816Y-59897738D01*
X212927262Y-59770184D01*
X212774522Y-59674211D01*
X212752128Y-59666375D01*
X212604258Y-59614632D01*
X212469813Y-59599484D01*
X212425000Y-59594435D01*
X212424999Y-59594435D01*
X212245741Y-59614632D01*
X212075480Y-59674210D01*
X211922739Y-59770183D01*
X211795183Y-59897739D01*
X211699210Y-60050480D01*
X211639632Y-60220741D01*
X211619435Y-60400000D01*
X204713479Y-60400000D01*
X204700756Y-60262690D01*
X204642405Y-60057611D01*
X204547366Y-59866745D01*
X204547365Y-59866744D01*
X204547365Y-59866743D01*
X204418874Y-59696595D01*
X204261300Y-59552946D01*
X204080021Y-59440703D01*
X204080019Y-59440702D01*
X204003793Y-59411172D01*
X203881195Y-59363677D01*
X203671612Y-59324500D01*
X203671610Y-59324500D01*
X203458390Y-59324500D01*
X203458388Y-59324500D01*
X203248804Y-59363677D01*
X203049978Y-59440703D01*
X202868699Y-59552946D01*
X202711125Y-59696595D01*
X202582634Y-59866743D01*
X202487596Y-60057608D01*
X202487595Y-60057611D01*
X202429244Y-60262690D01*
X202409571Y-60475000D01*
X202175499Y-60475000D01*
X202175499Y-59580136D01*
X202172585Y-59555009D01*
X202127206Y-59452235D01*
X202047765Y-59372794D01*
X202047765Y-59372793D01*
X202047764Y-59372793D01*
X201944989Y-59327414D01*
X201919867Y-59324500D01*
X200130137Y-59324500D01*
X200105009Y-59327415D01*
X200002233Y-59372794D01*
X199941738Y-59433289D01*
X199888317Y-59460886D01*
X199828780Y-59452480D01*
X199785087Y-59411172D01*
X199773358Y-59352201D01*
X199777341Y-59316856D01*
X199757144Y-59137601D01*
X199697565Y-58967334D01*
X199601592Y-58814594D01*
X199474038Y-58687040D01*
X199321298Y-58591067D01*
X199313591Y-58588370D01*
X199151034Y-58531488D01*
X198971776Y-58511291D01*
X198792517Y-58531488D01*
X198622256Y-58591066D01*
X198469515Y-58687039D01*
X198341959Y-58814595D01*
X198245986Y-58967336D01*
X198186408Y-59137597D01*
X198166211Y-59316855D01*
X161900500Y-59316855D01*
X161900500Y-56365000D01*
X172629571Y-56365000D01*
X172649244Y-56577310D01*
X172699609Y-56754323D01*
X172707596Y-56782391D01*
X172802634Y-56973256D01*
X172931125Y-57143404D01*
X173088699Y-57287053D01*
X173220622Y-57368736D01*
X173269981Y-57399298D01*
X173426681Y-57460003D01*
X173468804Y-57476322D01*
X173678388Y-57515500D01*
X173678390Y-57515500D01*
X173891610Y-57515500D01*
X173891612Y-57515500D01*
X174101195Y-57476322D01*
X174101198Y-57476321D01*
X174300019Y-57399298D01*
X174481302Y-57287052D01*
X174638872Y-57143407D01*
X174767366Y-56973255D01*
X174860795Y-56785621D01*
X174901573Y-56743079D01*
X174959306Y-56731247D01*
X175013534Y-56754323D01*
X175045040Y-56804127D01*
X175051569Y-56828492D01*
X175151398Y-57042576D01*
X175286887Y-57236074D01*
X175453925Y-57403112D01*
X175647423Y-57538601D01*
X175861504Y-57638429D01*
X176075000Y-57695636D01*
X176075000Y-56214000D01*
X176088263Y-56164500D01*
X176124500Y-56128263D01*
X176174000Y-56115000D01*
X176476000Y-56115000D01*
X176525500Y-56128263D01*
X176561737Y-56164500D01*
X176575000Y-56214000D01*
X176575000Y-57695636D01*
X176788495Y-57638429D01*
X177002576Y-57538601D01*
X177196074Y-57403112D01*
X177363112Y-57236074D01*
X177498601Y-57042576D01*
X177598429Y-56828494D01*
X177604958Y-56804130D01*
X177636463Y-56754324D01*
X177690691Y-56731248D01*
X177748426Y-56743079D01*
X177789206Y-56785624D01*
X177882634Y-56973256D01*
X178011125Y-57143404D01*
X178168699Y-57287053D01*
X178300622Y-57368736D01*
X178349981Y-57399298D01*
X178506681Y-57460003D01*
X178548804Y-57476322D01*
X178758388Y-57515500D01*
X178758390Y-57515500D01*
X178971610Y-57515500D01*
X178971612Y-57515500D01*
X179181195Y-57476322D01*
X179181198Y-57476321D01*
X179380019Y-57399298D01*
X179561302Y-57287052D01*
X179718872Y-57143407D01*
X179847366Y-56973255D01*
X179942405Y-56782389D01*
X180000756Y-56577310D01*
X180020429Y-56365000D01*
X180249571Y-56365000D01*
X180269244Y-56577310D01*
X180319609Y-56754323D01*
X180327596Y-56782391D01*
X180422634Y-56973256D01*
X180551125Y-57143404D01*
X180708699Y-57287053D01*
X180840622Y-57368736D01*
X180889981Y-57399298D01*
X181046681Y-57460003D01*
X181088804Y-57476322D01*
X181298388Y-57515500D01*
X181298390Y-57515500D01*
X181511610Y-57515500D01*
X181511612Y-57515500D01*
X181721195Y-57476322D01*
X181721198Y-57476321D01*
X181920019Y-57399298D01*
X182101302Y-57287052D01*
X182258872Y-57143407D01*
X182387366Y-56973255D01*
X182482405Y-56782389D01*
X182540756Y-56577310D01*
X182560429Y-56365000D01*
X182789571Y-56365000D01*
X182809244Y-56577310D01*
X182859609Y-56754323D01*
X182867596Y-56782391D01*
X182962634Y-56973256D01*
X183091125Y-57143404D01*
X183248699Y-57287053D01*
X183380622Y-57368736D01*
X183429981Y-57399298D01*
X183586681Y-57460003D01*
X183628804Y-57476322D01*
X183838388Y-57515500D01*
X183838390Y-57515500D01*
X184051610Y-57515500D01*
X184051612Y-57515500D01*
X184261195Y-57476322D01*
X184261198Y-57476321D01*
X184460019Y-57399298D01*
X184641302Y-57287052D01*
X184798872Y-57143407D01*
X184927366Y-56973255D01*
X185022405Y-56782389D01*
X185080756Y-56577310D01*
X185100429Y-56365000D01*
X185329571Y-56365000D01*
X185349244Y-56577310D01*
X185399609Y-56754323D01*
X185407596Y-56782391D01*
X185502634Y-56973256D01*
X185631125Y-57143404D01*
X185788699Y-57287053D01*
X185920622Y-57368736D01*
X185969981Y-57399298D01*
X186126681Y-57460003D01*
X186168804Y-57476322D01*
X186378388Y-57515500D01*
X186378390Y-57515500D01*
X186591610Y-57515500D01*
X186591612Y-57515500D01*
X186801195Y-57476322D01*
X186801198Y-57476321D01*
X187000019Y-57399298D01*
X187181302Y-57287052D01*
X187338872Y-57143407D01*
X187467366Y-56973255D01*
X187562405Y-56782389D01*
X187620756Y-56577310D01*
X187640429Y-56365000D01*
X187869571Y-56365000D01*
X187889244Y-56577310D01*
X187939609Y-56754323D01*
X187947596Y-56782391D01*
X188042634Y-56973256D01*
X188171125Y-57143404D01*
X188328699Y-57287053D01*
X188460622Y-57368736D01*
X188509981Y-57399298D01*
X188666681Y-57460003D01*
X188708804Y-57476322D01*
X188918388Y-57515500D01*
X188918390Y-57515500D01*
X189131610Y-57515500D01*
X189131612Y-57515500D01*
X189341195Y-57476322D01*
X189341198Y-57476321D01*
X189540019Y-57399298D01*
X189721302Y-57287052D01*
X189878872Y-57143407D01*
X190007366Y-56973255D01*
X190102405Y-56782389D01*
X190160756Y-56577310D01*
X190180429Y-56365000D01*
X192429571Y-56365000D01*
X192449244Y-56577310D01*
X192499609Y-56754323D01*
X192507596Y-56782391D01*
X192602634Y-56973256D01*
X192731125Y-57143404D01*
X192888699Y-57287053D01*
X193020622Y-57368736D01*
X193069981Y-57399298D01*
X193226681Y-57460003D01*
X193268804Y-57476322D01*
X193478388Y-57515500D01*
X193478390Y-57515500D01*
X193691610Y-57515500D01*
X193691612Y-57515500D01*
X193901195Y-57476322D01*
X193901198Y-57476321D01*
X194100019Y-57399298D01*
X194281302Y-57287052D01*
X194438872Y-57143407D01*
X194567366Y-56973255D01*
X194660795Y-56785621D01*
X194701573Y-56743079D01*
X194759306Y-56731247D01*
X194813534Y-56754323D01*
X194845040Y-56804127D01*
X194851569Y-56828492D01*
X194951398Y-57042576D01*
X195086887Y-57236074D01*
X195253925Y-57403112D01*
X195447423Y-57538601D01*
X195661504Y-57638429D01*
X195875000Y-57695636D01*
X195875000Y-52494364D01*
X196375000Y-52494364D01*
X196375000Y-57695636D01*
X196588495Y-57638429D01*
X196802576Y-57538601D01*
X196996074Y-57403112D01*
X197163112Y-57236074D01*
X197298601Y-57042576D01*
X197398429Y-56828494D01*
X197404958Y-56804130D01*
X197436463Y-56754324D01*
X197490691Y-56731248D01*
X197548426Y-56743079D01*
X197589206Y-56785624D01*
X197682634Y-56973256D01*
X197811125Y-57143404D01*
X197968699Y-57287053D01*
X198100622Y-57368736D01*
X198149981Y-57399298D01*
X198306681Y-57460003D01*
X198348804Y-57476322D01*
X198558388Y-57515500D01*
X198558390Y-57515500D01*
X198771610Y-57515500D01*
X198771612Y-57515500D01*
X198981195Y-57476322D01*
X198981198Y-57476321D01*
X199180019Y-57399298D01*
X199361302Y-57287052D01*
X199518872Y-57143407D01*
X199647366Y-56973255D01*
X199742405Y-56782389D01*
X199800756Y-56577310D01*
X199820429Y-56365000D01*
X200049571Y-56365000D01*
X200069244Y-56577310D01*
X200119609Y-56754323D01*
X200127596Y-56782391D01*
X200222634Y-56973256D01*
X200351125Y-57143404D01*
X200508699Y-57287053D01*
X200640622Y-57368736D01*
X200689981Y-57399298D01*
X200846681Y-57460003D01*
X200888804Y-57476322D01*
X201098388Y-57515500D01*
X201098390Y-57515500D01*
X201311610Y-57515500D01*
X201311612Y-57515500D01*
X201521195Y-57476322D01*
X201521198Y-57476321D01*
X201720019Y-57399298D01*
X201901302Y-57287052D01*
X202058872Y-57143407D01*
X202187366Y-56973255D01*
X202282405Y-56782389D01*
X202340756Y-56577310D01*
X202360429Y-56365000D01*
X202589571Y-56365000D01*
X202609244Y-56577310D01*
X202659609Y-56754323D01*
X202667596Y-56782391D01*
X202762634Y-56973256D01*
X202891125Y-57143404D01*
X203048699Y-57287053D01*
X203180622Y-57368736D01*
X203229981Y-57399298D01*
X203386681Y-57460003D01*
X203428804Y-57476322D01*
X203638388Y-57515500D01*
X203638390Y-57515500D01*
X203851610Y-57515500D01*
X203851612Y-57515500D01*
X204061195Y-57476322D01*
X204061198Y-57476321D01*
X204260019Y-57399298D01*
X204441302Y-57287052D01*
X204598872Y-57143407D01*
X204727366Y-56973255D01*
X204822405Y-56782389D01*
X204880756Y-56577310D01*
X204900429Y-56365000D01*
X205129571Y-56365000D01*
X205149244Y-56577310D01*
X205199609Y-56754323D01*
X205207596Y-56782391D01*
X205302634Y-56973256D01*
X205431125Y-57143404D01*
X205588699Y-57287053D01*
X205720622Y-57368736D01*
X205769981Y-57399298D01*
X205926681Y-57460003D01*
X205968804Y-57476322D01*
X206178388Y-57515500D01*
X206178390Y-57515500D01*
X206391610Y-57515500D01*
X206391612Y-57515500D01*
X206601195Y-57476322D01*
X206601198Y-57476321D01*
X206800019Y-57399298D01*
X206981302Y-57287052D01*
X207138872Y-57143407D01*
X207267366Y-56973255D01*
X207362405Y-56782389D01*
X207420756Y-56577310D01*
X207440429Y-56365000D01*
X207669571Y-56365000D01*
X207689244Y-56577310D01*
X207739609Y-56754323D01*
X207747596Y-56782391D01*
X207842634Y-56973256D01*
X207971125Y-57143404D01*
X208128699Y-57287053D01*
X208260622Y-57368736D01*
X208309981Y-57399298D01*
X208466681Y-57460003D01*
X208508804Y-57476322D01*
X208718388Y-57515500D01*
X208718390Y-57515500D01*
X208931610Y-57515500D01*
X208931612Y-57515500D01*
X209141195Y-57476322D01*
X209141198Y-57476321D01*
X209340019Y-57399298D01*
X209521302Y-57287052D01*
X209678872Y-57143407D01*
X209807366Y-56973255D01*
X209902405Y-56782389D01*
X209960756Y-56577310D01*
X209980429Y-56365000D01*
X209960756Y-56152690D01*
X209902405Y-55947611D01*
X209807366Y-55756745D01*
X209807365Y-55756744D01*
X209807365Y-55756743D01*
X209678874Y-55586595D01*
X209521300Y-55442946D01*
X209340021Y-55330703D01*
X209340019Y-55330702D01*
X209297898Y-55314384D01*
X209141195Y-55253677D01*
X208931612Y-55214500D01*
X208931610Y-55214500D01*
X208718390Y-55214500D01*
X208718388Y-55214500D01*
X208508804Y-55253677D01*
X208309978Y-55330703D01*
X208128699Y-55442946D01*
X207971125Y-55586595D01*
X207842634Y-55756743D01*
X207749206Y-55944375D01*
X207747595Y-55947611D01*
X207689244Y-56152690D01*
X207669571Y-56365000D01*
X207440429Y-56365000D01*
X207420756Y-56152690D01*
X207362405Y-55947611D01*
X207267366Y-55756745D01*
X207267365Y-55756744D01*
X207267365Y-55756743D01*
X207138874Y-55586595D01*
X206981300Y-55442946D01*
X206800021Y-55330703D01*
X206800019Y-55330702D01*
X206757898Y-55314384D01*
X206601195Y-55253677D01*
X206391612Y-55214500D01*
X206391610Y-55214500D01*
X206178390Y-55214500D01*
X206178388Y-55214500D01*
X205968804Y-55253677D01*
X205769978Y-55330703D01*
X205588699Y-55442946D01*
X205431125Y-55586595D01*
X205302634Y-55756743D01*
X205209206Y-55944375D01*
X205207595Y-55947611D01*
X205149244Y-56152690D01*
X205129571Y-56365000D01*
X204900429Y-56365000D01*
X204880756Y-56152690D01*
X204822405Y-55947611D01*
X204727366Y-55756745D01*
X204727365Y-55756744D01*
X204727365Y-55756743D01*
X204598874Y-55586595D01*
X204441300Y-55442946D01*
X204260021Y-55330703D01*
X204260019Y-55330702D01*
X204217898Y-55314384D01*
X204061195Y-55253677D01*
X203851612Y-55214500D01*
X203851610Y-55214500D01*
X203638390Y-55214500D01*
X203638388Y-55214500D01*
X203428804Y-55253677D01*
X203229978Y-55330703D01*
X203048699Y-55442946D01*
X202891125Y-55586595D01*
X202762634Y-55756743D01*
X202669206Y-55944375D01*
X202667595Y-55947611D01*
X202609244Y-56152690D01*
X202589571Y-56365000D01*
X202360429Y-56365000D01*
X202340756Y-56152690D01*
X202282405Y-55947611D01*
X202187366Y-55756745D01*
X202187365Y-55756744D01*
X202187365Y-55756743D01*
X202058874Y-55586595D01*
X201901300Y-55442946D01*
X201720021Y-55330703D01*
X201720019Y-55330702D01*
X201677898Y-55314384D01*
X201521195Y-55253677D01*
X201311612Y-55214500D01*
X201311610Y-55214500D01*
X201098390Y-55214500D01*
X201098388Y-55214500D01*
X200888804Y-55253677D01*
X200689978Y-55330703D01*
X200508699Y-55442946D01*
X200351125Y-55586595D01*
X200222634Y-55756743D01*
X200129206Y-55944375D01*
X200127595Y-55947611D01*
X200069244Y-56152690D01*
X200049571Y-56365000D01*
X199820429Y-56365000D01*
X199800756Y-56152690D01*
X199742405Y-55947611D01*
X199647366Y-55756745D01*
X199647365Y-55756744D01*
X199647365Y-55756743D01*
X199518874Y-55586595D01*
X199361300Y-55442946D01*
X199180021Y-55330703D01*
X199180019Y-55330702D01*
X199137898Y-55314384D01*
X198981195Y-55253677D01*
X198771612Y-55214500D01*
X198771610Y-55214500D01*
X198558390Y-55214500D01*
X198558388Y-55214500D01*
X198348804Y-55253677D01*
X198149978Y-55330703D01*
X197968699Y-55442946D01*
X197811125Y-55586595D01*
X197682634Y-55756743D01*
X197589206Y-55944375D01*
X197548426Y-55986920D01*
X197490692Y-55998751D01*
X197436463Y-55975675D01*
X197404958Y-55925870D01*
X197398429Y-55901504D01*
X197298601Y-55687424D01*
X197163112Y-55493925D01*
X196996074Y-55326887D01*
X196802577Y-55191398D01*
X196788260Y-55184722D01*
X196746604Y-55148189D01*
X196731102Y-55094995D01*
X196746608Y-55041803D01*
X196788267Y-55005273D01*
X196802579Y-54998599D01*
X196996074Y-54863112D01*
X197163112Y-54696074D01*
X197298601Y-54502576D01*
X197398429Y-54288494D01*
X197404958Y-54264130D01*
X197436463Y-54214324D01*
X197490691Y-54191248D01*
X197548426Y-54203079D01*
X197589206Y-54245624D01*
X197682634Y-54433256D01*
X197811125Y-54603404D01*
X197811127Y-54603406D01*
X197811128Y-54603407D01*
X197888576Y-54674011D01*
X197968699Y-54747053D01*
X198100622Y-54828736D01*
X198149981Y-54859298D01*
X198306681Y-54920003D01*
X198348804Y-54936322D01*
X198558388Y-54975500D01*
X198558390Y-54975500D01*
X198771610Y-54975500D01*
X198771612Y-54975500D01*
X198981195Y-54936322D01*
X198987558Y-54933857D01*
X199180019Y-54859298D01*
X199361302Y-54747052D01*
X199518872Y-54603407D01*
X199647366Y-54433255D01*
X199742405Y-54242389D01*
X199800756Y-54037310D01*
X199820429Y-53825000D01*
X200049571Y-53825000D01*
X200069244Y-54037310D01*
X200119609Y-54214323D01*
X200127596Y-54242391D01*
X200222634Y-54433256D01*
X200351125Y-54603404D01*
X200351127Y-54603406D01*
X200351128Y-54603407D01*
X200428576Y-54674011D01*
X200508699Y-54747053D01*
X200640622Y-54828736D01*
X200689981Y-54859298D01*
X200846681Y-54920003D01*
X200888804Y-54936322D01*
X201098388Y-54975500D01*
X201098390Y-54975500D01*
X201311610Y-54975500D01*
X201311612Y-54975500D01*
X201521195Y-54936322D01*
X201527558Y-54933857D01*
X201720019Y-54859298D01*
X201901302Y-54747052D01*
X202058872Y-54603407D01*
X202187366Y-54433255D01*
X202282405Y-54242389D01*
X202340756Y-54037310D01*
X202360429Y-53825000D01*
X202589571Y-53825000D01*
X202609244Y-54037310D01*
X202659609Y-54214323D01*
X202667596Y-54242391D01*
X202762634Y-54433256D01*
X202891125Y-54603404D01*
X202891127Y-54603406D01*
X202891128Y-54603407D01*
X202968576Y-54674011D01*
X203048699Y-54747053D01*
X203180622Y-54828736D01*
X203229981Y-54859298D01*
X203386681Y-54920003D01*
X203428804Y-54936322D01*
X203638388Y-54975500D01*
X203638390Y-54975500D01*
X203851610Y-54975500D01*
X203851612Y-54975500D01*
X204061195Y-54936322D01*
X204067558Y-54933857D01*
X204260019Y-54859298D01*
X204441302Y-54747052D01*
X204598872Y-54603407D01*
X204727366Y-54433255D01*
X204822405Y-54242389D01*
X204880756Y-54037310D01*
X204900429Y-53825000D01*
X205129571Y-53825000D01*
X205149244Y-54037310D01*
X205199609Y-54214323D01*
X205207596Y-54242391D01*
X205302634Y-54433256D01*
X205431125Y-54603404D01*
X205431127Y-54603406D01*
X205431128Y-54603407D01*
X205508576Y-54674011D01*
X205588699Y-54747053D01*
X205720622Y-54828736D01*
X205769981Y-54859298D01*
X205926681Y-54920003D01*
X205968804Y-54936322D01*
X206178388Y-54975500D01*
X206178390Y-54975500D01*
X206391610Y-54975500D01*
X206391612Y-54975500D01*
X206601195Y-54936322D01*
X206607558Y-54933857D01*
X206800019Y-54859298D01*
X206981302Y-54747052D01*
X207011128Y-54719862D01*
X207674500Y-54719862D01*
X207674501Y-54719867D01*
X207677415Y-54744991D01*
X207697451Y-54790368D01*
X207722793Y-54847764D01*
X207722794Y-54847765D01*
X207802235Y-54927206D01*
X207905009Y-54972585D01*
X207930135Y-54975500D01*
X209719864Y-54975499D01*
X209744991Y-54972585D01*
X209847765Y-54927206D01*
X209927206Y-54847765D01*
X209972585Y-54744991D01*
X209975500Y-54719865D01*
X209975499Y-52930136D01*
X209972585Y-52905009D01*
X209927206Y-52802235D01*
X209847765Y-52722794D01*
X209847765Y-52722793D01*
X209847764Y-52722793D01*
X209744989Y-52677414D01*
X209719867Y-52674500D01*
X207930137Y-52674500D01*
X207905009Y-52677415D01*
X207802235Y-52722793D01*
X207722793Y-52802235D01*
X207677414Y-52905010D01*
X207674500Y-52930132D01*
X207674500Y-54719862D01*
X207011128Y-54719862D01*
X207138872Y-54603407D01*
X207267366Y-54433255D01*
X207362405Y-54242389D01*
X207420756Y-54037310D01*
X207440429Y-53825000D01*
X207420756Y-53612690D01*
X207362405Y-53407611D01*
X207267366Y-53216745D01*
X207267365Y-53216744D01*
X207267365Y-53216743D01*
X207138874Y-53046595D01*
X207138346Y-53046114D01*
X206981302Y-52902948D01*
X206981300Y-52902946D01*
X206800021Y-52790703D01*
X206800019Y-52790702D01*
X206757898Y-52774384D01*
X206601195Y-52713677D01*
X206391612Y-52674500D01*
X206391610Y-52674500D01*
X206178390Y-52674500D01*
X206178388Y-52674500D01*
X205968804Y-52713677D01*
X205769978Y-52790703D01*
X205588699Y-52902946D01*
X205431125Y-53046595D01*
X205302634Y-53216743D01*
X205209206Y-53404375D01*
X205207595Y-53407611D01*
X205149244Y-53612690D01*
X205129571Y-53825000D01*
X204900429Y-53825000D01*
X204880756Y-53612690D01*
X204822405Y-53407611D01*
X204727366Y-53216745D01*
X204727365Y-53216744D01*
X204727365Y-53216743D01*
X204598874Y-53046595D01*
X204598346Y-53046114D01*
X204441302Y-52902948D01*
X204441300Y-52902946D01*
X204260021Y-52790703D01*
X204260019Y-52790702D01*
X204217898Y-52774384D01*
X204061195Y-52713677D01*
X203851612Y-52674500D01*
X203851610Y-52674500D01*
X203638390Y-52674500D01*
X203638388Y-52674500D01*
X203428804Y-52713677D01*
X203229978Y-52790703D01*
X203048699Y-52902946D01*
X202891125Y-53046595D01*
X202762634Y-53216743D01*
X202669206Y-53404375D01*
X202667595Y-53407611D01*
X202609244Y-53612690D01*
X202589571Y-53825000D01*
X202360429Y-53825000D01*
X202340756Y-53612690D01*
X202282405Y-53407611D01*
X202187366Y-53216745D01*
X202187365Y-53216744D01*
X202187365Y-53216743D01*
X202058874Y-53046595D01*
X202058346Y-53046114D01*
X201901302Y-52902948D01*
X201901300Y-52902946D01*
X201720021Y-52790703D01*
X201720019Y-52790702D01*
X201677898Y-52774384D01*
X201521195Y-52713677D01*
X201311612Y-52674500D01*
X201311610Y-52674500D01*
X201098390Y-52674500D01*
X201098388Y-52674500D01*
X200888804Y-52713677D01*
X200689978Y-52790703D01*
X200508699Y-52902946D01*
X200351125Y-53046595D01*
X200222634Y-53216743D01*
X200129206Y-53404375D01*
X200127595Y-53407611D01*
X200069244Y-53612690D01*
X200049571Y-53825000D01*
X199820429Y-53825000D01*
X199800756Y-53612690D01*
X199742405Y-53407611D01*
X199647366Y-53216745D01*
X199647365Y-53216744D01*
X199647365Y-53216743D01*
X199518874Y-53046595D01*
X199518346Y-53046114D01*
X199361302Y-52902948D01*
X199361300Y-52902946D01*
X199180021Y-52790703D01*
X199180019Y-52790702D01*
X199137898Y-52774384D01*
X198981195Y-52713677D01*
X198771612Y-52674500D01*
X198771610Y-52674500D01*
X198558390Y-52674500D01*
X198558388Y-52674500D01*
X198348804Y-52713677D01*
X198149978Y-52790703D01*
X197968699Y-52902946D01*
X197811125Y-53046595D01*
X197682634Y-53216743D01*
X197589206Y-53404375D01*
X197548426Y-53446920D01*
X197490692Y-53458751D01*
X197436463Y-53435675D01*
X197404958Y-53385870D01*
X197398429Y-53361504D01*
X197298601Y-53147424D01*
X197163112Y-52953925D01*
X196996074Y-52786887D01*
X196802576Y-52651398D01*
X196588495Y-52551570D01*
X196375000Y-52494364D01*
X195875000Y-52494364D01*
X195661505Y-52551570D01*
X195447424Y-52651398D01*
X195253925Y-52786887D01*
X195086887Y-52953925D01*
X194951398Y-53147424D01*
X194851568Y-53361508D01*
X194845040Y-53385872D01*
X194813534Y-53435677D01*
X194759306Y-53458752D01*
X194701573Y-53446920D01*
X194660793Y-53404374D01*
X194659609Y-53401997D01*
X194567366Y-53216745D01*
X194501549Y-53129590D01*
X194438874Y-53046595D01*
X194438346Y-53046114D01*
X194281302Y-52902948D01*
X194281300Y-52902946D01*
X194100021Y-52790703D01*
X194100019Y-52790702D01*
X194057898Y-52774384D01*
X193901195Y-52713677D01*
X193691612Y-52674500D01*
X193691610Y-52674500D01*
X193478390Y-52674500D01*
X193478388Y-52674500D01*
X193268804Y-52713677D01*
X193069978Y-52790703D01*
X192888699Y-52902946D01*
X192731125Y-53046595D01*
X192602634Y-53216743D01*
X192509206Y-53404375D01*
X192507595Y-53407611D01*
X192449244Y-53612690D01*
X192429571Y-53825000D01*
X192449244Y-54037310D01*
X192499609Y-54214323D01*
X192507596Y-54242391D01*
X192602634Y-54433256D01*
X192731125Y-54603404D01*
X192731127Y-54603406D01*
X192731128Y-54603407D01*
X192808576Y-54674011D01*
X192888699Y-54747053D01*
X193020622Y-54828736D01*
X193069981Y-54859298D01*
X193226681Y-54920003D01*
X193268804Y-54936322D01*
X193478388Y-54975500D01*
X193478390Y-54975500D01*
X193691610Y-54975500D01*
X193691612Y-54975500D01*
X193901195Y-54936322D01*
X193907558Y-54933857D01*
X194100019Y-54859298D01*
X194281302Y-54747052D01*
X194438872Y-54603407D01*
X194567366Y-54433255D01*
X194660795Y-54245621D01*
X194701573Y-54203079D01*
X194759306Y-54191247D01*
X194813534Y-54214323D01*
X194845040Y-54264127D01*
X194851569Y-54288492D01*
X194951398Y-54502576D01*
X195086887Y-54696074D01*
X195253925Y-54863112D01*
X195447418Y-54998598D01*
X195461737Y-55005275D01*
X195503393Y-55041807D01*
X195518898Y-55094999D01*
X195503394Y-55148192D01*
X195461738Y-55184724D01*
X195447422Y-55191399D01*
X195253925Y-55326887D01*
X195086887Y-55493925D01*
X194951398Y-55687424D01*
X194851568Y-55901508D01*
X194845040Y-55925872D01*
X194813534Y-55975677D01*
X194759306Y-55998752D01*
X194701573Y-55986920D01*
X194660793Y-55944374D01*
X194567366Y-55756745D01*
X194438874Y-55586595D01*
X194281300Y-55442946D01*
X194100021Y-55330703D01*
X194100019Y-55330702D01*
X194057898Y-55314384D01*
X193901195Y-55253677D01*
X193691612Y-55214500D01*
X193691610Y-55214500D01*
X193478390Y-55214500D01*
X193478388Y-55214500D01*
X193268804Y-55253677D01*
X193069978Y-55330703D01*
X192888699Y-55442946D01*
X192731125Y-55586595D01*
X192602634Y-55756743D01*
X192509206Y-55944375D01*
X192507595Y-55947611D01*
X192449244Y-56152690D01*
X192429571Y-56365000D01*
X190180429Y-56365000D01*
X190160756Y-56152690D01*
X190102405Y-55947611D01*
X190007366Y-55756745D01*
X190007365Y-55756744D01*
X190007365Y-55756743D01*
X189878874Y-55586595D01*
X189721300Y-55442946D01*
X189540021Y-55330703D01*
X189540019Y-55330702D01*
X189497898Y-55314384D01*
X189341195Y-55253677D01*
X189131612Y-55214500D01*
X189131610Y-55214500D01*
X188918390Y-55214500D01*
X188918388Y-55214500D01*
X188708804Y-55253677D01*
X188509978Y-55330703D01*
X188328699Y-55442946D01*
X188171125Y-55586595D01*
X188042634Y-55756743D01*
X187949206Y-55944375D01*
X187947595Y-55947611D01*
X187889244Y-56152690D01*
X187869571Y-56365000D01*
X187640429Y-56365000D01*
X187620756Y-56152690D01*
X187562405Y-55947611D01*
X187467366Y-55756745D01*
X187467365Y-55756744D01*
X187467365Y-55756743D01*
X187338874Y-55586595D01*
X187181300Y-55442946D01*
X187000021Y-55330703D01*
X187000019Y-55330702D01*
X186957898Y-55314384D01*
X186801195Y-55253677D01*
X186591612Y-55214500D01*
X186591610Y-55214500D01*
X186378390Y-55214500D01*
X186378388Y-55214500D01*
X186168804Y-55253677D01*
X185969978Y-55330703D01*
X185788699Y-55442946D01*
X185631125Y-55586595D01*
X185502634Y-55756743D01*
X185409206Y-55944375D01*
X185407595Y-55947611D01*
X185349244Y-56152690D01*
X185329571Y-56365000D01*
X185100429Y-56365000D01*
X185080756Y-56152690D01*
X185022405Y-55947611D01*
X184927366Y-55756745D01*
X184927365Y-55756744D01*
X184927365Y-55756743D01*
X184798874Y-55586595D01*
X184641300Y-55442946D01*
X184460021Y-55330703D01*
X184460019Y-55330702D01*
X184417898Y-55314384D01*
X184261195Y-55253677D01*
X184051612Y-55214500D01*
X184051610Y-55214500D01*
X183838390Y-55214500D01*
X183838388Y-55214500D01*
X183628804Y-55253677D01*
X183429978Y-55330703D01*
X183248699Y-55442946D01*
X183091125Y-55586595D01*
X182962634Y-55756743D01*
X182869206Y-55944375D01*
X182867595Y-55947611D01*
X182809244Y-56152690D01*
X182789571Y-56365000D01*
X182560429Y-56365000D01*
X182540756Y-56152690D01*
X182482405Y-55947611D01*
X182387366Y-55756745D01*
X182387365Y-55756744D01*
X182387365Y-55756743D01*
X182258874Y-55586595D01*
X182101300Y-55442946D01*
X181920021Y-55330703D01*
X181920019Y-55330702D01*
X181877898Y-55314384D01*
X181721195Y-55253677D01*
X181511612Y-55214500D01*
X181511610Y-55214500D01*
X181298390Y-55214500D01*
X181298388Y-55214500D01*
X181088804Y-55253677D01*
X180889978Y-55330703D01*
X180708699Y-55442946D01*
X180551125Y-55586595D01*
X180422634Y-55756743D01*
X180329206Y-55944375D01*
X180327595Y-55947611D01*
X180269244Y-56152690D01*
X180249571Y-56365000D01*
X180020429Y-56365000D01*
X180000756Y-56152690D01*
X179942405Y-55947611D01*
X179847366Y-55756745D01*
X179847365Y-55756744D01*
X179847365Y-55756743D01*
X179718874Y-55586595D01*
X179561300Y-55442946D01*
X179380021Y-55330703D01*
X179380019Y-55330702D01*
X179337898Y-55314384D01*
X179181195Y-55253677D01*
X178971612Y-55214500D01*
X178971610Y-55214500D01*
X178758390Y-55214500D01*
X178758388Y-55214500D01*
X178548804Y-55253677D01*
X178349978Y-55330703D01*
X178168699Y-55442946D01*
X178011125Y-55586595D01*
X177882634Y-55756743D01*
X177789206Y-55944375D01*
X177748426Y-55986920D01*
X177690692Y-55998751D01*
X177636463Y-55975675D01*
X177604958Y-55925870D01*
X177598429Y-55901504D01*
X177498601Y-55687424D01*
X177363112Y-55493925D01*
X177196074Y-55326887D01*
X177002576Y-55191398D01*
X176788491Y-55091568D01*
X176757301Y-55083211D01*
X176706035Y-55049946D01*
X176684069Y-54992918D01*
X176699773Y-54933857D01*
X176747162Y-54895270D01*
X176840019Y-54859298D01*
X177021302Y-54747052D01*
X177178872Y-54603407D01*
X177307366Y-54433255D01*
X177402405Y-54242389D01*
X177460756Y-54037310D01*
X177480429Y-53825000D01*
X177709571Y-53825000D01*
X177729244Y-54037310D01*
X177779609Y-54214323D01*
X177787596Y-54242391D01*
X177882634Y-54433256D01*
X178011125Y-54603404D01*
X178011127Y-54603406D01*
X178011128Y-54603407D01*
X178088576Y-54674011D01*
X178168699Y-54747053D01*
X178300622Y-54828736D01*
X178349981Y-54859298D01*
X178506681Y-54920003D01*
X178548804Y-54936322D01*
X178758388Y-54975500D01*
X178758390Y-54975500D01*
X178971610Y-54975500D01*
X178971612Y-54975500D01*
X179181195Y-54936322D01*
X179187558Y-54933857D01*
X179380019Y-54859298D01*
X179561302Y-54747052D01*
X179718872Y-54603407D01*
X179847366Y-54433255D01*
X179942405Y-54242389D01*
X180000756Y-54037310D01*
X180020429Y-53825000D01*
X180249571Y-53825000D01*
X180269244Y-54037310D01*
X180319609Y-54214323D01*
X180327596Y-54242391D01*
X180422634Y-54433256D01*
X180551125Y-54603404D01*
X180551127Y-54603406D01*
X180551128Y-54603407D01*
X180628576Y-54674011D01*
X180708699Y-54747053D01*
X180840622Y-54828736D01*
X180889981Y-54859298D01*
X181046681Y-54920003D01*
X181088804Y-54936322D01*
X181298388Y-54975500D01*
X181298390Y-54975500D01*
X181511610Y-54975500D01*
X181511612Y-54975500D01*
X181721195Y-54936322D01*
X181727558Y-54933857D01*
X181920019Y-54859298D01*
X182101302Y-54747052D01*
X182258872Y-54603407D01*
X182387366Y-54433255D01*
X182482405Y-54242389D01*
X182540756Y-54037310D01*
X182560429Y-53825000D01*
X182789571Y-53825000D01*
X182809244Y-54037310D01*
X182859609Y-54214323D01*
X182867596Y-54242391D01*
X182962634Y-54433256D01*
X183091125Y-54603404D01*
X183091127Y-54603406D01*
X183091128Y-54603407D01*
X183168576Y-54674011D01*
X183248699Y-54747053D01*
X183380622Y-54828736D01*
X183429981Y-54859298D01*
X183586681Y-54920003D01*
X183628804Y-54936322D01*
X183838388Y-54975500D01*
X183838390Y-54975500D01*
X184051610Y-54975500D01*
X184051612Y-54975500D01*
X184261195Y-54936322D01*
X184267558Y-54933857D01*
X184460019Y-54859298D01*
X184641302Y-54747052D01*
X184798872Y-54603407D01*
X184927366Y-54433255D01*
X185022405Y-54242389D01*
X185080756Y-54037310D01*
X185100429Y-53825000D01*
X185329571Y-53825000D01*
X185349244Y-54037310D01*
X185399609Y-54214323D01*
X185407596Y-54242391D01*
X185502634Y-54433256D01*
X185631125Y-54603404D01*
X185631127Y-54603406D01*
X185631128Y-54603407D01*
X185708576Y-54674011D01*
X185788699Y-54747053D01*
X185920622Y-54828736D01*
X185969981Y-54859298D01*
X186126681Y-54920003D01*
X186168804Y-54936322D01*
X186378388Y-54975500D01*
X186378390Y-54975500D01*
X186591610Y-54975500D01*
X186591612Y-54975500D01*
X186801195Y-54936322D01*
X186807558Y-54933857D01*
X187000019Y-54859298D01*
X187181302Y-54747052D01*
X187211128Y-54719862D01*
X187874500Y-54719862D01*
X187874501Y-54719867D01*
X187877415Y-54744991D01*
X187897451Y-54790368D01*
X187922793Y-54847764D01*
X187922794Y-54847765D01*
X188002235Y-54927206D01*
X188105009Y-54972585D01*
X188130135Y-54975500D01*
X189919864Y-54975499D01*
X189944991Y-54972585D01*
X190047765Y-54927206D01*
X190127206Y-54847765D01*
X190172585Y-54744991D01*
X190175500Y-54719865D01*
X190175499Y-52930136D01*
X190172585Y-52905009D01*
X190127206Y-52802235D01*
X190047765Y-52722794D01*
X190047765Y-52722793D01*
X190047764Y-52722793D01*
X189944989Y-52677414D01*
X189919867Y-52674500D01*
X188130137Y-52674500D01*
X188105009Y-52677415D01*
X188002235Y-52722793D01*
X187922793Y-52802235D01*
X187877414Y-52905010D01*
X187874500Y-52930132D01*
X187874500Y-54719862D01*
X187211128Y-54719862D01*
X187338872Y-54603407D01*
X187467366Y-54433255D01*
X187562405Y-54242389D01*
X187620756Y-54037310D01*
X187640429Y-53825000D01*
X187620756Y-53612690D01*
X187562405Y-53407611D01*
X187467366Y-53216745D01*
X187467365Y-53216744D01*
X187467365Y-53216743D01*
X187338874Y-53046595D01*
X187338346Y-53046114D01*
X187181302Y-52902948D01*
X187181300Y-52902946D01*
X187000021Y-52790703D01*
X187000019Y-52790702D01*
X186957898Y-52774384D01*
X186801195Y-52713677D01*
X186591612Y-52674500D01*
X186591610Y-52674500D01*
X186378390Y-52674500D01*
X186378388Y-52674500D01*
X186168804Y-52713677D01*
X185969978Y-52790703D01*
X185788699Y-52902946D01*
X185631125Y-53046595D01*
X185502634Y-53216743D01*
X185409206Y-53404375D01*
X185407595Y-53407611D01*
X185349244Y-53612690D01*
X185329571Y-53825000D01*
X185100429Y-53825000D01*
X185080756Y-53612690D01*
X185022405Y-53407611D01*
X184927366Y-53216745D01*
X184927365Y-53216744D01*
X184927365Y-53216743D01*
X184798874Y-53046595D01*
X184798346Y-53046114D01*
X184641302Y-52902948D01*
X184641300Y-52902946D01*
X184460021Y-52790703D01*
X184460019Y-52790702D01*
X184417898Y-52774384D01*
X184261195Y-52713677D01*
X184051612Y-52674500D01*
X184051610Y-52674500D01*
X183838390Y-52674500D01*
X183838388Y-52674500D01*
X183628804Y-52713677D01*
X183429978Y-52790703D01*
X183248699Y-52902946D01*
X183091125Y-53046595D01*
X182962634Y-53216743D01*
X182869206Y-53404375D01*
X182867595Y-53407611D01*
X182809244Y-53612690D01*
X182789571Y-53825000D01*
X182560429Y-53825000D01*
X182540756Y-53612690D01*
X182482405Y-53407611D01*
X182387366Y-53216745D01*
X182387365Y-53216744D01*
X182387365Y-53216743D01*
X182258874Y-53046595D01*
X182258346Y-53046114D01*
X182101302Y-52902948D01*
X182101300Y-52902946D01*
X181920021Y-52790703D01*
X181920019Y-52790702D01*
X181877898Y-52774384D01*
X181721195Y-52713677D01*
X181511612Y-52674500D01*
X181511610Y-52674500D01*
X181298390Y-52674500D01*
X181298388Y-52674500D01*
X181088804Y-52713677D01*
X180889978Y-52790703D01*
X180708699Y-52902946D01*
X180551125Y-53046595D01*
X180422634Y-53216743D01*
X180329206Y-53404375D01*
X180327595Y-53407611D01*
X180269244Y-53612690D01*
X180249571Y-53825000D01*
X180020429Y-53825000D01*
X180000756Y-53612690D01*
X179942405Y-53407611D01*
X179847366Y-53216745D01*
X179847365Y-53216744D01*
X179847365Y-53216743D01*
X179718874Y-53046595D01*
X179718346Y-53046114D01*
X179561302Y-52902948D01*
X179561300Y-52902946D01*
X179380021Y-52790703D01*
X179380019Y-52790702D01*
X179337898Y-52774384D01*
X179181195Y-52713677D01*
X178971612Y-52674500D01*
X178971610Y-52674500D01*
X178758390Y-52674500D01*
X178758388Y-52674500D01*
X178548804Y-52713677D01*
X178349978Y-52790703D01*
X178168699Y-52902946D01*
X178011125Y-53046595D01*
X177882634Y-53216743D01*
X177789206Y-53404375D01*
X177787595Y-53407611D01*
X177729244Y-53612690D01*
X177709571Y-53825000D01*
X177480429Y-53825000D01*
X177460756Y-53612690D01*
X177402405Y-53407611D01*
X177307366Y-53216745D01*
X177307365Y-53216744D01*
X177307365Y-53216743D01*
X177178874Y-53046595D01*
X177178346Y-53046114D01*
X177021302Y-52902948D01*
X177021300Y-52902946D01*
X176840021Y-52790703D01*
X176840019Y-52790702D01*
X176797898Y-52774384D01*
X176641195Y-52713677D01*
X176431612Y-52674500D01*
X176431610Y-52674500D01*
X176218390Y-52674500D01*
X176218388Y-52674500D01*
X176008804Y-52713677D01*
X175809978Y-52790703D01*
X175628699Y-52902946D01*
X175471125Y-53046595D01*
X175342634Y-53216743D01*
X175249206Y-53404375D01*
X175247595Y-53407611D01*
X175189244Y-53612690D01*
X175169571Y-53825000D01*
X175189244Y-54037310D01*
X175239609Y-54214323D01*
X175247596Y-54242391D01*
X175342634Y-54433256D01*
X175471125Y-54603404D01*
X175471127Y-54603406D01*
X175471128Y-54603407D01*
X175548576Y-54674011D01*
X175628699Y-54747053D01*
X175760622Y-54828736D01*
X175809981Y-54859298D01*
X175902837Y-54895270D01*
X175950226Y-54933857D01*
X175965930Y-54992918D01*
X175943964Y-55049946D01*
X175892698Y-55083211D01*
X175861509Y-55091568D01*
X175647424Y-55191398D01*
X175453925Y-55326887D01*
X175286887Y-55493925D01*
X175151398Y-55687424D01*
X175051568Y-55901508D01*
X175045040Y-55925872D01*
X175013534Y-55975677D01*
X174959306Y-55998752D01*
X174901573Y-55986920D01*
X174860793Y-55944374D01*
X174767366Y-55756745D01*
X174638874Y-55586595D01*
X174481300Y-55442946D01*
X174300021Y-55330703D01*
X174300019Y-55330702D01*
X174257898Y-55314384D01*
X174101195Y-55253677D01*
X173891612Y-55214500D01*
X173891610Y-55214500D01*
X173678390Y-55214500D01*
X173678388Y-55214500D01*
X173468804Y-55253677D01*
X173269978Y-55330703D01*
X173088699Y-55442946D01*
X172931125Y-55586595D01*
X172802634Y-55756743D01*
X172709206Y-55944375D01*
X172707595Y-55947611D01*
X172649244Y-56152690D01*
X172629571Y-56365000D01*
X161900500Y-56365000D01*
X161900500Y-55002586D01*
X161900636Y-54997405D01*
X161904315Y-54927206D01*
X161907494Y-54866552D01*
X161907687Y-54863112D01*
X161918308Y-54673991D01*
X161919366Y-54664094D01*
X161943727Y-54510289D01*
X161943838Y-54509613D01*
X161972319Y-54341985D01*
X161974283Y-54332993D01*
X162015718Y-54178352D01*
X162016143Y-54176825D01*
X162061965Y-54017777D01*
X162064649Y-54009768D01*
X162122676Y-53858604D01*
X162123524Y-53856479D01*
X162136563Y-53825000D01*
X172629571Y-53825000D01*
X172649244Y-54037310D01*
X172699609Y-54214323D01*
X172707596Y-54242391D01*
X172802634Y-54433256D01*
X172931125Y-54603404D01*
X172931127Y-54603406D01*
X172931128Y-54603407D01*
X173008576Y-54674011D01*
X173088699Y-54747053D01*
X173220622Y-54828736D01*
X173269981Y-54859298D01*
X173426681Y-54920003D01*
X173468804Y-54936322D01*
X173678388Y-54975500D01*
X173678390Y-54975500D01*
X173891610Y-54975500D01*
X173891612Y-54975500D01*
X174101195Y-54936322D01*
X174107558Y-54933857D01*
X174300019Y-54859298D01*
X174481302Y-54747052D01*
X174638872Y-54603407D01*
X174767366Y-54433255D01*
X174862405Y-54242389D01*
X174920756Y-54037310D01*
X174940429Y-53825000D01*
X174920756Y-53612690D01*
X174862405Y-53407611D01*
X174767366Y-53216745D01*
X174767365Y-53216744D01*
X174767365Y-53216743D01*
X174638874Y-53046595D01*
X174638346Y-53046114D01*
X174481302Y-52902948D01*
X174481300Y-52902946D01*
X174300021Y-52790703D01*
X174300019Y-52790702D01*
X174257898Y-52774384D01*
X174101195Y-52713677D01*
X173891612Y-52674500D01*
X173891610Y-52674500D01*
X173678390Y-52674500D01*
X173678388Y-52674500D01*
X173468804Y-52713677D01*
X173269978Y-52790703D01*
X173088699Y-52902946D01*
X172931125Y-53046595D01*
X172802634Y-53216743D01*
X172709206Y-53404375D01*
X172707595Y-53407611D01*
X172649244Y-53612690D01*
X172629571Y-53825000D01*
X162136563Y-53825000D01*
X162186166Y-53705250D01*
X162189401Y-53698231D01*
X162263300Y-53553195D01*
X162264791Y-53550388D01*
X162343493Y-53407988D01*
X162347063Y-53402037D01*
X162435995Y-53265095D01*
X162438222Y-53261816D01*
X162532059Y-53129564D01*
X162535843Y-53124576D01*
X162638763Y-52997480D01*
X162641809Y-52993901D01*
X162749708Y-52873162D01*
X162753453Y-52869199D01*
X162869199Y-52753453D01*
X162873162Y-52749708D01*
X162993901Y-52641809D01*
X162997480Y-52638763D01*
X163124585Y-52535835D01*
X163129564Y-52532059D01*
X163261816Y-52438222D01*
X163265095Y-52435995D01*
X163402037Y-52347063D01*
X163407988Y-52343493D01*
X163550388Y-52264791D01*
X163553195Y-52263300D01*
X163698231Y-52189401D01*
X163705250Y-52186166D01*
X163856479Y-52123524D01*
X163858604Y-52122676D01*
X164009768Y-52064649D01*
X164017777Y-52061965D01*
X164176825Y-52016143D01*
X164178352Y-52015718D01*
X164332993Y-51974283D01*
X164341985Y-51972319D01*
X164509613Y-51943838D01*
X164510289Y-51943727D01*
X164664094Y-51919366D01*
X164673991Y-51918308D01*
X164866484Y-51907497D01*
X164997404Y-51900636D01*
X165002586Y-51900500D01*
X244997414Y-51900500D01*
X245002595Y-51900636D01*
G37*
%TD.AperFunction*%
%TD*%
M02*
