%TF.GenerationSoftware,KiCad,Pcbnew,7.0.1*%
%TF.CreationDate,2024-02-21T01:36:57-05:00*%
%TF.ProjectId,12-30-23-Teacup.kicad_pcb-revC,31322d33-302d-4323-932d-546561637570,B*%
%TF.SameCoordinates,Original*%
%TF.FileFunction,Other,Comment*%
%FSLAX46Y46*%
G04 Gerber Fmt 4.6, Leading zero omitted, Abs format (unit mm)*
G04 Created by KiCad (PCBNEW 7.0.1) date 2024-02-21 01:36:57*
%MOMM*%
%LPD*%
G01*
G04 APERTURE LIST*
%ADD10C,0.100000*%
%ADD11C,0.060000*%
%ADD12C,0.150000*%
G04 APERTURE END LIST*
D10*
%TO.C,J2*%
X240697619Y-86190237D02*
X239697619Y-86190237D01*
X240697619Y-85618809D02*
X240126190Y-86047380D01*
X239697619Y-85618809D02*
X240269047Y-86190237D01*
X240173809Y-85190237D02*
X240173809Y-84856904D01*
X240697619Y-84714047D02*
X240697619Y-85190237D01*
X240697619Y-85190237D02*
X239697619Y-85190237D01*
X239697619Y-85190237D02*
X239697619Y-84714047D01*
X240173809Y-84285475D02*
X240173809Y-83952142D01*
X240697619Y-83809285D02*
X240697619Y-84285475D01*
X240697619Y-84285475D02*
X239697619Y-84285475D01*
X239697619Y-84285475D02*
X239697619Y-83809285D01*
X240697619Y-83380713D02*
X239697619Y-83380713D01*
X239697619Y-83380713D02*
X239697619Y-82999761D01*
X239697619Y-82999761D02*
X239745238Y-82904523D01*
X239745238Y-82904523D02*
X239792857Y-82856904D01*
X239792857Y-82856904D02*
X239888095Y-82809285D01*
X239888095Y-82809285D02*
X240030952Y-82809285D01*
X240030952Y-82809285D02*
X240126190Y-82856904D01*
X240126190Y-82856904D02*
X240173809Y-82904523D01*
X240173809Y-82904523D02*
X240221428Y-82999761D01*
X240221428Y-82999761D02*
X240221428Y-83380713D01*
X239697619Y-82190237D02*
X239697619Y-81999761D01*
X239697619Y-81999761D02*
X239745238Y-81904523D01*
X239745238Y-81904523D02*
X239840476Y-81809285D01*
X239840476Y-81809285D02*
X240030952Y-81761666D01*
X240030952Y-81761666D02*
X240364285Y-81761666D01*
X240364285Y-81761666D02*
X240554761Y-81809285D01*
X240554761Y-81809285D02*
X240650000Y-81904523D01*
X240650000Y-81904523D02*
X240697619Y-81999761D01*
X240697619Y-81999761D02*
X240697619Y-82190237D01*
X240697619Y-82190237D02*
X240650000Y-82285475D01*
X240650000Y-82285475D02*
X240554761Y-82380713D01*
X240554761Y-82380713D02*
X240364285Y-82428332D01*
X240364285Y-82428332D02*
X240030952Y-82428332D01*
X240030952Y-82428332D02*
X239840476Y-82380713D01*
X239840476Y-82380713D02*
X239745238Y-82285475D01*
X239745238Y-82285475D02*
X239697619Y-82190237D01*
X239697619Y-81333094D02*
X240507142Y-81333094D01*
X240507142Y-81333094D02*
X240602380Y-81285475D01*
X240602380Y-81285475D02*
X240650000Y-81237856D01*
X240650000Y-81237856D02*
X240697619Y-81142618D01*
X240697619Y-81142618D02*
X240697619Y-80952142D01*
X240697619Y-80952142D02*
X240650000Y-80856904D01*
X240650000Y-80856904D02*
X240602380Y-80809285D01*
X240602380Y-80809285D02*
X240507142Y-80761666D01*
X240507142Y-80761666D02*
X239697619Y-80761666D01*
X239697619Y-80428332D02*
X239697619Y-79856904D01*
X240697619Y-80142618D02*
X239697619Y-80142618D01*
D11*
X236145047Y-84783095D02*
X235745047Y-84783095D01*
X236145047Y-84554524D02*
X235916476Y-84725953D01*
X235745047Y-84554524D02*
X235973619Y-84783095D01*
X235935523Y-84383095D02*
X235935523Y-84249762D01*
X236145047Y-84192619D02*
X236145047Y-84383095D01*
X236145047Y-84383095D02*
X235745047Y-84383095D01*
X235745047Y-84383095D02*
X235745047Y-84192619D01*
X235935523Y-84021190D02*
X235935523Y-83887857D01*
X236145047Y-83830714D02*
X236145047Y-84021190D01*
X236145047Y-84021190D02*
X235745047Y-84021190D01*
X235745047Y-84021190D02*
X235745047Y-83830714D01*
X236145047Y-83659285D02*
X235745047Y-83659285D01*
X235745047Y-83659285D02*
X235745047Y-83506904D01*
X235745047Y-83506904D02*
X235764095Y-83468809D01*
X235764095Y-83468809D02*
X235783142Y-83449762D01*
X235783142Y-83449762D02*
X235821238Y-83430714D01*
X235821238Y-83430714D02*
X235878380Y-83430714D01*
X235878380Y-83430714D02*
X235916476Y-83449762D01*
X235916476Y-83449762D02*
X235935523Y-83468809D01*
X235935523Y-83468809D02*
X235954571Y-83506904D01*
X235954571Y-83506904D02*
X235954571Y-83659285D01*
X235745047Y-83183095D02*
X235745047Y-83106904D01*
X235745047Y-83106904D02*
X235764095Y-83068809D01*
X235764095Y-83068809D02*
X235802190Y-83030714D01*
X235802190Y-83030714D02*
X235878380Y-83011666D01*
X235878380Y-83011666D02*
X236011714Y-83011666D01*
X236011714Y-83011666D02*
X236087904Y-83030714D01*
X236087904Y-83030714D02*
X236126000Y-83068809D01*
X236126000Y-83068809D02*
X236145047Y-83106904D01*
X236145047Y-83106904D02*
X236145047Y-83183095D01*
X236145047Y-83183095D02*
X236126000Y-83221190D01*
X236126000Y-83221190D02*
X236087904Y-83259285D01*
X236087904Y-83259285D02*
X236011714Y-83278333D01*
X236011714Y-83278333D02*
X235878380Y-83278333D01*
X235878380Y-83278333D02*
X235802190Y-83259285D01*
X235802190Y-83259285D02*
X235764095Y-83221190D01*
X235764095Y-83221190D02*
X235745047Y-83183095D01*
X235745047Y-82840237D02*
X236068857Y-82840237D01*
X236068857Y-82840237D02*
X236106952Y-82821190D01*
X236106952Y-82821190D02*
X236126000Y-82802142D01*
X236126000Y-82802142D02*
X236145047Y-82764047D01*
X236145047Y-82764047D02*
X236145047Y-82687856D01*
X236145047Y-82687856D02*
X236126000Y-82649761D01*
X236126000Y-82649761D02*
X236106952Y-82630714D01*
X236106952Y-82630714D02*
X236068857Y-82611666D01*
X236068857Y-82611666D02*
X235745047Y-82611666D01*
X235745047Y-82478332D02*
X235745047Y-82249761D01*
X236145047Y-82364047D02*
X235745047Y-82364047D01*
D12*
%TO.C,H4*%
X247700000Y-55000000D02*
G75*
G03*
X247700000Y-55000000I-2700000J0D01*
G01*
%TO.C,H3*%
X247700000Y-105000000D02*
G75*
G03*
X247700000Y-105000000I-2700000J0D01*
G01*
%TO.C,H1*%
X167700000Y-105000000D02*
G75*
G03*
X167700000Y-105000000I-2700000J0D01*
G01*
%TO.C,H2*%
X167700000Y-55000000D02*
G75*
G03*
X167700000Y-55000000I-2700000J0D01*
G01*
%TD*%
M02*
